<svg xmlns="http://www.w3.org/2000/svg" version="1.1" xmlns:xlink="http://www.w3.org/1999/xlink" xmlns:svgjs="http://svgjs.dev/svgjs" viewBox="0 0 800 800"><defs><linearGradient x1="50%" y1="0%" x2="50%" y2="100%" id="ccchaos-grad"><stop stop-color="hsl(206, 75%, 49%)" stop-opacity="1" offset="0%"></stop><stop stop-color="hsl(331, 90%, 56%)" stop-opacity="1" offset="100%"></stop></linearGradient></defs><g stroke-width="2" stroke="url(#ccchaos-grad)" fill="none" stroke-linecap="round"><path d="M388.22 120.14C397.82 116.07 407.52 112.36 417.33 109.35 427.17 106.84 437.14 105.61 447.23 105.83 457.37 107.14 467.67 110.02 478.12 114.36 488.65 119.63 499.35 126.03 510.18 133.26 521.09 140.78 532.13 148.64 543.23 156.57 554.34 164.09 565.43 171.32 576.4 178.16 587.22 184.22 597.76 189.81 607.86 194.98 617.56 199.4 626.61 203.56 634.81 207.59 642.33 211.17 648.79 214.87 654.03 218.81 659.91 224.76 663.66 239.33 661.8 248.18 659.73 254.5 656.88 261.41 653.48 268.85 650.38 276.51 647.32 284.63 644.61 293.13 643.03 301.79 642.33 310.75 642.72 319.93 644.79 329.18 648.14 338.59 652.74 348.08 658.87 357.59 665.93 367.13 673.58 376.65 681.85 386.18 689.72 395.46 696.78 404.48 703.24 413.52 708.15 422.33 711.29 430.96 713.02 439.67 712.68 448.28 710.3 456.85 706.39 465.63 700.63 474.5 693.25 483.56 684.79 492.97 675.18 502.72 664.74 512.87 653.94 523.49 642.8 534.6 631.58 546.19 620.63 558.19 609.93 570.58 599.64 583.21 589.97 595.9 580.81 608.47 572.18 620.63 564.24 632.16 556.75 642.7 549.65 651.88 543.12 659.67 536.81 665.6 530.62 669.41 524.8 671.48 518.93 671.41 512.92 669.3 507.1 666.06 501 661.49 494.59 656.13 488.22 651.2 481.45 646.7 474.27 643.3 467.07 642.05 459.42 642.85 451.32 645.96 443.19 651.78 434.62 659.72 425.62 669.29 416.61 680.17 407.18 691.19 397.37 701.38 387.56 710.2 377.62 716.29 367.61 719.17 357.63 719.13 347.6 715.64 337.57 709.06 327.6 700.22 317.66 689.38 307.81 677.33 298.05 665.02 288.41 652.93 278.97 641.66 269.65 631.92 260.56 623.77 251.77 617.36 243.15 613.01 234.87 610.25 226.99 608.77 219.33 608.75 212.1 609.32 205.35 610.06 195.81 611.49 179.54 609.93 172.79 605.82 168.54 601.85 164.71 596.58 161.3 590.13 157.83 582.93 154.68 574.75 151.82 565.76 148.77 556.26 145.91 546.21 143.23 535.77 140.25 525.08 137.39 514.2 134.67 503.26 131.62 492.23 128.71 481.24 125.97 470.39 122.98 459.53 120.24 448.84 117.81 438.37 115.3 427.92 113.22 417.68 111.66 407.69 110.22 397.7 109.46 388.19 109.41 379.12 109.64 370.03 110.63 361.36 112.38 353.08 114.47 344.74 117.31 336.73 120.85 329.04 124.68 321.2 129.15 313.58 134.18 306.12 139.37 298.42 145.03 290.77 151.08 283.11 157.13 275.09 163.46 266.94 170.01 258.62 176.41 249.88 182.96 240.91 189.62 231.72 196.04 222.18 202.54 212.49 209.11 202.75 215.41 192.91 221.8 183.25 228.29 173.96 234.54 165 240.92 156.73 247.46 149.35 253.82 142.74 260.39 137.28 267.18 133.09 273.85 129.81 280.79 127.8 288 127 295.15 126.77 302.6 127.38 310.36 128.6 318.07 129.64 326.11 130.73 334.46 131.59 342.79 131.5 351.43 130.8 360.4 129.39 369.35 126.82 378.62 123.67 388.21 120.15" stroke-dasharray="0 0" transform="rotate(0, 400, 400)" opacity="0.05"></path><path d="M393.33 131.32C402.67 127.3 412.15 123.62 421.74 120.58 431.36 117.98 441.12 116.58 451.01 116.52 460.94 117.48 471.03 119.93 481.24 123.79 491.5 128.6 501.9 134.54 512.38 141.39 522.9 148.61 533.47 156.29 544.02 164.17 554.52 171.78 564.91 179.24 575.09 186.4 585.05 192.9 594.65 198.98 603.72 204.65 612.37 209.6 620.3 214.24 627.37 218.67 636.47 224.52 647.95 236.28 650.07 242.76 650 249.67 644.51 266.21 640.16 275.88 637.52 282.64 635 289.88 632.87 297.54 631.84 305.31 631.63 313.44 632.44 321.85 634.76 330.33 638.24 339.04 642.82 347.92 648.77 356.83 655.51 365.86 662.77 375 670.59 384.14 678.04 393.16 684.75 402.05 690.94 410.97 695.75 419.8 698.95 428.58 700.92 437.44 701 446.34 699.21 455.31 696.02 464.47 691.08 473.83 684.58 483.43 677.04 493.33 668.32 503.58 658.71 514.2 648.64 525.16 638.11 536.51 627.37 548.18 616.74 560.07 606.21 572.13 595.94 584.18 586.14 596.05 576.73 607.56 567.76 618.4 559.38 628.46 551.41 637.36 543.81 644.82 536.73 650.9 529.91 655.18 523.27 657.5 516.99 658.33 510.75 657.31 504.46 654.61 498.38 651.12 492.13 646.68 485.65 641.77 479.27 637.53 472.57 633.9 465.53 631.44 458.51 631.06 451.11 632.62 443.33 636.27 435.54 642.37 427.35 650.3 418.78 659.62 410.19 670.05 401.23 680.53 391.92 690.2 382.61 698.62 373.19 704.53 363.72 707.52 354.26 707.86 344.78 705.02 335.32 699.26 325.9 691.35 316.54 681.43 307.29 670.18 298.12 658.47 289.1 646.69 280.28 635.43 271.59 625.33 263.14 616.53 254.99 609.21 247.01 603.72 239.38 599.72 232.14 597.02 225.09 595.81 218.46 595.36 212.3 595.33 203.57 596.13 188.68 595.35 182.47 592.54 178.53 589.74 174.97 585.8 171.77 580.77 168.48 575.09 165.47 568.41 162.71 560.89 159.74 552.87 156.93 544.19 154.28 535 151.32 525.52 148.47 515.71 145.73 505.7 142.68 495.56 139.75 485.34 136.99 475.13 133.99 464.89 131.22 454.72 128.76 444.68 126.21 434.65 124.09 424.76 122.47 415.05 120.96 405.34 120.12 396.03 119.97 387.11 120.09 378.15 120.96 369.55 122.56 361.26 124.5 352.9 127.17 344.8 130.54 336.92 134.2 328.89 138.49 320.99 143.35 313.18 148.39 305.13 153.89 297.06 159.8 288.93 165.74 280.48 171.98 271.89 178.45 263.13 184.81 254.04 191.34 244.77 197.99 235.37 204.44 225.74 210.97 216.08 217.57 206.51 223.93 196.99 230.37 187.78 236.89 179.07 243.18 170.8 249.58 163.3 256.11 156.76 262.45 150.99 268.97 146.36 275.68 142.94 282.25 140.35 289.06 138.91 296.12 138.54 303.08 138.61 310.33 139.38 317.85 140.64 325.33 141.62 333.11 142.57 341.19 143.25 349.24 142.99 357.61 142.13 366.3 140.61 374.97 137.99 383.98 134.82 393.32 131.32" stroke-dasharray="0 0" transform="rotate(4.04, 400, 400)" opacity="0.09"></path><path d="M398.86 142.5C407.94 138.53 417.17 134.89 426.51 131.84 435.88 129.17 445.38 127.6 455 127.28 464.65 127.9 474.43 129.94 484.3 133.33 494.2 137.64 504.19 143.1 514.2 149.51 524.2 156.37 534.19 163.78 544.08 171.51 553.87 179.12 563.47 186.69 572.77 194.08 581.82 200.93 590.43 207.45 598.46 213.59 606.05 219.07 612.91 224.22 618.9 229.11 626.49 235.57 635.46 247.86 636.73 254.22 636.22 260.73 630.88 275.83 627.07 284.55 624.91 290.6 622.92 297.11 621.34 304.04 620.82 311.05 621.08 318.45 622.24 326.18 624.8 333.97 628.36 342.05 632.9 350.38 638.65 358.73 645.09 367.31 651.96 376.1 659.35 384.88 666.38 393.67 672.73 402.46 678.65 411.27 683.33 420.12 686.58 429.02 688.73 438.01 689.18 447.13 687.92 456.4 685.39 465.83 681.22 475.51 675.57 485.45 668.92 495.62 661.09 506.1 652.33 516.87 643.05 527.85 633.21 539.09 623.04 550.48 612.85 561.89 602.62 573.27 592.52 584.42 582.75 595.2 573.25 605.4 564.09 614.76 555.41 623.25 547.08 630.5 539.09 636.27 531.57 640.77 524.3 643.58 517.24 644.63 510.54 644.47 503.93 642.76 497.34 639.7 490.97 636.19 484.52 632.04 477.93 627.71 471.45 624.21 464.75 621.46 457.79 619.92 450.87 620.36 443.65 622.6 436.12 626.72 428.59 633.01 420.72 640.89 412.53 649.94 404.33 659.92 395.8 669.87 386.98 679.02 378.15 687.04 369.24 692.78 360.3 695.84 351.38 696.52 342.45 694.27 333.56 689.3 324.72 682.28 315.96 673.28 307.32 662.88 298.76 651.85 290.37 640.51 282.19 629.41 274.13 619.15 266.33 609.88 258.83 601.84 251.48 595.38 244.48 590.27 237.86 586.4 228.38 583.21 211.76 581.28 204.66 580.91 198.13 580.27 187.07 574.78 182.37 569.41 179.24 565.01 176.33 559.68 173.64 553.49 170.73 546.86 167.95 539.52 165.3 531.59 162.36 523.36 159.5 514.69 156.75 505.7 153.69 496.55 150.74 487.21 147.96 477.75 144.95 468.24 142.16 458.69 139.67 449.16 137.11 439.63 134.94 430.15 133.27 420.75 131.71 411.36 130.8 402.26 130.55 393.45 130.56 384.62 131.3 376.05 132.76 367.71 134.54 359.3 137.04 351.06 140.22 342.95 143.69 334.71 147.79 326.53 152.45 318.36 157.3 309.99 162.64 301.55 168.38 293.03 174.17 284.25 180.29 275.34 186.66 266.29 192.95 257.02 199.43 247.64 206.05 238.22 212.49 228.71 219.04 219.29 225.66 210.08 232.07 201.05 238.55 192.46 245.11 184.46 251.45 176.97 257.89 170.32 264.43 164.64 270.79 159.72 277.3 155.9 283.96 153.21 290.49 151.25 297.22 150.31 304.16 150.3 311.01 150.6 318.1 151.48 325.45 152.71 332.74 153.6 340.32 154.39 348.18 154.88 356 154.45 364.13 153.43 372.58 151.8 381 149.13 389.76 145.97 398.85 142.5" stroke-dasharray="0 0" transform="rotate(8.08, 400, 400)" opacity="0.13"></path><path d="M404.45 153.67C413.28 149.78 422.23 146.18 431.28 143.13 440.36 140.4 449.55 138.69 458.83 138.14 468.13 138.43 477.52 140.06 486.96 142.98 496.4 146.79 505.87 151.74 515.31 157.66 524.71 164.1 534.02 171.17 543.17 178.65 552.17 186.14 560.92 193.72 569.29 201.23 577.4 208.34 585.01 215.19 592.02 221.75 598.6 227.72 604.45 233.37 609.45 238.75 615.68 245.91 622.53 259.15 623.16 265.68 622.37 272.11 617.44 286.41 614.23 294.49 612.54 300.02 611.08 305.98 610.03 312.35 609.98 318.75 610.65 325.55 612.14 332.72 614.88 339.91 618.51 347.45 622.98 355.31 628.53 363.18 634.67 371.35 641.16 379.82 648.11 388.29 654.73 396.86 660.74 405.53 666.38 414.22 670.92 423.04 674.16 432 676.46 441.03 677.23 450.24 676.43 459.66 674.51 469.2 671.06 478.98 666.21 489.01 660.41 499.18 653.46 509.59 645.56 520.2 637.1 530.88 628.01 541.66 618.49 552.43 608.84 563.06 599.05 573.47 589.25 583.45 579.65 592.94 570.21 601.7 561.01 609.5 552.18 616.41 543.64 622.06 535.38 626.27 527.52 629.36 519.9 630.92 512.5 630.95 505.43 630.05 498.48 627.89 491.61 624.71 484.96 621.36 478.29 617.65 471.55 613.99 464.95 611.28 458.2 609.41 451.27 608.74 444.4 609.94 437.3 612.77 429.96 617.29 422.64 623.72 415.05 631.5 407.2 640.25 399.34 649.76 391.22 659.19 382.84 667.85 374.47 675.47 366.05 681.01 357.63 684.14 349.24 685.11 340.86 683.4 332.55 679.18 324.29 673.02 316.12 664.93 308.1 655.4 300.16 645.12 292.39 634.33 284.85 623.53 277.42 613.29 270.24 603.75 263.38 595.18 256.65 587.93 250.24 581.86 244.22 576.92 235.56 572.02 220.42 567.25 213.92 566.05 207.9 565.15 197.56 560.69 193.1 556.49 190.07 553.07 187.24 548.82 184.6 543.77 181.72 538.36 178.95 532.23 176.3 525.48 173.35 518.45 170.48 510.9 167.7 502.94 164.63 494.83 161.68 486.4 158.88 477.75 155.86 469.04 153.07 460.17 150.56 451.22 147.98 442.25 145.79 433.22 144.08 424.17 142.48 415.12 141.49 406.26 141.15 397.59 141.07 388.9 141.68 380.36 142.98 371.97 144.6 363.52 146.92 355.16 149.9 346.86 153.17 338.43 157.05 330.02 161.5 321.57 166.15 312.96 171.28 304.26 176.82 295.48 182.45 286.52 188.41 277.46 194.64 268.32 200.84 259.05 207.23 249.77 213.78 240.54 220.2 231.35 226.73 222.36 233.35 213.69 239.79 205.31 246.3 197.46 252.88 190.27 259.27 183.65 265.75 177.88 272.32 173.07 278.71 168.98 285.22 165.92 291.87 163.9 298.39 162.49 305.07 161.98 311.94 162.26 318.71 162.73 325.69 163.65 332.91 164.82 340.06 165.58 347.47 166.19 355.14 166.48 362.77 165.87 370.7 164.7 378.91 162.96 387.11 160.26 395.61 157.11 404.44 153.68" stroke-dasharray="0 0" transform="rotate(12.12, 400, 400)" opacity="0.16"></path><path d="M409.77 164.85C418.32 161.03 426.96 157.49 435.69 154.45 444.43 151.69 453.25 149.85 462.13 149.08 471.02 149.07 479.94 150.3 488.87 152.76 497.79 156.07 506.67 160.49 515.46 165.88 524.18 171.85 532.75 178.5 541.09 185.65 549.27 192.92 557.13 200.39 564.58 207.9 571.75 215.14 578.4 222.23 584.43 229.1 590.06 235.49 594.98 241.6 599.09 247.44 604.14 255.35 609.28 269.79 609.46 276.7 608.56 283.33 604.23 297.44 601.65 305.17 600.44 310.39 599.48 315.99 598.93 321.96 599.32 327.93 600.36 334.28 602.12 341.01 605.02 347.74 608.68 354.85 613.06 362.31 618.4 369.77 624.23 377.59 630.35 385.77 636.89 393.94 643.11 402.29 648.77 410.8 654.13 419.33 658.5 428.05 661.72 436.94 664.13 445.9 665.16 455.06 664.78 464.42 663.39 473.86 660.6 483.52 656.51 493.37 651.52 503.27 645.42 513.32 638.37 523.45 630.75 533.53 622.44 543.57 613.64 553.43 604.63 563.04 595.36 572.26 585.99 580.91 576.7 589 567.47 596.27 558.38 602.52 549.55 607.91 540.93 612.08 532.54 614.93 524.47 616.81 516.62 617.37 508.97 616.64 501.61 615.24 494.39 612.88 487.28 609.78 480.38 606.75 473.51 603.6 466.63 600.67 459.89 598.78 453.07 597.76 446.15 597.9 439.29 599.79 432.28 603.14 425.1 607.98 417.94 614.48 410.58 622.12 403.03 630.54 395.48 639.59 387.72 648.5 379.77 656.67 371.82 663.9 363.88 669.25 355.97 672.4 348.07 673.63 340.23 672.42 332.49 668.89 324.79 663.56 317.21 656.36 309.79 647.72 302.44 638.23 295.28 628.09 288.36 617.72 281.53 607.66 274.96 598.05 268.7 589.15 262.54 581.3 256.7 574.44 251.22 568.59 243.33 562.1 229.49 554.33 223.53 552.04 213.06 548.27 199.55 538.05 195.54 532.15 192.67 527.72 189.91 522.61 187.23 516.87 184.27 510.91 181.39 504.4 178.59 497.41 175.51 490.28 172.55 482.76 169.74 474.92 166.72 467.01 163.93 458.85 161.41 450.5 158.83 442.13 156.63 433.59 154.88 424.92 153.25 416.26 152.21 407.67 151.78 399.17 151.59 390.66 152.08 382.2 153.23 373.81 154.69 365.37 156.82 356.95 159.58 348.53 162.64 340.02 166.3 331.46 170.5 322.86 174.93 314.15 179.83 305.35 185.15 296.49 190.58 287.53 196.36 278.51 202.41 269.48 208.47 260.44 214.74 251.46 221.19 242.63 227.54 233.95 234.03 225.56 240.61 217.59 247.04 209.98 253.56 202.96 260.15 196.66 266.57 190.93 273.07 186.04 279.66 182.09 286.08 178.78 292.61 176.42 299.26 175 305.77 174.06 312.43 173.9 319.24 174.39 325.96 174.96 332.87 175.86 339.98 176.93 347.02 177.53 354.29 177.95 361.79 178.03 369.26 177.24 376.98 175.94 384.98 174.1 392.95 171.37 401.21 168.24 409.76 164.86" stroke-dasharray="0 0" transform="rotate(16.16, 400, 400)" opacity="0.20"></path><path d="M414.48 176.03C422.73 172.3 431.04 168.82 439.4 165.81 447.76 163.02 456.17 161.08 464.59 160.11 473 159.82 481.41 160.68 489.76 162.69 498.09 165.49 506.32 169.38 514.41 174.22 522.41 179.66 530.21 185.83 537.72 192.57 545.06 199.52 552.04 206.77 558.58 214.16 564.85 221.41 570.59 228.62 575.71 235.69 580.49 242.38 584.58 248.86 587.93 255.12 591.99 263.72 595.8 279.49 595.72 286.92 594.84 293.95 591.29 308.37 589.36 316.02 588.37 323.82 589.5 340.99 592.19 350.43 595.2 356.83 598.87 363.6 603.14 370.74 608.26 377.87 613.79 385.38 619.55 393.28 625.68 401.17 631.51 409.27 636.82 417.56 641.9 425.87 646.09 434.39 649.26 443.09 651.74 451.82 652.98 460.76 652.96 469.87 652.05 479 649.86 488.3 646.46 497.7 642.24 507.09 636.95 516.51 630.74 525.9 623.95 535.14 616.45 544.2 608.41 552.96 600.09 561.37 591.44 569.28 582.6 576.53 573.74 583.2 564.84 589 556 593.79 547.32 597.8 538.77 600.69 530.38 602.37 522.24 603.3 514.28 603.11 506.49 601.88 498.95 600.23 491.55 597.87 484.27 595.04 477.18 592.46 470.16 589.95 463.17 587.8 456.31 586.71 449.43 586.51 442.51 587.41 435.65 589.89 428.71 593.69 421.66 598.76 414.64 605.28 407.49 612.74 400.21 620.82 392.94 629.41 385.51 637.8 377.96 645.49 370.41 652.34 362.9 657.47 355.48 660.63 348.06 662.09 340.73 661.33 333.54 658.44 326.37 653.89 319.34 647.56 312.5 639.8 305.71 631.15 299.13 621.72 292.8 611.91 286.52 602.18 280.52 592.67 274.81 583.63 269.18 575.4 263.86 567.95 258.87 561.35 251.65 553.45 238.95 542.74 233.43 539.18 223.55 534.07 210.45 524.24 206.45 519.18 202.19 513.29 193.67 498.3 189.4 489.35 186.32 483.1 183.36 476.41 180.54 469.33 177.54 462.2 174.75 454.73 172.23 446.98 169.67 439.21 167.46 431.18 165.69 422.93 164.03 414.69 162.93 406.42 162.43 398.14 162.15 389.86 162.51 381.56 163.51 373.25 164.81 364.91 166.74 356.53 169.29 348.11 172.12 339.64 175.54 331.1 179.49 322.5 183.67 313.85 188.32 305.14 193.39 296.4 198.59 287.63 204.15 278.87 209.99 270.17 215.87 261.54 221.99 253.06 228.29 244.82 234.54 236.81 240.93 229.16 247.43 222.01 253.83 215.26 260.32 209.13 266.88 203.74 273.3 198.9 279.81 194.87 286.39 191.73 292.83 189.14 299.36 187.4 305.99 186.49 312.51 185.94 319.14 186.03 325.91 186.66 332.59 187.27 339.43 188.11 346.43 189.03 353.38 189.45 360.52 189.66 367.86 189.53 375.17 188.58 382.7 187.14 390.47 185.21 398.22 182.47 406.22 179.36 414.47 176.03" stroke-dasharray="0 0" transform="rotate(20.200000000000003, 400, 400)" opacity="0.24"></path><path d="M418.29 187.21C426.21 183.57 434.16 180.17 442.11 177.2 450.07 174.4 458.01 172.38 465.93 171.23 473.83 170.68 481.67 171.2 489.41 172.77 497.11 175.09 504.67 178.43 512.03 182.72 519.29 187.6 526.3 193.24 532.99 199.48 539.52 206.03 545.65 212.95 551.33 220.11 556.76 227.24 561.67 234.42 565.99 241.56 570 248.44 573.38 255.17 576.09 261.74 579.36 270.94 582.22 287.98 582.03 295.99 581.31 303.54 578.65 318.62 577.37 326.39 577.05 334.21 579.31 351.06 582.33 360.22 585.42 366.4 589.06 372.93 593.22 379.81 598.11 386.68 603.34 393.91 608.74 401.53 614.48 409.14 619.92 416.96 624.9 424.96 629.69 432.97 633.69 441.18 636.79 449.55 639.3 457.93 640.71 466.47 640.99 475.12 640.5 483.76 638.84 492.48 636.07 501.22 632.56 509.87 628.05 518.47 622.64 526.9 616.68 535.13 609.99 543.07 602.74 550.6 595.16 557.75 587.19 564.32 578.95 570.18 570.63 575.48 562.19 579.92 553.71 583.41 545.31 586.23 536.97 588.05 528.72 588.83 520.65 589.06 512.71 588.38 504.91 586.88 497.3 585.2 489.82 583.04 482.46 580.61 475.26 578.6 468.14 576.78 461.1 575.42 454.17 575.11 447.25 575.66 440.35 577.24 433.51 580.25 426.64 584.4 419.72 589.64 412.83 596.12 405.87 603.36 398.84 611.08 391.82 619.2 384.71 627.09 377.52 634.31 370.33 640.78 363.24 645.7 356.26 648.85 349.29 650.49 342.45 650.13 335.76 647.82 329.09 644.01 322.58 638.52 316.28 631.63 310.01 623.83 303.96 615.18 298.16 606.01 292.4 596.74 286.91 587.49 281.7 578.51 276.54 570.1 271.67 562.26 267.11 555.11 262.59 548.83 258.37 543.28 254.46 538.4 248.74 532.62 238.61 524.08 234.12 520.6 229.66 517.51 221.3 510.2 217.29 505.55 213.01 500.34 204.43 487.18 200.13 479.27 197.05 473.74 194.09 467.77 191.27 461.37 188.3 454.92 185.53 448.09 183.02 440.92 180.48 433.73 178.28 426.22 176.5 418.42 174.82 410.62 173.68 402.71 173.1 394.73 172.74 386.75 172.98 378.69 173.83 370.57 174.96 362.43 176.7 354.22 179.02 345.95 181.62 337.66 184.79 329.3 188.47 320.9 192.38 312.49 196.76 304.06 201.56 295.64 206.5 287.26 211.8 278.95 217.41 270.77 223.07 262.74 228.98 254.92 235.1 247.43 241.19 240.2 247.45 233.41 253.83 227.15 260.14 221.3 266.55 216.09 273.04 211.6 279.43 207.62 285.9 204.4 292.44 201.99 298.87 200.04 305.39 198.83 311.98 198.33 318.48 198.08 325.08 198.35 331.78 199.04 338.41 199.62 345.17 200.35 352.07 201.09 358.92 201.33 365.93 201.32 373.11 200.98 380.25 199.86 387.59 198.3 395.12 196.3 402.63 193.54 410.35 190.47 418.28 187.21" stroke-dasharray="0 0" transform="rotate(24.24, 400, 400)" opacity="0.28"></path><path d="M420.96 198.39C428.54 194.85 436.09 191.54 443.6 188.62 451.11 185.83 458.57 183.74 465.95 182.44 473.3 181.67 480.56 181.86 487.66 183.03 494.72 184.87 501.58 187.68 508.22 191.4 514.75 195.7 521 200.77 526.9 206.47 532.65 212.53 538 219.02 542.89 225.84 547.57 232.72 551.74 239.75 555.36 246.82 558.73 253.74 561.53 260.59 563.72 267.34 565.68 273.81 567.07 280.14 567.88 286.33 568.65 295.1 568.01 311.77 567.03 319.86 566.33 327.69 565.99 343.72 566.88 352.09 568.31 357.66 570.19 363.48 572.54 369.58 575.67 375.63 579.28 381.99 583.3 388.65 587.96 395.31 592.88 402.29 597.93 409.61 603.28 416.92 608.36 424.42 613 432.06 617.5 439.7 621.31 447.5 624.3 455.4 626.82 463.3 628.35 471.29 628.88 479.32 628.75 487.31 627.56 495.29 625.37 503.19 622.51 510.97 618.72 518.59 614.08 525.95 608.91 533.08 603.03 539.83 596.56 546.09 589.75 551.99 582.51 557.27 574.94 561.83 567.23 565.9 559.33 569.15 551.33 571.54 543.33 573.4 535.32 574.4 527.34 574.54 519.47 574.31 511.68 573.38 503.98 571.86 496.43 570.33 488.98 568.51 481.64 566.61 474.44 565.22 467.31 564.13 460.27 563.54 453.33 563.98 446.44 565.22 439.59 567.4 432.8 570.84 426.02 575.26 419.24 580.61 412.49 586.99 405.71 593.98 398.92 601.32 392.14 608.98 385.32 616.37 378.48 623.13 371.63 629.23 364.92 633.92 358.36 637.04 351.81 638.83 345.4 638.82 339.18 637.06 332.96 633.93 326.94 629.23 321.12 623.2 315.33 616.25 309.75 608.41 304.43 599.95 299.13 591.27 294.08 582.42 289.31 573.66 284.56 565.27 280.09 557.25 275.89 549.75 271.71 542.94 267.79 536.72 264.15 531.1 258.78 524.04 249.14 513.03 244.79 508.53 240.41 504.65 232.08 496.58 228.04 491.97 223.72 487.04 215.08 475.02 210.76 467.86 207.7 462.88 204.75 457.47 201.95 451.64 199.01 445.78 196.27 439.51 193.79 432.88 191.27 426.23 189.09 419.22 187.3 411.88 185.62 404.53 184.44 397.04 183.8 389.43 183.36 381.82 183.49 374.09 184.19 366.27 185.15 358.46 186.7 350.55 188.8 342.58 191.17 334.63 194.07 326.62 197.47 318.59 201.1 310.6 205.19 302.63 209.69 294.72 214.35 286.91 219.37 279.22 224.69 271.73 230.1 264.43 235.77 257.41 241.65 250.76 247.55 244.41 253.62 238.52 259.83 233.18 266 228.24 272.28 223.93 278.66 220.3 284.96 217.11 291.35 214.63 297.81 212.85 304.19 211.44 310.64 210.67 317.17 210.48 323.61 210.44 330.14 210.81 336.76 211.49 343.32 211.99 349.98 212.57 356.76 213.11 363.49 213.13 370.35 212.91 377.34 212.37 384.31 211.09 391.43 209.42 398.7 207.35 405.95 204.6 413.37 201.57 420.95 198.39" stroke-dasharray="0 0" transform="rotate(28.28, 400, 400)" opacity="0.32"></path><path d="M422.33 209.56C429.53 206.14 436.66 202.93 443.71 200.07 450.76 197.31 457.71 195.18 464.53 193.75 471.33 192.78 477.99 192.68 484.45 193.46 490.87 194.86 497.06 197.16 502.99 200.31 508.83 204.03 514.36 208.5 519.53 213.61 524.57 219.11 529.2 225.1 533.4 231.47 537.42 237.99 540.96 244.72 544 251.59 546.84 258.4 549.18 265.23 550.98 272.02 552.63 278.63 553.78 285.15 554.47 291.56 555.08 297.73 555.3 303.8 555.18 309.79 555.01 318.39 554.35 335.17 554.32 343.52 554.82 348.98 555.56 354.55 556.6 360.26 558.28 365.9 560.35 371.72 562.82 377.74 565.97 383.73 569.5 389.95 573.37 396.43 577.79 402.89 582.41 409.62 587.13 416.63 592.1 423.63 596.81 430.75 601.13 437.96 605.35 445.17 608.94 452.47 611.82 459.8 614.3 467.12 615.92 474.45 616.65 481.73 616.82 488.96 616.05 496.09 614.36 503.05 612.1 509.88 608.96 516.46 605.04 522.71 600.62 528.72 595.52 534.3 589.83 539.36 583.8 544.08 577.31 548.19 570.45 551.62 563.42 554.64 556.14 556.92 548.69 558.45 541.2 559.6 533.63 560.03 526.03 559.78 518.48 559.33 510.96 558.37 503.49 557.01 496.12 555.79 488.82 554.45 481.61 553.15 474.49 552.42 467.45 552.05 460.5 552.2 453.63 553.32 446.82 555.18 440.07 557.86 433.38 561.65 426.72 566.27 420.1 571.64 413.51 577.88 406.93 584.59 400.37 591.55 393.83 598.73 387.29 605.64 380.77 611.96 374.25 617.68 367.89 622.15 361.72 625.2 355.54 627.11 349.54 627.41 343.73 626.13 337.93 623.63 332.33 619.69 326.95 614.47 321.57 608.38 316.42 601.37 311.51 593.68 306.61 585.66 301.95 577.35 297.54 568.96 293.14 560.76 288.99 552.77 285.1 545.12 281.19 537.98 277.52 531.31 274.09 525.12 268.99 517 259.7 503.7 255.43 498.15 251.09 493.33 242.75 484.04 238.66 479.16 234.31 474.18 225.62 462.64 221.3 455.95 218.26 451.34 215.34 446.35 212.56 440.96 209.66 435.55 206.97 429.76 204.52 423.6 202.04 417.43 199.89 410.9 198.11 404.03 196.42 397.15 195.22 390.1 194.52 382.92 194.01 375.74 194.03 368.43 194.59 361.03 195.4 353.65 196.75 346.18 198.62 338.66 200.75 331.18 203.39 323.67 206.5 316.19 209.84 308.77 213.62 301.41 217.81 294.17 222.15 287.07 226.86 280.13 231.88 273.45 236.99 266.98 242.38 260.83 247.99 255.09 253.64 249.64 259.47 244.67 265.46 240.24 271.44 236.18 277.54 232.7 283.75 229.86 289.91 227.38 296.16 225.52 302.49 224.28 308.76 223.3 315.1 222.85 321.51 222.88 327.86 222.96 334.29 223.35 340.78 223.96 347.23 224.34 353.76 224.74 360.38 225.06 366.96 224.86 373.65 224.42 380.43 223.68 387.19 222.27 394.07 220.49 401.05 218.37 408.03 215.64 415.12 212.67 422.32 209.57" stroke-dasharray="0 0" transform="rotate(32.32, 400, 400)" opacity="0.35"></path><path d="M422.31 220.74C429.11 217.44 435.8 214.33 442.38 211.55 448.94 208.84 455.37 206.68 461.64 205.16 467.89 204.01 473.95 203.65 479.8 204.09 485.6 205.06 491.15 206.87 496.42 209.48 501.61 212.61 506.48 216.47 510.99 220.97 515.4 225.87 519.41 231.29 523.01 237.13 526.48 243.18 529.5 249.51 532.08 256.04 534.51 262.6 536.5 269.25 538.03 275.93 539.47 282.52 540.5 289.07 541.14 295.57 541.78 301.9 542.1 308.16 542.16 314.34 542.35 320.34 542.39 326.28 542.34 332.18 542.73 340.8 544.64 357.92 546.5 366.56 548.39 372.27 550.61 378.11 553.16 384.08 556.29 390.02 559.73 396.12 563.44 402.41 567.61 408.68 571.94 415.15 576.32 421.81 580.93 428.48 585.29 435.19 589.29 441.92 593.21 448.64 596.59 455.37 599.34 462.06 601.76 468.73 603.43 475.33 604.31 481.81 604.73 488.22 604.31 494.45 603.07 500.45 601.33 506.31 598.8 511.86 595.53 517.03 591.82 521.99 587.46 526.49 582.53 530.47 577.26 534.17 571.52 537.29 565.4 539.78 559.08 541.97 552.46 543.52 545.64 544.44 538.73 545.12 531.69 545.23 524.57 544.83 517.45 544.38 510.31 543.57 503.18 542.53 496.1 541.74 489.05 540.94 482.07 540.29 475.15 540.23 468.3 540.56 461.52 541.4 454.8 543.12 448.14 545.51 441.56 548.61 435.02 552.66 428.53 557.4 422.1 562.74 415.7 568.79 409.34 575.2 403.03 581.75 396.73 588.47 390.47 594.9 384.26 600.78 378.05 606.13 372.02 610.37 366.2 613.35 357.55 615.63 341.26 611.51 333.64 605.45 328.63 600.19 323.84 594.01 319.28 587.12 314.71 579.84 310.38 572.16 306.28 564.28 302.16 556.44 298.28 548.65 294.62 541.05 290.93 533.8 287.45 526.87 284.18 520.32 280.85 514.25 277.7 508.58 274.74 503.27 270.22 496.19 261.66 483.86 257.55 478.28 253.26 473.08 244.76 462.45 240.52 456.74 236.05 450.87 227.29 437.64 223.11 430.22 220.27 425.15 217.62 419.74 215.22 413.99 212.8 408.23 210.68 402.15 208.92 395.73 207.24 389.32 206.02 382.74 205.27 376.04 204.69 369.34 204.62 362.53 205.05 355.64 205.69 348.78 206.85 341.86 208.51 334.91 210.39 328.02 212.76 321.14 215.59 314.33 218.62 307.6 222.09 300.97 225.94 294.51 229.96 288.2 234.33 282.1 239.01 276.29 243.8 270.7 248.86 265.45 254.16 260.62 259.52 256.06 265.07 251.97 270.78 248.4 276.51 245.13 282.38 242.41 288.36 240.25 294.33 238.37 300.39 237.03 306.52 236.21 312.63 235.55 318.81 235.33 325.04 235.47 331.24 235.59 337.51 235.93 343.84 236.42 350.13 236.64 356.48 236.83 362.9 236.91 369.3 236.5 375.77 235.85 382.3 234.92 388.83 233.38 395.43 231.52 402.1 229.36 408.76 226.66 415.5 223.75 422.3 220.75" stroke-dasharray="0 0" transform="rotate(36.36, 400, 400)" opacity="0.39"></path><path d="M420.9 231.92C427.28 228.74 433.52 225.76 439.61 223.06 445.69 220.41 451.61 218.25 457.34 216.65 468.72 214.48 479.24 215.24 488.65 218.94 497.78 224.54 505.61 232.75 511.95 242.94 517.87 254.13 522.25 266.44 525.05 279.27 527.69 292.02 529.09 304.8 529.53 317.39 530.6 329.49 531.46 341.43 532.53 353.25 535.26 364.7 538.89 376.3 543.55 388.13 546.64 394 549.97 399.97 553.5 406.05 557.42 412.11 561.46 418.3 565.51 424.6 569.77 430.9 573.79 437.17 577.47 443.37 581.11 449.58 584.26 455.71 586.87 461.73 591.23 473.68 592.81 484.98 591.51 495.25 588.51 505.01 582.73 513.29 574.63 519.68 565.28 525.2 554.22 528.61 542.04 529.89 529.41 530.7 516.19 530.07 502.79 528.61 489.44 528.43 476.12 528.99 463.04 531.14 450.12 536.41 437.41 544.07 425 553.89 418.82 559.71 412.71 565.79 406.66 571.93 400.62 578.18 394.64 584.15 388.73 589.6 382.81 594.59 377.11 598.59 371.6 601.48 366.09 603.53 360.79 604.31 355.69 603.84 345.47 600.08 336.07 591.84 327.56 580.23 318.97 566.89 311.21 552.21 304.31 537.35 297.2 523.31 290.8 510.22 285.07 498.35 278.91 488.06 273.2 478.74 267.91 470.05 261.94 462.38 256.22 454.65 250.78 446.5 244.65 438.69 238.85 430.01 233.59 420.32 230.82 415.48 228.23 410.36 225.89 404.96 223.53 399.56 221.46 393.87 219.72 387.91 218.07 381.94 216.84 375.85 216.05 369.65 215.41 363.47 215.25 357.21 215.55 350.9 216.75 338.38 219.87 325.82 224.74 313.59 230.39 301.75 237.62 290.58 246.13 280.54 255.12 271.28 265.12 263.54 275.87 257.66 286.76 252.75 298.19 249.72 309.98 248.55 321.71 247.69 333.75 247.94 345.96 248.82 358.1 248.51 370.46 247.72 382.97 246.08 389.22 244.43 395.51 242.5 401.83 240.32 408.15 237.66 414.51 234.83 420.89 231.92" stroke-dasharray="0 0" transform="rotate(40.400000000000006, 400, 400)" opacity="0.43"></path><path d="M418.2 243.1C430.08 236.87 441.31 231.72 451.75 228.25 462.1 225.79 471.54 225.93 479.88 228.71 487.99 233.19 494.88 240.13 500.41 249.04 505.67 259.02 509.59 270.28 512.2 282.26 514.8 294.42 516.43 306.82 517.33 319.16 518.92 331.24 520.4 343.21 522.11 355.02 525.31 366.56 529.24 378.12 533.99 389.69 540.41 401.18 547.47 412.86 554.71 424.68 562.64 436.49 569.37 447.86 574.41 458.61 578.64 469.23 580.43 478.99 579.71 487.57 577.56 495.74 572.92 502.41 566.12 507.34 558.18 511.69 548.58 514.26 537.78 515.16 526.46 516 514.43 515.88 502.07 515.38 489.65 516.31 477.13 518.11 464.74 521.4 452.45 527.42 440.31 535.41 428.46 545.08 416.68 556.53 405.12 568.11 393.9 578.42 382.67 587.16 372.25 591.97 362.66 592.49 353.02 589.76 344.18 582.96 336.15 572.96 328.02 561.17 320.65 547.79 314.02 533.83 307.16 520.2 300.91 507.07 295.23 494.81 289.12 483.74 283.4 473.53 278.04 463.99 272.07 455.38 266.34 446.94 260.89 438.38 254.85 430.2 249.15 421.47 244 412.06 238.57 402.7 233.97 392.48 230.53 381.41 227.38 370.34 225.9 358.97 226.1 347.56 227 336.27 229.68 325.13 233.99 314.47 239.01 304.18 245.53 294.69 253.29 286.36 261.53 278.7 270.79 272.5 280.8 267.97 291.01 264.15 301.8 261.93 312.95 261.21 324.13 260.5 335.62 260.61 347.25 261.12 358.87 260.38 370.66 259.16 382.51 257.15 394.36 253.18 406.3 248.37 418.18 243.1" stroke-dasharray="0 0" transform="rotate(44.44, 400, 400)" opacity="0.47"></path><path d="M414.36 254.27C425.35 248.35 435.64 243.4 445.1 239.93 454.48 237.25 462.95 236.86 470.36 238.8 477.62 242.23 483.74 247.93 488.66 255.53 493.43 264.22 497.07 274.26 499.63 285.17 502.31 296.46 504.24 308.16 505.62 319.96 507.7 331.69 509.74 343.39 512 354.93 515.56 366.32 519.71 377.63 524.48 388.81 530.63 399.94 537.24 411.05 543.9 422.03 551.15 433.02 557.31 443.33 561.97 452.83 566.02 462.21 567.95 470.6 567.7 477.76 566.27 484.62 562.62 490.06 557.02 493.97 550.4 497.57 542.18 499.74 532.76 500.66 522.8 501.84 512.03 502.45 500.81 502.99 489.45 505 477.87 507.92 466.31 512.17 454.79 518.75 443.36 526.9 432.16 536.29 421 547.07 410.06 557.77 399.44 567.25 388.82 575.36 378.98 580.05 369.93 581 360.82 579.18 352.45 573.71 344.83 565.26 337.08 555.05 330 543.1 323.58 530.29 316.91 517.41 310.76 504.64 305.11 492.38 299.04 480.95 293.31 470.19 287.91 460.07 281.96 450.72 276.25 441.66 270.83 432.7 264.91 424.13 259.35 415.29 254.35 406.07 249.12 396.93 244.68 387.23 241.33 376.96 238.25 366.7 236.71 356.38 236.72 346.22 237.34 336.16 239.59 326.42 243.34 317.31 247.75 308.51 253.55 300.58 260.54 293.81 268 287.57 276.46 282.66 285.66 279.23 295.11 276.23 305.15 274.55 315.58 274.05 326.08 273.34 336.9 273.2 347.86 273.26 358.84 272.1 369.96 270.46 381.08 268.14 392.22 264.08 403.36 259.34 414.36 254.27" stroke-dasharray="0 0" transform="rotate(48.48, 400, 400)" opacity="0.51"></path><path d="M409.62 265.45C419.72 259.85 429.1 255.13 437.65 251.7 446.14 248.88 453.76 248.04 460.39 249.25 466.92 251.7 472.44 256.23 476.93 262.54 481.36 269.88 484.86 278.6 487.48 288.29 490.31 298.46 492.57 309.2 494.42 320.18 496.95 331.25 499.48 342.37 502.19 353.38 506.01 364.34 510.28 375.18 515 385.81 520.86 396.41 527 406.84 533.1 416.96 539.69 427.09 545.28 436.39 549.56 444.77 553.38 453.06 555.38 460.29 555.49 466.35 554.66 472.21 551.88 476.81 547.33 480.12 541.92 483.34 535.01 485.48 526.91 486.73 518.3 488.46 508.82 489.92 498.8 491.53 488.59 494.53 478.06 498.41 467.45 503.42 456.82 510.36 446.19 518.51 435.72 527.53 425.29 537.58 415.01 547.41 405.03 556.07 395.03 563.56 385.75 568.09 377.2 569.39 368.58 568.35 360.64 564.09 353.36 557.11 345.95 548.46 339.11 538.03 332.85 526.53 326.34 514.69 320.28 502.62 314.64 490.76 308.62 479.38 302.9 468.46 297.48 458.07 291.59 448.26 285.94 438.8 280.6 429.58 274.84 420.7 269.46 411.78 264.62 402.74 259.62 393.79 255.38 384.55 252.14 375.05 249.15 365.55 247.57 356.23 247.39 347.26 247.75 338.37 249.6 329.97 252.82 322.28 256.62 314.83 261.72 308.29 267.93 302.85 274.59 297.77 282.2 293.88 290.55 291.25 299.17 288.83 308.38 287.45 317.99 286.97 327.72 286.11 337.77 285.62 347.96 285.22 358.19 283.64 368.55 281.61 378.87 279.02 389.22 274.93 399.53 270.3 409.62 265.45" stroke-dasharray="0 0" transform="rotate(52.52, 400, 400)" opacity="0.54"></path><path d="M404.29 276.63C413.5 271.37 422 266.9 429.73 263.56 437.42 260.67 444.28 259.47 450.28 260.04 456.21 261.64 461.28 265.08 465.47 270.15 469.68 276.15 473.13 283.51 475.9 291.87 478.91 300.77 481.49 310.33 483.78 320.26 486.68 330.38 489.6 340.66 492.65 350.89 496.64 361.15 500.96 371.31 505.55 381.21 511.08 391.12 516.75 400.77 522.29 410.02 528.25 419.28 533.29 427.65 537.18 435.06 541.74 445.6 541.74 461.26 537.1 466.39 532.77 469.55 527.05 471.93 520.21 473.73 512.89 476.12 504.69 478.45 495.89 481.05 486.88 484.91 477.47 489.55 467.86 495.12 458.22 502.22 448.48 510.22 438.83 518.77 429.18 528.07 419.63 537.03 410.29 544.89 400.96 551.77 392.24 556.1 384.16 557.65 376.03 557.29 368.47 554.1 361.5 548.47 354.4 541.34 347.79 532.44 341.66 522.37 335.31 511.78 329.34 500.71 323.73 489.58 317.79 478.65 312.11 467.96 306.73 457.65 300.94 447.74 295.4 438.15 290.19 428.87 284.63 419.86 279.46 410.97 274.83 402.16 270.08 393.44 266.05 384.67 262.95 375.88 260.06 367.1 258.46 358.71 258.13 350.83 258.26 343 259.73 335.78 262.44 329.33 265.66 323.04 270.07 317.64 275.51 313.26 281.36 309.09 288.11 305.94 295.57 303.82 303.31 301.72 311.63 300.43 320.36 299.81 329.23 298.7 338.42 297.82 347.75 296.93 357.16 294.97 366.68 292.62 376.15 289.81 385.65 285.72 395.09 281.24 404.29 276.63" stroke-dasharray="0 0" transform="rotate(56.56, 400, 400)" opacity="0.58"></path><path d="M398.7 287.81C407.02 282.9 414.7 278.71 421.68 275.5 431.74 271.87 448.13 273.28 454.49 278.43 458.56 283.17 462.03 289.17 464.96 296.17 468.16 303.7 471.04 311.96 473.69 320.67 476.89 329.63 480.1 338.84 483.39 348.09 487.44 357.42 491.71 366.69 496.13 375.73 501.29 384.8 506.48 393.6 511.48 401.98 516.83 410.36 521.34 417.88 524.84 424.51 529.08 433.95 529.9 448.26 526.36 453.33 522.97 456.65 518.32 459.45 512.63 461.91 506.52 464.98 499.56 468.13 491.96 471.58 484.15 476.13 475.87 481.32 467.33 487.22 458.72 494.31 449.94 502.01 441.15 510.01 432.35 518.52 423.57 526.63 414.92 533.71 406.27 539.99 398.13 544.07 390.53 545.81 382.89 545.99 375.72 543.74 369.04 539.35 362.25 533.63 355.87 526.24 349.89 517.65 343.72 508.45 337.86 498.59 332.32 488.47 326.5 478.34 320.93 468.23 315.63 458.36 310.01 448.7 304.63 439.3 299.59 430.22 294.29 421.32 289.37 412.62 284.98 404.15 280.5 395.74 276.7 387.46 273.75 379.37 271 371.27 269.4 363.73 268.94 356.81 268.86 349.91 269.99 343.69 272.22 338.25 274.89 332.89 278.64 328.38 283.32 324.76 288.37 321.22 294.26 318.54 300.83 316.69 307.66 314.71 315.05 313.34 322.85 312.45 330.8 311.02 339.06 309.72 347.5 308.38 356 306.08 364.62 303.45 373.21 300.49 381.82 296.46 390.37 292.15 398.7 287.81" stroke-dasharray="0 0" transform="rotate(60.599999999999994, 400, 400)" opacity="0.62"></path><path d="M393.18 298.98C400.65 294.45 407.56 290.56 413.85 287.52 422.96 283.86 438.1 283.74 444.2 287.45 448.17 291.01 451.68 295.73 454.77 301.4 458.12 307.56 461.23 314.45 464.16 321.85 467.56 329.53 470.95 337.53 474.37 345.64 478.4 353.88 482.55 362.12 486.73 370.19 491.5 378.31 496.21 386.2 500.68 393.73 505.43 401.25 509.43 408.02 512.55 414.01 516.43 422.61 517.8 436.19 515.17 441.48 512.57 445.08 508.86 448.36 504.21 451.47 499.21 455.16 493.39 458.99 486.94 463.12 480.29 468.13 473.14 473.65 465.67 479.67 458.11 486.57 450.32 493.85 442.43 501.24 434.53 508.95 426.56 516.21 418.62 522.54 410.69 528.2 403.16 532.02 396.05 533.86 388.91 534.47 382.15 533.03 375.79 529.73 369.33 525.31 363.2 519.35 357.41 512.23 351.46 504.48 345.77 495.98 340.36 487.07 334.72 478 329.31 468.78 324.16 459.65 318.77 450.6 313.63 441.7 308.81 433.07 303.81 424.55 299.18 416.25 295.06 408.24 290.88 400.28 287.33 392.55 284.56 385.13 281.95 377.7 280.37 370.91 279.81 364.8 279.97 355.98 285.89 342.02 291.41 336.95 295.69 333.81 300.74 331.36 306.41 329.56 312.32 327.54 318.78 325.97 325.62 324.74 332.62 322.97 339.93 321.27 347.42 319.52 354.98 316.94 362.67 314.12 370.35 311.07 378.05 307.14 385.71 303.04 393.18 298.98" stroke-dasharray="0 0" transform="rotate(64.64, 400, 400)" opacity="0.66"></path><path d="M388.09 310.16C394.73 306.02 400.9 302.45 406.57 299.62 414.82 296.03 428.86 294.74 434.74 297.23 440.39 301.54 450.44 315.36 455.18 324.22 458.67 330.56 462.14 337.28 465.58 344.2 469.5 351.23 473.44 358.36 477.35 365.41 481.69 372.5 485.92 379.46 489.88 386.15 494.05 392.85 497.55 398.94 500.29 404.41 503.78 412.34 505.47 425.59 503.56 431.22 500.17 436.99 488.57 448.86 480.8 455.6 475.25 460.86 469.18 466.49 462.75 472.42 456.24 478.98 449.44 485.74 442.47 492.44 435.48 499.33 428.35 505.77 421.17 511.36 413.99 516.42 407.09 519.94 400.51 521.82 393.92 522.75 387.6 521.97 381.6 519.61 375.52 516.34 369.7 511.71 364.15 506 358.48 499.7 353.02 492.61 347.81 485.02 342.43 477.2 337.26 469.1 332.34 460.96 327.24 452.79 322.38 444.66 317.85 436.74 313.19 428.85 308.89 421.16 305.07 413.76 301.22 406.39 297.94 399.28 295.37 392.52 292.16 382.71 290.64 366.37 292.31 359.86 295.27 353.98 305.48 345.25 312.42 342.16 317.43 340 322.95 338.17 328.85 336.57 334.88 334.48 341.23 332.42 347.77 330.33 354.37 327.55 361.12 324.61 367.88 321.53 374.67 317.76 381.45 313.92 388.09 310.16" stroke-dasharray="0 0" transform="rotate(68.68, 400, 400)" opacity="0.70"></path><path d="M383.73 321.34C395.41 313.66 405.65 308.56 414.24 306.64 422.98 305.87 430.46 308.96 436.78 315.29 443.91 322.9 450.64 332.97 456.99 344.29 464.77 356.05 472.39 368.31 479.07 380.1 486.42 391.89 491.06 402.01 492.63 410.48 493.44 419.34 490.75 427.39 485.02 435.12 478.47 444.44 469.35 454.59 458.54 465.41 447.48 477.91 435.19 490.17 422.39 500.18 409.59 508.56 397.47 511.44 386.36 509.01 375.04 503.76 364.38 494.18 354.66 482.03 344.47 468.83 334.97 454.53 326.71 440.48 318.11 426.42 310.97 412.9 306.17 400.74 301.81 388.57 300.74 378.78 302.64 371.36 305.42 363.73 311.08 358.11 318.91 354.19 327.39 349.23 337.62 344.9 348.76 340.78 360.13 334.47 372.05 327.76 383.73 321.34" stroke-dasharray="0 0" transform="rotate(72.72, 400, 400)" opacity="0.73"></path><path d="M380.39 332.52C390.52 325.71 399.63 321.09 407.53 319.07 415.58 317.74 422.74 319.56 429.01 324.11 435.93 329.57 442.49 337.28 448.59 346.36 455.71 355.78 462.5 365.99 468.27 376.24 474.54 386.49 478.49 395.79 479.9 404.07 480.84 412.71 478.9 421.01 474.41 429.19 469.35 438.53 462.02 448.45 453.05 458.59 443.88 469.76 433.42 480.42 422.23 489 411.03 496.36 400.18 499.29 390.02 497.95 379.74 494.51 369.93 487.38 360.92 477.85 351.6 467.33 342.92 455.5 335.4 443.54 327.69 431.46 321.3 419.65 316.98 408.87 313 398.1 311.82 389.3 313.17 382.43 315.17 375.32 319.62 369.73 325.97 365.42 332.82 360.17 341.25 355.38 350.59 350.86 360.11 344.66 370.26 338.35 380.39 332.52" stroke-dasharray="0 0" transform="rotate(76.76, 400, 400)" opacity="0.77"></path><path d="M378.27 343.69C386.91 337.78 394.9 333.72 402.06 331.75 409.33 330.14 416.02 331.03 422.04 334.16 428.53 337.87 434.69 343.55 440.34 350.62 446.68 357.93 452.58 366.22 457.46 375 462.7 383.77 465.98 392.19 467.18 400.11 468.12 408.3 466.75 416.48 463.28 424.61 459.44 433.51 453.66 442.76 446.38 451.88 438.94 461.57 430.24 470.62 420.68 477.83 411.11 484.14 401.63 486.98 392.6 486.46 383.5 484.47 374.72 479.45 366.61 472.31 358.31 464.35 350.6 455.01 343.94 445.25 337.18 435.33 331.6 425.36 327.78 416.03 324.23 406.7 323.02 398.83 323.91 392.42 325.24 385.78 328.63 380.23 333.64 375.61 339 370.24 345.76 365.23 353.4 360.55 361.18 354.66 369.63 348.87 378.27 343.69" stroke-dasharray="0 0" transform="rotate(80.80000000000001, 400, 400)" opacity="0.81"></path><path d="M377.5 354.87C384.68 349.89 391.53 346.44 397.84 344.65 404.24 343 410.28 343.28 415.81 345.35 421.65 347.73 427.2 351.77 432.22 357.13 437.68 362.61 442.65 369.18 446.65 376.5 450.91 383.83 453.53 391.24 454.51 398.52 455.35 405.97 454.38 413.59 451.74 421.17 448.88 429.2 444.42 437.38 438.66 445.24 432.79 453.34 425.76 460.77 417.84 466.65 409.92 471.91 401.91 474.52 394.16 474.57 386.39 473.66 378.81 470.38 371.77 465.31 364.65 459.64 358.03 452.66 352.32 445.06 346.59 437.32 341.86 429.26 338.59 421.42 335.51 413.59 334.33 406.68 334.85 400.78 335.66 394.7 338.13 389.32 341.95 384.61 345.99 379.37 351.24 374.42 357.31 369.84 363.47 364.47 370.31 359.33 377.5 354.87" stroke-dasharray="0 0" transform="rotate(84.84, 400, 400)" opacity="0.85"></path><path d="M378.12 366.05C389.64 357.79 400.83 354.95 410.25 357.5 420.42 360.59 429.75 368.8 435.85 380.6 442.56 392.39 443.77 405.72 439.92 418.62 435.64 432.36 426.45 446.04 413.9 455.47 401.34 463.36 388.03 463.19 376.47 456.84 364.82 448.97 354.83 437.05 349.4 424.46 344.46 411.86 345.46 400.93 350.91 392.32 356.86 382.37 366.6 372.96 378.12 366.05" stroke-dasharray="0 0" transform="rotate(88.88, 400, 400)" opacity="0.89"></path><path d="M380.11 377.23C388.79 370.99 397.64 368.76 405.26 370.41 413.27 372.2 420.49 377.89 425.04 386.82 429.92 395.75 430.76 406.36 427.96 416.63 425 427.19 418.4 437.41 409.09 444.29 399.78 450.32 389.66 450.85 380.8 446.97 371.96 442.29 364.37 434.25 360.2 424.8 356.32 415.34 356.76 406.3 360.5 398.7 364.48 390.42 371.43 382.69 380.11 377.23" stroke-dasharray="0 0" transform="rotate(92.92, 400, 400)" opacity="0.92"></path><path d="M383.33 388.4C395 379.85 408.42 382.44 414.23 394.5 420.63 406.55 415.97 423.98 403.72 433.12 391.45 440.76 376.76 434.97 371.01 422.41 365.78 409.84 371.66 395.57 383.33 388.4" stroke-dasharray="0 0" transform="rotate(96.96, 400, 400)" opacity="0.96"></path></g></svg>