<svg xmlns="http://www.w3.org/2000/svg" version="1.1" xmlns:xlink="http://www.w3.org/1999/xlink" xmlns:svgjs="http://svgjs.dev/svgjs" viewBox="0 0 800 800" opacity="0.51"><defs><linearGradient x1="50%" y1="0%" x2="50%" y2="100%" id="wwwhirl-grad"><stop stop-color="hsl(206, 75%, 49%)" stop-opacity="1" offset="45%"></stop><stop stop-color="hsla(358, 79%, 51%, 1)" stop-opacity="1" offset="100%"></stop></linearGradient></defs><g stroke-width="1" stroke="url(#wwwhirl-grad)" fill="none" stroke-linecap="round"><path d="M-8 447.59471588134767C3.3333333333333286 435.12804921468097 60 347.29471588134766 82.66666666666669 347.8613825480143C105.33333333333331 348.428049214681 150.66666666666666 450.853049214681 173.33333333333337 452.12804921468097C196 453.403049214681 241.33333333333337 362.3113825480143 264 358.0613825480143C286.6666666666667 353.8113825480143 332 416.99471588134764 354.6666666666667 418.12804921468097C377.3333333333333 419.2613825480143 422.6666666666667 365.71138254801434 445.33333333333326 367.12804921468097C468 368.54471588134766 513.3333333333334 425.778049214681 536 429.46138254801434C558.6666666666666 433.1447158813477 604 396.7363825480143 626.6666666666666 396.59471588134767C649.3333333333334 396.45304921468096 694.6666666666666 427.33638254801434 717.3333333333334 428.32804921468096C740 429.31971588134763 796.6666666666666 407.50304921468097 808 404.528049214681 " transform="rotate(102, 400, 400)"></path><path d="M4 446.19489059448244C15 434.0948905944824 70 348.8448905944824 92 349.39489059448243C114 349.94489059448244 158 449.3573905944824 180 450.5948905944824C202 451.83239059448243 246 363.4198905944824 268 359.2948905944824C290 355.1698905944824 334 416.4948905944824 356 417.5948905944824C378 418.69489059448244 422 366.7198905944824 444 368.0948905944824C466 369.4698905944824 510 425.01989059448243 532 428.5948905944824C554 432.1698905944824 598 396.83239059448243 620 396.69489059448244C642 396.5573905944824 686 426.5323905944824 708 427.4948905944824C730 428.45739059448243 785 407.2823905944824 796 404.39489059448243 " transform="rotate(99, 400, 400)"></path><path d="M16 444.79503479003904C26.66666666666667 433.06170145670575 80 350.39503479003906 101.33333333333331 350.92836812337237C122.66666666666669 351.4617014567057 165.33333333333334 447.86170145670576 186.66666666666666 449.06170145670575C208 450.26170145670574 250.66666666666663 364.5283681233724 272 360.5283681233724C293.3333333333333 356.5283681233724 336 415.9950347900391 357.3333333333333 417.06170145670575C378.6666666666667 418.1283681233724 421.3333333333333 367.7283681233724 442.6666666666667 369.06170145670575C464 370.39503479003906 506.66666666666674 424.26170145670574 528 427.7283681233724C549.3333333333334 431.1950347900391 592 396.92836812337237 613.3333333333334 396.79503479003904C634.6666666666666 396.6617014567057 677.3333333333334 425.7283681233724 698.6666666666666 426.6617014567057C720 427.59503479003905 773.3333333333334 407.06170145670575 784 404.26170145670574 " transform="rotate(96, 400, 400)"></path><path d="M28 443.3952018737793C38.33333333333333 432.0285352071126 90 351.9452018737793 110.66666666666669 352.46186854044595C131.33333333333331 352.9785352071126 172.66666666666666 446.36603520711265 193.33333333333334 447.5285352071126C214 448.69103520711263 255.33333333333337 365.63686854044596 276 361.76186854044596C296.6666666666667 357.88686854044596 338 415.4952018737793 358.6666666666667 416.5285352071126C379.3333333333333 417.56186854044597 420.6666666666667 368.736868540446 441.3333333333333 370.0285352071126C462 371.3202018737793 503.33333333333326 423.50353520711263 524 426.8618685404459C544.6666666666666 430.2202018737793 586 397.02436854044595 606.6666666666666 396.8952018737793C627.3333333333334 396.7660352071126 668.6666666666666 424.9243685404459 689.3333333333334 425.8285352071126C710 426.7327018737793 761.6666666666666 406.8410352071126 772 404.12853520711263 " transform="rotate(93, 400, 400)"></path><path d="M40 441.99535369873047C50 430.99535369873047 100 353.49535369873047 120 353.99535369873047C140 354.49535369873047 180 444.87035369873047 200 445.99535369873047C220 447.12035369873047 260 366.74535369873047 280 362.99535369873047C300 359.24535369873047 340 414.99535369873047 360 415.99535369873047C380 416.99535369873047 420 369.74535369873047 440 370.99535369873047C460 372.24535369873047 500 422.74535369873047 520 425.99535369873047C540 429.24535369873047 580 397.12035369873047 600 396.99535369873047C620 396.87035369873047 660 424.12035369873047 680 424.99535369873047C700 425.87035369873047 750 406.62035369873047 760 403.99535369873047 " transform="rotate(90, 400, 400)"></path><path d="M52 440.59550552368165C61.66666666666667 429.9621721903483 110 355.04550552368164 129.33333333333331 355.528838857015C148.66666666666669 356.01217219034834 187.33333333333334 443.3746721903483 206.66666666666666 444.46217219034827C226 445.5496721903483 264.66666666666663 367.853838857015 284 364.228838857015C303.33333333333337 360.603838857015 342 414.49550552368163 361.3333333333333 415.4621721903483C380.6666666666667 416.42883885701497 419.3333333333333 370.75383885701496 438.6666666666667 371.9621721903483C458 373.17050552368164 496.66666666666674 421.9871721903483 516 425.12883885701496C535.3333333333333 428.27050552368166 574 397.216338857015 593.3333333333334 397.09550552368165C612.6666666666666 396.9746721903483 651.3333333333334 423.31633885701496 670.6666666666666 424.1621721903483C690 425.0080055236816 738.3333333333334 406.3996721903483 748 403.8621721903483 " transform="rotate(87, 400, 400)"></path><path d="M64 439.19566497802737C73.33333333333333 428.92899831136066 120 356.59566497802734 138.66666666666669 357.06233164469404C157.33333333333331 357.5289983113607 194.66666666666666 441.8789983113607 213.33333333333334 442.92899831136066C232 443.97899831136067 269.33333333333337 368.962331644694 288 365.462331644694C306.66666666666663 361.962331644694 344 413.9956649780273 362.6666666666667 414.92899831136066C381.3333333333333 415.862331644694 418.6666666666667 371.76233164469403 437.3333333333333 372.92899831136066C456 374.09566497802734 493.3333333333333 421.22899831136067 512 424.26233164469403C530.6666666666667 427.29566497802733 568 397.31233164469404 586.6666666666666 397.19566497802737C605.3333333333334 397.0789983113607 642.6666666666666 422.51233164469403 661.3333333333334 423.3289983113607C680 424.14566497802736 726.6666666666666 406.17899831136066 736 403.72899831136067 " transform="rotate(84, 400, 400)"></path><path d="M76 437.795824432373C85 427.89582443237305 130 358.14582443237305 148 358.59582443237304C166 359.045824432373 202 440.38332443237306 220 441.39582443237305C238 442.40832443237304 274 370.07082443237306 292 366.69582443237306C310 363.32082443237306 346 413.49582443237307 364 414.39582443237305C382 415.295824432373 418 372.77082443237305 436 373.89582443237305C454 375.02082443237305 490 420.47082443237304 508 423.39582443237305C526 426.32082443237306 562 397.40832443237304 580 397.295824432373C598 397.18332443237307 634 421.70832443237305 652 422.49582443237307C670 423.28332443237304 715 405.95832443237305 724 403.59582443237304 " transform="rotate(81, 400, 400)"></path><path d="M88 436.39596099853514C96.66666666666667 426.8626276652018 140 359.69596099853516 157.33333333333331 360.1292943318685C174.66666666666669 360.56262766520183 209.33333333333331 438.8876276652018 226.66666666666666 439.8626276652018C244 440.8376276652018 278.66666666666663 371.1792943318685 296 367.9292943318685C313.33333333333337 364.6792943318685 348 412.99596099853517 365.3333333333333 413.8626276652018C382.6666666666667 414.72929433186846 417.3333333333333 373.77929433186847 434.6666666666667 374.86262766520184C452 375.94596099853516 486.6666666666667 419.7126276652018 504 422.52929433186847C521.3333333333333 425.34596099853513 556 397.5042943318685 573.3333333333333 397.39596099853514C590.6666666666667 397.2876276652018 625.3333333333334 420.90429433186847 642.6666666666666 421.6626276652018C660 422.4209609985352 703.3333333333334 405.73762766520184 712 403.4626276652018 " transform="rotate(78, 400, 400)"></path><path d="M100 434.99613189697266C108.33333333333333 425.82946523030597 150 361.24613189697266 166.66666666666669 361.66279856363934C183.33333333333331 362.07946523030597 216.66666666666669 437.39196523030597 233.33333333333334 438.32946523030597C250 439.26696523030597 283.33333333333337 372.28779856363934 300 369.16279856363934C316.66666666666663 366.03779856363934 350 412.49613189697266 366.6666666666667 413.32946523030597C383.3333333333333 414.16279856363934 416.6666666666667 374.78779856363934 433.3333333333333 375.82946523030597C450 376.87113189697266 483.3333333333333 418.95446523030597 500 421.66279856363934C516.6666666666667 424.37113189697266 550 397.60029856363934 566.6666666666667 397.49613189697266C583.3333333333333 397.39196523030597 616.6666666666666 420.10029856363934 633.3333333333334 420.82946523030597C650 421.55863189697266 691.6666666666666 405.51696523030597 700 403.32946523030597 " transform="rotate(75, 400, 400)"></path><path d="M112 433.59629135131837C120 424.79629135131836 160 362.79629135131836 176 363.19629135131834C192 363.59629135131837 224 435.8962913513184 240 436.79629135131836C256 437.69629135131834 288 373.3962913513184 304 370.3962913513184C320 367.3962913513184 352 411.99629135131835 368 412.79629135131836C384 413.59629135131837 416 375.79629135131836 432 376.79629135131836C448 377.79629135131836 480 418.19629135131834 496 420.79629135131836C512 423.3962913513184 544 397.69629135131834 560 397.59629135131837C576 397.49629135131835 608 419.29629135131836 624 419.99629135131835C640 420.69629135131834 680 405.29629135131836 688 403.19629135131834 " transform="rotate(72, 400, 400)"></path><path d="M124 432.196435546875C131.66666666666669 423.7631022135417 170 364.346435546875 185.33333333333334 364.7297688802083C200.66666666666669 365.11310221354165 231.33333333333331 434.4006022135417 246.66666666666669 435.2631022135417C262 436.1256022135417 292.66666666666663 374.5047688802083 308 371.6297688802083C323.33333333333337 368.7547688802083 354 411.496435546875 369.33333333333337 412.2631022135417C384.6666666666667 413.02976888020834 415.3333333333333 376.8047688802083 430.6666666666667 377.7631022135417C446 378.721435546875 476.6666666666667 417.4381022135417 492 419.9297688802083C507.3333333333333 422.421435546875 538 397.7922688802083 553.3333333333333 397.696435546875C568.6666666666667 397.60060221354166 599.3333333333333 418.4922688802083 614.6666666666667 419.16310221354166C630 419.833935546875 668.3333333333334 405.0756022135417 676 403.0631022135417 " transform="rotate(69, 400, 400)"></path><path d="M136 430.79658737182615C143.33333333333331 422.7299207051595 180 365.8965873718262 194.66666666666666 366.26325403849285C209.33333333333331 366.6299207051595 238.66666666666669 432.9049207051595 253.33333333333331 433.7299207051595C268 434.5549207051595 297.33333333333337 375.61325403849287 312 372.86325403849287C326.66666666666663 370.11325403849287 356 410.9965873718262 370.66666666666663 411.7299207051595C385.33333333333337 412.46325403849283 414.6666666666667 377.81325403849286 429.3333333333333 378.7299207051595C444 379.6465873718262 473.3333333333333 416.6799207051595 488 419.06325403849286C502.6666666666667 421.4465873718262 532 397.88825403849285 546.6666666666667 397.79658737182615C561.3333333333333 397.7049207051595 590.6666666666667 417.68825403849286 605.3333333333333 418.3299207051595C620 418.97158737182616 656.6666666666666 404.8549207051595 664 402.9299207051595 " transform="rotate(66, 400, 400)"></path><path d="M148 429.39675064086913C155 421.69675064086914 190 367.44675064086914 204 367.79675064086916C218 368.14675064086913 246 431.4092506408691 260 432.19675064086914C274 432.98425064086916 302 376.7217506408691 316 374.0967506408691C330 371.4717506408691 358 410.49675064086915 372 411.19675064086914C386 411.89675064086913 414 378.82175064086914 428 379.69675064086914C442 380.57175064086914 470 415.92175064086916 484 418.19675064086914C498 420.4717506408691 526 397.98425064086916 540 397.89675064086913C554 397.80925064086915 582 416.88425064086914 596 417.49675064086915C610 418.10925064086916 645 404.63425064086914 652 402.79675064086916 " transform="rotate(63, 400, 400)"></path><path d="M160 427.9969062805176C166.66666666666669 420.66357294718426 200 368.9969062805176 213.33333333333334 369.3302396138509C226.66666666666669 369.66357294718426 253.33333333333331 429.91357294718426 266.6666666666667 430.66357294718426C280 431.41357294718426 306.66666666666663 377.8302396138509 320 375.3302396138509C333.33333333333337 372.8302396138509 360 409.9969062805176 373.33333333333337 410.66357294718426C386.66666666666663 411.3302396138509 413.33333333333337 379.8302396138509 426.6666666666667 380.66357294718426C440 381.4969062805176 466.6666666666667 415.16357294718426 480 417.3302396138509C493.3333333333333 419.4969062805176 520 398.0802396138509 533.3333333333333 397.9969062805176C546.6666666666667 397.91357294718426 573.3333333333333 416.0802396138509 586.6666666666667 416.66357294718426C600 417.2469062805176 633.3333333333333 404.41357294718426 640 402.66357294718426 " transform="rotate(60, 400, 400)"></path><path d="M172 426.597061920166C178.33333333333331 419.63039525349933 210 370.547061920166 222.66666666666666 370.8637285868327C235.33333333333334 371.18039525349934 260.6666666666667 428.41789525349935 273.3333333333333 429.13039525349933C286 429.84289525349936 311.33333333333337 378.93872858683267 324 376.56372858683267C336.66666666666663 374.18872858683267 362 409.497061920166 374.66666666666663 410.13039525349933C387.33333333333337 410.7637285868327 412.66666666666663 380.8387285868327 425.33333333333337 381.63039525349933C438 382.422061920166 463.3333333333333 414.40539525349936 476 416.4637285868327C488.6666666666667 418.52206192016604 514 398.1762285868327 526.6666666666667 398.097061920166C539.3333333333333 398.0178952534994 564.6666666666667 415.2762285868327 577.3333333333333 415.8303952534994C590 416.384561920166 621.6666666666667 404.19289525349933 628 402.53039525349936 " transform="rotate(57, 400, 400)"></path><path d="M184 425.1972137451172C190 418.5972137451172 220 372.0972137451172 232 372.3972137451172C244 372.6972137451172 268 426.9222137451172 280 427.5972137451172C292 428.2722137451172 316 380.0472137451172 328 377.7972137451172C340 375.5472137451172 364 408.99721374511716 376 409.5972137451172C388 410.1972137451172 412 381.8472137451172 424 382.5972137451172C436 383.3472137451172 460 413.6472137451172 472 415.5972137451172C484 417.5472137451172 508 398.2722137451172 520 398.1972137451172C532 398.12221374511716 556 414.4722137451172 568 414.99721374511716C580 415.5222137451172 610 403.9722137451172 616 402.3972137451172 " transform="rotate(54, 400, 400)"></path><path d="M196 423.79735984802244C201.66666666666669 417.56402651468915 230 373.64735984802246 241.33333333333334 373.93069318135576C252.66666666666666 374.2140265146891 275.3333333333333 425.4265265146891 286.6666666666667 426.06402651468915C298 426.70152651468914 320.6666666666667 381.1556931813558 332 379.0306931813558C343.33333333333337 376.9056931813558 366 408.4973598480225 377.33333333333337 409.06402651468915C388.66666666666663 409.6306931813558 411.33333333333337 382.8556931813558 422.66666666666663 383.56402651468915C434 384.27235984802246 456.6666666666667 412.88902651468914 468 414.7306931813558C479.3333333333333 416.5723598480225 502 398.3681931813558 513.3333333333333 398.29735984802244C524.6666666666667 398.2265265146891 547.3333333333333 413.6681931813558 558.6666666666667 414.1640265146891C570 414.65985984802245 598.3333333333333 403.75152651468915 604 402.26402651468914 " transform="rotate(51, 400, 400)"></path><path d="M208 422.3975212097168C213.33333333333331 416.5308545430501 240 375.1975212097168 250.66666666666666 375.46418787638345C261.33333333333337 375.7308545430501 282.6666666666667 423.93085454305015 293.3333333333333 424.5308545430501C304 425.13085454305013 325.3333333333333 382.26418787638346 336 380.26418787638346C346.66666666666663 378.26418787638346 368 407.9975212097168 378.66666666666663 408.5308545430501C389.33333333333337 409.06418787638347 410.66666666666663 383.8641878763835 421.33333333333337 384.5308545430501C432 385.1975212097168 453.33333333333337 412.13085454305013 464 413.8641878763835C474.6666666666667 415.5975212097168 496 398.46418787638345 506.6666666666667 398.3975212097168C517.3333333333333 398.3308545430501 538.6666666666667 412.8641878763835 549.3333333333333 413.3308545430501C560 413.7975212097168 586.6666666666667 403.5308545430501 592 402.13085454305013 " transform="rotate(48, 400, 400)"></path><path d="M220 420.99767684936523C225 415.49767684936523 250 376.74767684936523 260 376.99767684936523C270 377.24767684936523 290 422.43517684936523 300 422.99767684936523C310 423.56017684936523 330 383.37267684936523 340 381.49767684936523C350 379.62267684936523 370 407.49767684936523 380 407.99767684936523C390 408.49767684936523 410 384.87267684936523 420 385.49767684936523C430 386.12267684936523 450 411.37267684936523 460 412.99767684936523C470 414.62267684936523 490 398.56017684936523 500 398.49767684936523C510 398.43517684936523 530 412.06017684936523 540 412.49767684936523C550 412.93517684936523 575 403.31017684936523 580 401.99767684936523 " transform="rotate(45, 400, 400)"></path><path d="M232 419.5978286743164C236.66666666666669 414.4644953409831 260 378.2978286743164 269.33333333333337 378.53116200764975C278.66666666666663 378.7644953409831 297.3333333333333 420.93949534098306 306.6666666666667 421.4644953409831C316 421.98949534098307 334.6666666666667 384.48116200764974 344 382.73116200764974C353.3333333333333 380.98116200764974 372 406.9978286743164 381.33333333333337 407.4644953409831C390.66666666666663 407.93116200764973 409.33333333333337 385.8811620076497 418.66666666666663 386.4644953409831C428 387.0478286743164 446.66666666666663 410.61449534098307 456 412.1311620076497C465.33333333333337 413.64782867431643 484 398.65616200764975 493.3333333333333 398.5978286743164C502.6666666666667 398.5394953409831 521.3333333333333 411.2561620076497 530.6666666666667 411.6644953409831C540 412.0728286743164 563.3333333333333 403.0894953409831 568 401.86449534098307 " transform="rotate(42, 400, 400)"></path><path d="M244 418.1979862213135C248.33333333333331 413.4313195546468 270 379.8479862213135 278.66666666666663 380.0646528879802C287.33333333333337 380.2813195546468 304.66666666666663 419.4438195546468 313.3333333333333 419.9313195546468C322 420.4188195546468 339.3333333333333 385.58965288798015 348 383.96465288798015C356.6666666666667 382.33965288798015 374 406.49798622131345 382.66666666666663 406.9313195546468C391.33333333333337 407.3646528879801 408.66666666666663 386.88965288798016 417.33333333333337 387.4313195546468C426 387.9729862213135 443.33333333333337 409.8563195546468 452 411.26465288798016C460.66666666666663 412.67298622131347 478 398.7521528879801 486.66666666666663 398.6979862213135C495.33333333333337 398.6438195546468 512.6666666666667 410.45215288798016 521.3333333333333 410.8313195546468C530 411.2104862213135 551.6666666666667 402.8688195546468 556 401.7313195546468 " transform="rotate(39, 400, 400)"></path><path d="M256 416.7981418609619C260 412.3981418609619 280 381.3981418609619 288 381.5981418609619C296 381.7981418609619 312 417.9481418609619 320 418.3981418609619C328 418.8481418609619 344 386.6981418609619 352 385.1981418609619C360 383.6981418609619 376 405.99814186096194 384 406.3981418609619C392 406.7981418609619 408 387.8981418609619 416 388.3981418609619C424 388.8981418609619 440 409.0981418609619 448 410.3981418609619C456 411.6981418609619 472 398.8481418609619 480 398.7981418609619C488 398.74814186096194 504 409.6481418609619 512 409.99814186096194C520 410.3481418609619 540 402.6481418609619 544 401.5981418609619 " transform="rotate(36, 400, 400)"></path><path d="M268 415.398299407959C271.6666666666667 411.36496607462567 290 382.948299407959 297.3333333333333 383.1316327412923C304.66666666666663 383.31496607462566 319.33333333333337 416.45246607462565 326.66666666666663 416.86496607462567C334 417.27746607462564 348.6666666666667 387.80663274129233 356 386.43163274129233C363.3333333333333 385.05663274129233 378 405.498299407959 385.3333333333333 405.86496607462567C392.6666666666667 406.23163274129234 407.33333333333337 388.9066327412923 414.66666666666663 389.36496607462567C422 389.823299407959 436.66666666666663 408.33996607462564 444 409.5316327412923C451.33333333333337 410.72329940795896 466 398.9441327412923 473.33333333333337 398.898299407959C480.66666666666663 398.8524660746256 495.33333333333337 408.8441327412923 502.66666666666663 409.1649660746256C510 409.485799407959 528.3333333333333 402.42746607462567 532 401.46496607462564 " transform="rotate(33, 400, 400)"></path><path d="M280 413.99845027923584C283.3333333333333 410.33178361256915 300 384.49845027923584 306.6666666666667 384.6651169459025C313.33333333333337 384.83178361256915 326.66666666666663 414.95678361256915 333.33333333333337 415.33178361256915C340 415.70678361256915 353.3333333333333 388.9151169459025 360 387.6651169459025C366.6666666666667 386.4151169459025 380 404.99845027923584 386.6666666666667 405.33178361256915C393.3333333333333 405.6651169459025 406.6666666666667 389.9151169459025 413.33333333333337 390.33178361256915C420 390.74845027923584 433.33333333333337 407.58178361256915 440 408.6651169459025C446.66666666666663 409.74845027923584 460 399.0401169459025 466.66666666666663 398.99845027923584C473.33333333333337 398.95678361256915 486.66666666666663 408.0401169459025 493.33333333333337 408.33178361256915C500 408.62345027923584 516.6666666666666 402.20678361256915 520 401.33178361256915 " transform="rotate(30, 400, 400)"></path><path d="M292 412.5986068725586C295 409.2986068725586 310 386.0486068725586 316 386.19860687255857C322 386.3486068725586 334 413.4611068725586 340 413.7986068725586C346 414.13610687255857 358 390.0236068725586 364 388.8986068725586C370 387.7736068725586 382 404.4986068725586 388 404.7986068725586C394 405.0986068725586 406 390.9236068725586 412 391.2986068725586C418 391.6736068725586 430 406.82360687255857 436 407.7986068725586C442 408.7736068725586 454 399.13610687255857 460 399.0986068725586C466 399.0611068725586 478 407.2361068725586 484 407.4986068725586C490 407.76110687255857 505 401.9861068725586 508 401.19860687255857 " transform="rotate(27, 400, 400)"></path><path d="M304 411.19876155853274C306.6666666666667 408.2654282251994 320 387.5987615585327 325.3333333333333 387.73209489186604C330.6666666666667 387.86542822519937 341.33333333333337 411.9654282251994 346.66666666666663 412.2654282251994C352 412.56542822519935 362.66666666666663 391.132094891866 368 390.132094891866C373.3333333333333 389.132094891866 384 403.9987615585327 389.3333333333333 404.2654282251994C394.6666666666667 404.53209489186605 405.3333333333333 391.93209489186603 410.6666666666667 392.2654282251994C416 392.5987615585327 426.6666666666667 406.06542822519935 432 406.93209489186603C437.33333333333337 407.7987615585327 448 399.23209489186604 453.33333333333337 399.19876155853274C458.66666666666663 399.1654282251994 469.33333333333337 406.43209489186603 474.66666666666663 406.6654282251994C480 406.8987615585327 493.33333333333337 401.7654282251994 496 401.06542822519935 " transform="rotate(24, 400, 400)"></path><path d="M316 409.7989162445068C318.3333333333333 407.23224957784015 330 389.14891624450684 334.6666666666667 389.2655829111735C339.3333333333333 389.3822495778402 348.66666666666663 410.46974957784016 353.33333333333337 410.73224957784015C358 410.9947495778402 367.33333333333337 392.24058291117353 372 391.36558291117353C376.66666666666663 390.49058291117353 386 403.49891624450686 390.6666666666667 403.73224957784015C395.3333333333333 403.9655829111735 404.6666666666667 392.9405829111735 409.3333333333333 393.23224957784015C414 393.52391624450684 423.3333333333333 405.3072495778402 428 406.0655829111735C432.6666666666667 406.82391624450685 442 399.3280829111735 446.66666666666663 399.2989162445068C451.33333333333337 399.2697495778402 460.66666666666663 405.6280829111735 465.33333333333337 405.8322495778402C470 406.0364162445068 481.66666666666663 401.54474957784015 484 400.9322495778402 " transform="rotate(21, 400, 400)"></path><path d="M328 408.39907093048095C330 406.19907093048096 340 390.69907093048096 344 390.799070930481C348 390.89907093048095 356 408.97407093048093 360 409.19907093048096C364 409.424070930481 372 393.34907093048093 376 392.59907093048093C380 391.84907093048093 388 402.99907093048097 392 403.19907093048096C396 403.39907093048095 404 393.94907093048096 408 394.19907093048096C412 394.44907093048096 420 404.549070930481 424 405.19907093048096C428 405.84907093048093 436 399.424070930481 440 399.39907093048095C444 399.37407093048097 452 404.82407093048096 456 404.99907093048097C460 405.174070930481 470 401.32407093048096 472 400.799070930481 " transform="rotate(18, 400, 400)"></path><path d="M340 406.9992265701294C341.6666666666667 405.1658932367961 350 392.2492265701294 353.3333333333333 392.3325599034627C356.6666666666667 392.4158932367961 363.3333333333333 407.4783932367961 366.6666666666667 407.6658932367961C370 407.8533932367961 376.66666666666663 394.4575599034627 380 393.8325599034627C383.33333333333337 393.2075599034627 390 402.4992265701294 393.33333333333337 402.6658932367961C396.66666666666663 402.8325599034627 403.33333333333337 394.9575599034627 406.6666666666667 395.1658932367961C410 395.3742265701294 416.6666666666667 403.7908932367961 420 404.3325599034627C423.3333333333333 404.8742265701294 430 399.5200599034627 433.3333333333333 399.4992265701294C436.6666666666667 399.4783932367961 443.3333333333333 404.0200599034627 446.6666666666667 404.1658932367961C450 404.3117265701294 458.3333333333333 401.1033932367961 460 400.6658932367961 " transform="rotate(15, 400, 400)"></path><path d="M352 405.5993803024292C353.3333333333333 404.1327136357625 360 393.7993803024292 362.6666666666667 393.86604696909586C365.3333333333333 393.9327136357625 370.6666666666667 405.98271363576254 373.3333333333333 406.1327136357625C376 406.28271363576255 381.3333333333333 395.56604696909585 384 395.06604696909585C386.66666666666663 394.56604696909585 392 401.9993803024292 394.66666666666663 402.1327136357625C397.33333333333337 402.2660469690959 402.66666666666663 395.9660469690959 405.33333333333337 396.1327136357625C408 396.2993803024292 413.33333333333337 403.03271363576255 416 403.4660469690959C418.6666666666667 403.8993803024292 424 399.61604696909586 426.6666666666667 399.5993803024292C429.3333333333333 399.5827136357625 434.6666666666667 403.2160469690959 437.3333333333333 403.3327136357625C440 403.4493803024292 446.6666666666667 400.8827136357625 448 400.53271363576255 " transform="rotate(12, 400, 400)"></path><path d="M364 404.19953498840334C365 403.0995349884033 370 395.3495349884033 372 395.39953498840333C374 395.44953498840334 378 404.4870349884033 380 404.5995349884033C382 404.71203498840333 386 396.6745349884033 388 396.2995349884033C390 395.9245349884033 394 401.4995349884033 396 401.5995349884033C398 401.69953498840334 402 396.9745349884033 404 397.0995349884033C406 397.2245349884033 410 402.27453498840333 412 402.5995349884033C414 402.9245349884033 418 399.71203498840333 420 399.69953498840334C422 399.6870349884033 426 402.4120349884033 428 402.4995349884033C430 402.58703498840333 435 400.6620349884033 436 400.39953498840333 " transform="rotate(9, 400, 400)"></path><path d="M376 402.79969062805174C376.6666666666667 402.06635729471844 380 396.89969062805176 381.3333333333333 396.93302396138506C382.6666666666667 396.9663572947184 385.3333333333333 402.99135729471845 386.6666666666667 403.06635729471844C388 403.14135729471843 390.6666666666667 397.7830239613851 392 397.5330239613851C393.3333333333333 397.2830239613851 396 400.9996906280518 397.3333333333333 401.06635729471844C398.6666666666667 401.1330239613851 401.3333333333333 397.9830239613851 402.6666666666667 398.06635729471844C404 398.14969062805176 406.6666666666667 401.51635729471843 408 401.7330239613851C409.33333333333337 401.94969062805177 412 399.80802396138506 413.33333333333337 399.79969062805174C414.66666666666663 399.7913572947184 417.33333333333337 401.6080239613851 418.66666666666663 401.6663572947184C420 401.72469062805175 423.33333333333337 400.44135729471844 424 400.26635729471843 " transform="rotate(6, 400, 400)"></path><path d="M388 401.3998462677002C388.3333333333333 401.0331796010335 390 398.4498462677002 390.6666666666667 398.46651293436685C391.3333333333333 398.4831796010335 392.6666666666667 401.49567960103354 393.3333333333333 401.5331796010335C394 401.57067960103353 395.3333333333333 398.89151293436686 396 398.76651293436686C396.6666666666667 398.64151293436686 398 400.4998462677002 398.6666666666667 400.5331796010335C399.3333333333333 400.56651293436687 400.6666666666667 398.9915129343669 401.3333333333333 399.0331796010335C402 399.0748462677002 403.3333333333333 400.75817960103353 404 400.8665129343669C404.6666666666667 400.9748462677002 406 399.90401293436685 406.6666666666667 399.8998462677002C407.3333333333333 399.8956796010335 408.6666666666667 400.8040129343669 409.3333333333333 400.8331796010335C410 400.8623462677002 411.6666666666667 400.2206796010335 412 400.13317960103353 " transform="rotate(3, 400, 400)"></path></g></svg>