<svg xmlns="http://www.w3.org/2000/svg" version="1.1" xmlns:xlink="http://www.w3.org/1999/xlink" xmlns:svgjs="http://svgjs.dev/svgjs" viewBox="0 0 800 800"><defs><linearGradient x1="50%" y1="0%" x2="50%" y2="100%" id="ccchaos-grad"><stop stop-color="hsl(206, 75%, 49%)" stop-opacity="1" offset="0%"></stop><stop stop-color="hsl(331, 90%, 56%)" stop-opacity="1" offset="100%"></stop></linearGradient></defs><g stroke-width="2" stroke="url(#ccchaos-grad)" fill="none" stroke-linecap="round"><path d="M379.54 120.14C388.93 116.07 398.29 112.36 407.61 109.35 416.95 106.84 426.27 105.61 435.56 105.83 444.89 107.14 454.23 110.02 463.57 114.36 472.99 119.63 482.45 126.03 491.96 133.26 501.58 140.78 511.3 148.64 521.08 156.57 531.02 164.09 541.05 171.32 551.16 178.16 561.41 184.22 571.73 189.81 582.05 194.98 592.44 199.4 602.78 203.56 612.97 207.59 623.1 211.17 632.95 214.87 642.4 218.81 651.58 222.63 660.19 226.9 668.08 231.68 675.45 236.58 681.92 242.08 687.36 248.18 692.08 254.5 695.63 261.41 697.94 268.85 699.45 276.51 699.7 284.63 698.69 293.13 697.02 301.79 694.25 310.75 690.46 319.93 686.36 329.18 681.56 338.59 676.23 348.08 671.11 357.59 665.85 367.13 660.62 376.65 656.16 386.18 652.14 395.46 648.69 404.48 646.25 413.52 644.43 422.33 643.2 430.96 642.94 439.67 643.13 448.28 643.66 456.85 644.89 465.63 646.19 474.5 647.43 483.56 648.98 492.97 650.18 502.72 650.91 512.87 651.59 523.49 651.58 534.6 650.81 546.19 649.73 558.19 647.79 570.58 644.96 583.21 641.7 595.9 637.55 608.47 632.56 620.63 627.14 632.16 620.93 642.7 614.01 651.88 606.75 659.67 598.88 665.6 590.48 669.41 581.84 671.48 572.78 671.41 563.38 669.3 553.85 666.06 544.05 661.49 534.08 656.13 524.04 651.2 513.87 646.7 503.63 643.3 493.38 642.05 483.08 642.85 472.78 645.96 462.49 651.78 452.21 659.72 441.97 669.29 431.73 680.17 421.54 691.19 411.39 701.38 401.25 710.2 391.39 716.29 381.82 719.17 372.23 719.13 362.9 715.64 353.84 709.06 344.73 700.22 335.87 689.38 327.26 677.33 318.57 665.02 310.11 652.93 301.86 641.66 293.53 631.92 285.39 623.77 277.43 617.36 269.37 613.01 261.48 610.25 253.76 608.77 245.92 608.75 238.23 609.32 230.72 610.06 223.08 611.19 215.61 611.79 208.33 611.55 200.95 610.87 193.76 608.98 186.82 605.82 179.81 601.85 173.06 596.58 166.62 590.13 160.18 582.93 154.08 574.75 148.37 565.76 142.74 556.26 137.53 546.21 132.81 535.77 128.23 525.08 124.16 514.2 120.65 503.26 117.33 492.23 114.59 481.24 112.48 470.39 110.56 459.53 109.28 448.84 108.64 438.37 108.19 427.92 108.38 417.68 109.22 407.69 110.2 397.7 111.77 388.19 113.89 379.12 116.06 370.03 118.73 361.36 121.84 353.08 124.92 344.74 128.4 336.73 132.22 329.04 135.95 321.2 139.98 313.58 144.29 306.12 148.44 298.42 152.84 290.77 157.46 283.11 161.89 275.09 166.54 266.94 171.39 258.62 176.05 249.88 180.93 240.91 186.02 231.72 190.95 222.18 196.11 212.49 201.5 202.75 206.77 192.91 212.31 183.25 218.12 173.96 223.84 165 229.87 156.73 236.18 149.35 242.45 142.74 249.03 137.28 255.91 133.09 262.78 129.81 269.96 127.8 277.44 127 284.91 126.77 292.68 127.38 300.72 128.6 308.76 129.64 317.07 130.73 325.62 131.59 334.17 131.5 342.95 130.8 351.95 129.39 360.94 126.82 370.14 123.67 379.53 120.15" stroke-dasharray="2 2" transform="rotate(0, 400, 400)" opacity="0.21"></path><path d="M381.71 131.32C390.79 127.3 399.87 123.62 408.95 120.58 418.05 117.98 427.15 116.58 436.26 116.52 445.41 117.48 454.59 119.93 463.8 123.79 473.08 128.6 482.41 134.54 491.8 141.39 501.29 148.61 510.86 156.29 520.49 164.17 530.24 171.78 540.06 179.24 549.92 186.4 559.88 192.9 569.85 198.98 579.78 204.65 589.73 209.6 599.57 214.24 609.2 218.67 618.73 222.58 627.93 226.47 636.68 230.48 645.14 234.24 653 238.31 660.14 242.76 666.78 247.2 672.53 252.14 677.3 257.58 681.4 263.15 684.41 269.26 686.26 275.88 687.4 282.64 687.39 289.88 686.23 297.54 684.5 305.31 681.77 313.44 678.13 321.85 674.24 330.33 669.71 339.04 664.7 347.92 659.9 356.83 654.95 365.86 650.02 375 645.77 384.14 641.92 393.16 638.54 402.05 636.09 410.97 634.17 419.8 632.77 428.58 632.26 437.44 632.16 446.34 632.37 455.31 633.24 464.47 634.21 473.83 635.14 483.43 636.4 493.33 637.39 503.58 637.99 514.2 638.59 525.16 638.61 536.51 637.97 548.18 637.1 560.07 635.46 572.13 633.03 584.18 630.24 596.05 626.64 607.56 622.25 618.4 617.49 628.46 611.98 637.36 605.79 644.82 599.28 650.9 592.15 655.18 584.5 657.5 576.62 658.33 568.29 657.31 559.59 654.61 550.75 651.12 541.62 646.68 532.26 641.77 522.83 637.53 513.22 633.9 503.51 631.44 493.77 631.06 483.94 632.62 474.08 636.27 464.22 642.37 454.34 650.3 444.46 659.62 434.59 670.05 424.73 680.53 414.9 690.2 405.07 698.62 395.49 704.53 386.17 707.52 376.83 707.86 367.73 705.02 358.88 699.26 349.98 691.35 341.31 681.43 332.85 670.18 324.34 658.47 316.02 646.69 307.9 635.43 299.7 625.33 291.68 616.53 283.83 609.21 275.88 603.72 268.1 599.72 260.47 597.02 252.74 595.81 245.16 595.36 237.74 595.33 230.22 595.93 222.87 596.32 215.71 596.21 208.46 595.94 201.42 594.76 194.61 592.54 187.76 589.74 181.17 585.8 174.89 580.77 168.63 575.09 162.7 568.41 157.16 560.89 151.71 552.87 146.68 544.19 142.12 535 137.7 525.52 133.79 515.71 130.43 505.7 127.25 495.56 124.64 485.34 122.64 475.13 120.83 464.89 119.64 454.72 119.07 444.68 118.7 434.65 118.94 424.76 119.82 415.05 120.84 405.34 122.44 396.03 124.55 387.11 126.73 378.15 129.39 369.55 132.47 361.26 135.53 352.9 138.98 344.8 142.76 336.92 146.45 328.89 150.43 320.99 154.68 313.18 158.79 305.13 163.13 297.06 167.68 288.93 172.06 280.48 176.65 271.89 181.42 263.13 186.01 254.04 190.81 244.77 195.8 235.37 200.63 225.74 205.67 216.08 210.93 206.51 216.06 196.99 221.44 187.78 227.06 179.07 232.59 170.8 238.39 163.3 244.46 156.76 250.48 150.99 256.79 146.36 263.37 142.94 269.93 140.35 276.78 138.91 283.92 138.54 291.04 138.61 298.44 139.38 306.12 140.64 313.78 141.62 321.71 142.57 329.89 143.25 338.07 142.99 346.48 142.13 355.12 140.61 363.76 137.99 372.62 134.82 381.7 131.32" stroke-dasharray="3 2" transform="rotate(4.04, 400, 400)" opacity="0.51"></path><path d="M384.57 142.5C393.34 138.53 402.15 134.89 410.98 131.84 419.83 129.17 428.71 127.6 437.62 127.28 446.56 127.9 455.56 129.94 464.59 133.33 473.69 137.64 482.85 143.1 492.05 149.51 501.35 156.37 510.71 163.78 520.11 171.51 529.6 179.12 539.13 186.69 548.67 194.08 558.26 200.93 567.83 207.45 577.3 213.59 586.74 219.07 596.03 224.22 605.06 229.11 613.95 233.45 622.47 237.69 630.52 241.92 638.26 245.82 645.39 249.89 651.8 254.22 657.72 258.44 662.81 263.03 666.94 268.04 670.48 273.07 672.99 278.58 674.43 284.55 675.25 290.6 675.02 297.11 673.75 304.04 671.99 311.05 669.32 318.45 665.84 326.18 662.16 333.97 657.9 342.05 653.2 350.38 648.71 358.73 644.06 367.31 639.41 376.1 635.39 384.88 631.69 393.67 628.4 402.46 625.95 411.27 623.95 420.12 622.4 429.02 621.67 438.01 621.3 447.13 621.22 456.4 621.76 465.83 622.4 475.51 623.03 485.45 624.01 495.62 624.76 506.1 625.19 516.87 625.69 527.85 625.69 539.09 625.12 550.48 624.39 561.89 622.98 573.27 620.87 584.42 618.48 595.2 615.35 605.4 611.49 614.76 607.32 623.25 602.44 630.5 596.91 636.27 591.1 640.77 584.68 643.58 577.75 644.63 570.59 644.47 562.97 642.76 554.96 639.7 546.82 636.19 538.34 632.04 529.61 627.71 520.8 624.21 511.78 621.46 502.61 619.92 493.41 620.36 484.09 622.6 474.69 626.72 465.29 633.01 455.83 640.89 446.35 649.94 436.86 659.92 427.36 669.87 417.86 679.02 408.36 687.04 399.07 692.78 390.01 695.84 380.94 696.52 372.08 694.27 363.43 689.3 354.76 682.28 346.27 673.28 337.98 662.88 329.65 651.85 321.48 640.51 313.5 629.41 305.45 619.15 297.55 609.88 289.82 601.84 282 595.38 274.33 590.27 266.82 586.4 259.21 583.98 251.75 582.44 244.45 581.48 237.07 581.33 229.85 581.23 222.83 580.91 215.74 580.69 208.85 579.85 202.2 578.22 195.54 576.24 189.13 573.31 183.03 569.41 176.96 565.01 171.22 559.68 165.87 553.49 160.61 546.86 155.77 539.52 151.38 531.59 147.15 523.36 143.4 514.69 140.19 505.7 137.16 496.55 134.69 487.21 132.8 477.75 131.11 468.24 130.01 458.69 129.52 449.16 129.22 439.63 129.52 430.15 130.43 420.75 131.48 411.36 133.08 402.26 135.19 393.45 137.37 384.62 140.01 376.05 143.06 367.71 146.09 359.3 149.5 351.06 153.22 342.95 156.87 334.71 160.81 326.53 165 318.36 169.05 309.99 173.34 301.55 177.83 293.03 182.15 284.25 186.67 275.34 191.38 266.29 195.91 257.02 200.63 247.64 205.53 238.22 210.27 228.71 215.22 219.29 220.36 210.08 225.37 201.05 230.61 192.46 236.07 184.46 241.43 176.97 247.04 170.32 252.9 164.64 258.69 159.72 264.75 155.9 271.07 153.21 277.36 151.25 283.92 150.31 290.75 150.3 297.55 150.6 304.63 151.48 311.97 152.71 319.29 153.6 326.88 154.39 334.72 154.88 342.54 154.45 350.62 153.43 358.93 151.8 367.23 149.13 375.78 145.97 384.56 142.5" stroke-dasharray="1 2" transform="rotate(8.08, 400, 400)" opacity="0.47"></path><path d="M387.99 153.67C396.47 149.78 405.01 146.18 413.58 143.13 422.17 140.4 430.81 138.69 439.49 138.14 448.21 138.43 456.98 140.06 465.8 142.98 474.67 146.79 483.6 151.74 492.57 157.66 501.61 164.1 510.69 171.17 519.8 178.65 528.97 186.14 538.14 193.72 547.29 201.23 556.45 208.34 565.54 215.19 574.5 221.75 583.39 227.72 592.08 233.37 600.48 238.75 608.71 243.58 616.54 248.25 623.88 252.83 630.91 257.02 637.32 261.28 643.04 265.68 650.52 272.11 660.35 286.41 662.46 294.49 663.01 300.02 662.59 305.98 661.24 312.35 659.47 318.75 656.89 325.55 653.57 332.72 650.11 339.91 646.12 347.45 641.72 355.31 637.53 363.18 633.18 371.35 628.81 379.82 625 388.29 621.46 396.86 618.27 405.53 615.82 414.22 613.76 423.04 612.09 432 611.17 441.03 610.56 450.24 610.2 459.66 610.43 469.2 610.76 478.98 611.09 489.01 611.78 499.18 612.3 509.59 612.55 520.2 612.91 530.88 612.84 541.66 612.29 552.43 611.65 563.06 610.41 573.47 608.55 583.45 606.48 592.94 603.74 601.7 600.34 609.5 596.67 616.41 592.36 622.06 587.43 626.27 582.25 629.36 576.5 630.92 570.23 630.95 563.76 630.05 556.82 627.89 549.49 624.71 542.01 621.36 534.19 617.65 526.09 613.99 517.9 611.28 509.48 609.41 500.87 608.74 492.22 609.94 483.42 612.77 474.51 617.29 465.59 623.72 456.57 631.5 447.5 640.25 438.43 649.76 429.3 659.19 420.15 667.85 411 675.47 402.03 681.01 393.25 684.14 384.46 685.11 375.85 683.4 367.43 679.18 358.98 673.02 350.7 664.93 342.59 655.4 334.44 645.12 326.45 634.33 318.61 623.53 310.72 613.29 302.97 603.75 295.37 595.18 287.7 587.93 280.17 581.86 272.78 576.92 265.32 573.35 258.01 570.69 250.85 568.72 243.63 567.65 236.57 566.84 229.7 566.05 222.79 565.58 216.09 564.73 209.62 563.34 203.15 561.82 196.94 559.55 191.04 556.49 185.18 553.07 179.65 548.82 174.5 543.77 169.45 538.36 164.8 532.23 160.61 525.48 156.56 518.45 153 510.9 149.95 502.94 147.08 494.83 144.74 486.4 142.97 477.75 141.4 469.04 140.39 460.17 139.98 451.22 139.75 442.25 140.09 433.22 141.03 424.17 142.11 415.12 143.72 406.26 145.82 397.59 147.98 388.9 150.59 380.36 153.6 371.97 156.6 363.52 159.95 355.16 163.62 346.86 167.22 338.43 171.1 330.02 175.23 321.57 179.23 312.96 183.45 304.26 187.88 295.48 192.15 286.52 196.61 277.46 201.25 268.32 205.72 259.05 210.37 249.77 215.19 240.54 219.86 231.35 224.71 222.36 229.75 213.69 234.66 205.31 239.77 197.46 245.09 190.27 250.31 183.65 255.75 177.88 261.43 173.07 267.02 168.98 272.87 165.92 278.96 163.9 285 162.49 291.3 161.98 297.86 162.26 304.38 162.73 311.16 163.65 318.2 164.82 325.21 165.58 332.49 166.19 340.01 166.48 347.51 165.87 355.27 164.7 363.27 162.96 371.26 160.26 379.5 157.11 387.98 153.68" stroke-dasharray="4 4" transform="rotate(12.12, 400, 400)" opacity="0.11"></path><path d="M391.87 164.85C400.06 161.03 408.31 157.49 416.62 154.45 424.93 151.69 433.31 149.85 441.74 149.08 450.19 149.07 458.71 150.3 467.27 152.76 475.86 156.07 484.52 160.49 493.2 165.88 501.92 171.85 510.68 178.5 519.43 185.65 528.21 192.92 536.97 200.39 545.66 207.9 554.33 215.14 562.9 222.23 571.3 229.1 579.61 235.49 587.67 241.6 595.42 247.44 602.97 252.78 610.12 257.92 616.76 262.92 623.09 267.51 628.82 272.08 633.87 276.7 640.43 283.33 648.77 297.44 650.38 305.17 650.69 310.39 650.13 315.99 648.72 321.96 646.97 327.93 644.49 334.28 641.35 341.01 638.1 347.74 634.37 354.85 630.27 362.31 626.37 369.77 622.31 377.59 618.21 385.77 614.61 393.94 611.23 402.29 608.14 410.8 605.71 419.33 603.61 428.05 601.84 436.94 600.74 445.9 599.92 455.06 599.31 464.42 599.26 473.86 599.29 483.52 599.35 493.37 599.76 503.27 600.03 513.32 600.08 523.45 600.28 533.53 600.12 543.57 599.55 553.43 598.94 563.04 597.81 572.26 596.14 580.91 594.31 589 591.89 596.27 588.88 602.52 583.74 610 570.24 617.09 562.01 616.64 556.17 615.24 549.88 612.88 543.19 609.78 536.36 606.75 529.18 603.6 521.69 600.67 514.12 598.78 506.29 597.76 498.25 597.9 490.16 599.79 481.89 603.14 473.48 607.98 465.05 614.48 456.49 622.12 447.85 630.54 439.21 639.59 430.48 648.5 421.69 656.67 412.91 663.9 404.27 669.25 395.79 672.4 387.3 673.63 378.96 672.42 370.77 668.89 362.57 663.56 354.51 656.36 346.61 647.72 338.66 638.23 330.86 628.09 323.19 617.72 315.48 607.66 307.9 598.05 300.45 589.15 292.95 581.3 285.58 574.44 278.35 568.59 271.06 563.97 263.91 560.23 256.92 557.23 249.88 555.16 243.01 553.5 236.33 552.04 229.62 551.04 223.12 549.9 216.86 548.44 210.61 547.04 204.62 545.1 198.93 542.53 193.3 539.78 188 536.32 183.06 532.15 178.23 527.72 173.8 522.61 169.81 516.87 165.96 510.91 162.58 504.4 159.7 497.41 156.99 490.28 154.8 482.76 153.16 474.92 151.7 467.01 150.79 458.85 150.45 450.5 150.28 442.13 150.67 433.59 151.63 424.92 152.73 416.26 154.34 407.67 156.42 399.17 158.56 390.66 161.13 382.2 164.09 373.81 167.05 365.37 170.35 356.95 173.95 348.53 177.49 340.02 181.31 331.46 185.36 322.86 189.31 314.15 193.47 305.35 197.82 296.49 202.04 287.53 206.44 278.51 211 269.48 215.42 260.44 220 251.46 224.75 242.63 229.35 233.95 234.12 225.56 239.07 217.59 243.88 209.98 248.89 202.96 254.08 196.66 259.17 190.93 264.47 186.04 269.98 182.09 275.41 178.78 281.07 176.42 286.95 175 292.78 174.06 298.85 173.9 305.16 174.39 311.43 174.96 317.95 175.86 324.71 176.93 331.44 177.53 338.43 177.95 345.66 178.03 352.87 177.24 360.33 175.94 368.03 174.1 375.72 171.37 383.67 168.24 391.86 164.86" stroke-dasharray="0 9" transform="rotate(16.16, 400, 400)" opacity="0.83"></path><path d="M396.04 176.03C403.94 172.3 411.91 168.82 419.92 165.81 427.96 163.02 436.05 161.08 444.19 160.11 452.35 159.82 460.57 160.68 468.83 162.69 477.11 165.49 485.43 169.38 493.77 174.22 502.13 179.66 510.5 185.83 518.83 192.57 527.18 199.52 535.47 206.77 543.66 214.16 551.81 221.41 559.82 228.62 567.62 235.69 575.32 242.38 582.74 248.86 589.83 255.12 596.71 260.92 603.18 266.52 609.14 271.96 614.8 277.01 619.89 281.97 624.31 286.92 630.02 293.95 637.02 308.37 638.19 316.02 638.3 321.11 637.63 326.52 636.2 332.26 634.49 337.96 632.12 344.01 629.16 350.43 626.13 356.83 622.66 363.6 618.84 370.74 615.22 377.87 611.44 385.38 607.6 393.28 604.22 401.17 601 409.27 598.01 417.56 595.62 425.87 593.49 434.39 591.64 443.09 590.4 451.82 589.38 460.76 588.56 469.87 588.24 479 588.01 488.3 587.8 497.7 587.93 507.09 587.96 516.51 587.81 525.9 587.83 535.14 587.55 544.2 586.92 552.96 586.29 561.37 585.23 569.28 583.69 576.53 580.96 586.1 572.61 599.24 566.97 602.37 560.55 603.21 545.05 599.05 536.11 595.04 529.9 592.46 523.32 589.95 516.43 587.8 509.46 586.71 502.21 586.51 494.72 587.41 487.19 589.89 479.46 593.69 471.55 598.76 463.62 605.28 455.54 612.74 447.35 620.82 439.15 629.41 430.83 637.8 422.43 645.49 414.03 652.34 405.74 657.47 397.58 660.63 389.41 662.09 381.36 661.33 373.44 658.44 365.5 653.89 357.69 647.56 350 639.8 342.29 631.15 334.69 621.72 327.22 611.91 319.72 602.18 312.33 592.67 305.06 583.63 297.76 575.4 290.57 567.95 283.52 561.35 276.44 555.81 269.48 551.09 262.68 547.1 255.86 544.03 249.2 541.44 242.72 539.18 236.25 537.48 229.97 535.82 223.94 534.03 217.93 532.45 212.18 530.52 206.73 528.15 201.34 525.73 196.28 522.75 191.57 519.18 186.98 515.46 182.77 511.13 178.99 506.2 175.35 501.12 172.16 495.48 169.45 489.35 166.92 483.1 164.87 476.41 163.35 469.33 162.01 462.2 161.2 454.73 160.93 446.98 160.83 439.21 161.26 431.18 162.24 422.93 163.35 414.69 164.95 406.42 166.99 398.14 169.11 389.86 171.64 381.56 174.54 373.25 177.44 364.91 180.67 356.53 184.2 348.11 187.68 339.64 191.43 331.1 195.4 322.5 199.28 313.85 203.37 305.14 207.65 296.4 211.81 287.63 216.14 278.87 220.64 270.17 224.99 261.54 229.51 253.06 234.18 244.82 238.71 236.81 243.41 229.16 248.27 222.01 253 215.26 257.91 209.13 262.99 203.74 267.97 198.9 273.14 194.87 278.5 191.73 286.53 188.27 303.55 185.99 312.57 186.66 318.61 187.27 324.89 188.11 331.4 189.03 337.88 189.45 344.6 189.66 351.55 189.53 358.48 188.58 365.66 187.14 373.07 185.21 380.48 182.47 388.13 179.36 396.03 176.03" stroke-dasharray="10 3" transform="rotate(20.200000000000003, 400, 400)" opacity="0.62"></path><path d="M400.36 187.21C407.96 183.57 415.63 180.17 423.35 177.2 431.07 174.4 438.86 172.38 446.68 171.23 454.53 170.68 462.41 171.2 470.32 172.77 478.25 175.09 486.2 178.43 494.14 182.72 502.09 187.6 510.03 193.24 517.9 199.48 525.77 206.03 533.55 212.95 541.2 220.11 548.79 227.24 556.22 234.42 563.4 241.56 570.48 248.44 577.26 255.17 583.68 261.74 589.91 267.93 595.72 273.95 601.03 279.8 606.06 285.28 610.53 290.67 614.38 295.99 619.3 303.54 625.11 318.62 625.91 326.39 625.49 334.21 620.91 351.06 617.01 360.22 614.19 366.4 610.98 372.93 607.45 379.81 604.1 386.68 600.59 393.91 597 401.53 593.82 409.14 590.76 416.96 587.89 424.96 585.54 432.97 583.41 441.18 581.5 449.55 580.13 457.93 578.95 466.47 577.93 475.12 577.38 483.76 576.9 492.48 576.44 501.22 576.32 509.87 576.11 518.47 575.76 526.9 575.58 535.13 575.16 543.07 574.45 550.6 573.25 561.03 568.76 577.7 565.32 583.41 561.23 587.14 550.41 588.72 543.74 586.88 539.02 585.2 533.87 583.04 528.33 580.61 522.68 578.6 516.68 576.78 510.36 575.42 503.96 575.11 497.27 575.66 490.33 577.24 483.35 580.25 476.14 584.4 468.73 589.64 461.31 596.12 453.71 603.36 445.97 611.08 438.22 619.2 430.34 627.09 422.34 634.31 414.34 640.78 406.42 645.7 398.59 648.85 390.76 650.49 383.02 650.13 375.38 647.82 367.74 644.01 360.19 638.52 352.75 631.63 345.29 623.83 337.93 615.18 330.69 606.01 323.41 596.74 316.25 587.49 309.19 578.51 302.11 570.1 295.15 562.26 288.31 555.11 281.45 548.83 274.72 543.28 268.15 538.4 261.56 534.37 255.14 530.86 248.9 527.75 242.68 525.25 236.66 522.91 230.87 520.6 222.38 517.51 206.9 510.2 200.04 505.55 193.71 500.34 183.24 487.18 179.22 479.27 176.85 473.74 174.96 467.77 173.57 461.37 172.35 454.92 171.63 448.09 171.43 440.92 171.38 433.73 171.85 426.22 172.84 418.42 173.96 410.62 175.54 402.71 177.55 394.73 179.63 386.75 182.11 378.69 184.94 370.57 187.78 362.43 190.94 354.22 194.38 345.95 197.79 337.66 201.45 329.3 205.34 320.9 209.15 312.49 213.16 304.06 217.36 295.64 221.44 287.26 225.7 278.95 230.12 270.77 234.41 262.74 238.86 254.92 243.45 247.43 247.92 240.2 252.54 233.41 257.31 227.15 261.96 221.3 266.78 216.09 271.76 211.6 279.16 206.01 294.74 199.43 302.94 198.33 308.41 198.08 314.09 198.35 319.98 199.04 325.81 199.62 331.87 200.35 338.15 201.09 344.39 201.33 350.86 201.32 357.55 200.98 364.22 199.86 371.13 198.3 378.26 196.3 385.39 193.54 392.75 190.47 400.35 187.21" stroke-dasharray="1 10" transform="rotate(24.24, 400, 400)" opacity="0.73"></path><path d="M404.67 198.39C411.96 194.85 419.32 191.54 426.71 188.62 434.12 185.83 441.57 183.74 449.05 182.44 456.54 181.67 464.06 181.86 471.58 183.03 479.12 184.87 486.66 187.68 494.16 191.4 501.67 195.7 509.13 200.77 516.51 206.47 523.86 212.53 531.1 219.02 538.19 225.84 545.21 232.72 552.03 239.75 558.6 246.82 565.05 253.74 571.19 260.59 576.97 267.34 582.56 273.81 587.73 280.14 592.42 286.33 596.86 292.21 600.77 297.98 604.09 303.66 608.3 311.77 613.06 327.69 613.56 335.73 612.99 343.72 608.55 360.57 604.91 369.58 602.3 375.63 599.34 381.99 596.07 388.65 592.98 395.31 589.74 402.29 586.39 409.61 583.41 416.92 580.52 424.42 577.77 432.06 575.47 439.7 573.35 447.5 571.4 455.4 569.93 463.3 568.62 471.29 567.43 479.32 566.67 487.31 565.96 495.29 565.28 503.19 564.92 510.97 564.48 518.59 563.93 525.95 563.56 533.08 562.99 539.83 562.17 546.09 558.73 561.08 549.67 573.9 545.08 574.54 539.9 573.84 527.28 569.42 519.92 566.61 512.06 564.68 494.6 564.6 485.11 567.4 478.65 570.84 471.96 575.26 465.06 580.61 458.13 586.99 451.02 593.98 443.73 601.32 436.44 608.98 429 616.37 421.41 623.13 413.83 629.23 406.29 633.92 398.82 637.04 391.35 638.83 383.95 638.82 376.62 637.06 369.29 633.93 362.04 629.23 354.87 623.2 347.7 616.25 340.6 608.41 333.61 599.95 326.6 591.27 319.68 582.42 312.87 573.66 306.05 565.27 299.33 557.25 292.74 549.75 286.14 542.94 279.66 536.72 273.34 531.1 267.02 526.22 260.86 521.86 254.89 517.91 248.94 514.57 243.2 511.48 237.68 508.53 229.61 504.65 214.96 496.58 208.49 491.97 202.53 487.04 192.74 475.02 189 467.86 186.81 462.88 185.07 457.47 183.8 451.64 182.7 445.78 182.07 439.51 181.93 432.88 181.95 426.23 182.45 419.22 183.45 411.88 184.56 404.53 186.12 397.04 188.09 389.43 190.13 381.82 192.54 374.09 195.29 366.27 198.06 358.46 201.14 350.55 204.49 342.58 207.82 334.63 211.39 326.62 215.18 318.59 218.9 310.6 222.83 302.63 226.93 294.72 230.94 286.91 235.12 279.22 239.45 271.73 243.66 264.43 248.03 257.41 252.55 250.76 256.94 244.41 261.48 238.52 266.17 233.18 270.74 228.24 275.47 223.93 280.34 220.3 287.59 215.87 302.79 211.05 310.77 210.48 318.84 210.62 335.86 212.28 344.84 213.11 350.86 213.13 357.09 212.91 363.53 212.37 369.95 211.09 376.59 209.42 383.45 207.35 390.29 204.6 397.37 201.57 404.66 198.39" stroke-dasharray="1 9" transform="rotate(28.28, 400, 400)" opacity="0.88"></path><path d="M408.8 209.56C415.78 206.14 422.81 202.93 429.86 200.07 436.92 197.31 444.02 195.18 451.12 193.75 458.23 192.78 465.36 192.68 472.47 193.46 479.58 194.86 486.68 197.16 493.72 200.31 500.75 204.03 507.71 208.5 514.56 213.61 521.38 219.11 528.06 225.1 534.57 231.47 541 237.99 547.22 244.72 553.17 251.59 559 258.4 564.52 265.23 569.68 272.02 574.67 278.63 579.24 285.15 583.35 291.56 587.24 297.73 590.62 303.8 593.46 309.79 597.05 318.39 600.91 335.17 601.15 343.52 600.89 348.98 600.07 354.55 598.71 360.26 597.21 365.9 595.24 371.72 592.85 377.74 590.45 383.73 587.73 389.95 584.73 396.43 581.89 402.89 578.89 409.62 575.79 416.63 573.01 423.63 570.28 430.75 567.65 437.96 565.42 445.17 563.32 452.47 561.35 459.8 559.81 467.12 558.38 474.45 557.06 481.73 556.11 488.96 555.21 496.09 554.33 503.05 553.74 509.88 553.09 516.46 552.35 522.71 551.43 531.51 548.72 546.14 546.75 551.62 541.25 557.8 529.14 558.85 523.66 557.01 517.69 555.12 503.85 552.24 496.05 552.2 490.7 553.32 485.05 555.18 479.14 557.86 473.19 561.65 467 566.27 460.58 571.64 454.15 577.88 447.51 584.59 440.68 591.55 433.85 598.73 426.85 605.64 419.69 611.96 412.54 617.68 405.4 622.15 398.31 625.2 391.21 627.11 384.16 627.41 377.17 626.13 370.18 623.63 363.24 619.69 356.38 614.47 349.52 608.38 342.72 601.37 336.01 593.68 329.29 585.66 322.65 577.35 316.12 568.96 309.58 560.76 303.15 552.77 296.83 545.12 290.52 537.98 284.33 531.31 278.29 525.12 272.27 519.55 266.4 514.45 260.72 509.76 255.07 505.63 249.62 501.78 244.4 498.15 236.78 493.33 222.99 484.04 216.92 479.16 211.35 474.18 202.25 462.64 198.8 455.95 195.99 448.84 192.8 432.66 192.46 423.6 192.53 417.43 193.05 410.9 194.05 404.03 195.16 397.15 196.69 390.1 198.61 382.92 200.59 375.74 202.94 368.43 205.6 361.03 208.29 353.65 211.28 346.18 214.53 338.66 217.75 331.18 221.22 323.67 224.91 316.19 228.53 308.77 232.36 301.41 236.36 294.17 240.28 287.07 244.36 280.13 248.59 273.45 252.73 266.98 257.01 260.83 261.43 255.09 265.74 249.64 270.2 244.67 274.79 240.24 281.59 234.44 295.78 226.45 303.17 224.28 310.61 223.08 326.21 223.15 334.39 223.96 342.69 224.54 360.16 224.64 369.35 223.68 375.53 222.27 381.9 220.49 388.48 218.37 395.04 215.64 401.82 212.67 408.79 209.57" stroke-dasharray="4 6" transform="rotate(32.32, 400, 400)" opacity="0.85"></path><path d="M412.61 220.74C419.26 217.44 425.94 214.33 432.63 211.55 439.33 208.84 446.04 206.68 452.75 205.16 459.46 204.01 466.17 203.65 472.84 204.09 479.5 205.06 486.13 206.87 492.68 209.48 499.21 212.61 505.65 216.47 511.96 220.97 518.23 225.87 524.35 231.29 530.27 237.13 536.12 243.18 541.74 249.51 547.1 256.04 552.33 262.6 557.25 269.25 561.83 275.93 566.23 282.52 570.25 289.07 573.83 295.57 577.21 301.9 580.12 308.16 582.54 314.34 584.73 320.34 586.4 326.28 587.54 332.18 588.65 340.8 587.97 357.92 586.26 366.56 584.86 372.27 583.04 378.11 580.83 384.08 578.64 390.02 576.15 396.12 573.41 402.41 570.81 408.68 568.06 415.15 565.19 421.81 562.6 428.48 560.03 435.19 557.53 441.92 555.37 448.64 553.31 455.37 551.34 462.06 549.75 468.73 548.23 475.33 546.8 481.81 545.69 488.22 544.63 494.45 543.57 500.45 542.36 509.08 539.83 524.24 538.34 530.47 530.53 542.21 518.21 543.97 513.21 542.53 507.77 541.34 495.16 540.4 488.03 541.4 483.14 543.12 477.96 545.51 472.52 548.61 467.05 552.66 461.33 557.4 455.39 562.74 449.43 568.79 443.26 575.2 436.89 581.75 430.52 588.47 423.96 594.9 417.24 600.78 410.52 606.13 403.8 610.37 397.1 613.35 390.4 615.34 383.73 615.91 377.09 615.06 370.46 613.13 363.87 609.88 357.34 605.45 350.81 600.19 344.34 594.01 337.94 587.12 331.54 579.84 325.22 572.16 319 564.28 312.77 556.44 306.65 548.65 300.64 541.05 294.64 533.8 288.77 526.87 283.04 520.32 277.34 514.25 271.79 508.58 266.42 503.27 261.09 498.45 255.96 493.93 251.05 489.64 243.9 483.86 231.01 473.08 225.36 467.74 220.19 462.45 211.79 450.87 208.63 444.41 206.07 437.64 203.23 422.44 203 413.99 203.11 408.23 203.66 402.15 204.65 395.73 205.75 389.32 207.24 382.74 209.1 376.04 211.03 369.34 213.3 362.53 215.87 355.64 218.47 348.78 221.35 341.86 224.48 334.91 227.61 328.02 230.96 321.14 234.53 314.33 238.05 307.6 241.76 300.97 245.64 294.51 249.46 288.2 253.43 282.1 257.55 276.29 261.59 270.7 265.78 265.45 270.09 260.62 276.49 254.02 289.82 243.77 296.74 240.25 303.67 237.7 318.13 235.44 325.67 235.47 333.28 235.76 349.22 236.73 357.58 236.91 363.17 236.5 368.94 235.85 374.88 234.92 380.81 233.38 386.92 231.52 393.21 229.36 399.49 226.66 405.95 223.75 412.6 220.75" stroke-dasharray="4 10" transform="rotate(36.36, 400, 400)" opacity="0.87"></path><path d="M415.95 231.92C422.26 228.74 428.58 225.76 434.89 223.06 441.21 220.41 447.52 218.25 453.82 216.65 466.4 214.48 478.85 215.24 490.96 218.94 502.97 224.54 514.51 232.75 525.29 242.94 535.76 254.13 545.24 266.44 553.42 279.27 561.02 292.02 567.08 304.8 571.34 317.39 574.86 329.49 576.52 341.43 576.24 353.25 575.4 364.7 572.89 376.3 568.87 388.13 566.88 394 564.62 399.97 562.12 406.05 559.75 412.11 557.23 418.3 554.58 424.6 552.18 430.9 549.78 437.17 547.41 443.37 545.34 449.58 543.32 455.71 541.38 461.73 538.44 473.68 535.67 484.98 533.01 495.25 531.3 505.01 529.31 513.29 526.83 519.68 523.33 526.9 511.51 530.39 502.64 528.61 496.16 528.43 488.44 528.99 479.6 531.14 470.61 536.41 460.56 544.07 449.6 553.89 444.1 559.71 438.38 565.79 432.46 571.93 426.54 578.18 420.43 584.15 414.15 589.6 407.87 594.59 401.57 598.59 395.28 601.48 388.99 603.53 382.71 604.31 376.45 603.84 363.96 600.08 351.58 591.84 339.46 580.23 327.38 566.89 315.58 552.21 304.21 537.35 292.93 523.31 282.14 510.22 272.03 498.35 262.11 488.06 252.97 478.74 244.83 470.05 237.02 462.38 230.32 454.65 224.95 446.5 220.05 438.69 216.56 430.01 214.64 420.32 213.69 412.92 213.99 396.71 215.26 387.91 216.34 381.94 217.79 375.85 219.58 369.65 221.44 363.47 223.62 357.21 226.09 350.9 231.1 338.38 237.15 325.82 244.04 313.59 250.79 301.75 258.27 290.58 266.32 280.54 274.1 271.28 282.44 263.54 291.23 257.66 299.74 252.75 308.76 249.72 318.24 248.55 327.49 247.69 337.29 247.94 347.62 248.82 357.81 248.51 368.61 247.72 380 246.08 385.67 244.43 391.51 242.5 397.5 240.32 403.48 237.66 409.63 234.83 415.94 231.92" stroke-dasharray="10 2" transform="rotate(40.400000000000006, 400, 400)" opacity="0.08"></path><path d="M418.7 243.1C430.59 236.87 442.48 231.72 454.19 228.25 465.9 225.79 477.4 225.93 488.49 228.71 499.47 233.19 509.92 240.13 519.58 249.04 528.95 259.02 537.34 270.28 544.48 282.26 551.12 294.42 556.33 306.82 559.9 319.16 562.87 331.24 564.17 343.21 563.76 355.02 562.93 366.56 560.61 378.12 556.96 389.69 553.42 401.18 549.02 412.86 543.98 424.68 539.77 436.49 535.54 447.86 531.45 458.61 528.44 469.23 525.52 478.99 522.64 487.57 519.47 499.07 511.87 512.97 506.52 515.16 502.75 516 497.93 515.88 492.06 515.38 486.08 516.31 479 518.11 470.89 521.4 462.66 527.42 453.44 535.41 443.34 545.08 433.19 556.53 422.21 568.11 410.53 578.42 398.86 587.16 387.07 591.97 375.35 592.49 363.66 589.76 352.04 582.96 340.67 572.96 329.34 561.17 318.27 547.79 307.62 533.83 297.07 520.2 287 507.07 277.6 494.81 268.39 483.74 259.93 473.53 252.43 463.99 245.25 455.38 239.12 446.94 234.23 438.38 229.78 430.2 226.64 421.47 224.98 412.06 223.77 402.7 224.03 392.48 225.86 381.41 228.05 370.34 231.59 358.97 236.27 347.56 241.07 336.27 246.85 325.13 253.44 314.47 259.93 304.18 267.13 294.69 274.89 286.36 282.43 278.7 290.5 272.5 299.01 267.97 307.28 264.15 316.03 261.93 325.2 261.21 334.17 260.5 343.64 260.61 353.58 261.12 363.39 260.38 373.74 259.16 384.6 257.15 395.41 253.18 406.79 248.37 418.69 243.1" stroke-dasharray="1 10" transform="rotate(44.44, 400, 400)" opacity="0.67"></path><path d="M420.75 254.27C431.91 248.35 442.97 243.4 453.8 239.93 464.62 237.25 475.15 236.86 485.22 238.8 495.19 242.23 504.58 247.93 513.17 255.53 521.5 264.22 528.87 274.26 535.06 285.17 540.83 296.46 545.29 308.16 548.27 319.96 550.77 331.69 551.79 343.39 551.3 354.93 550.5 366.32 548.39 377.63 545.09 388.81 541.94 399.94 537.97 411.05 533.37 422.03 529.49 433.02 525.5 443.33 521.55 452.83 518.52 462.21 515.5 470.6 512.46 477.76 508.91 487.34 500.73 498.65 495.37 500.66 491.68 501.84 487.1 502.45 481.59 502.99 476.04 505 469.51 507.92 462.05 512.17 454.51 518.75 446.05 526.9 436.77 536.29 427.44 547.07 417.32 557.77 406.53 567.25 395.73 575.36 384.8 580.05 373.9 581 363.03 579.18 352.23 573.71 341.63 565.26 331.1 555.05 320.8 543.1 310.92 530.29 301.15 517.41 291.84 504.64 283.16 492.38 274.69 480.95 266.93 470.19 260.08 460.07 253.53 450.72 247.97 441.66 243.57 432.7 239.56 424.13 236.77 415.29 235.34 406.07 234.33 396.93 234.67 387.23 236.46 376.96 238.59 366.7 241.97 356.38 246.41 346.22 250.97 336.16 256.47 326.42 262.74 317.31 268.94 308.51 275.83 300.58 283.25 293.81 290.51 287.57 298.28 282.66 306.46 279.23 314.46 276.23 322.9 274.55 331.72 274.05 340.38 273.34 349.49 273.2 359 273.26 368.41 272.1 378.28 270.46 388.58 268.14 398.85 264.08 409.59 259.34 420.75 254.27" stroke-dasharray="2 1" transform="rotate(48.48, 400, 400)" opacity="0.37"></path><path d="M422.03 265.45C432.42 259.85 442.65 255.13 452.58 251.7 462.5 248.88 472.07 248.04 481.15 249.25 490.12 251.7 498.49 256.23 506.07 262.54 513.42 269.88 519.85 278.6 525.2 288.29 530.19 298.46 533.98 309.2 536.46 320.18 538.57 331.25 539.37 342.37 538.85 353.38 538.12 364.34 536.23 375.18 533.28 385.81 530.48 396.41 526.93 406.84 522.77 416.96 519.21 427.09 515.47 436.39 511.69 444.77 508.68 453.06 505.6 460.29 502.46 466.35 498.61 474.51 489.96 484.41 484.58 486.73 480.94 488.46 476.53 489.92 471.34 491.53 466.15 494.53 460.1 498.41 453.22 503.42 446.3 510.36 438.54 518.51 430.03 527.53 421.48 537.58 412.2 547.41 402.28 556.07 392.35 563.56 382.28 568.09 372.23 569.39 362.22 568.35 352.24 564.09 342.47 557.11 332.76 548.46 323.28 538.03 314.2 526.53 305.22 514.69 296.7 502.62 288.78 490.76 281.05 479.38 274.01 468.46 267.81 458.07 261.89 448.26 256.89 438.8 252.97 429.58 249.39 420.7 246.94 411.78 245.74 402.74 244.91 393.79 245.32 384.55 247.07 375.05 249.11 365.55 252.31 356.23 256.51 347.26 260.82 338.37 266.01 329.97 271.93 322.28 277.82 314.83 284.36 308.29 291.41 302.85 298.34 297.77 305.77 293.88 313.59 291.25 321.26 288.83 329.35 287.45 337.79 286.97 346.09 286.11 354.79 285.62 363.84 285.22 372.8 283.64 382.17 281.61 391.88 279.02 401.56 274.93 411.64 270.3 422.03 265.45" stroke-dasharray="8 7" transform="rotate(52.52, 400, 400)" opacity="0.24"></path><path d="M422.49 276.63C432.1 271.37 441.47 266.9 450.51 263.56 459.53 260.67 468.16 259.47 476.27 260.04 484.28 261.64 491.69 265.08 498.33 270.15 504.78 276.15 510.36 283.51 514.94 291.87 519.24 300.77 522.47 310.33 524.54 320.26 526.32 330.38 526.97 340.66 526.45 350.89 525.8 361.15 524.14 371.31 521.53 381.21 519.07 391.12 515.92 400.77 512.17 410.02 508.92 419.28 505.44 427.65 501.85 435.06 498.9 442.42 495.82 448.77 492.65 454.03 488.58 461.26 479.57 470.74 474.18 473.73 470.58 476.12 466.33 478.45 461.41 481.05 456.53 484.91 450.9 489.55 444.55 495.12 438.18 502.22 431.08 510.22 423.29 518.77 415.48 528.07 407.01 537.03 397.94 544.89 388.87 551.77 379.67 556.1 370.48 557.65 361.32 557.29 352.21 554.1 343.28 548.47 334.42 541.34 325.78 532.44 317.52 522.37 309.37 511.78 301.64 500.71 294.49 489.58 287.52 478.65 281.18 467.96 275.63 457.65 270.34 447.74 265.9 438.15 262.44 428.87 259.29 419.86 257.16 410.97 256.18 402.16 255.51 393.44 255.98 384.67 257.67 375.88 259.62 367.1 262.64 358.71 266.56 350.83 270.61 343 275.48 335.78 281.02 329.33 286.56 323.04 292.72 317.64 299.37 313.26 305.94 309.09 312.97 305.94 320.38 303.82 327.68 301.72 335.37 300.43 343.37 299.81 351.27 298.7 359.52 297.82 368.06 296.93 376.54 294.97 385.36 292.62 394.45 289.81 403.51 285.72 412.89 281.24 422.49 276.63" stroke-dasharray="10 0" transform="rotate(56.56, 400, 400)" opacity="0.43"></path><path d="M422.12 287.81C430.92 282.9 439.44 278.71 447.59 275.5 455.71 272.6 463.43 271.14 470.61 271.19 477.71 272.04 484.22 274.51 490 278.43 495.62 283.17 500.44 289.17 504.35 296.17 508.05 303.7 510.8 311.96 512.53 320.67 514.05 329.63 514.58 338.84 514.1 348.09 513.55 357.42 512.1 366.69 509.83 375.73 507.69 384.8 504.92 393.6 501.56 401.98 498.63 410.36 495.42 417.88 492.04 424.51 487.67 433.95 478.81 448.26 474.13 453.33 469.59 458.05 458.61 466.55 451.89 471.58 447.27 476.13 442.03 481.32 436.17 487.22 430.31 494.31 423.81 502.01 416.72 510.01 409.61 518.52 401.91 526.63 393.68 533.71 385.45 539.99 377.11 544.07 368.79 545.81 360.5 545.99 352.25 543.74 344.19 539.35 336.18 533.63 328.4 526.24 320.97 517.65 313.65 508.45 306.73 498.59 300.34 488.47 294.12 478.34 288.5 468.23 283.59 458.36 278.91 448.7 275.01 439.3 272 430.22 269.25 421.32 267.44 412.62 266.65 404.15 266.14 395.74 266.66 387.46 268.28 379.37 270.12 371.27 272.94 363.73 276.59 356.81 280.35 349.91 284.87 343.69 290.02 338.25 295.19 332.89 300.93 328.38 307.14 324.76 313.3 321.22 319.9 318.54 326.85 316.69 333.73 314.71 340.96 313.34 348.47 312.45 355.92 311.02 363.67 309.72 371.66 308.38 379.61 306.08 387.83 303.45 396.26 300.49 404.68 296.46 413.33 292.15 422.12 287.81" stroke-dasharray="6 0" transform="rotate(60.599999999999994, 400, 400)" opacity="0.40"></path><path d="M420.93 298.98C428.9 294.45 436.57 290.56 443.85 287.52 451.1 284.68 457.94 283.04 464.25 282.68 473.32 283.74 488.1 293.37 493.5 301.4 496.68 307.56 499.02 314.45 500.47 321.85 501.78 329.53 502.23 337.53 501.82 345.64 501.37 353.88 500.14 362.12 498.18 370.19 496.35 378.31 493.93 386.2 490.96 393.73 488.32 401.25 485.39 408.02 482.25 414.01 478.07 422.61 469.3 436.19 464.61 441.48 460.02 446.72 449.26 457.07 442.86 463.12 438.5 468.13 433.62 473.65 428.22 479.67 422.83 486.57 416.9 493.85 410.46 501.24 404.02 508.95 397.06 516.21 389.66 522.54 382.25 528.2 374.76 532.02 367.3 533.86 359.86 534.47 352.49 533.03 345.29 529.73 338.15 525.31 331.22 519.35 324.63 512.23 318.13 504.48 312.01 495.98 306.39 487.07 300.91 478 295.97 468.78 291.7 459.65 287.61 450.6 284.23 441.7 281.65 433.07 279.29 424.55 277.77 416.25 277.17 408.24 276.79 400.28 277.34 392.55 278.88 385.13 280.61 377.7 283.22 370.91 286.57 364.8 290.04 358.69 294.19 353.27 298.93 348.61 303.69 343.96 308.99 340.07 314.73 336.95 320.44 333.81 326.56 331.36 333.01 329.56 339.41 327.54 346.14 325.97 353.11 324.74 360.04 322.97 367.24 321.27 374.63 319.52 382 316.94 389.59 314.12 397.33 311.07 405.06 307.14 412.95 303.04 420.93 298.98" stroke-dasharray="6 1" transform="rotate(64.64, 400, 400)" opacity="0.25"></path><path d="M418.96 310.16C426.1 306.02 432.92 302.45 439.35 299.62 448.76 296.03 465.13 294.74 471.87 297.23 477.84 301.54 486.17 315.36 488.4 324.22 489.54 330.56 489.95 337.28 489.62 344.2 489.27 351.23 488.26 358.36 486.59 365.41 485.05 372.5 482.96 379.46 480.35 386.15 478.02 392.85 475.36 398.94 472.48 404.41 468.53 412.34 460.02 425.59 455.42 431.22 450.88 436.99 440.43 448.86 434.37 455.6 430.27 460.86 425.74 466.49 420.78 472.42 415.85 478.98 410.46 485.74 404.66 492.44 398.85 499.33 392.62 505.77 386.02 511.36 379.41 516.42 372.75 519.94 366.15 521.82 359.56 522.75 353.04 521.97 346.71 519.61 340.42 516.34 334.34 511.71 328.57 506 322.88 499.7 317.55 492.61 312.67 485.02 307.91 477.2 303.65 469.1 299.98 460.96 296.46 452.79 293.58 444.66 291.4 436.74 289.41 428.85 288.16 421.16 287.72 413.76 287.47 406.39 288.04 399.28 289.48 392.52 291.09 385.76 293.47 379.66 296.53 374.22 299.67 368.76 303.45 363.97 307.75 359.86 312.09 355.72 316.92 352.24 322.14 349.39 327.37 346.45 332.97 344.06 338.87 342.16 344.75 340 350.92 338.17 357.31 336.57 363.67 334.48 370.27 332.42 377.02 330.33 383.76 327.55 390.67 324.61 397.68 321.53 404.69 317.76 411.81 313.92 418.96 310.16" stroke-dasharray="2 9" transform="rotate(68.68, 400, 400)" opacity="0.45"></path><path d="M416.28 321.34C428.91 313.66 440.21 308.56 449.71 306.64 459.05 305.87 466.38 308.96 471.26 315.29 475.86 322.9 477.99 332.97 477.51 344.29 477.06 356.05 474.44 368.31 469.75 380.1 465.89 391.89 460.79 402.01 454.96 410.48 450.04 419.34 444.09 427.39 437.21 435.12 430.8 444.44 423.01 454.59 413.97 465.41 405 477.91 394.55 490.17 382.89 500.18 371.24 508.56 359.55 511.44 348.53 509.01 337.65 503.76 327.65 494.18 319.23 482.03 311.2 468.83 305 454.53 301.27 440.48 298.11 426.42 297.57 412.9 300.09 400.74 303.15 388.57 308.86 378.78 316.5 371.36 324.31 363.73 333.85 358.11 344.47 354.19 355.07 349.23 366.72 344.9 378.86 340.78 390.99 334.47 403.66 327.76 416.28 321.34" stroke-dasharray="10 8" transform="rotate(72.72, 400, 400)" opacity="0.34"></path><path d="M413 332.52C423.96 325.71 433.67 321.09 441.74 319.07 449.7 317.74 455.9 319.56 460.01 324.11 463.95 329.57 465.82 337.28 465.5 346.36 465.25 355.78 463.12 365.99 459.14 376.24 455.79 386.49 451.22 395.79 445.89 404.07 441.23 412.71 435.61 421.01 429.19 429.19 423.14 438.53 415.98 448.45 407.84 458.59 399.77 469.76 390.54 480.42 380.41 489 370.27 496.36 360.23 499.29 350.85 497.95 341.58 494.51 333.14 487.38 326.11 477.85 319.38 467.33 314.26 455.5 311.25 443.54 308.69 431.46 308.38 419.65 310.69 408.87 313.43 398.1 318.47 389.3 325.18 382.43 332.06 375.32 340.47 369.73 349.83 365.42 359.22 360.17 369.53 355.38 380.23 350.86 390.93 344.66 402.04 338.35 413 332.52" stroke-dasharray="9 11" transform="rotate(76.76, 400, 400)" opacity="0.18"></path><path d="M409.24 343.69C418.56 337.78 426.73 333.72 433.48 331.75 442.75 330.58 452.95 340.71 453.6 350.62 453.52 357.93 451.84 366.22 448.54 375 445.69 383.77 441.68 392.19 436.93 400.11 432.66 408.3 427.5 416.48 421.66 424.61 416.1 433.51 409.63 442.76 402.44 451.88 395.31 461.57 387.3 470.62 378.65 477.83 370 484.14 361.55 486.98 353.74 486.46 346.01 484.47 339.06 479.45 333.33 472.31 327.83 464.35 323.7 455.01 321.36 445.25 319.35 435.33 319.22 425.36 321.29 416.03 323.7 406.7 328.04 398.83 333.8 392.42 339.71 385.78 346.95 380.23 355.01 375.61 363.11 370.24 372 365.23 381.2 360.55 390.41 354.66 399.93 348.87 409.24 343.69" stroke-dasharray="1 4" transform="rotate(80.80000000000001, 400, 400)" opacity="0.30"></path><path d="M405.14 354.87C416.18 348.16 432.64 343.14 437.6 345.35 441.13 349.75 441.23 365.89 437.94 376.5 435.58 383.83 432.18 391.24 428.08 398.52 424.3 405.97 419.72 413.59 414.59 421.17 409.64 429.2 403.98 437.38 397.78 445.24 391.64 453.34 384.87 460.77 377.68 466.65 370.49 471.91 363.57 474.52 357.27 474.57 351.01 473.66 345.45 470.38 340.94 465.31 336.57 459.64 333.35 452.66 331.6 445.06 330.08 437.32 330.09 429.26 331.9 421.42 333.94 413.59 337.57 406.68 342.37 400.78 347.3 394.7 353.33 389.32 360.04 384.61 366.81 379.37 374.22 374.42 381.88 369.84 389.55 364.47 397.45 359.33 405.14 354.87" stroke-dasharray="3 11" transform="rotate(84.84, 400, 400)" opacity="0.35"></path><path d="M400.84 366.05C417.5 356.37 431.38 364.69 427.33 380.6 423.81 392.39 416.71 405.72 407.95 418.62 399.67 432.36 389.04 446.04 377.54 455.47 366.04 463.36 355.83 463.19 348.92 456.84 342.38 448.97 339.65 437.05 342.5 424.46 345.97 411.86 354.34 400.93 364.98 392.32 375.8 382.37 388.66 372.96 400.84 366.05" stroke-dasharray="8 3" transform="rotate(88.88, 400, 400)" opacity="0.95"></path><path d="M396.51 377.23C408.89 369.88 419.54 375.04 416.73 386.82 414.07 395.75 408.55 406.36 401.71 416.63 395.13 427.19 386.87 437.41 378.24 444.29 365.88 450.59 351.74 438.27 353.11 424.8 355.73 415.34 361.97 406.3 369.88 398.7 377.92 390.42 387.47 382.69 396.51 377.23" stroke-dasharray="10 7" transform="rotate(92.92, 400, 400)" opacity="0.77"></path><path d="M392.31 388.4C404.24 379.85 410.21 382.44 406.13 394.5 402.77 406.55 391.3 423.98 379.74 433.12 368.17 440.76 360.69 434.97 363.71 422.41 367.38 409.84 380.38 395.57 392.31 388.4" stroke-dasharray="5 3" transform="rotate(96.96, 400, 400)" opacity="0.16"></path></g></svg>