<?xml version="1.0" encoding="UTF-8" standalone="no"?>
<!DOCTYPE svg PUBLIC "-//W3C//DTD SVG 1.1//EN" "http://www.w3.org/Graphics/SVG/1.1/DTD/svg11.dtd">
<!-- Created with Vectornator (http://vectornator.io/) -->
<svg height="100%" stroke-miterlimit="10" style="fill-rule:nonzero;clip-rule:evenodd;stroke-linecap:round;stroke-linejoin:round;" version="1.1" viewBox="0 0 1024 1024" width="100%" xml:space="preserve" xmlns="http://www.w3.org/2000/svg" xmlns:vectornator="http://vectornator.io" xmlns:xlink="http://www.w3.org/1999/xlink">
<defs>
<clipPath id="TextBounds">
<rect height="698.064" width="1021.41" x="2.44244" y="198.392"/>
</clipPath>
</defs>
<g id="Layer-1" vectornator:layerName="Layer 1">
<path clip-path="url(#TextBounds)" d="M855.147 202.692C853.347 204.492 851.847 206.292 850.647 208.092C841.047 221.292 829.197 236.442 815.097 253.542C800.997 270.642 785.697 286.692 769.197 301.692C752.697 316.692 735.447 329.292 717.447 339.492C699.447 349.692 681.447 354.792 663.447 354.792L516.747 354.792C505.347 354.792 490.647 355.092 472.647 355.692C454.647 356.292 437.097 358.692 419.997 362.892C402.897 367.092 388.197 373.392 375.897 381.792C363.597 390.192 357.447 402.192 357.447 417.792C357.447 426.792 359.847 435.492 364.647 443.892C369.447 452.292 375.897 459.492 383.997 465.492C392.097 471.492 401.697 476.292 412.797 479.892C423.897 483.492 435.447 485.292 447.447 485.292L712.047 485.292C733.647 485.292 753.147 491.142 770.547 502.842C787.947 514.542 802.797 529.542 815.097 547.842C827.397 566.142 836.997 586.992 843.897 610.392C850.797 633.792 854.247 657.192 854.247 680.592C854.247 709.392 849.147 736.992 838.947 763.392C828.747 789.792 814.947 813.042 797.547 833.142C780.147 853.242 759.897 869.142 736.797 880.842C713.697 892.542 688.947 898.392 662.547 898.392L200.847 898.392L226.947 869.592C265.347 825.792 298.047 794.292 325.047 775.092C352.047 755.892 376.647 746.292 398.847 746.292L545.547 746.292C556.347 746.292 570.447 745.992 587.847 745.392C605.247 744.792 622.047 742.542 638.247 738.642C654.447 734.742 668.397 728.592 680.097 720.192C691.797 711.792 697.647 700.092 697.647 685.092C697.647 676.092 695.247 667.392 690.447 658.992C685.647 650.592 679.197 643.242 671.097 636.942C662.997 630.642 653.397 625.542 642.297 621.642C631.197 617.742 619.647 615.792 607.647 615.792L343.047 615.792C321.447 615.792 301.947 610.392 284.547 599.592C267.147 588.792 252.297 574.392 239.997 556.392C227.697 538.392 218.097 517.842 211.197 494.742C204.297 471.642 200.847 447.792 200.847 423.192C200.847 393.192 205.947 364.842 216.147 338.142C226.347 311.442 240.147 288.042 257.547 267.942C274.947 247.842 295.347 231.942 318.747 220.242C342.147 208.542 367.047 202.692 393.447 202.692L855.147 202.692Z" fill="#e51d24" fill-rule="evenodd" opacity="1" stroke="none"/>
</g>
</svg>
