<svg xmlns="http://www.w3.org/2000/svg" version="1.1" xmlns:xlink="http://www.w3.org/1999/xlink" xmlns:svgjs="http://svgjs.dev/svgjs" viewBox="0 0 1422 800" opacity="0.32"><defs><linearGradient x1="50%" y1="0%" x2="50%" y2="100%" id="oooscillate-grad"><stop stop-color="hsl(206, 75%, 49%)" stop-opacity="1" offset="0%"></stop><stop stop-color="hsl(331, 90%, 56%)" stop-opacity="1" offset="100%"></stop></linearGradient></defs><g stroke-width="1.5" stroke="url(#oooscillate-grad)" fill="none" stroke-linecap="round"><path d="M 0 539 Q 355.5 400 711 400 Q 1066.5 400 1422 539" opacity="1.00"></path><path d="M 0 528 Q 355.5 400 711 400 Q 1066.5 400 1422 528" opacity="0.98"></path><path d="M 0 517 Q 355.5 400 711 400 Q 1066.5 400 1422 517" opacity="0.96"></path><path d="M 0 506 Q 355.5 400 711 400 Q 1066.5 400 1422 506" opacity="0.94"></path><path d="M 0 495 Q 355.5 400 711 400 Q 1066.5 400 1422 495" opacity="0.92"></path><path d="M 0 484 Q 355.5 400 711 400 Q 1066.5 400 1422 484" opacity="0.90"></path><path d="M 0 473 Q 355.5 400 711 400 Q 1066.5 400 1422 473" opacity="0.88"></path><path d="M 0 462 Q 355.5 400 711 400 Q 1066.5 400 1422 462" opacity="0.86"></path><path d="M 0 451 Q 355.5 400 711 400 Q 1066.5 400 1422 451" opacity="0.84"></path><path d="M 0 440 Q 355.5 400 711 400 Q 1066.5 400 1422 440" opacity="0.82"></path><path d="M 0 429 Q 355.5 400 711 400 Q 1066.5 400 1422 429" opacity="0.80"></path><path d="M 0 418 Q 355.5 400 711 400 Q 1066.5 400 1422 418" opacity="0.78"></path><path d="M 0 407 Q 355.5 400 711 400 Q 1066.5 400 1422 407" opacity="0.76"></path><path d="M 0 396 Q 355.5 400 711 400 Q 1066.5 400 1422 396" opacity="0.74"></path><path d="M 0 385 Q 355.5 400 711 400 Q 1066.5 400 1422 385" opacity="0.72"></path><path d="M 0 374 Q 355.5 400 711 400 Q 1066.5 400 1422 374" opacity="0.70"></path><path d="M 0 363 Q 355.5 400 711 400 Q 1066.5 400 1422 363" opacity="0.68"></path><path d="M 0 352 Q 355.5 400 711 400 Q 1066.5 400 1422 352" opacity="0.66"></path><path d="M 0 341 Q 355.5 400 711 400 Q 1066.5 400 1422 341" opacity="0.64"></path><path d="M 0 330 Q 355.5 400 711 400 Q 1066.5 400 1422 330" opacity="0.62"></path><path d="M 0 319 Q 355.5 400 711 400 Q 1066.5 400 1422 319" opacity="0.60"></path><path d="M 0 308 Q 355.5 400 711 400 Q 1066.5 400 1422 308" opacity="0.58"></path><path d="M 0 297 Q 355.5 400 711 400 Q 1066.5 400 1422 297" opacity="0.56"></path><path d="M 0 286 Q 355.5 400 711 400 Q 1066.5 400 1422 286" opacity="0.54"></path><path d="M 0 275 Q 355.5 400 711 400 Q 1066.5 400 1422 275" opacity="0.53"></path><path d="M 0 264 Q 355.5 400 711 400 Q 1066.5 400 1422 264" opacity="0.51"></path><path d="M 0 253 Q 355.5 400 711 400 Q 1066.5 400 1422 253" opacity="0.49"></path><path d="M 0 242 Q 355.5 400 711 400 Q 1066.5 400 1422 242" opacity="0.47"></path><path d="M 0 231 Q 355.5 400 711 400 Q 1066.5 400 1422 231" opacity="0.45"></path><path d="M 0 220 Q 355.5 400 711 400 Q 1066.5 400 1422 220" opacity="0.43"></path><path d="M 0 209 Q 355.5 400 711 400 Q 1066.5 400 1422 209" opacity="0.41"></path><path d="M 0 198 Q 355.5 400 711 400 Q 1066.5 400 1422 198" opacity="0.39"></path><path d="M 0 187 Q 355.5 400 711 400 Q 1066.5 400 1422 187" opacity="0.37"></path><path d="M 0 176 Q 355.5 400 711 400 Q 1066.5 400 1422 176" opacity="0.35"></path><path d="M 0 165 Q 355.5 400 711 400 Q 1066.5 400 1422 165" opacity="0.33"></path><path d="M 0 154 Q 355.5 400 711 400 Q 1066.5 400 1422 154" opacity="0.31"></path><path d="M 0 143 Q 355.5 400 711 400 Q 1066.5 400 1422 143" opacity="0.29"></path><path d="M 0 132 Q 355.5 400 711 400 Q 1066.5 400 1422 132" opacity="0.27"></path><path d="M 0 121 Q 355.5 400 711 400 Q 1066.5 400 1422 121" opacity="0.25"></path><path d="M 0 110 Q 355.5 400 711 400 Q 1066.5 400 1422 110" opacity="0.23"></path><path d="M 0 99 Q 355.5 400 711 400 Q 1066.5 400 1422 99" opacity="0.21"></path><path d="M 0 88 Q 355.5 400 711 400 Q 1066.5 400 1422 88" opacity="0.19"></path><path d="M 0 77 Q 355.5 400 711 400 Q 1066.5 400 1422 77" opacity="0.17"></path><path d="M 0 66 Q 355.5 400 711 400 Q 1066.5 400 1422 66" opacity="0.15"></path><path d="M 0 55 Q 355.5 400 711 400 Q 1066.5 400 1422 55" opacity="0.13"></path><path d="M 0 44 Q 355.5 400 711 400 Q 1066.5 400 1422 44" opacity="0.11"></path><path d="M 0 33 Q 355.5 400 711 400 Q 1066.5 400 1422 33" opacity="0.09"></path><path d="M 0 22 Q 355.5 400 711 400 Q 1066.5 400 1422 22" opacity="0.07"></path></g></svg>