<?xml version="1.0" encoding="UTF-8" standalone="no"?>
<!DOCTYPE svg PUBLIC "-//W3C//DTD SVG 1.1//EN" "http://www.w3.org/Graphics/SVG/1.1/DTD/svg11.dtd">
<!-- Created with Vectornator (http://vectornator.io/) -->
<svg height="100%" stroke-miterlimit="10" style="fill-rule:nonzero;clip-rule:evenodd;stroke-linecap:round;stroke-linejoin:round;" version="1.1" viewBox="0 0 250 165" width="100%" xml:space="preserve" xmlns="http://www.w3.org/2000/svg" xmlns:vectornator="http://vectornator.io" xmlns:xlink="http://www.w3.org/1999/xlink">
<defs>
<radialGradient cx="124.932" cy="81.121" gradientTransform="matrix(1 0 0 1 0 0)" gradientUnits="userSpaceOnUse" id="RadialGradient" r="121.874">
<stop offset="0" stop-color="#dd86ef"/>
<stop offset="1" stop-color="#797ac5"/>
</radialGradient>
<linearGradient gradientTransform="matrix(1 0 0 1 0 0)" gradientUnits="userSpaceOnUse" id="LinearGradient" x1="-0.0673855" x2="249.603" y1="81.3011" y2="81.3011">
<stop offset="0.014107" stop-color="#372cbd"/>
<stop offset="0.990959" stop-color="#e3d8f1"/>
</linearGradient>
<radialGradient cx="99.2734" cy="78.9358" gradientTransform="matrix(1 0 0 1 0 0)" gradientUnits="userSpaceOnUse" id="RadialGradient_2" r="58.7696">
<stop offset="0" stop-color="#9c7aea" stop-opacity="0.391838"/>
<stop offset="1" stop-color="#6d6de6"/>
</radialGradient>
<filter color-interpolation-filters="sRGB" filterUnits="userSpaceOnUse" height="88.9386" id="Filter" width="91.717" x="50.8099" y="30.7416">
<feComponentTransfer in="SourceGraphic" result="Alpha">
<feFuncA slope="0" type="linear"/>
</feComponentTransfer>
<feDropShadow dx="-1.58976" dy="-2.54414" flood-color="#f9fcf9" flood-opacity="1" in="Alpha" result="Shadow" stdDeviation="5.5"/>
</filter>
<radialGradient cx="98.2611" cy="77.7551" gradientTransform="matrix(1 0 0 1 0 0)" gradientUnits="userSpaceOnUse" id="RadialGradient_3" r="32.9015">
<stop offset="0" stop-color="#4524d2"/>
<stop offset="1" stop-color="#5673f8"/>
</radialGradient>
<clipPath id="TextBounds">
<rect height="66.5512" width="54.474" x="69.9252" y="48.8523"/>
</clipPath>
<filter color-interpolation-filters="sRGB" filterUnits="userSpaceOnUse" height="64.2979" id="Filter_2" width="53.2236" x="70.7284" y="49.5544">
<feDropShadow dx="0" dy="0" flood-color="#f9fcf9" flood-opacity="1" in="SourceGraphic" result="Shadow" stdDeviation="1.5"/>
</filter>
</defs>
<clipPath id="ArtboardFrame">
<rect height="165" width="250" x="0" y="0"/>
</clipPath>
<g clip-path="url(#ArtboardFrame)" id="Layer-1" vectornator:layerName="Layer 1">
<g opacity="1">
<path d="M246.74 62.0298L246.704 8.42562L192.164 8.46478C191.859 13.6341 187.637 17.746 182.417 17.75C177.197 17.7539 172.971 13.6498 172.658 8.48044L3.0577 8.80548L3.09295 62.3235C13.459 62.3979 21.8434 70.8528 21.8513 81.2972C21.8591 91.7416 13.4825 100.208 3.12036 100.298L3.1556 153.816L172.764 153.491C172.748 153.272 172.697 153.064 172.697 152.845C172.693 147.394 177.083 142.973 182.503 142.969C187.923 142.965 192.317 147.382 192.321 152.829C192.321 153.053 192.27 153.26 192.258 153.476L246.806 153.436L246.767 99.8284C236.82 99.288 228.898 91.0836 228.894 80.9408C228.882 70.8019 236.797 62.5859 246.74 62.0298Z" fill="url(#RadialGradient)" fill-rule="evenodd" opacity="1" stroke="none"/>
<path d="M3.97016 157.239C2.93238 157.239 1.93768 156.828 1.20536 156.096C0.469126 155.359-0.028224 154.854-0.028224 153.812L-0.0673855 100.294C-0.0673855 98.1444 1.66355 96.3939 3.81743 96.3783C12.01 96.3078 18.6714 89.5446 18.6674 81.2972C18.6635 73.0537 11.9904 66.2945 3.79785 66.2357C1.64789 66.22 0.484791 64.0936 0.480875 61.9436L0.445631 8.42562C0.445631 6.26391 1.45991 5.54334 3.62162 5.53942L173.222 5.21438L173.226 5.21438C175.297 5.21438 177.173 6.16992 177.299 8.23764C177.491 11.3745 180.06 13.8299 183.142 13.8299L183.145 13.8299C186.235 13.8299 188.8 11.3706 188.988 8.22981C189.11 6.16209 190.578 5.52767 192.65 5.52375L247.19 5.48459L247.19 5.48459C248.228 5.48459 247.441 5.32012 248.177 6.05635C248.913 6.79259 249.324 7.78337 249.324 8.82506L249.36 62.4331C249.36 64.5126 249.763 65.8245 247.687 65.942C239.749 66.3845 233.531 72.9715 233.534 80.9408C233.538 88.9063 239.765 95.4854 247.707 95.9201C249.783 96.0336 249.563 97.4748 249.567 99.5543L249.602 153.158C249.602 155.32 249.692 157.349 247.531 157.349L192.987 157.388L192.987 157.388C191.906 157.388 190.876 156.941 190.136 156.158C189.396 155.371 189.012 154.314 189.078 153.233C189.082 153.135 189.125 152.771 189.137 152.673C189.133 151.232 188.514 149.736 187.398 148.612C186.286 147.496 184.81 146.881 183.239 146.881L183.235 146.881C179.985 146.881 177.342 149.556 177.346 152.837L177.4 153.213C177.479 154.294 177.181 154.87 176.441 155.665C175.705 156.46 174.667 156.91 173.582 156.914L3.97406 157.239C3.97799 157.239 3.97408 157.239 3.97016 157.239ZM7.05216 102.656L6.96993 149.975L169.897 150.139C171.358 144.104 176.782 139.049 183.232 139.045C183.232 139.045 183.236 139.045 183.239 139.045C186.909 139.045 190.355 140.478 192.948 143.082C194.749 144.895 195.826 147.789 196.409 150.221L243.078 150.386L242.753 103.31C232.485 101.038 225.714 91.7964 225.706 80.9447C225.702 70.0892 232.657 61.0664 242.921 58.7833L242.675 12.3418L196.08 12.377C194.216 17.7969 189.102 21.6583 183.153 21.6622C183.149 21.6622 183.145 21.6622 183.142 21.6622C177.201 21.6622 172.086 17.8126 170.214 12.3966L7.05216 12.1773L6.80936 59.0888C17.4417 61.0194 25.8105 69.9169 25.8183 81.1171C25.8262 92.3172 17.6884 100.713 7.05216 102.656Z" fill="url(#LinearGradient)" fill-rule="evenodd" opacity="1" stroke="none"/>
<path d="M40.5039 29.4749L158.043 29.4749L158.043 128.397L40.5039 128.397L40.5039 29.4749Z" fill="url(#RadialGradient_2)" fill-rule="evenodd" opacity="1" stroke="none"/>
<path d="M181.234 34.2604C180.49 34.2604 179.883 33.3832 179.883 32.3023L179.883 28.3862C179.883 27.3053 180.486 26.4281 181.234 26.4281L181.234 26.4281C181.978 26.4281 182.585 27.3053 182.585 28.3862L182.585 32.3023C182.589 33.3832 181.982 34.2604 181.234 34.2604L181.234 34.2604ZM181.274 118.908C180.529 118.908 179.922 118.031 179.922 116.95L179.919 108.487C179.919 107.406 180.522 106.529 181.27 106.529L181.27 106.529C182.014 106.529 182.621 107.406 182.621 108.487L182.625 116.95C182.629 118.027 182.022 118.908 181.274 118.908L181.274 118.908ZM181.266 97.745C180.522 97.745 179.915 96.8678 179.915 95.7869L179.911 87.3241C179.911 86.2433 180.514 85.3661 181.262 85.3661L181.262 85.3661C182.006 85.3661 182.613 86.2433 182.613 87.3241L182.617 95.7869C182.617 96.8678 182.014 97.745 181.266 97.745L181.266 97.745ZM181.254 76.5822C180.51 76.5822 179.903 75.7049 179.903 74.6241L179.899 66.1574C179.899 65.0765 180.502 64.1993 181.25 64.1993L181.25 64.1993C181.994 64.1993 182.601 65.0765 182.601 66.1574L182.605 74.6241C182.609 75.7049 182.002 76.5822 181.254 76.5822L181.254 76.5822ZM181.246 55.4232C180.502 55.4232 179.895 54.546 179.895 53.4652L179.891 44.9985C179.891 43.9176 180.494 43.0404 181.242 43.0404L181.242 43.0404C181.986 43.0404 182.593 43.9176 182.593 44.9985L182.597 53.4652C182.597 54.5421 181.994 55.4232 181.246 55.4232L181.246 55.4232ZM181.912 135.52C180.831 135.52 179.954 134.643 179.954 133.562L179.954 129.646C179.954 128.565 180.831 127.688 181.912 127.688L181.912 127.688C182.993 127.688 183.87 128.565 183.87 129.646L183.87 133.562C183.87 134.643 182.993 135.52 181.912 135.52L181.912 135.52Z" fill="#1f212b" fill-rule="evenodd" opacity="1" stroke="none"/>
<path d="M146.24 29.9448L150.156 29.9409" fill="#ffffff" fill-rule="evenodd" opacity="1" stroke="none"/>
<path d="M146.24 31.9029C145.159 31.9029 144.282 31.0257 144.282 29.9448C144.282 28.864 145.155 28.6212 146.24 28.6212L150.156 28.6172L150.156 28.6172C151.237 28.6172 152.11 28.86 152.114 29.937C152.114 31.0178 151.241 31.8951 150.156 31.8951L146.24 31.9029L146.24 31.9029ZM136.763 31.8911C136.254 31.8911 135.744 31.6953 135.353 31.3429C135 30.9513 134.805 30.4422 134.805 29.9331C134.805 29.424 135 28.9149 135.353 28.5624C136.097 27.8184 137.389 27.8184 138.133 28.5624C138.525 28.9149 138.721 29.424 138.721 29.9331C138.721 30.4422 138.525 30.9513 138.133 31.3429C137.781 31.6953 137.272 31.8911 136.763 31.8911ZM40.5039 98.7397C39.423 98.7397 39.0431 97.7293 39.0431 96.6485L39.0001 30.0741C39.0001 28.9932 39.6266 29.6119 40.7075 29.608L130.826 29.3417C131.084 30.7006 130.826 29.3417 130.826 29.3417C131.907 29.3417 132.529 28.8522 132.533 29.9331C132.537 31.0139 131.664 31.8911 130.579 31.8951L42.4188 32.1535L42.4619 96.7816C42.4619 97.8625 41.5847 98.7397 40.5039 98.7397L40.5039 98.7397Z" fill="#1f212b" fill-rule="evenodd" opacity="1" stroke="none"/>
<g opacity="1">
<path d="M40.5039 108.53L40.4999 104.614" fill="#ffffff" fill-rule="evenodd" opacity="1" stroke="none"/>
<path d="M40.5039 110.488C39.423 110.488 38.7768 109.611 38.7768 108.53L38.7768 104.614C38.7768 103.533 39.423 102.656 40.5039 102.656L40.5039 102.656C41.5847 102.656 42.4619 103.533 42.4619 104.614L42.4619 108.53C42.4619 109.611 41.5847 110.488 40.5039 110.488L40.5039 110.488Z" fill="#1f212b" fill-rule="evenodd" opacity="1" stroke="none"/>
</g>
<path d="M40.4999 129.744C39.983 129.744 39.6031 129.47 39.235 129.102C38.8669 128.733 38.9961 128.146 38.9961 127.629L38.7729 116.249C38.7729 115.168 39.4113 114.404 40.4921 114.404L40.4921 114.404C41.573 114.404 42.4502 115.281 42.4502 116.362L42.4619 126.435L156.089 126.157L156.03 45.8757C156.03 44.7948 156.907 43.9176 157.988 43.9176L157.988 43.9176C159.069 43.9176 159.155 44.9397 159.155 46.0206L159.214 128.26C159.214 129.34 159.128 129.462 158.051 129.462L40.4999 129.744C40.5039 129.744 40.5039 129.744 40.4999 129.744Z" fill="#1f212b" fill-rule="evenodd" opacity="1" stroke="none"/>
<g filter="url(#Filter)" vectornator:shadowAngle="1.01229" vectornator:shadowColor="#f9fcf9" vectornator:shadowOffset="-3" vectornator:shadowOpacity="1" vectornator:shadowRadius="11">
<path d="M98.3531 46.2438L108.441 67.0033L131.163 70.4103L114.652 86.4783L118.451 109.266L98.1573 98.4382L77.7816 109.114L81.7526 86.3529L65.3596 70.1636L88.1085 66.925L98.3531 46.2438Z" fill="url(#RadialGradient_3)" fill-rule="evenodd" opacity="1" stroke="none"/>
<path d="M118.451 111.224C118.134 111.224 117.816 111.146 117.53 110.993L98.1495 100.651L78.6902 110.848C78.0362 111.197 77.2334 111.142 76.6264 110.696C76.0233 110.257 75.7256 109.513 75.851 108.777L79.6418 87.0265L63.9811 71.5538C63.4525 71.033 63.2645 70.2537 63.4994 69.5488C63.7344 68.8399 64.3453 68.3269 65.0816 68.2251L86.8044 65.1314L96.5909 45.3744C96.9237 44.7087 97.4955 44.3445 98.3531 44.2857C99.1011 44.2857 99.7786 44.7165 100.108 45.3862L109.745 65.2175L131.448 68.4718C132.185 68.5815 132.796 69.1023 133.023 69.8072C133.25 70.5161 133.058 71.2915 132.525 71.8123L116.747 87.1636L120.378 108.945C120.499 109.681 120.193 110.422 119.586 110.856C119.254 111.099 118.854 111.224 118.451 111.224ZM98.1573 96.4801C98.4745 96.4801 98.7917 96.5584 99.0776 96.7111L115.866 105.667L112.721 86.7994C112.616 86.165 112.827 85.5227 113.289 85.0763L126.972 71.7653L108.155 68.9457C107.517 68.8517 106.969 68.4444 106.687 67.8648L98.3414 50.6925L89.8668 67.7983C89.581 68.3739 89.0249 68.7773 88.3865 68.8674L69.5499 71.5499L83.1311 84.9666C83.5853 85.417 83.7929 86.0631 83.6832 86.6936L80.3976 105.538L97.2527 96.7072C97.5346 96.5545 97.8479 96.4801 98.1573 96.4801Z" fill="#1f212b" fill-rule="evenodd" opacity="1" stroke="none"/>
</g>
</g>
<path clip-path="url(#TextBounds)" d="M120.952 52.5544L120.952 62.8772L103.51 62.8772L103.51 110.852L91.2494 110.852L91.2494 62.8772L73.7284 62.8772L73.7284 52.5544L120.952 52.5544Z" fill="#1f212b" fill-rule="evenodd" filter="url(#Filter_2)" stroke="none" vectornator:shadowAngle="1.01229" vectornator:shadowColor="#f9fcf9" vectornator:shadowOffset="0" vectornator:shadowOpacity="1" vectornator:shadowRadius="3"/>
</g>
</svg>
