<?xml version="1.0" encoding="UTF-8" standalone="no"?>
<!DOCTYPE svg PUBLIC "-//W3C//DTD SVG 1.1//EN" "http://www.w3.org/Graphics/SVG/1.1/DTD/svg11.dtd">
<!-- Created with Vectornator (http://vectornator.io/) -->
<svg height="100%" stroke-miterlimit="10" style="fill-rule:nonzero;clip-rule:evenodd;stroke-linecap:round;stroke-linejoin:round;" version="1.1" viewBox="0 0 350 700" width="100%" xml:space="preserve" xmlns="http://www.w3.org/2000/svg" xmlns:vectornator="http://vectornator.io" xmlns:xlink="http://www.w3.org/1999/xlink">
<defs/>
<clipPath id="ArtboardFrame">
<rect height="700" width="350" x="0" y="0"/>
</clipPath>
<g clip-path="url(#ArtboardFrame)" id="Layer-1" vectornator:layerName="Layer 1">
<g opacity="1">
<path d="M135.415 135.383L186.311 130.409L177.325 94.833L166.509 88.2574L184.641 54.9575L115.137 54.9575L135.415 135.383Z" fill="#fba026" fill-rule="evenodd" opacity="1" stroke="none"/>
<path d="M235.139 626.198L269.811 700.806L331.443 700.806L280.706 607.567L235.139 626.198Z" fill="#ee1176" fill-rule="evenodd" opacity="1" stroke="none"/>
<path d="M-0.571268 576.29L-0.571268 690.268L50.4833 658.992L33.7832 689.763L51.8352 700.806L69.3306 700.806L131.519 586.744L92.0745 700.806L240.228 700.806L244.841 682.512L232.435 669.361L249.93 664.387L249.93 605.29L63.2867 557.575L-0.571268 576.29Z" fill="#684388" fill-rule="evenodd" opacity="1" stroke="none"/>
<path d="M-0.571268 576.29L-0.571268 673.998L94.3807 573.339L9.44879 573.339L-0.571268 576.29Z" fill="#97d1e3" fill-rule="evenodd" opacity="1" stroke="none"/>
<path d="M230.924 700.806L240.228 700.806L244.841 682.512L232.435 669.361L249.93 664.387L249.93 620.465L208.816 622.151L182.255 671.047L230.924 700.806Z" fill="#ee1176" fill-rule="evenodd" opacity="1" stroke="none"/>
<path d="M271.799 278.615L351.483 286.033L351.483 195.997L341.622 177.956L351.483 167.587L351.483 108.996L232.355 142.802L271.799 278.615Z" fill="#542a1e" fill-rule="evenodd" opacity="1" stroke="none"/>
<path d="M-0.730317 199.791L-0.730317 486.928L94.2217 475.126L146.231 272.207L-0.730317 199.791Z" fill="#542a1e" fill-rule="evenodd" opacity="1" stroke="none"/>
<path d="M87.4621 260.911L57.72 265.126L19.3098 288.647L-0.571268 288.647L-0.571268 339.987L6.34734 347.322L-0.491744 359.799L-0.491744 402.288L38.1571 331.389L28.3756 370.084L87.4621 370.084L87.4621 309.638L65.1158 322.368L52.0738 308.458L63.6048 301.461L63.6048 274.737L87.4621 274.737L87.4621 260.911Z" fill="#73c89e" fill-rule="evenodd" opacity="1" stroke="none"/>
<path d="M51.6762 417.462L54.6981 490.132L25.2741 544.17L-0.571268 544.17L-0.571268 486.928L15.8107 456.748L-0.332695 466.696L-0.332695 429.349L18.1169 409.791L30.1251 457.254L30.1251 432.468L51.6762 417.462Z" fill="#a4d404" fill-rule="evenodd" opacity="1" stroke="none"/>
<path d="M83.963 573.677L29.5684 631.34L16.2084 631.34L11.1983 650.983L-0.571268 663.544L-0.571268 601.075L22.9679 586.575L-0.571268 586.575L-0.571268 565.921L16.2879 565.921L47.3023 509.016L28.5346 474.62L50.8809 451.015L98.2774 538.101L83.963 573.677Z" fill="#1d6b75" fill-rule="evenodd" opacity="1" stroke="none"/>
<path d="M284.523 605.206L328.341 685.632L339.554 641.035L317.446 600.401L351.96 638.59L351.96 562.127L289.136 544.255L284.523 605.206Z" fill="#a4d404" fill-rule="evenodd" opacity="1" stroke="none"/>
<path d="M351.483 404.985L351.483 476.812L311.164 434.154L330.647 469.815L329.375 474.704L338.6 484.484L351.483 508.089L351.483 508.847L342.496 518.289L351.96 527.731L351.96 547.458L285.239 506.571L311.005 379.441L351.483 404.985Z" fill="#ee1176" fill-rule="evenodd" opacity="1" stroke="none"/>
<path d="M351.483 319.502L351.483 420.75L307.347 393.689L307.347 334.508L351.483 319.502Z" fill="#684388" fill-rule="evenodd" opacity="1" stroke="none"/>
<path d="M246.988 614.648L261.541 672.312L293.987 681.501L293.987 626.535L290.09 622.32L309.017 602.256L309.017 577.049L301.621 569.124L323.967 582.866L329.693 581.264L290.408 557.237L253.032 583.709L246.988 614.648Z" fill="#684388" fill-rule="evenodd" opacity="1" stroke="none"/>
<path d="M78.7144 464.672L50.0062 472.85L62.8891 520.397L73.0682 526.72L58.1972 554.118L75.0563 585.058L54.5391 666.242L94.4602 690.69L116.011 651.152L116.011 683.861L127.065 690.606L133.666 678.55L141.539 686.896L156.251 686.896L156.251 607.567L96.4483 458.94L78.7144 464.672Z" fill="#2f112d" fill-rule="evenodd" opacity="1" stroke="none"/>
<path d="M103.446 193.637L53.2667 193.637L-0.730317 160.59L-0.730317 212.942L5.8702 219.855L-0.650792 226.768L-0.650792 271.28L71.3982 271.28L134.62 222.637L103.446 193.637Z" fill="#fac51c" fill-rule="evenodd" opacity="1" stroke="none"/>
<path d="M116.091 205.439L115.932 205.186L106.071 213.448L83.3268 219.939L33.7832 205.861L28.6937 225.925L116.091 225.925L116.091 205.439Z" fill="#fefefe" fill-rule="evenodd" opacity="1" stroke="none"/>
<path d="M145.992 128.976L159.113 104.949L177.006 123.918L189.174 115.656L231.799 140.778L231.799 211.087L148.616 211.087L145.992 128.976Z" fill="#5db9ec" fill-rule="evenodd" opacity="1" stroke="none"/>
<path d="M224.323 190.77L203.249 152.075L213.19 141.537L189.094 141.537L183.448 119.197L309.573 41.9748L269.493 115.572L258.28 118.775L275.776 137.238L341.94 118.438L346.155 122.906L300.905 135.805L289.215 181.834L332.238 169.694L300.11 203.669L242.375 203.669L224.323 190.77Z" fill="#506eb6" fill-rule="evenodd" opacity="1" stroke="none"/>
<path d="M108.297 173.91L38.2366 154.014L31.5565 143.308L13.0274 143.308L6.74497 139.514L40.3042 139.514L59.0719 144.825L19.2303 120.461L9.84641 83.2834L88.7345 131.589L90.7226 139.682L121.737 139.682L75.6925 111.441L97.1641 88.6789L139.948 134.118L121.498 167.924L108.297 173.91Z" fill="#a4d404" fill-rule="evenodd" opacity="1" stroke="none"/>
<path d="M128.099 275.074L88.4959 286.286L43.8828 273.641L88.655 246.158L97.3231 246.158L99.4703 237.559L118.636 225.841L75.2154 239.161L22.6498 224.239L106.468 224.239L123.805 213.617L106.787 218.422L10.8007 159.747L21.457 159.747L52.6305 178.799L111.876 161.939L123.725 161.939L125.236 156.037L158.318 156.037L172.394 211.762L128.099 275.074Z" fill="#1d6b75" fill-rule="evenodd" opacity="1" stroke="none"/>
<path d="M87.3031 377.165L65.2748 375.732L48.0976 344.371L59.231 323.97L66.6267 323.97L60.1853 317.057L70.762 294.211L131.28 294.211L87.3031 377.165Z" fill="#2f112d" fill-rule="evenodd" opacity="1" stroke="none"/>
<path d="M150.843 238.402L126.588 193.805L191.4 193.805L209.452 204.849L217.325 173.825L245.954 173.825L245.954 197.009L252.395 185.122L274.265 185.122L253.27 207.378L295.18 207.378L295.18 230.14L209.134 295.644L174.382 294.042L150.843 238.402Z" fill="#2f112d" fill-rule="evenodd" opacity="1" stroke="none"/>
<path d="M351.483 319.502L351.483 275.242L326.671 248.94L320.15 248.94L320.15 236.716L311.8 231.573L294.543 236.463L309.255 294.717L351.483 319.502Z" fill="#2f112d" fill-rule="evenodd" opacity="1" stroke="none"/>
<path d="M254.94 239.666L254.94 218.169L295.259 208.305L308.062 231.658L278.638 262.85L254.94 239.666Z" fill="#1d6b75" fill-rule="evenodd" opacity="1" stroke="none"/>
<path d="M148.616 255.6L148.616 210.329L182.335 219.939L207.226 257.623L200.546 284.01L211.679 284.01L211.679 255.937L244.204 221.541L265.596 234.608L239.035 339.397L204.84 339.397L148.616 255.6Z" fill="#684388" fill-rule="evenodd" opacity="1" stroke="none"/>
<path d="M146.787 594.247L137.165 620.887L137.165 644.829L156.33 650.309L170.485 594.247L146.787 594.247Z" fill="#57a4dc" fill-rule="evenodd" opacity="1" stroke="none"/>
<path d="M118.795 571.822L104.401 587.081L111.478 614.901L125.872 606.049L115.614 622.826L131.598 641.625L157.762 593.572L118.795 571.822Z" fill="#b373a8" fill-rule="evenodd" opacity="1" stroke="none"/>
<path d="M159.511 614.311L159.511 647.442L180.187 653.343L185.516 632.268L189.412 647.779L205.874 647.779L215.417 609.927L190.923 603.014L159.511 614.311Z" fill="#97d1e3" fill-rule="evenodd" opacity="1" stroke="none"/>
<path d="M263.052 581.77L273.787 595.848L268.857 615.323L259.632 611.276L276.173 627.799L274.821 628.98L265.596 620.634L267.346 626.198L246.113 648.285L228.618 621.645L237.286 647.779L194.899 647.779L222.733 596.607L263.052 581.77ZM220.983 597.45L221.142 597.197L222.733 596.607L220.983 597.45Z" fill="#ffffff" fill-rule="evenodd" opacity="1" stroke="none"/>
<path d="M222.256 583.709L215.417 595.343L215.417 613.215L230.844 613.215L230.844 597.956L242.853 605.29L264.642 583.709L222.256 583.709Z" fill="#fff000" fill-rule="evenodd" opacity="1" stroke="none"/>
<path d="M133.904 575.11L115.137 594.921L139.63 609.843L155.217 600.317L152.513 611.192L154.342 613.131L163.09 596.944L158.716 614.311L186.708 614.311L190.844 606.724L194.979 614.395L213.031 614.395L229.731 583.793L133.904 575.11Z" fill="#fe935d" fill-rule="evenodd" opacity="1" stroke="none"/>
<path d="M133.904 575.11L115.137 594.921L139.63 609.843L155.217 600.317L152.513 611.192L154.342 613.131L163.09 596.944L158.716 614.311L159.511 614.311L178.517 590.116L151.082 576.712L133.904 575.11Z" fill="#fdcd9b" fill-rule="evenodd" opacity="1" stroke="none"/>
<path d="M110.922 467.876L77.5216 482.376L42.6104 460.963L42.6104 409.116L51.7557 403.468L36.487 399.169L36.487 371.011L135.415 371.011L110.922 467.876Z" fill="#684388" fill-rule="evenodd" opacity="1" stroke="none"/>
<path d="M114.5 303.484L114.5 268.835L122.294 268.835L115.216 261.332L145.753 228.96L168.259 270.184L185.277 259.815L199.75 286.37L201.42 281.481L209.134 295.644L209.134 336.7L159.75 336.7L114.5 303.484Z" fill="#f2606b" fill-rule="evenodd" opacity="1" stroke="none"/>
<path d="M175.893 350.863L144.401 283.673L146.231 272.207L182.494 300.281L182.494 317.9L198.319 327.511L205.874 297.583L193.627 275.158L224.403 275.158L224.403 326.499L243.727 327.426L212.713 356.932L175.893 350.863Z" fill="#ad429b" fill-rule="evenodd" opacity="1" stroke="none"/>
<path d="M220.904 337.29L238.876 313.6L243.25 312.336L237.922 302.557L237.922 235.873L271.561 226.262L284.921 240.425L279.036 251.216L304.563 235.62L314.981 235.62L316.015 239.751L300.826 239.751L318.798 272.798L315.061 279.711L329.773 279.711L351.483 319.502L307.585 346.395L228.618 347.238L220.904 337.29Z" fill="#a4d404" fill-rule="evenodd" opacity="1" stroke="none"/>
<path d="M276.173 327.089L279.513 294.885L259.235 289.152L259.235 345.046L276.173 327.089Z" fill="#fefefe" fill-rule="evenodd" opacity="1" stroke="none"/>
<path d="M102.731 372.697L92.5517 369.662L72.1934 369.662L69.092 340.24L79.4302 329.281L102.095 340.831L102.731 372.697Z" fill="#fff000" fill-rule="evenodd" opacity="1" stroke="none"/>
<path d="M86.1102 500.586L82.9292 515.086L87.3826 517.783L81.4978 521.324L93.3469 560.441L122.214 566.764L164.283 566.764L175.336 522.926L86.1102 500.586Z" fill="#e9ca55" fill-rule="evenodd" opacity="1" stroke="none"/>
<path d="M307.744 541.136L310.846 548.891L296.85 572.075L292.794 571.906L298.122 581.77L295.1 582.613L289.851 572.918L289.454 577.639L263.688 584.215L240.864 575.953L220.109 542.653L266.789 511.292L303.211 515.086L307.744 541.136Z" fill="#fdcd9b" fill-rule="evenodd" opacity="1" stroke="none"/>
<path d="M305.12 444.355L324.285 456.073L307.506 488.109L300.428 490.132L311.164 493.167L305.995 513.4L303.211 515.086L313.072 517.868L312.595 542.484L291.283 548.554L285.318 546.868L262.734 546.868L262.734 541.051L283.489 541.051L291.442 526.382L262.734 537.763L262.734 507.836L285 446.378L305.12 444.355Z" fill="#fba8a2" fill-rule="evenodd" opacity="1" stroke="none"/>
<path d="M320.945 391.75L327.546 410.887L343.689 420.75L341.145 422.268L315.061 406.334L333.431 422.858L318.242 450.847L288.42 450.847L247.704 397.988L257.246 378.851L320.707 379.526L320.945 391.75Z" fill="#97d1e3" fill-rule="evenodd" opacity="1" stroke="none"/>
<path d="M269.652 426.399L247.704 397.988L256.61 380.116L274.98 380.116L274.98 426.399L269.652 426.399Z" fill="#fefefe" fill-rule="evenodd" opacity="1" stroke="none"/>
<path d="M105.594 436.768L83.5654 447.727L66.6267 465.178L74.7382 487.181L82.134 487.181L75.1358 494.684L76.0901 498.394L95.8122 486.338L80.7025 503.452L114.182 503.958L138.835 516.603L138.835 443.934L105.594 436.768Z" fill="#fba026" fill-rule="evenodd" opacity="1" stroke="none"/>
<path d="M164.362 587.165L123.964 582.107L92.5517 562.886L158.08 562.886L158.08 544.676L113.307 531.946L108.218 524.106L151.479 536.415L158 529.502L131.916 511.967L131.916 472.007L189.174 472.007L189.174 571.4L164.362 587.165Z" fill="#a4d404" fill-rule="evenodd" opacity="1" stroke="none"/>
<path d="M135.495 580.927L123.964 582.107L164.521 595.596L188.617 595.596L190.685 591.633L192.752 595.427L192.752 598.125L194.502 598.125L194.502 593.404L196.013 596.186L212.633 596.186L234.343 590.032L254.145 590.032L264.642 583.709L212.633 583.709L204.283 578.566L135.495 580.927Z" fill="#f56376" fill-rule="evenodd" opacity="1" stroke="none"/>
<path d="M174.462 595.596L188.617 595.596L190.685 591.633L192.752 595.427L192.752 598.125L194.502 598.125L194.502 593.404L196.013 596.186L212.633 596.186L224.562 592.729L229.492 583.709L212.633 583.709L204.283 578.566L186.708 579.156L174.462 595.596Z" fill="#ca2b41" fill-rule="evenodd" opacity="1" stroke="none"/>
<path d="M141.221 307.025L145.594 275.074L182.176 324.897L182.176 344.287L215.258 327.763L224.721 344.034L200.784 369.915L155.058 369.915L133.189 322.452L141.221 307.025Z" fill="#fff000" fill-rule="evenodd" opacity="1" stroke="none"/>
<path d="M141.221 307.025L142.97 294.211L149.252 294.211L159.273 322.284L156.807 331.979L162.772 331.979L170.644 354.066L181.142 347.659L181.142 369.915L155.058 369.915L133.189 322.452L141.221 307.025Z" fill="#f29156" fill-rule="evenodd" opacity="1" stroke="none"/>
<path d="M309.255 345.467L334.226 338.386L348.143 346.9L340.19 361.401L332.954 363.508L344.962 376.154L330.409 402.794L294.623 392.677L300.905 367.049L309.255 345.467Z" fill="#61b96a" fill-rule="evenodd" opacity="1" stroke="none"/>
<path d="M253.668 530.682L281.819 513.4L300.269 477.571L295.816 460.036L287.545 457.675L295.418 452.87L295.418 415.355L262.972 415.355L258.598 397.988L228.3 397.988L253.668 530.682Z" fill="#f37934" fill-rule="evenodd" opacity="1" stroke="none"/>
<path d="M262.495 490.469L262.495 525.202L229.492 545.435L244.682 573.339L259.632 577.639L264.642 583.709L248.658 588.936L212.633 583.372L206.589 577.808L210.566 561.031L210.566 539.955L262.495 490.469Z" fill="#ffffff" fill-rule="evenodd" opacity="1" stroke="none"/>
<path d="M169.293 487.097L169.293 537.426L184.402 551.252L161.897 575.11L133.904 575.11L127.463 581.854L163.805 589.273L204.522 581.095L210.645 561.453L205.715 531.609L170.804 487.097L169.293 487.097Z" fill="#ffffff" fill-rule="evenodd" opacity="1" stroke="none"/>
<path d="M153.944 487.097L137.324 487.097L124.043 462.733L124.043 429.265L173.666 429.265L153.944 487.097Z" fill="#f29156" fill-rule="evenodd" opacity="1" stroke="none"/>
<path d="M136.29 344.793L105.116 336.11L78.953 320.092L90.5635 298.847L108.616 303.99L113.785 313.432L107.741 289.574L110.763 288.647L114.5 303.484L114.5 294.211L142.811 294.211L136.29 344.793Z" fill="#ca2b41" fill-rule="evenodd" opacity="1" stroke="none"/>
<path d="M106.389 405.323L88.0983 438.875L59.4696 447.053L65.2748 457.675L96.6074 448.823L105.355 442.5L96.4483 458.94L98.3569 466.358L82.7702 466.358L88.655 472.597L117.602 464.335L113.864 488.614L131.916 493.757L131.916 441.657L142.731 415.018L106.389 405.323Z" fill="#ad429b" fill-rule="evenodd" opacity="1" stroke="none"/>
<path d="M131.916 461.216L131.916 441.657L142.731 415.018L135.574 413.079L137.801 412.994L114.659 437.442L121.817 437.611L115.455 445.367L124.043 461.216L131.916 461.216Z" fill="#a4d404" fill-rule="evenodd" opacity="1" stroke="none"/>
<path d="M129.849 339.482L93.1879 333.243L98.675 327.426L114.898 327.426L117.204 329.871L121.896 327.005L132.393 334.761L129.849 339.482Z" fill="#fff000" fill-rule="evenodd" opacity="1" stroke="none"/>
<path d="M311.959 338.554L320.23 329.871L310.846 312.673L302.098 315.202L308.142 308.711L307.108 307.615L298.042 317.31L298.042 300.112L269.334 292.019L269.334 325.234L259.553 335.604L248.896 329.112L248.896 356.174L264.801 357.185L309.653 345.467L311.959 338.554Z" fill="#fff000" fill-rule="evenodd" opacity="1" stroke="none"/>
<path d="M264.801 354.15L293.669 341.336L311.084 334.676L303.768 326.92L295.657 335.604L273.231 335.604L270.845 338.133L267.028 334.171L264.801 334.171L264.801 354.15Z" fill="#fefefe" fill-rule="evenodd" opacity="1" stroke="none"/>
<path d="M167.623 358.45L194.74 358.45L202.375 361.485L229.254 326.499L226.789 339.229L246.034 364.52L269.334 361.063L258.042 407.262L224.96 407.262L173.587 382.729L167.623 358.45Z" fill="#e9ca55" fill-rule="evenodd" opacity="1" stroke="none"/>
<path d="M240.785 472.007L242.455 433.143L255.258 425.303L272.356 491.228L260.507 506.234L240.785 472.007Z" fill="#a4d404" fill-rule="evenodd" opacity="1" stroke="none"/>
<path d="M241.103 463.998L241.501 454.556L259.155 454.556L259.155 463.998L241.103 463.998Z" fill="#fff000" fill-rule="evenodd" opacity="1" stroke="none"/>
<path d="M197.206 382.898L218.12 382.898L228.061 393.436L230.526 383.572L238.876 383.572L238.876 406.334L250.089 418.305L250.089 461.553L246.431 465.515L262.495 475.379L262.495 499.658L206.669 501.176C206.669 501.176 164.68 416.198 160.863 412.573C157.046 408.863 152.115 377.671 152.115 377.671L184.323 385.258L197.206 382.898Z" fill="#cbefff" fill-rule="evenodd" opacity="1" stroke="none"/>
<path d="M250.089 454.556L250.089 461.553L247.863 463.998L215.337 463.998L215.337 454.556L250.089 454.556Z" fill="#fefefe" fill-rule="evenodd" opacity="1" stroke="none"/>
<path d="M239.672 407.177L250.089 418.305L250.089 428.422L240.546 434.323L227.822 434.323L216.371 434.323L216.371 407.177L239.672 407.177Z" fill="#fefefe" fill-rule="evenodd" opacity="1" stroke="none"/>
<path d="M261.7 376.491L255.02 409.622L267.823 460.541L277.684 421.593L263.131 401.529L265.835 388.799L261.7 376.491Z" fill="#ad429b" fill-rule="evenodd" opacity="1" stroke="none"/>
<path d="M304.245 338.639L292.237 338.639L263.767 349.514L261.302 354.066L258.996 345.046L231.958 337.374L229.254 326.499L220.904 337.29L245.954 381.718L255.576 364.098L271.799 364.098L304.245 338.639Z" fill="#de3f43" fill-rule="evenodd" opacity="1" stroke="none"/>
<path d="M264.801 349.092L263.767 349.514L261.302 354.066L258.996 345.046L248.896 342.179L248.896 359.967L264.801 359.967L264.801 349.092Z" fill="#f56376" fill-rule="evenodd" opacity="1" stroke="none"/>
<path d="M141.221 416.198L142.334 422.942L150.127 451.015L166.191 444.945L157.046 408.863L141.221 416.198Z" fill="#fefefe" fill-rule="evenodd" opacity="1" stroke="none"/>
<path d="M150.127 487.097L150.127 451.015L161.897 443.765L154.581 415.186L143.845 415.186L141.698 377.25L162.533 378.177L176.211 432.384L181.062 415.776L181.062 438.117L189.015 502.103L150.127 487.097Z" fill="#506eb6" fill-rule="evenodd" opacity="1" stroke="none"/>
<path d="M161.897 443.681L154.581 415.186L151.161 415.186L151.161 415.102L171.917 415.102L176.211 432.384L181.062 415.776L181.062 438.117L181.778 443.681L161.897 443.681Z" fill="#f2606b" fill-rule="evenodd" opacity="1" stroke="none"/>
<path d="M144.64 415.102L129.849 415.102L113.705 432.215L99.7884 417.462L106.389 405.323L81.4978 420.582L79.1121 416.957L93.7445 408.02L81.5773 408.02L72.8296 372.613L102.174 365.026L141.698 377.25L144.64 415.102Z" fill="#a4d404" fill-rule="evenodd" opacity="1" stroke="none"/>
<path d="M146.071 368.904L153.547 407.515L139.789 443.934L144.163 461.216L131.916 461.216L131.916 427.326L141.141 410.381L137.006 405.997L137.006 381.296L146.071 368.904Z" fill="#ca2b41" fill-rule="evenodd" opacity="1" stroke="none"/>
<path d="M150.684 415.102L139.789 443.934L144.163 461.216L131.916 461.216L131.916 427.326L138.517 415.102L150.684 415.102Z" fill="#d65b32" fill-rule="evenodd" opacity="1" stroke="none"/>
<path d="M174.223 487.097L150.127 487.097L156.728 496.286L170.088 511.714C170.088 511.714 173.825 506.74 173.825 505.475L174.223 487.097Z" fill="#97d1e3" fill-rule="evenodd" opacity="1" stroke="none"/>
<path d="M208.816 506.15L169.293 498.056L169.293 445.114L176.211 432.384L171.917 415.102L208.816 415.102L208.816 442.248L200.864 450.678L208.816 459.193L208.816 506.15Z" fill="#97d1e3" fill-rule="evenodd" opacity="1" stroke="none"/>
<path d="M169.293 509.016L169.293 487.097L193.15 487.097L211.679 498.394L236.888 471.669L262.893 499.237L252.077 515.929L171.36 515.76L169.293 509.016Z" fill="#fefefe" fill-rule="evenodd" opacity="1" stroke="none"/>
<path d="M126.27 346.057L139.471 321.862L164.283 348.165L161.658 358.45L181.062 358.45L181.062 382.898L203.249 382.898L208.896 388.883L181.062 388.883L172.155 388.883L165.237 388.883L167.304 396.808L139.312 379.694L126.27 346.057Z" fill="#506eb6" fill-rule="evenodd" opacity="1" stroke="none"/>
<path d="M139.153 362.665L99.2317 360.81L99.2317 370.337L124.918 387.366L128.815 387.366L130.882 395.628L144.879 384.837L144.879 382.645L139.153 382.645L139.153 362.665Z" fill="#fde5a9" fill-rule="evenodd" opacity="1" stroke="none"/>
<path d="M113.626 361.738L94.5398 336.11L85.3149 342.179L97.0845 366.459L113.626 361.738Z" fill="#73c89e" fill-rule="evenodd" opacity="1" stroke="none"/>
<path d="M172.951 514.074L187.742 508.341L208.975 512.725L225.596 512.725L245.477 509.1L252.316 514.411L250.328 517.952L224.482 532.537L223.21 542.99L210.327 551.758L197.603 541.051L172.951 514.074Z" fill="#ca2b41" fill-rule="evenodd" opacity="1" stroke="none"/>
<path d="M241.421 523.01L224.482 532.537L223.846 537.848L212.792 537.848L207.941 523.01L241.421 523.01Z" fill="#f2606b" fill-rule="evenodd" opacity="1" stroke="none"/>
<path d="M302.019 345.467L317.208 345.467L317.208 355.246L301.462 381.296L297.327 381.296L296.134 386.017L276.094 391.75L261.7 376.491L286.989 361.063L302.019 345.467Z" fill="#a4d404" fill-rule="evenodd" opacity="1" stroke="none"/>
<path d="M297.327 381.296L296.134 386.017L276.094 391.75L261.7 376.491L286.989 361.063L287.784 360.22L302.655 360.22L297.327 381.296Z" fill="#fdcd9b" fill-rule="evenodd" opacity="1" stroke="none"/>
<path d="M300.508 338.639L309.335 338.639L310.925 339.65L317.049 333.159L319.434 342.601L304.961 346.732L301.939 359.967L285.398 371.348L276.73 371.517L267.664 381.465L264.324 394.532L259.712 386.017L264.801 357.185L267.664 355.668L268.618 351.116L300.508 338.639Z" fill="#2f112d" fill-rule="evenodd" opacity="1" stroke="none"/>
<path d="M278.559 350.357L272.913 353.898L279.354 364.688L295.02 361.738L298.52 345.636L296.77 342.432L287.307 345.13L289.215 352.97L282.535 355.499L278.559 350.357Z" fill="#684388" fill-rule="evenodd" opacity="1" stroke="none"/>
<path d="M277.127 351.2L272.913 353.898L279.354 364.688L284.762 363.677L284.762 354.656L282.535 355.499L279.195 351.2L277.127 351.2ZM291.362 362.412L295.02 361.738L297.565 349.851L291.203 349.851L291.203 362.412L291.362 362.412Z" fill="#c24a9d" fill-rule="evenodd" opacity="1" stroke="none"/>
<path d="M287.307 345.13L292.7 345.13L292.7 345.13L292.7 348.446L292.7 348.446L287.307 348.446L287.307 348.446L287.307 345.13L287.307 345.13Z" fill="#fefefe" fill-rule="evenodd" opacity="1" stroke="none"/>
<path d="M94.3012 331.81L120.624 331.81L143.686 350.947L147.98 382.561L137.006 390.991L137.006 373.203L109.49 364.604L93.5059 338.217L83.4064 338.217L78.4759 329.197L91.5178 331.136L93.1879 333.243L94.3012 331.81Z" fill="#2f112d" fill-rule="evenodd" opacity="1" stroke="none"/>
<path d="M128.258 343.528L133.825 347.069L127.463 357.86L111.797 354.909L108.297 338.807L110.047 335.604L119.51 338.301L117.522 346.142L124.282 348.671L128.258 343.528Z" fill="#684388" fill-rule="evenodd" opacity="1" stroke="none"/>
<path d="M128.258 343.528L133.825 347.069L127.463 357.86L124.361 357.27L124.361 348.502L128.258 343.528ZM111.24 352.549L108.616 340.156L115.932 340.156L115.932 352.549L111.24 352.549Z" fill="#c24a9d" fill-rule="evenodd" opacity="1" stroke="none"/>
<path d="M114.103 338.301L119.496 338.301L119.496 338.301L119.496 341.617L119.496 341.617L114.103 341.617L114.103 341.617L114.103 338.301L114.103 338.301Z" fill="#fefefe" fill-rule="evenodd" opacity="1" stroke="none"/>
<path d="M154.978 493.757L158.08 493.757L172.951 514.074L191.4 514.917L202.772 533.801L201.182 543.327L222.812 542.569L222.812 531.694L238.797 517.193L250.328 517.193L262.972 499.152L265.517 499.911L250.884 518.458L226.709 534.054L223.449 543.58L211.44 553.697L212.474 571.569L208.896 577.133L219.95 583.287L248.817 587.84L264.404 583.034L264.642 583.709L248.34 589.779L210.963 584.805L209.214 583.793L204.999 584.973L163.487 590.369L127.463 581.854L135.495 580.927L164.362 587.165L203.727 579.578L208.419 561.537L205.317 551.926L172.155 518.458L154.978 493.757Z" fill="#2f112d" fill-rule="evenodd" opacity="1" stroke="none"/>
<path d="M154.342 533.042L161.022 525.286L123.725 504.126L80.7025 503.452L115.216 509.522L120.783 508.763L120.226 512.557L140.266 523.263L145.117 522.083L154.342 533.042Z" fill="#506eb6" fill-rule="evenodd" opacity="1" stroke="none"/>
<path d="M130.246 545.013L172.792 555.13L178.279 548.301L156.33 540.798L150.286 542.569L146.151 538.606L93.1879 521.661L107.105 532.031L123.328 540.377L131.36 540.377L130.246 545.013Z" fill="#ad429b" fill-rule="evenodd" opacity="1" stroke="none"/>
<path d="M264.086 535.487L260.984 530.26L277.684 522.252L281.342 524.443L284.205 519.132L302.814 511.545L282.138 527.225L264.086 535.487Z" fill="#ad429b" fill-rule="evenodd" opacity="1" stroke="none"/>
<path d="M242.296 546.784L250.487 553.022L278.082 550.999L279.434 548.133L283.171 550.072L304.245 537.173L278.32 545.013L242.296 545.013L242.296 546.784Z" fill="#ed5174" fill-rule="evenodd" opacity="1" stroke="none"/>
<path d="M255.02 562.38L251.918 563.307L260.348 568.787L273.947 567.86L275.378 566.427L281.104 568.281L297.883 560.863L255.02 562.38Z" fill="#f7933e" fill-rule="evenodd" opacity="1" stroke="none"/>
<path d="M96.846 545.351L115.614 560.694L119.351 560.02L120.783 562.886L158.08 562.886L159.67 556.563L124.043 556.563L96.846 545.351Z" fill="#ca2b41" fill-rule="evenodd" opacity="1" stroke="none"/>
<path d="M49.7676 504.716L109.649 516.266L114.58 512.725L46.7457 502.862L26.7851 502.862L26.1489 504.716L49.7676 504.716Z" fill="#fefefe" fill-rule="evenodd" opacity="1" stroke="none"/>
<path d="M104.321 527.394L104.719 531.609L65.911 531.609L19.0712 550.999L18.7531 550.493L67.1834 529.08L104.321 527.394Z" fill="#fefefe" fill-rule="evenodd" opacity="1" stroke="none"/>
<path d="M267.585 538.944L301.462 527.563L349.256 549.482L348.699 550.325L306.074 531.356L273.072 541.051L267.585 538.944Z" fill="#fefefe" fill-rule="evenodd" opacity="1" stroke="none"/>
<path d="M285.159 558.755L274.344 554.624L313.47 554.624L342.655 561.958L312.277 557.659L285.159 558.755Z" fill="#fefefe" fill-rule="evenodd" opacity="1" stroke="none"/>
<path d="M98.9136 554.961L101.061 550.325L58.9129 553.022L57.1634 554.961L50.4038 553.191L25.5127 563.307L25.7513 564.825L66.4677 554.961L98.9136 554.961Z" fill="#fefefe" fill-rule="evenodd" opacity="1" stroke="none"/>
<path d="M132.711 278.952L140.505 284.516L143.129 274.062L132.711 267.739L132.711 278.952Z" fill="#fff000" fill-rule="evenodd" opacity="1" stroke="none"/>
<path d="M272.277 269.931L271.322 287.214L278.32 289.237L288.738 269.931L272.277 269.931Z" fill="#fefefe" fill-rule="evenodd" opacity="1" stroke="none"/>
<path d="M216.928 625.017L217.325 617.683L227.186 617.683L224.721 627.209L216.928 625.017Z" fill="#fff000" fill-rule="evenodd" opacity="1" stroke="none"/>
<path d="M131.519 136.9L125.793 147.523L149.968 147.523L149.968 112.115L120.703 94.1586L131.519 136.9Z" fill="#1d6b75" fill-rule="evenodd" opacity="1" stroke="none"/>
<path d="M231.799 160.337L229.652 170.2L243.648 170.2L248.737 149.967L231.799 160.337Z" fill="#2f112d" fill-rule="evenodd" opacity="1" stroke="none"/>
<path d="M-0.571268 412.067L13.0274 403.721L6.1883 376.828L-0.491744 383.657L-0.571268 412.067Z" fill="#a4d404" fill-rule="evenodd" opacity="1" stroke="none"/>
<path d="M8.4945 385.849L6.1883 376.828L-0.491744 383.657L-0.491744 402.288L8.4945 385.849Z" fill="#fff000" fill-rule="evenodd" opacity="1" stroke="none"/>
<path d="M321.582 211.762L308.46 215.724L316.015 229.634L345.121 211.762L321.582 211.762Z" fill="#1d6b75" fill-rule="evenodd" opacity="1" stroke="none"/>
<path d="M248.419 109.923L253.35 113.127L324.683 92.894L324.683 43.0707L246.352 91.0394L245.397 103.432L265.835 97.615L248.419 109.923Z" fill="#a4d404" fill-rule="evenodd" opacity="1" stroke="none"/>
<path d="M39.2704 74.0944L73.3068 101.156L80.5435 96.6877L74.8177 74.0944L39.2704 74.0944Z" fill="#a4d404" fill-rule="evenodd" opacity="1" stroke="none"/>
</g>
</g>
</svg>
