<?xml version="1.0" encoding="UTF-8" standalone="no"?>
<!DOCTYPE svg PUBLIC "-//W3C//DTD SVG 1.1//EN" "http://www.w3.org/Graphics/SVG/1.1/DTD/svg11.dtd">
<!-- Created with Vectornator (http://vectornator.io/) -->
<svg height="100%" stroke-miterlimit="10" style="fill-rule:nonzero;clip-rule:evenodd;stroke-linecap:round;stroke-linejoin:round;" version="1.1" viewBox="0 0 122 24" width="100%" xml:space="preserve" xmlns="http://www.w3.org/2000/svg" xmlns:vectornator="http://vectornator.io" xmlns:xlink="http://www.w3.org/1999/xlink">
<defs>
<clipPath id="TextBounds">
<rect height="19.6001" width="112.755" x="5.41177" y="4.17365"/>
</clipPath>
<clipPath id="TextBounds_2">
<rect height="19.6001" width="112.755" x="-43.2649" y="4.17133"/>
</clipPath>
</defs>
<g id="Layer-1" vectornator:layerName="Layer 1">
<g fill="#000000" opacity="1" stroke="none">
<path clip-path="url(#TextBounds)" d="M29.0668 7.68365L29.0668 12.0187C29.0668 12.7687 28.9293 13.4212 28.6543 13.9762C28.3793 14.5312 28.0143 14.9962 27.5593 15.3712C27.1043 15.7462 26.5868 16.0262 26.0068 16.2112C25.4268 16.3962 24.8343 16.4887 24.2293 16.4887C23.6243 16.4887 23.0318 16.3937 22.4518 16.2037C21.8718 16.0137 21.3543 15.7337 20.8993 15.3637C20.4443 14.9937 20.0793 14.5287 19.8043 13.9687C19.5293 13.4087 19.3918 12.7587 19.3918 12.0187L19.3918 7.68365L20.1418 7.68365L20.2318 7.68365L20.9818 7.68365L20.9818 12.0187C20.9818 13.0187 21.3368 13.8737 22.0468 14.5837C22.7368 15.2737 23.4643 15.6137 24.2293 15.6037C24.9943 15.5937 25.7218 15.2537 26.4118 14.5837C27.1318 13.8737 27.4918 13.0187 27.4918 12.0187L27.4918 7.68365L28.2418 7.68365L28.3168 7.68365L29.0668 7.68365Z" fill-rule="evenodd"/>
<path clip-path="url(#TextBounds)" d="M33.1468 16.1287L33.0118 16.0687L33.4168 15.0937C33.7368 15.2037 34.0568 15.2862 34.3768 15.3412C34.6968 15.3962 35.0118 15.4237 35.3218 15.4237C35.7718 15.4237 36.1918 15.3587 36.5818 15.2287C36.9718 15.0987 37.3118 14.8962 37.6018 14.6212C37.8918 14.3462 38.1193 13.9937 38.2843 13.5637C38.4493 13.1337 38.5318 12.6187 38.5318 12.0187C38.5318 11.4287 38.4393 10.9137 38.2543 10.4737C38.0693 10.0337 37.8218 9.66865 37.5118 9.37865C37.2018 9.08865 36.8518 8.87115 36.4618 8.72615C36.0718 8.58115 35.6718 8.50865 35.2618 8.50865C34.8518 8.50865 34.4518 8.58115 34.0618 8.72615C33.6718 8.87115 33.3243 9.08615 33.0193 9.37115C32.7143 9.65615 32.4693 10.0112 32.2843 10.4362C32.0993 10.8612 32.0068 11.3537 32.0068 11.9137L32.0068 19.6837L30.4168 19.6837L30.4168 12.0187C30.4168 11.3587 30.5443 10.7512 30.7993 10.1962C31.0543 9.64115 31.3993 9.16365 31.8343 8.76365C32.2693 8.36365 32.7768 8.05115 33.3568 7.82615C33.9368 7.60115 34.5468 7.48865 35.1868 7.48865C35.7768 7.48865 36.3468 7.58865 36.8968 7.78865C37.4468 7.98865 37.9368 8.27865 38.3668 8.65865C38.7968 9.03865 39.1418 9.50615 39.4018 10.0612C39.6618 10.6162 39.7918 11.2537 39.7918 11.9737C39.7918 12.6837 39.6668 13.3187 39.4168 13.8787C39.1668 14.4387 38.8293 14.9137 38.4043 15.3037C37.9793 15.6937 37.4868 15.9937 36.9268 16.2037C36.3668 16.4137 35.7818 16.5187 35.1718 16.5187C34.8418 16.5187 34.5068 16.4887 34.1668 16.4287C33.8268 16.3687 33.4868 16.2687 33.1468 16.1287Z" fill-rule="evenodd"/>
<path clip-path="url(#TextBounds)" d="M43.1668 11.5537L43.1668 10.7137L48.7168 10.7137C48.5668 10.3237 48.3843 9.98865 48.1693 9.70865C47.9543 9.42865 47.7143 9.19865 47.4493 9.01865C47.1843 8.83865 46.9018 8.70615 46.6018 8.62115C46.3018 8.53615 45.9968 8.49365 45.6868 8.49365C45.2568 8.49365 44.8318 8.57615 44.4118 8.74115C43.9918 8.90615 43.6168 9.14115 43.2868 9.44615C42.9568 9.75115 42.6918 10.1212 42.4918 10.5562C42.2918 10.9912 42.1918 11.4787 42.1918 12.0187C42.1918 12.5487 42.2843 13.0312 42.4693 13.4662C42.6543 13.9012 42.9018 14.2712 43.2118 14.5762C43.5218 14.8812 43.8818 15.1162 44.2918 15.2812C44.7018 15.4462 45.1318 15.5287 45.5818 15.5287C46.1018 15.5287 46.6243 15.4087 47.1493 15.1687C47.6743 14.9287 48.1668 14.5537 48.6268 14.0437L49.4968 14.8837L49.3918 14.9887C48.8818 15.4987 48.2993 15.8787 47.6443 16.1287C46.9893 16.3787 46.3218 16.5037 45.6418 16.5037C45.0318 16.5037 44.4418 16.4062 43.8718 16.2112C43.3018 16.0162 42.7943 15.7287 42.3493 15.3487C41.9043 14.9687 41.5468 14.5012 41.2768 13.9462C41.0068 13.3912 40.8718 12.7487 40.8718 12.0187C40.8718 11.2787 41.0093 10.6287 41.2843 10.0687C41.5593 9.50865 41.9243 9.04115 42.3793 8.66615C42.8343 8.29115 43.3493 8.00865 43.9243 7.81865C44.4993 7.62865 45.0868 7.53365 45.6868 7.53365C46.2368 7.53365 46.7768 7.61365 47.3068 7.77365C47.8368 7.93365 48.3193 8.17115 48.7543 8.48615C49.1893 8.80115 49.5618 9.19865 49.8718 9.67865C50.1818 10.1587 50.3868 10.7237 50.4868 11.3737L50.5168 11.5537L43.1668 11.5537Z" fill-rule="evenodd"/>
<path clip-path="url(#TextBounds)" d="M56.8918 8.35865L56.7418 8.35865C56.2418 8.35865 55.7718 8.45365 55.3318 8.64365C54.8918 8.83365 54.5068 9.09365 54.1768 9.42365C53.8468 9.75365 53.5868 10.1412 53.3968 10.5862C53.2068 11.0312 53.1118 11.5037 53.1118 12.0037L53.1118 16.3237L51.5368 16.3237L51.5368 12.0037C51.5368 10.7337 51.9868 9.66865 52.8868 8.80865C53.1868 8.51865 53.4918 8.28865 53.8018 8.11865C54.1118 7.94865 54.4293 7.82115 54.7543 7.73615C55.0793 7.65115 55.4168 7.59615 55.7668 7.57115C56.1168 7.54615 56.4918 7.53365 56.8918 7.53365L56.8918 8.35865Z" fill-rule="evenodd"/>
<path clip-path="url(#TextBounds)" d="M69.3268 16.3237L67.7218 16.3237L67.7218 10.6687C67.7218 10.3387 67.6718 10.0387 67.5718 9.76865C67.4718 9.49865 67.3368 9.26615 67.1668 9.07115C66.9968 8.87615 66.8018 8.72615 66.5818 8.62115C66.3618 8.51615 66.1318 8.46365 65.8918 8.46365C65.6718 8.46365 65.4743 8.50115 65.2993 8.57615C65.1243 8.65115 64.9668 8.75115 64.8268 8.87615C64.6868 9.00115 64.5593 9.14365 64.4443 9.30365C64.3293 9.46365 64.2268 9.63365 64.1368 9.81365C64.1168 9.87365 64.1018 9.92365 64.0918 9.96365L64.0768 9.97865L64.0768 9.99365L64.0768 16.3237L62.4718 16.3237L62.4718 9.97865C62.4618 9.95865 62.4568 9.94865 62.4568 9.94865C62.4368 9.88865 62.4168 9.84365 62.3968 9.81365C62.3768 9.76365 62.3568 9.71865 62.3368 9.67865C62.3168 9.63865 62.3018 9.61365 62.2918 9.60365C62.0918 9.20365 61.8493 8.91365 61.5643 8.73365C61.2793 8.55365 60.9868 8.46365 60.6868 8.46365C60.4468 8.46365 60.2143 8.51865 59.9893 8.62865C59.7643 8.73865 59.5618 8.89115 59.3818 9.08615C59.2018 9.28115 59.0593 9.51365 58.9543 9.78365C58.8493 10.0537 58.7968 10.3487 58.7968 10.6687L58.7968 16.3237L57.1918 16.3237L57.1918 10.5487C57.1918 10.0587 57.2943 9.62615 57.4993 9.25115C57.7043 8.87615 57.9718 8.55865 58.3018 8.29865C58.6318 8.03865 59.0093 7.84115 59.4343 7.70615C59.8593 7.57115 60.2918 7.50365 60.7318 7.50365C61.2118 7.50365 61.6743 7.58365 62.1193 7.74365C62.5643 7.90365 62.9518 8.15365 63.2818 8.49365C63.6018 8.16365 63.9818 7.91865 64.4218 7.75865C64.8618 7.59865 65.3218 7.51865 65.8018 7.51865C66.2418 7.51865 66.6718 7.58615 67.0918 7.72115C67.5118 7.85615 67.8868 8.05115 68.2168 8.30615C68.5468 8.56115 68.8143 8.87615 69.0193 9.25115C69.2243 9.62615 69.3268 10.0587 69.3268 10.5487L69.3268 16.3237Z" fill-rule="evenodd"/>
<path clip-path="url(#TextBounds)" d="M70.3768 12.0037C70.3768 11.2637 70.5143 10.6137 70.7893 10.0537C71.0643 9.49365 71.4293 9.02865 71.8843 8.65865C72.3393 8.28865 72.8568 8.01115 73.4368 7.82615C74.0168 7.64115 74.6068 7.54865 75.2068 7.54865C75.8068 7.54865 76.3968 7.64115 76.9768 7.82615C77.5568 8.01115 78.0743 8.28865 78.5293 8.65865C78.9843 9.02865 79.3493 9.49365 79.6243 10.0537C79.8993 10.6137 80.0368 11.2637 80.0368 12.0037C80.0368 12.7437 79.8968 13.3937 79.6168 13.9537C79.3368 14.5137 78.9693 14.9812 78.5143 15.3562C78.0593 15.7312 77.5418 16.0112 76.9618 16.1962C76.3818 16.3812 75.7868 16.4737 75.1768 16.4737C74.5768 16.4737 73.9893 16.3812 73.4143 16.1962C72.8393 16.0112 72.3268 15.7312 71.8768 15.3562C71.4268 14.9812 71.0643 14.5162 70.7893 13.9612C70.5143 13.4062 70.3768 12.7537 70.3768 12.0037ZM71.9518 12.0037C71.9518 12.5837 72.0443 13.0912 72.2293 13.5262C72.4143 13.9612 72.6618 14.3262 72.9718 14.6212C73.2818 14.9162 73.6318 15.1362 74.0218 15.2812C74.4118 15.4262 74.8068 15.4987 75.2068 15.4987C75.6168 15.4987 76.0168 15.4262 76.4068 15.2812C76.7968 15.1362 77.1443 14.9162 77.4493 14.6212C77.7543 14.3262 77.9993 13.9612 78.1843 13.5262C78.3693 13.0912 78.4618 12.5837 78.4618 12.0037C78.4618 11.4237 78.3693 10.9162 78.1843 10.4812C77.9993 10.0462 77.7518 9.68115 77.4418 9.38615C77.1318 9.09115 76.7818 8.87115 76.3918 8.72615C76.0018 8.58115 75.6018 8.50865 75.1918 8.50865C74.7918 8.50865 74.3968 8.58115 74.0068 8.72615C73.6168 8.87115 73.2693 9.09115 72.9643 9.38615C72.6593 9.68115 72.4143 10.0462 72.2293 10.4812C72.0443 10.9162 71.9518 11.4237 71.9518 12.0037Z" fill-rule="evenodd"/>
<path clip-path="url(#TextBounds)" d="M87.4168 8.98865C86.7768 8.69865 86.1568 8.55365 85.5568 8.55365C85.1168 8.55365 84.7018 8.62865 84.3118 8.77865C83.9218 8.92865 83.5818 9.14865 83.2918 9.43865C83.0018 9.72865 82.7743 10.0887 82.6093 10.5187C82.4443 10.9487 82.3618 11.4437 82.3618 12.0037C82.3618 12.5937 82.4543 13.1087 82.6393 13.5487C82.8243 13.9887 83.0718 14.3537 83.3818 14.6437C83.6918 14.9337 84.0418 15.1512 84.4318 15.2962C84.8218 15.4412 85.2168 15.5137 85.6168 15.5137C86.0268 15.5137 86.4293 15.4412 86.8243 15.2962C87.2193 15.1512 87.5718 14.9362 87.8818 14.6512C88.1918 14.3662 88.4393 14.0112 88.6243 13.5862C88.8093 13.1612 88.9018 12.6687 88.9018 12.1087L88.9018 4.38365L90.4768 4.38365L90.4768 12.0037C90.4768 12.7537 90.3393 13.4087 90.0643 13.9687C89.7893 14.5287 89.4243 14.9962 88.9693 15.3712C88.5143 15.7462 87.9968 16.0262 87.4168 16.2112C86.8368 16.3962 86.2468 16.4887 85.6468 16.4887C85.0368 16.4887 84.4418 16.3962 83.8618 16.2112C83.2818 16.0262 82.7643 15.7462 82.3093 15.3712C81.8543 14.9962 81.4868 14.5287 81.2068 13.9687C80.9268 13.4087 80.7868 12.7537 80.7868 12.0037C80.7868 11.3037 80.9268 10.6737 81.2068 10.1137C81.4868 9.55365 81.8568 9.07865 82.3168 8.68865C82.7768 8.29865 83.3043 7.99865 83.8993 7.78865C84.4943 7.57865 85.1018 7.47365 85.7218 7.47365C86.0718 7.47365 86.4168 7.50615 86.7568 7.57115C87.0968 7.63615 87.4268 7.73865 87.7468 7.87865L87.8818 7.93865L87.4168 8.98865Z" fill-rule="evenodd"/>
<path clip-path="url(#TextBounds)" d="M101.502 7.68365L101.502 12.0187C101.502 12.7687 101.364 13.4212 101.089 13.9762C100.814 14.5312 100.449 14.9962 99.9943 15.3712C99.5393 15.7462 99.0218 16.0262 98.4418 16.2112C97.8618 16.3962 97.2693 16.4887 96.6643 16.4887C96.0593 16.4887 95.4668 16.3937 94.8868 16.2037C94.3068 16.0137 93.7893 15.7337 93.3343 15.3637C92.8793 14.9937 92.5143 14.5287 92.2393 13.9687C91.9643 13.4087 91.8268 12.7587 91.8268 12.0187L91.8268 7.68365L92.5768 7.68365L92.6668 7.68365L93.4168 7.68365L93.4168 12.0187C93.4168 13.0187 93.7718 13.8737 94.4818 14.5837C95.1718 15.2737 95.8993 15.6137 96.6643 15.6037C97.4293 15.5937 98.1568 15.2537 98.8468 14.5837C99.5668 13.8737 99.9268 13.0187 99.9268 12.0187L99.9268 7.68365L100.677 7.68365L100.752 7.68365L101.502 7.68365Z" fill-rule="evenodd"/>
<path clip-path="url(#TextBounds)" d="M104.772 16.3237L103.152 16.3237L103.152 4.38365L104.772 4.38365L104.772 16.3237Z" fill-rule="evenodd"/>
<path clip-path="url(#TextBounds)" d="M108.417 11.5537L108.417 10.7137L113.967 10.7137C113.817 10.3237 113.634 9.98865 113.419 9.70865C113.204 9.42865 112.964 9.19865 112.699 9.01865C112.434 8.83865 112.152 8.70615 111.852 8.62115C111.552 8.53615 111.247 8.49365 110.937 8.49365C110.507 8.49365 110.082 8.57615 109.662 8.74115C109.242 8.90615 108.867 9.14115 108.537 9.44615C108.207 9.75115 107.942 10.1212 107.742 10.5562C107.542 10.9912 107.442 11.4787 107.442 12.0187C107.442 12.5487 107.534 13.0312 107.719 13.4662C107.904 13.9012 108.152 14.2712 108.462 14.5762C108.772 14.8812 109.132 15.1162 109.542 15.2812C109.952 15.4462 110.382 15.5287 110.832 15.5287C111.352 15.5287 111.874 15.4087 112.399 15.1687C112.924 14.9287 113.417 14.5537 113.877 14.0437L114.747 14.8837L114.642 14.9887C114.132 15.4987 113.549 15.8787 112.894 16.1287C112.239 16.3787 111.572 16.5037 110.892 16.5037C110.282 16.5037 109.692 16.4062 109.122 16.2112C108.552 16.0162 108.044 15.7287 107.599 15.3487C107.154 14.9687 106.797 14.5012 106.527 13.9462C106.257 13.3912 106.122 12.7487 106.122 12.0187C106.122 11.2787 106.259 10.6287 106.534 10.0687C106.809 9.50865 107.174 9.04115 107.629 8.66615C108.084 8.29115 108.599 8.00865 109.174 7.81865C109.749 7.62865 110.337 7.53365 110.937 7.53365C111.487 7.53365 112.027 7.61365 112.557 7.77365C113.087 7.93365 113.569 8.17115 114.004 8.48615C114.439 8.80115 114.812 9.19865 115.122 9.67865C115.432 10.1587 115.637 10.7237 115.737 11.3737L115.767 11.5537L108.417 11.5537Z" fill-rule="evenodd"/>
</g>
<path clip-path="url(#TextBounds_2)" d="M8.4476 16.3213C8.6276 15.9413 8.8676 15.5888 9.1676 15.2638C9.4676 14.9388 9.8001 14.6488 10.1651 14.3938C10.5301 14.1388 10.9201 13.9288 11.3351 13.7638C11.7501 13.5988 12.1626 13.4863 12.5726 13.4263C12.7426 13.3963 12.9676 13.3938 13.2476 13.4188C13.5276 13.4438 13.8101 13.4513 14.0951 13.4413C14.3801 13.4313 14.6326 13.3813 14.8526 13.2913C15.0726 13.2013 15.2076 13.0363 15.2576 12.7963C15.2876 12.6563 15.2751 12.5363 15.2201 12.4363C15.1651 12.3363 15.0901 12.2488 14.9951 12.1738C14.9001 12.0988 14.7926 12.0413 14.6726 12.0013C14.5526 11.9613 14.4376 11.9363 14.3276 11.9263C13.8576 11.8963 13.3976 11.8863 12.9476 11.8963C12.4976 11.9063 12.0651 11.8813 11.6501 11.8213C11.2351 11.7613 10.8376 11.6388 10.4576 11.4538C10.0776 11.2688 9.7176 10.9713 9.3776 10.5613C8.9976 10.0913 8.7601 9.57633 8.6651 9.01633C8.5701 8.45633 8.5976 7.91133 8.7476 7.38133C8.8976 6.85133 9.1576 6.36633 9.5276 5.92633C9.8976 5.48633 10.3576 5.16133 10.9076 4.95133C11.3576 4.78133 11.8226 4.69883 12.3026 4.70383C12.7826 4.70883 13.2626 4.71133 13.7426 4.71133L18.4226 4.71133C18.2126 5.12133 17.9576 5.48383 17.6576 5.79883C17.3576 6.11383 17.0251 6.38633 16.6601 6.61633C16.2951 6.84633 15.9051 7.03633 15.4901 7.18633C15.0751 7.33633 14.6526 7.45133 14.2226 7.53133C14.0526 7.56133 13.8276 7.57133 13.5476 7.56133C13.2676 7.55133 12.9901 7.55883 12.7151 7.58383C12.4401 7.60883 12.1951 7.66383 11.9801 7.74883C11.7651 7.83383 11.6276 7.99133 11.5676 8.22133C11.5376 8.35133 11.5476 8.46883 11.5976 8.57383C11.6476 8.67883 11.7201 8.76883 11.8151 8.84383C11.9101 8.91883 12.0176 8.97633 12.1376 9.01633C12.2576 9.05633 12.3676 9.08133 12.4676 9.09133C12.9276 9.12133 13.3801 9.12883 13.8251 9.11383C14.2701 9.09883 14.7026 9.11633 15.1226 9.16633C15.5426 9.21633 15.9451 9.32633 16.3301 9.49633C16.7151 9.66633 17.0776 9.95633 17.4176 10.3663C17.7976 10.8263 18.0426 11.3388 18.1526 11.9038C18.2626 12.4688 18.2501 13.0213 18.1151 13.5613C17.9801 14.1013 17.7301 14.5938 17.3651 15.0388C17.0001 15.4838 16.5376 15.8163 15.9776 16.0363C15.8076 16.1063 15.5851 16.1588 15.3101 16.1938C15.0351 16.2288 14.7376 16.2563 14.4176 16.2763C14.0976 16.2963 13.7601 16.3088 13.4051 16.3138C13.0501 16.3188 12.7076 16.3213 12.3776 16.3213L8.4476 16.3213Z" fill="#ef233c" fill-rule="evenodd" opacity="1" stroke="none"/>
</g>
</svg>
