<?xml version="1.0" encoding="UTF-8" standalone="no"?>
<!DOCTYPE svg PUBLIC "-//W3C//DTD SVG 1.1//EN" "http://www.w3.org/Graphics/SVG/1.1/DTD/svg11.dtd">

<!-- Created with Vectornator (http://vectornator.io/) -->
<svg height="100%" stroke-miterlimit="10" style="fill-rule:nonzero;clip-rule:evenodd;stroke-linecap:round;stroke-linejoin:round;" version="1.1" viewBox="0 0 113 132.15" width="100%" xml:space="preserve" xmlns="http://www.w3.org/2000/svg" xmlns:vectornator="http://vectornator.io" xmlns:xlink="http://www.w3.org/1999/xlink">
<metadata>
<vectornator:setting key="IsTimeLapseWatermarkDisabled" value="false"/>
<vectornator:setting key="UndoHistoryDisabled" value="true"/>
<vectornator:setting key="VNDimensionsVisible" value="true"/>
<vectornator:setting key="VNSnapToGuides" value="true"/>
<vectornator:setting key="WDCMYKEnabledKey" value="false"/>
<vectornator:setting key="WDDisplayWhiteBackground" value="false"/>
<vectornator:setting key="WDDynamicGuides" value="false"/>
<vectornator:setting key="WDGuidesVisible" value="true"/>
<vectornator:setting key="WDIsolateActiveLayer" value="false"/>
<vectornator:setting key="WDOutlineMode" value="false"/>
<vectornator:setting key="WDRulersVisible" value="true"/>
<vectornator:setting key="WDSnapToEdges" value="false"/>
<vectornator:setting key="WDSnapToGrid" value="false"/>
<vectornator:setting key="WDSnapToPoints" value="false"/>
<vectornator:setting key="WDUnits" value="Points"/>
</metadata>
<defs/>
<g id="Untitled" vectornator:layerName="Untitled">
<path d="M5.22058 125.24C12.113 125.24 19.3361 125.244 26.2992 125.167C28.765 125.14 32.0414 125.136 45.5982 125.136C59.1551 125.136 75.4024 124.99 82.4703 122.212C105.527 113.152 112.727 82.9474 97.1413 64.1401C83.2788 47.4117 65.4363 52.5124 46.4703 51.0845C42.1557 50.7597 35.9098 47.4732 37.2072 42.1432C39.4757 32.8237 57.4195 36.4926 64.4703 35.1393C82.0899 31.7574 99.0873 22.9681 107.47 6.13926L59.4703 6.13926C49.8249 6.13926 39.6348 5.01726 30.4703 8.60296C7.85782 17.4506-0.948679 47.0738 14.799 66.1393C28.8234 83.1184 46.0676 78.9693 65.4703 80.1833C70.1179 80.4741 76.0594 83.5163 74.978 89.1239C73.0746 98.9943 54.4715 94.4393 47.4703 95.4393C30.715 97.8333 12.6348 109.658 5.22058 125.24Z" fill="#e51f27" fill-rule="evenodd" opacity="1" stroke="none"/>
</g>
</svg>
