<?xml version="1.0" encoding="UTF-8" standalone="no"?>
<!DOCTYPE svg PUBLIC "-//W3C//DTD SVG 1.1//EN" "http://www.w3.org/Graphics/SVG/1.1/DTD/svg11.dtd">
<!-- Created with Vectornator (http://vectornator.io/) -->
<svg height="100%" stroke-miterlimit="10" style="fill-rule:nonzero;clip-rule:evenodd;stroke-linecap:round;stroke-linejoin:round;" version="1.1" viewBox="0 0 2048 2048" width="100%" xml:space="preserve" xmlns="http://www.w3.org/2000/svg" xmlns:vectornator="http://vectornator.io" xmlns:xlink="http://www.w3.org/1999/xlink">
<defs>
<radialGradient cx="1022.86" cy="1024.95" gradientTransform="matrix(1 0 0 1 0 0)" gradientUnits="userSpaceOnUse" id="RadialGradient" r="1022.96">
<stop offset="0.900646" stop-color="#ef233c"/>
<stop offset="1" stop-color="#7225ef"/>
</radialGradient>
</defs>
<clipPath id="ArtboardFrame">
<rect height="2048" width="2048" x="0" y="0"/>
</clipPath>
<g clip-path="url(#ArtboardFrame)" id="Layer-1" vectornator:layerName="Layer 1">
<path d="M1022.86 1.85427C457.895 1.85419-0.107721 459.915-0.107721 1024.95C-0.107636 1589.98 457.895 2048.04 1022.86 2048.04C1587.82 2048.04 2045.82 1589.98 2045.82 1024.95C2045.82 459.915 1587.82 1.85427 1022.86 1.85427ZM1019.88 142.227C1507.14 142.227 1902.15 537.302 1902.15 1024.62C1902.15 1511.95 1507.14 1906.99 1019.88 1906.99C532.623 1906.99 137.616 1511.95 137.616 1024.62C137.616 537.302 532.623 142.227 1019.88 142.227Z" fill="url(#RadialGradient)" fill-rule="evenodd" opacity="1" stroke="none"/>
<g opacity="1">
<clipPath id="ClipPath">
<path d="M306.393 380.847L1647.43 380.847L1647.43 380.847L1647.43 1719.54L1647.43 1719.54L306.393 1719.54L306.393 1719.54L306.393 380.847L306.393 380.847Z" fill-rule="evenodd"/>
</clipPath>
<g clip-path="url(#ClipPath)">
<path d="M476.024 1634.45C495.351 1593.64 521.12 1555.79 553.332 1520.9C585.543 1486 621.244 1454.86 660.437 1427.48C699.626 1400.1 741.502 1377.56 786.062 1359.84C830.619 1342.12 874.912 1330.05 918.933 1323.6C937.186 1320.38 961.344 1320.11 991.409 1322.8C1021.47 1325.48 1051.81 1326.29 1082.41 1325.21C1113.01 1324.14 1140.12 1318.77 1163.74 1309.11C1187.36 1299.44 1201.86 1281.73 1207.23 1255.96C1210.45 1240.93 1209.11 1228.04 1203.2 1217.31C1197.3 1206.57 1189.24 1197.17 1179.04 1189.12C1168.84 1181.07 1157.3 1174.89 1144.41 1170.6C1131.53 1166.3 1119.18 1163.62 1107.37 1162.55C1056.91 1159.32 1007.51 1158.25 959.198 1159.32C910.88 1160.4 864.441 1157.71 819.884 1151.27C775.324 1144.83 732.642 1131.68 691.842 1111.81C651.041 1091.95 612.387 1060 575.88 1015.98C535.079 965.519 509.578 910.221 499.377 850.093C489.177 789.966 492.13 731.447 508.236 674.54C524.341 617.634 552.258 565.558 591.986 518.314C631.714 471.07 681.104 436.175 740.159 413.627C788.476 395.373 838.404 386.515 889.943 387.052C941.481 387.589 993.02 387.857 1044.56 387.857L1547.06 387.857C1524.51 431.88 1497.13 470.802 1464.92 504.624C1432.71 538.446 1397.01 567.705 1357.82 592.401C1318.62 617.095 1276.75 637.497 1232.19 653.603C1187.63 669.709 1142.27 682.057 1096.1 690.646C1077.84 693.867 1053.69 694.942 1023.62 693.867C993.556 692.793 963.761 693.599 934.235 696.282C904.706 698.967 878.401 704.873 855.317 713.998C832.23 723.126 817.467 740.038 811.024 764.733C807.803 778.692 808.878 791.306 814.246 802.58C819.613 813.854 827.398 823.518 837.6 831.57C847.8 839.623 859.342 845.798 872.226 850.093C885.111 854.389 896.921 857.072 907.659 858.146C957.051 861.367 1005.64 862.171 1053.42 860.561C1101.2 858.95 1147.64 860.831 1192.73 866.199C1237.83 871.567 1281.05 883.38 1322.38 901.632C1363.72 919.884 1402.64 951.024 1439.15 995.045C1479.95 1044.44 1506.26 1099.47 1518.07 1160.13C1529.88 1220.79 1528.54 1280.12 1514.04 1338.1C1499.55 1396.08 1472.7 1448.96 1433.51 1496.74C1394.32 1544.52 1344.66 1580.22 1284.53 1603.84C1266.28 1611.36 1242.39 1617 1212.87 1620.75C1183.34 1624.51 1151.39 1627.47 1117.03 1629.61C1082.68 1631.76 1046.44 1633.1 1008.32 1633.64C970.204 1634.18 933.428 1634.45 897.996 1634.45L476.024 1634.45Z" fill="#ef233c" fill-rule="evenodd" opacity="1" stroke="none"/>
</g>
</g>
</g>
</svg>
