<?xml version="1.0" encoding="UTF-8" standalone="no"?>
<!DOCTYPE svg PUBLIC "-//W3C//DTD SVG 1.1//EN" "http://www.w3.org/Graphics/SVG/1.1/DTD/svg11.dtd">
<!-- Created with Vectornator (http://vectornator.io/) -->
<svg height="100%" stroke-miterlimit="10" style="fill-rule:nonzero;clip-rule:evenodd;stroke-linecap:round;stroke-linejoin:round;" version="1.1" viewBox="0 0 500 80" width="100%" xml:space="preserve" xmlns="http://www.w3.org/2000/svg" xmlns:vectornator="http://vectornator.io" xmlns:xlink="http://www.w3.org/1999/xlink">
<defs>
<clipPath id="TextBounds">
<rect height="72.729" width="63.4011" x="0.251709" y="6.47208"/>
</clipPath>
<clipPath id="TextBounds_2">
<rect height="72.729" width="437.021" x="54.0585" y="6.47341"/>
</clipPath>
</defs>
<g id="Layer-1" vectornator:layerName="Layer 1">
<path clip-path="url(#TextBounds)" d="M11.4263 58.1321C12.2183 56.4601 13.2743 54.9091 14.5943 53.4791C15.9143 52.0491 17.3773 50.7731 18.9833 49.6511C20.5893 48.5291 22.3053 47.6051 24.1313 46.8791C25.9573 46.1531 27.7723 45.6581 29.5763 45.3941C30.3243 45.2621 31.3143 45.2511 32.5463 45.3611C33.7783 45.4711 35.0213 45.5041 36.2753 45.4601C37.5293 45.4161 38.6403 45.1961 39.6083 44.8001C40.5763 44.4041 41.1703 43.6781 41.3903 42.6221C41.5223 42.0061 41.4673 41.4781 41.2253 41.0381C40.9833 40.5981 40.6533 40.2131 40.2353 39.8831C39.8173 39.5531 39.3443 39.3001 38.8163 39.1241C38.2883 38.9481 37.7823 38.8381 37.2983 38.7941C35.2303 38.6621 33.2063 38.6181 31.2263 38.6621C29.2463 38.7061 27.3433 38.5961 25.5173 38.3321C23.6913 38.0681 21.9423 37.5291 20.2703 36.7151C18.5983 35.9011 17.0143 34.5921 15.5183 32.7881C13.8463 30.7201 12.8013 28.4541 12.3833 25.9901C11.9653 23.5261 12.0863 21.1281 12.7463 18.7961C13.4063 16.4641 14.5503 14.3301 16.1783 12.3941C17.8063 10.4581 19.8303 9.02808 22.2503 8.10408C24.2303 7.35608 26.2763 6.99308 28.3883 7.01508C30.5003 7.03708 32.6123 7.04808 34.7243 7.04808L55.3163 7.04808C54.3923 8.85208 53.2703 10.4471 51.9503 11.8331C50.6303 13.2191 49.1673 14.4181 47.5613 15.4301C45.9553 16.4421 44.2393 17.2781 42.4133 17.9381C40.5873 18.5981 38.7283 19.1041 36.8363 19.4561C36.0883 19.5881 35.0983 19.6321 33.8663 19.5881C32.6343 19.5441 31.4133 19.5771 30.2033 19.6871C28.9933 19.7971 27.9153 20.0391 26.9693 20.4131C26.0233 20.7871 25.4183 21.4801 25.1543 22.4921C25.0223 23.0641 25.0663 23.5811 25.2863 24.0431C25.5063 24.5051 25.8253 24.9011 26.2433 25.2311C26.6613 25.5611 27.1343 25.8141 27.6623 25.9901C28.1903 26.1661 28.6743 26.2761 29.1143 26.3201C31.1383 26.4521 33.1293 26.4851 35.0873 26.4191C37.0453 26.3531 38.9483 26.4301 40.7963 26.6501C42.6443 26.8701 44.4153 27.3541 46.1093 28.1021C47.8033 28.8501 49.3983 30.1261 50.8943 31.9301C52.5663 33.9541 53.6443 36.2091 54.1283 38.6951C54.6123 41.1811 54.5573 43.6121 53.9633 45.9881C53.3693 48.3641 52.2693 50.5311 50.6633 52.4891C49.0573 54.4471 47.0223 55.9101 44.5583 56.8781C43.8103 57.1861 42.8313 57.4171 41.6213 57.5711C40.4113 57.7251 39.1023 57.8461 37.6943 57.9341C36.2863 58.0221 34.8013 58.0771 33.2393 58.0991C31.6773 58.1211 30.1703 58.1321 28.7183 58.1321L11.4263 58.1321Z" fill="#ef233c" fill-rule="evenodd" opacity="1" stroke="none"/>
<g fill="#ffffff" opacity="1" stroke="none">
<path clip-path="url(#TextBounds_2)" d="M105.49 20.1174L105.49 39.1914C105.49 42.4914 104.885 45.3624 103.675 47.8044C102.465 50.2464 100.859 52.2924 98.8571 53.9424C96.8551 55.5924 94.5781 56.8244 92.0261 57.6384C89.4741 58.4524 86.8671 58.8594 84.2051 58.8594C81.5431 58.8594 78.9361 58.4414 76.3841 57.6054C73.8321 56.7694 71.5551 55.5374 69.5531 53.9094C67.5511 52.2814 65.9451 50.2354 64.7351 47.7714C63.5251 45.3074 62.9201 42.4474 62.9201 39.1914L62.9201 20.1174L66.2201 20.1174L66.6161 20.1174L69.9161 20.1174L69.9161 39.1914C69.9161 43.5914 71.4781 47.3534 74.6021 50.4774C77.6381 53.5134 80.8391 55.0094 84.2051 54.9654C87.5711 54.9214 90.7721 53.4254 93.8081 50.4774C96.9761 47.3534 98.5601 43.5914 98.5601 39.1914L98.5601 20.1174L101.86 20.1174L102.19 20.1174L105.49 20.1174Z" fill-rule="evenodd"/>
<path clip-path="url(#TextBounds_2)" d="M123.442 57.2754L122.848 57.0114L124.63 52.7214C126.038 53.2054 127.446 53.5684 128.854 53.8104C130.262 54.0524 131.648 54.1734 133.012 54.1734C134.992 54.1734 136.84 53.8874 138.556 53.3154C140.272 52.7434 141.768 51.8524 143.044 50.6424C144.32 49.4324 145.321 47.8814 146.047 45.9894C146.773 44.0974 147.136 41.8314 147.136 39.1914C147.136 36.5954 146.729 34.3294 145.915 32.3934C145.101 30.4574 144.012 28.8514 142.648 27.5754C141.284 26.2994 139.744 25.3424 138.028 24.7044C136.312 24.0664 134.552 23.7474 132.748 23.7474C130.944 23.7474 129.184 24.0664 127.468 24.7044C125.752 25.3424 124.223 26.2884 122.881 27.5424C121.539 28.7964 120.461 30.3584 119.647 32.2284C118.833 34.0984 118.426 36.2654 118.426 38.7294L118.426 72.9174L111.43 72.9174L111.43 39.1914C111.43 36.2874 111.991 33.6144 113.113 31.1724C114.235 28.7304 115.753 26.6294 117.667 24.8694C119.581 23.1094 121.814 21.7344 124.366 20.7444C126.918 19.7544 129.602 19.2594 132.418 19.2594C135.014 19.2594 137.522 19.6994 139.942 20.5794C142.362 21.4594 144.518 22.7354 146.41 24.4074C148.302 26.0794 149.82 28.1364 150.964 30.5784C152.108 33.0204 152.68 35.8254 152.68 38.9934C152.68 42.1174 152.13 44.9114 151.03 47.3754C149.93 49.8394 148.445 51.9294 146.575 53.6454C144.705 55.3614 142.538 56.6814 140.074 57.6054C137.61 58.5294 135.036 58.9914 132.352 58.9914C130.9 58.9914 129.426 58.8594 127.93 58.5954C126.434 58.3314 124.938 57.8914 123.442 57.2754Z" fill-rule="evenodd"/>
<path clip-path="url(#TextBounds_2)" d="M167.53 37.1454L167.53 33.4494L191.95 33.4494C191.29 31.7334 190.487 30.2594 189.541 29.0274C188.595 27.7954 187.539 26.7834 186.373 25.9914C185.207 25.1994 183.964 24.6164 182.644 24.2424C181.324 23.8684 179.982 23.6814 178.618 23.6814C176.726 23.6814 174.856 24.0444 173.008 24.7704C171.16 25.4964 169.51 26.5304 168.058 27.8724C166.606 29.2144 165.44 30.8424 164.56 32.7564C163.68 34.6704 163.24 36.8154 163.24 39.1914C163.24 41.5234 163.647 43.6464 164.461 45.5604C165.275 47.4744 166.364 49.1024 167.728 50.4444C169.092 51.7864 170.676 52.8204 172.48 53.5464C174.284 54.2724 176.176 54.6354 178.156 54.6354C180.444 54.6354 182.743 54.1074 185.053 53.0514C187.363 51.9954 189.53 50.3454 191.554 48.1014L195.382 51.7974L194.92 52.2594C192.676 54.5034 190.113 56.1754 187.231 57.2754C184.349 58.3754 181.412 58.9254 178.42 58.9254C175.736 58.9254 173.14 58.4964 170.632 57.6384C168.124 56.7804 165.891 55.5154 163.933 53.8434C161.975 52.1714 160.402 50.1144 159.214 47.6724C158.026 45.2304 157.432 42.4034 157.432 39.1914C157.432 35.9354 158.037 33.0754 159.247 30.6114C160.457 28.1474 162.063 26.0904 164.065 24.4404C166.067 22.7904 168.333 21.5474 170.863 20.7114C173.393 19.8754 175.978 19.4574 178.618 19.4574C181.038 19.4574 183.414 19.8094 185.746 20.5134C188.078 21.2174 190.201 22.2624 192.115 23.6484C194.029 25.0344 195.668 26.7834 197.032 28.8954C198.396 31.0074 199.298 33.4934 199.738 36.3534L199.87 37.1454L167.53 37.1454Z" fill-rule="evenodd"/>
<path clip-path="url(#TextBounds_2)" d="M227.92 23.0874L227.26 23.0874C225.06 23.0874 222.992 23.5054 221.056 24.3414C219.12 25.1774 217.426 26.3214 215.974 27.7734C214.522 29.2254 213.378 30.9304 212.542 32.8884C211.706 34.8464 211.288 36.9254 211.288 39.1254L211.288 58.1334L204.358 58.1334L204.358 39.1254C204.358 33.5374 206.338 28.8514 210.298 25.0674C211.618 23.7914 212.96 22.7794 214.324 22.0314C215.688 21.2834 217.085 20.7224 218.515 20.3484C219.945 19.9744 221.43 19.7324 222.97 19.6224C224.51 19.5124 226.16 19.4574 227.92 19.4574L227.92 23.0874Z" fill-rule="evenodd"/>
<path clip-path="url(#TextBounds_2)" d="M282.634 58.1334L275.572 58.1334L275.572 33.2514C275.572 31.7994 275.352 30.4794 274.912 29.2914C274.472 28.1034 273.878 27.0804 273.13 26.2224C272.382 25.3644 271.524 24.7044 270.556 24.2424C269.588 23.7804 268.576 23.5494 267.52 23.5494C266.552 23.5494 265.683 23.7144 264.913 24.0444C264.143 24.3744 263.45 24.8144 262.834 25.3644C262.218 25.9144 261.657 26.5414 261.151 27.2454C260.645 27.9494 260.194 28.6974 259.798 29.4894C259.71 29.7534 259.644 29.9734 259.6 30.1494L259.534 30.2154L259.534 30.2814L259.534 58.1334L252.472 58.1334L252.472 30.2154C252.428 30.1274 252.406 30.0834 252.406 30.0834C252.318 29.8194 252.23 29.6214 252.142 29.4894C252.054 29.2694 251.966 29.0714 251.878 28.8954C251.79 28.7194 251.724 28.6094 251.68 28.5654C250.8 26.8054 249.733 25.5294 248.479 24.7374C247.225 23.9454 245.938 23.5494 244.618 23.5494C243.562 23.5494 242.539 23.7914 241.549 24.2754C240.559 24.7594 239.668 25.4304 238.876 26.2884C238.084 27.1464 237.457 28.1694 236.995 29.3574C236.533 30.5454 236.302 31.8434 236.302 33.2514L236.302 58.1334L229.24 58.1334L229.24 32.7234C229.24 30.5674 229.691 28.6644 230.593 27.0144C231.495 25.3644 232.672 23.9674 234.124 22.8234C235.576 21.6794 237.237 20.8104 239.107 20.2164C240.977 19.6224 242.88 19.3254 244.816 19.3254C246.928 19.3254 248.963 19.6774 250.921 20.3814C252.879 21.0854 254.584 22.1854 256.036 23.6814C257.444 22.2294 259.116 21.1514 261.052 20.4474C262.988 19.7434 265.012 19.3914 267.124 19.3914C269.06 19.3914 270.952 19.6884 272.8 20.2824C274.648 20.8764 276.298 21.7344 277.75 22.8564C279.202 23.9784 280.379 25.3644 281.281 27.0144C282.183 28.6644 282.634 30.5674 282.634 32.7234L282.634 58.1334Z" fill-rule="evenodd"/>
<path clip-path="url(#TextBounds_2)" d="M287.254 39.1254C287.254 35.8694 287.859 33.0094 289.069 30.5454C290.279 28.0814 291.885 26.0354 293.887 24.4074C295.889 22.7794 298.166 21.5584 300.718 20.7444C303.27 19.9304 305.866 19.5234 308.506 19.5234C311.146 19.5234 313.742 19.9304 316.294 20.7444C318.846 21.5584 321.123 22.7794 323.125 24.4074C325.127 26.0354 326.733 28.0814 327.943 30.5454C329.153 33.0094 329.758 35.8694 329.758 39.1254C329.758 42.3814 329.142 45.2414 327.91 47.7054C326.678 50.1694 325.061 52.2264 323.059 53.8764C321.057 55.5264 318.78 56.7584 316.228 57.5724C313.676 58.3864 311.058 58.7934 308.374 58.7934C305.734 58.7934 303.149 58.3864 300.619 57.5724C298.089 56.7584 295.834 55.5264 293.854 53.8764C291.874 52.2264 290.279 50.1804 289.069 47.7384C287.859 45.2964 287.254 42.4254 287.254 39.1254ZM294.184 39.1254C294.184 41.6774 294.591 43.9104 295.405 45.8244C296.219 47.7384 297.308 49.3444 298.672 50.6424C300.036 51.9404 301.576 52.9084 303.292 53.5464C305.008 54.1844 306.746 54.5034 308.506 54.5034C310.31 54.5034 312.07 54.1844 313.786 53.5464C315.502 52.9084 317.031 51.9404 318.373 50.6424C319.715 49.3444 320.793 47.7384 321.607 45.8244C322.421 43.9104 322.828 41.6774 322.828 39.1254C322.828 36.5734 322.421 34.3404 321.607 32.4264C320.793 30.5124 319.704 28.9064 318.34 27.6084C316.976 26.3104 315.436 25.3424 313.72 24.7044C312.004 24.0664 310.244 23.7474 308.44 23.7474C306.68 23.7474 304.942 24.0664 303.226 24.7044C301.51 25.3424 299.981 26.3104 298.639 27.6084C297.297 28.9064 296.219 30.5124 295.405 32.4264C294.591 34.3404 294.184 36.5734 294.184 39.1254Z" fill-rule="evenodd"/>
<path clip-path="url(#TextBounds_2)" d="M362.23 25.8594C359.414 24.5834 356.686 23.9454 354.046 23.9454C352.11 23.9454 350.284 24.2754 348.568 24.9354C346.852 25.5954 345.356 26.5634 344.08 27.8394C342.804 29.1154 341.803 30.6994 341.077 32.5914C340.351 34.4834 339.988 36.6614 339.988 39.1254C339.988 41.7214 340.395 43.9874 341.209 45.9234C342.023 47.8594 343.112 49.4654 344.476 50.7414C345.84 52.0174 347.38 52.9744 349.096 53.6124C350.812 54.2504 352.55 54.5694 354.31 54.5694C356.114 54.5694 357.885 54.2504 359.623 53.6124C361.361 52.9744 362.912 52.0284 364.276 50.7744C365.64 49.5204 366.729 47.9584 367.543 46.0884C368.357 44.2184 368.764 42.0514 368.764 39.5874L368.764 5.59741L375.694 5.59741L375.694 39.1254C375.694 42.4254 375.089 45.3074 373.879 47.7714C372.669 50.2354 371.063 52.2924 369.061 53.9424C367.059 55.5924 364.782 56.8244 362.23 57.6384C359.678 58.4524 357.082 58.8594 354.442 58.8594C351.758 58.8594 349.14 58.4524 346.588 57.6384C344.036 56.8244 341.759 55.5924 339.757 53.9424C337.755 52.2924 336.138 50.2354 334.906 47.7714C333.674 45.3074 333.058 42.4254 333.058 39.1254C333.058 36.0454 333.674 33.2734 334.906 30.8094C336.138 28.3454 337.766 26.2554 339.79 24.5394C341.814 22.8234 344.135 21.5034 346.753 20.5794C349.371 19.6554 352.044 19.1934 354.772 19.1934C356.312 19.1934 357.83 19.3364 359.326 19.6224C360.822 19.9084 362.274 20.3594 363.682 20.9754L364.276 21.2394L362.23 25.8594Z" fill-rule="evenodd"/>
<path clip-path="url(#TextBounds_2)" d="M424.204 20.1174L424.204 39.1914C424.204 42.4914 423.599 45.3624 422.389 47.8044C421.179 50.2464 419.573 52.2924 417.571 53.9424C415.569 55.5924 413.292 56.8244 410.74 57.6384C408.188 58.4524 405.581 58.8594 402.919 58.8594C400.257 58.8594 397.65 58.4414 395.098 57.6054C392.546 56.7694 390.269 55.5374 388.267 53.9094C386.265 52.2814 384.659 50.2354 383.449 47.7714C382.239 45.3074 381.634 42.4474 381.634 39.1914L381.634 20.1174L384.934 20.1174L385.33 20.1174L388.63 20.1174L388.63 39.1914C388.63 43.5914 390.192 47.3534 393.316 50.4774C396.352 53.5134 399.553 55.0094 402.919 54.9654C406.285 54.9214 409.486 53.4254 412.522 50.4774C415.69 47.3534 417.274 43.5914 417.274 39.1914L417.274 20.1174L420.574 20.1174L420.904 20.1174L424.204 20.1174Z" fill-rule="evenodd"/>
<path clip-path="url(#TextBounds_2)" d="M438.592 58.1334L431.464 58.1334L431.464 5.59741L438.592 5.59741L438.592 58.1334Z" fill-rule="evenodd"/>
<path clip-path="url(#TextBounds_2)" d="M454.63 37.1454L454.63 33.4494L479.05 33.4494C478.39 31.7334 477.587 30.2594 476.641 29.0274C475.695 27.7954 474.639 26.7834 473.473 25.9914C472.307 25.1994 471.064 24.6164 469.744 24.2424C468.424 23.8684 467.082 23.6814 465.718 23.6814C463.826 23.6814 461.956 24.0444 460.108 24.7704C458.26 25.4964 456.61 26.5304 455.158 27.8724C453.706 29.2144 452.54 30.8424 451.66 32.7564C450.78 34.6704 450.34 36.8154 450.34 39.1914C450.34 41.5234 450.747 43.6464 451.561 45.5604C452.375 47.4744 453.464 49.1024 454.828 50.4444C456.192 51.7864 457.776 52.8204 459.58 53.5464C461.384 54.2724 463.276 54.6354 465.256 54.6354C467.544 54.6354 469.843 54.1074 472.153 53.0514C474.463 51.9954 476.63 50.3454 478.654 48.1014L482.482 51.7974L482.02 52.2594C479.776 54.5034 477.213 56.1754 474.331 57.2754C471.449 58.3754 468.512 58.9254 465.52 58.9254C462.836 58.9254 460.24 58.4964 457.732 57.6384C455.224 56.7804 452.991 55.5154 451.033 53.8434C449.075 52.1714 447.502 50.1144 446.314 47.6724C445.126 45.2304 444.532 42.4034 444.532 39.1914C444.532 35.9354 445.137 33.0754 446.347 30.6114C447.557 28.1474 449.163 26.0904 451.165 24.4404C453.167 22.7904 455.433 21.5474 457.963 20.7114C460.493 19.8754 463.078 19.4574 465.718 19.4574C468.138 19.4574 470.514 19.8094 472.846 20.5134C475.178 21.2174 477.301 22.2624 479.215 23.6484C481.129 25.0344 482.768 26.7834 484.132 28.8954C485.496 31.0074 486.398 33.4934 486.838 36.3534L486.97 37.1454L454.63 37.1454Z" fill-rule="evenodd"/>
</g>
</g>
</svg>
