<?xml version="1.0" encoding="UTF-8" standalone="no"?>
<!DOCTYPE svg PUBLIC "-//W3C//DTD SVG 1.1//EN" "http://www.w3.org/Graphics/SVG/1.1/DTD/svg11.dtd">
<!-- Created with Vectornator (http://vectornator.io/) -->
<svg height="100%" stroke-miterlimit="10" style="fill-rule:nonzero;clip-rule:evenodd;stroke-linecap:round;stroke-linejoin:round;" version="1.1" viewBox="0 0 1958 745" width="100%" xml:space="preserve" xmlns="http://www.w3.org/2000/svg" xmlns:vectornator="http://vectornator.io" xmlns:xlink="http://www.w3.org/1999/xlink">
<defs>
<filter color-interpolation-filters="sRGB" filterUnits="userSpaceOnUse" height="124.82" id="Filter" width="107.849" x="938.259" y="293.682">
<feDropShadow dx="-1.57597" dy="-2.55271" flood-color="#413a3a" flood-opacity="0.141964" in="SourceGraphic" result="Shadow" stdDeviation="1"/>
</filter>
<clipPath id="TextBounds">
<rect height="107.839" width="839.517" x="563.964" y="522.732"/>
</clipPath>
<clipPath id="TextBounds_2">
<rect height="107.839" width="620.376" x="380.41" y="523.414"/>
</clipPath>
</defs>
<g id="Layer-1" vectornator:layerName="Layer 1">
<g opacity="1">
<path d="M942.626 418.002C949.519 418.002 956.742 418.005 963.705 417.928C966.171 417.901 969.447 417.898 983.004 417.898C996.561 417.898 1012.81 417.751 1019.88 414.974C1042.93 405.914 1050.13 375.709 1034.55 356.901C1020.68 340.173 1002.84 345.274 983.876 343.846C979.561 343.521 973.316 340.234 974.613 334.904C976.881 325.585 994.825 329.254 1001.88 327.901C1019.5 324.519 1036.49 315.729 1044.88 298.901L996.876 298.901C987.231 298.901 977.041 297.779 967.876 301.364C945.264 310.212 936.457 339.835 952.205 358.901C966.229 375.88 983.473 371.731 1002.88 372.945C1007.52 373.235 1013.47 376.278 1012.38 381.885C1010.48 391.756 991.877 387.201 984.876 388.201C968.121 390.595 950.041 402.42 942.626 418.002Z" fill="#e51f27" fill-rule="evenodd" filter="url(#Filter)" stroke="#e51d24" stroke-linecap="butt" stroke-linejoin="miter" stroke-width="1" vectornator:shadowAngle="45" vectornator:shadowColor="#413a3a" vectornator:shadowOffset="-3" vectornator:shadowOpacity="0.141964" vectornator:shadowRadius="2"/>
<path d="M922.994 193.575L842.357 238.377C829.369 245.597 821.305 259.286 821.305 274.141L821.305 363.056M1064.53 193.575L1145.16 238.377C1158.15 245.597 1166.21 259.286 1166.21 274.141L1166.21 363.056M1106.75 460.475L1013.85 516.22C1001.41 523.689 985.946 523.998 973.208 517.052L869.474 460.475" fill="none" fill-rule="evenodd" opacity="1" stroke="#e41717" stroke-linecap="butt" stroke-linejoin="miter" stroke-width="1"/>
<path d="M916.453 234.5L916.453 154.6L993.76 106.408L1032.71 130.691L1071.07 154.6L1071.07 234.5L993.76 282.692L916.453 234.5Z" fill="#dff0fe" fill-rule="evenodd" opacity="1" stroke="none"/>
<path d="M993.76 113.413L1065.12 157.895L1065.12 231.194L993.76 275.675L922.399 231.194L922.399 157.906L993.76 113.413M993.76 99.4027L910.506 151.306L910.506 237.806L993.76 289.697L1077.01 237.795L1077.01 151.306L993.76 99.4027L993.76 99.4027Z" fill="#1f1d1d" fill-rule="evenodd" opacity="1" stroke="none"/>
<path d="M993.76 198.261L922.399 157.966L922.399 231.194L993.76 275.687L993.76 198.261Z" fill="#98ccfd" fill-rule="evenodd" opacity="1" stroke="none"/>
<path d="M1065.12 157.966L993.76 198.261L993.76 275.687L1065.12 231.194L1065.12 157.966Z" fill="#ffffff" fill-rule="evenodd" opacity="1" stroke="none"/>
<path d="M1059.17 448.582L1059.17 368.682L1136.48 320.49L1213.79 368.682L1213.79 448.582L1136.48 496.774L1059.17 448.582Z" fill="#dff0fe" fill-rule="evenodd" opacity="1" stroke="none"/>
<path d="M1136.48 327.495L1207.84 371.976L1207.84 445.275L1136.48 489.757L1065.12 445.275L1065.12 371.976L1136.48 327.495M1136.48 313.484L1053.23 365.387L1053.23 451.888L1136.48 503.779L1219.73 451.876L1219.73 365.375L1136.48 313.484L1136.48 313.484Z" fill="#1f1d1d" fill-rule="evenodd" opacity="1" stroke="none"/>
<path d="M1136.48 412.342L1065.12 372.047L1065.12 445.275L1136.48 489.769L1136.48 412.342Z" fill="#98ccfd" fill-rule="evenodd" opacity="1" stroke="none"/>
<path d="M1207.84 372.047L1136.48 412.342L1136.48 489.769L1207.84 445.275L1207.84 372.047Z" fill="#ffffff" fill-rule="evenodd" opacity="1" stroke="none"/>
<path d="M773.732 448.582L773.732 368.682L851.039 320.49L928.346 368.682L928.346 448.582L851.039 496.774L773.732 448.582Z" fill="#dff0fe" fill-rule="evenodd" opacity="1" stroke="none"/>
<path d="M851.039 327.495L922.399 371.976L922.399 445.275L851.039 489.757L779.678 445.275L779.678 371.976L851.039 327.495M851.039 313.484L767.785 365.387L767.785 451.888L851.039 503.779L934.293 451.876L934.293 365.375L851.039 313.484L851.039 313.484Z" fill="#1f1d1d" fill-rule="evenodd" opacity="1" stroke="none"/>
<path d="M851.039 412.342L779.678 372.047L779.678 445.275L851.039 489.769L851.039 412.342Z" fill="#98ccfd" fill-rule="evenodd" opacity="1" stroke="none"/>
<path d="M922.399 372.047L851.039 412.342L851.039 489.769L922.399 445.275L922.399 372.047Z" fill="#ffffff" fill-rule="evenodd" opacity="1" stroke="none"/>
<path d="M1169.16 347.026L1169.16 347.026L1169.16 347.341L1169.16 347.341L1169.16 347.026Z" fill="#1f1d1d" fill-rule="evenodd" opacity="1" stroke="none"/>
</g>
<g opacity="1">
<g fill="#180d0d" opacity="1" stroke="none">
<path clip-path="url(#TextBounds)" d="M787.387 540.792L787.387 566.802C787.387 571.302 786.562 575.217 784.912 578.547C783.262 581.877 781.072 584.667 778.342 586.917C775.612 589.167 772.507 590.847 769.027 591.957C765.547 593.067 761.992 593.622 758.362 593.622C754.732 593.622 751.177 593.052 747.697 591.912C744.217 590.772 741.112 589.092 738.382 586.872C735.652 584.652 733.462 581.862 731.812 578.502C730.162 575.142 729.337 571.242 729.337 566.802L729.337 540.792L733.837 540.792L734.377 540.792L738.877 540.792L738.877 566.802C738.877 572.802 741.007 577.932 745.267 582.192C749.407 586.332 753.772 588.372 758.362 588.312C762.952 588.252 767.317 586.212 771.457 582.192C775.777 577.932 777.937 572.802 777.937 566.802L777.937 540.792L782.437 540.792L782.887 540.792L787.387 540.792Z" fill-rule="evenodd"/>
<path clip-path="url(#TextBounds)" d="M811.867 591.462L811.057 591.102L813.487 585.252C815.407 585.912 817.327 586.407 819.247 586.737C821.167 587.067 823.057 587.232 824.917 587.232C827.617 587.232 830.137 586.842 832.477 586.062C834.817 585.282 836.857 584.067 838.597 582.417C840.337 580.767 841.702 578.652 842.692 576.072C843.682 573.492 844.177 570.402 844.177 566.802C844.177 563.262 843.622 560.172 842.512 557.532C841.402 554.892 839.917 552.702 838.057 550.962C836.197 549.222 834.097 547.917 831.757 547.047C829.417 546.177 827.017 545.742 824.557 545.742C822.097 545.742 819.697 546.177 817.357 547.047C815.017 547.917 812.932 549.207 811.102 550.917C809.272 552.627 807.802 554.757 806.692 557.307C805.582 559.857 805.027 562.812 805.027 566.172L805.027 612.792L795.487 612.792L795.487 566.802C795.487 562.842 796.252 559.197 797.782 555.867C799.312 552.537 801.382 549.672 803.992 547.272C806.602 544.872 809.647 542.997 813.127 541.647C816.607 540.297 820.267 539.622 824.107 539.622C827.647 539.622 831.067 540.222 834.367 541.422C837.667 542.622 840.607 544.362 843.187 546.642C845.767 548.922 847.837 551.727 849.397 555.057C850.957 558.387 851.737 562.212 851.737 566.532C851.737 570.792 850.987 574.602 849.487 577.962C847.987 581.322 845.962 584.172 843.412 586.512C840.862 588.852 837.907 590.652 834.547 591.912C831.187 593.172 827.677 593.802 824.017 593.802C822.037 593.802 820.027 593.622 817.987 593.262C815.947 592.902 813.907 592.302 811.867 591.462Z" fill-rule="evenodd"/>
<path clip-path="url(#TextBounds)" d="M871.987 564.012L871.987 558.972L905.287 558.972C904.387 556.632 903.292 554.622 902.002 552.942C900.712 551.262 899.272 549.882 897.682 548.802C896.092 547.722 894.397 546.927 892.597 546.417C890.797 545.907 888.967 545.652 887.107 545.652C884.527 545.652 881.977 546.147 879.457 547.137C876.937 548.127 874.687 549.537 872.707 551.367C870.727 553.197 869.137 555.417 867.937 558.027C866.737 560.637 866.137 563.562 866.137 566.802C866.137 569.982 866.692 572.877 867.802 575.487C868.912 578.097 870.397 580.317 872.257 582.147C874.117 583.977 876.277 585.387 878.737 586.377C881.197 587.367 883.777 587.862 886.477 587.862C889.597 587.862 892.732 587.142 895.882 585.702C899.032 584.262 901.987 582.012 904.747 578.952L909.967 583.992L909.337 584.622C906.277 587.682 902.782 589.962 898.852 591.462C894.922 592.962 890.917 593.712 886.837 593.712C883.177 593.712 879.637 593.127 876.217 591.957C872.797 590.787 869.752 589.062 867.082 586.782C864.412 584.502 862.267 581.697 860.647 578.367C859.027 575.037 858.217 571.182 858.217 566.802C858.217 562.362 859.042 558.462 860.692 555.102C862.342 551.742 864.532 548.937 867.262 546.687C869.992 544.437 873.082 542.742 876.532 541.602C879.982 540.462 883.507 539.892 887.107 539.892C890.407 539.892 893.647 540.372 896.827 541.332C900.007 542.292 902.902 543.717 905.512 545.607C908.122 547.497 910.357 549.882 912.217 552.762C914.077 555.642 915.307 559.032 915.907 562.932L916.087 564.012L871.987 564.012Z" fill-rule="evenodd"/>
<path clip-path="url(#TextBounds)" d="M954.337 544.842L953.437 544.842C950.437 544.842 947.617 545.412 944.977 546.552C942.337 547.692 940.027 549.252 938.047 551.232C936.067 553.212 934.507 555.537 933.367 558.207C932.227 560.877 931.657 563.712 931.657 566.712L931.657 592.632L922.207 592.632L922.207 566.712C922.207 559.092 924.907 552.702 930.307 547.542C932.107 545.802 933.937 544.422 935.797 543.402C937.657 542.382 939.562 541.617 941.512 541.107C943.462 540.597 945.487 540.267 947.587 540.117C949.687 539.967 951.937 539.892 954.337 539.892L954.337 544.842Z" fill-rule="evenodd"/>
<path clip-path="url(#TextBounds)" d="M1028.95 592.632L1019.32 592.632L1019.32 558.702C1019.32 556.722 1019.02 554.922 1018.42 553.302C1017.82 551.682 1017.01 550.287 1015.99 549.117C1014.97 547.947 1013.8 547.047 1012.48 546.417C1011.16 545.787 1009.78 545.472 1008.34 545.472C1007.02 545.472 1005.83 545.697 1004.78 546.147C1003.73 546.597 1002.79 547.197 1001.95 547.947C1001.11 548.697 1000.34 549.552 999.652 550.512C998.962 551.472 998.347 552.492 997.807 553.572C997.687 553.932 997.597 554.232 997.537 554.472L997.447 554.562L997.447 554.652L997.447 592.632L987.817 592.632L987.817 554.562C987.757 554.442 987.727 554.382 987.727 554.382C987.607 554.022 987.487 553.752 987.367 553.572C987.247 553.272 987.127 553.002 987.007 552.762C986.887 552.522 986.797 552.372 986.737 552.312C985.537 549.912 984.082 548.172 982.372 547.092C980.662 546.012 978.907 545.472 977.107 545.472C975.667 545.472 974.272 545.802 972.922 546.462C971.572 547.122 970.357 548.037 969.277 549.207C968.197 550.377 967.342 551.772 966.712 553.392C966.082 555.012 965.767 556.782 965.767 558.702L965.767 592.632L956.137 592.632L956.137 557.982C956.137 555.042 956.752 552.447 957.982 550.197C959.212 547.947 960.817 546.042 962.797 544.482C964.777 542.922 967.042 541.737 969.592 540.927C972.142 540.117 974.737 539.712 977.377 539.712C980.257 539.712 983.032 540.192 985.702 541.152C988.372 542.112 990.697 543.612 992.677 545.652C994.597 543.672 996.877 542.202 999.517 541.242C1002.16 540.282 1004.92 539.802 1007.8 539.802C1010.44 539.802 1013.02 540.207 1015.54 541.017C1018.06 541.827 1020.31 542.997 1022.29 544.527C1024.27 546.057 1025.87 547.947 1027.1 550.197C1028.33 552.447 1028.95 555.042 1028.95 557.982L1028.95 592.632Z" fill-rule="evenodd"/>
<path clip-path="url(#TextBounds)" d="M1035.25 566.712C1035.25 562.272 1036.07 558.372 1037.72 555.012C1039.37 551.652 1041.56 548.862 1044.29 546.642C1047.02 544.422 1050.13 542.757 1053.61 541.647C1057.09 540.537 1060.63 539.982 1064.23 539.982C1067.83 539.982 1071.37 540.537 1074.85 541.647C1078.33 542.757 1081.43 544.422 1084.16 546.642C1086.89 548.862 1089.08 551.652 1090.73 555.012C1092.38 558.372 1093.21 562.272 1093.21 566.712C1093.21 571.152 1092.37 575.052 1090.69 578.412C1089.01 581.772 1086.8 584.577 1084.07 586.827C1081.34 589.077 1078.24 590.757 1074.76 591.867C1071.28 592.977 1067.71 593.532 1064.05 593.532C1060.45 593.532 1056.92 592.977 1053.47 591.867C1050.02 590.757 1046.95 589.077 1044.25 586.827C1041.55 584.577 1039.37 581.787 1037.72 578.457C1036.07 575.127 1035.25 571.212 1035.25 566.712ZM1044.7 566.712C1044.7 570.192 1045.25 573.237 1046.36 575.847C1047.47 578.457 1048.96 580.647 1050.82 582.417C1052.68 584.187 1054.78 585.507 1057.12 586.377C1059.46 587.247 1061.83 587.682 1064.23 587.682C1066.69 587.682 1069.09 587.247 1071.43 586.377C1073.77 585.507 1075.85 584.187 1077.68 582.417C1079.51 580.647 1080.98 578.457 1082.09 575.847C1083.2 573.237 1083.76 570.192 1083.76 566.712C1083.76 563.232 1083.2 560.187 1082.09 557.577C1080.98 554.967 1079.5 552.777 1077.64 551.007C1075.78 549.237 1073.68 547.917 1071.34 547.047C1069 546.177 1066.6 545.742 1064.14 545.742C1061.74 545.742 1059.37 546.177 1057.03 547.047C1054.69 547.917 1052.6 549.237 1050.77 551.007C1048.94 552.777 1047.47 554.967 1046.36 557.577C1045.25 560.187 1044.7 563.232 1044.7 566.712Z" fill-rule="evenodd"/>
<path clip-path="url(#TextBounds)" d="M1137.49 548.622C1133.65 546.882 1129.93 546.012 1126.33 546.012C1123.69 546.012 1121.2 546.462 1118.86 547.362C1116.52 548.262 1114.48 549.582 1112.74 551.322C1111 553.062 1109.63 555.222 1108.64 557.802C1107.65 560.382 1107.16 563.352 1107.16 566.712C1107.16 570.252 1107.71 573.342 1108.82 575.982C1109.93 578.622 1111.42 580.812 1113.28 582.552C1115.14 584.292 1117.24 585.597 1119.58 586.467C1121.92 587.337 1124.29 587.772 1126.69 587.772C1129.15 587.772 1131.56 587.337 1133.93 586.467C1136.3 585.597 1138.42 584.307 1140.28 582.597C1142.14 580.887 1143.62 578.757 1144.73 576.207C1145.84 573.657 1146.4 570.702 1146.4 567.342L1146.4 520.992L1155.85 520.992L1155.85 566.712C1155.85 571.212 1155.02 575.142 1153.37 578.502C1151.72 581.862 1149.53 584.667 1146.8 586.917C1144.07 589.167 1140.97 590.847 1137.49 591.957C1134.01 593.067 1130.47 593.622 1126.87 593.622C1123.21 593.622 1119.64 593.067 1116.16 591.957C1112.68 590.847 1109.57 589.167 1106.84 586.917C1104.11 584.667 1101.91 581.862 1100.23 578.502C1098.55 575.142 1097.71 571.212 1097.71 566.712C1097.71 562.512 1098.55 558.732 1100.23 555.372C1101.91 552.012 1104.13 549.162 1106.89 546.822C1109.65 544.482 1112.81 542.682 1116.38 541.422C1119.95 540.162 1123.6 539.532 1127.32 539.532C1129.42 539.532 1131.49 539.727 1133.53 540.117C1135.57 540.507 1137.55 541.122 1139.47 541.962L1140.28 542.322L1137.49 548.622Z" fill-rule="evenodd"/>
<path clip-path="url(#TextBounds)" d="M1222 540.792L1222 566.802C1222 571.302 1221.17 575.217 1219.52 578.547C1217.87 581.877 1215.68 584.667 1212.95 586.917C1210.22 589.167 1207.12 590.847 1203.64 591.957C1200.16 593.067 1196.6 593.622 1192.97 593.622C1189.34 593.622 1185.79 593.052 1182.31 591.912C1178.83 590.772 1175.72 589.092 1172.99 586.872C1170.26 584.652 1168.07 581.862 1166.42 578.502C1164.77 575.142 1163.95 571.242 1163.95 566.802L1163.95 540.792L1168.45 540.792L1168.99 540.792L1173.49 540.792L1173.49 566.802C1173.49 572.802 1175.62 577.932 1179.88 582.192C1184.02 586.332 1188.38 588.372 1192.97 588.312C1197.56 588.252 1201.93 586.212 1206.07 582.192C1210.39 577.932 1212.55 572.802 1212.55 566.802L1212.55 540.792L1217.05 540.792L1217.5 540.792L1222 540.792Z" fill-rule="evenodd"/>
<path clip-path="url(#TextBounds)" d="M1241.62 592.632L1231.9 592.632L1231.9 520.992L1241.62 520.992L1241.62 592.632Z" fill-rule="evenodd"/>
<path clip-path="url(#TextBounds)" d="M1263.49 564.012L1263.49 558.972L1296.79 558.972C1295.89 556.632 1294.79 554.622 1293.5 552.942C1292.21 551.262 1290.77 549.882 1289.18 548.802C1287.59 547.722 1285.9 546.927 1284.1 546.417C1282.3 545.907 1280.47 545.652 1278.61 545.652C1276.03 545.652 1273.48 546.147 1270.96 547.137C1268.44 548.127 1266.19 549.537 1264.21 551.367C1262.23 553.197 1260.64 555.417 1259.44 558.027C1258.24 560.637 1257.64 563.562 1257.64 566.802C1257.64 569.982 1258.19 572.877 1259.3 575.487C1260.41 578.097 1261.9 580.317 1263.76 582.147C1265.62 583.977 1267.78 585.387 1270.24 586.377C1272.7 587.367 1275.28 587.862 1277.98 587.862C1281.1 587.862 1284.23 587.142 1287.38 585.702C1290.53 584.262 1293.49 582.012 1296.25 578.952L1301.47 583.992L1300.84 584.622C1297.78 587.682 1294.28 589.962 1290.35 591.462C1286.42 592.962 1282.42 593.712 1278.34 593.712C1274.68 593.712 1271.14 593.127 1267.72 591.957C1264.3 590.787 1261.25 589.062 1258.58 586.782C1255.91 584.502 1253.77 581.697 1252.15 578.367C1250.53 575.037 1249.72 571.182 1249.72 566.802C1249.72 562.362 1250.54 558.462 1252.19 555.102C1253.84 551.742 1256.03 548.937 1258.76 546.687C1261.49 544.437 1264.58 542.742 1268.03 541.602C1271.48 540.462 1275.01 539.892 1278.61 539.892C1281.91 539.892 1285.15 540.372 1288.33 541.332C1291.51 542.292 1294.4 543.717 1297.01 545.607C1299.62 547.497 1301.86 549.882 1303.72 552.762C1305.58 555.642 1306.81 559.032 1307.41 562.932L1307.59 564.012L1263.49 564.012Z" fill-rule="evenodd"/>
</g>
<path clip-path="url(#TextBounds_2)" d="M662.608 593.314C663.688 591.034 665.128 588.919 666.928 586.969C668.728 585.019 670.723 583.279 672.913 581.749C675.103 580.219 677.443 578.959 679.933 577.969C682.423 576.979 684.898 576.304 687.358 575.944C688.378 575.764 689.728 575.749 691.408 575.899C693.088 576.049 694.783 576.094 696.493 576.034C698.203 575.974 699.718 575.674 701.038 575.134C702.358 574.594 703.168 573.604 703.468 572.164C703.648 571.324 703.573 570.604 703.243 570.004C702.913 569.404 702.463 568.879 701.893 568.429C701.323 567.979 700.678 567.634 699.958 567.394C699.238 567.154 698.548 567.004 697.888 566.944C695.068 566.764 692.308 566.704 689.608 566.764C686.908 566.824 684.313 566.674 681.823 566.314C679.333 565.954 676.948 565.219 674.668 564.109C672.388 562.999 670.228 561.214 668.188 558.754C665.908 555.934 664.483 552.844 663.913 549.484C663.343 546.124 663.508 542.854 664.408 539.674C665.308 536.494 666.868 533.584 669.088 530.944C671.308 528.304 674.068 526.354 677.368 525.094C680.068 524.074 682.858 523.579 685.738 523.609C688.618 523.639 691.498 523.654 694.378 523.654L722.458 523.654C721.198 526.114 719.668 528.289 717.868 530.179C716.068 532.069 714.073 533.704 711.883 535.084C709.693 536.464 707.353 537.604 704.863 538.504C702.373 539.404 699.838 540.094 697.258 540.574C696.238 540.754 694.888 540.814 693.208 540.754C691.528 540.694 689.863 540.739 688.213 540.889C686.563 541.039 685.093 541.369 683.803 541.879C682.513 542.389 681.688 543.334 681.328 544.714C681.148 545.494 681.208 546.199 681.508 546.829C681.808 547.459 682.243 547.999 682.813 548.449C683.383 548.899 684.028 549.244 684.748 549.484C685.468 549.724 686.128 549.874 686.728 549.934C689.488 550.114 692.203 550.159 694.873 550.069C697.543 549.979 700.138 550.084 702.658 550.384C705.178 550.684 707.593 551.344 709.903 552.364C712.213 553.384 714.388 555.124 716.428 557.584C718.708 560.344 720.178 563.419 720.838 566.809C721.498 570.199 721.423 573.514 720.613 576.754C719.803 579.994 718.303 582.949 716.113 585.619C713.923 588.289 711.148 590.284 707.788 591.604C706.768 592.024 705.433 592.339 703.783 592.549C702.133 592.759 700.348 592.924 698.428 593.044C696.508 593.164 694.483 593.239 692.353 593.269C690.223 593.299 688.168 593.314 686.188 593.314L662.608 593.314Z" fill="#ef233c" fill-rule="evenodd" opacity="1" stroke="none"/>
</g>
</g>
</svg>
