<?xml version="1.0" encoding="UTF-8" standalone="no"?>
<!DOCTYPE svg PUBLIC "-//W3C//DTD SVG 1.1//EN" "http://www.w3.org/Graphics/SVG/1.1/DTD/svg11.dtd">
<!-- Created with Vectornator (http://vectornator.io/) -->
<svg height="100%" stroke-miterlimit="10" style="fill-rule:nonzero;clip-rule:evenodd;stroke-linecap:round;stroke-linejoin:round;" version="1.1" viewBox="0 0 1128 191" width="100%" xml:space="preserve" xmlns="http://www.w3.org/2000/svg" xmlns:vectornator="http://vectornator.io" xmlns:xlink="http://www.w3.org/1999/xlink">
<defs>
<filter color-interpolation-filters="sRGB" filterUnits="userSpaceOnUse" height="41.8768" id="Filter" width="37.2767" x="552.261" y="63.1061">
<feDropShadow dx="-1.57597" dy="-2.55271" flood-color="#413a3a" flood-opacity="0.141964" in="SourceGraphic" result="Shadow" stdDeviation="1"/>
</filter>
<clipPath id="TextBounds">
<rect height="59.0047" width="318.365" x="410.647" y="137.343"/>
</clipPath>
<clipPath id="TextBounds_2">
<rect height="32.8435" width="192.123" x="336.678" y="137.551"/>
</clipPath>
</defs>
<g id="Layer-1" vectornator:layerName="Layer 1">
<g opacity="1">
<path d="M556.635 104.483C558.769 104.483 561.006 104.484 563.163 104.461C563.926 104.452 564.941 104.451 569.139 104.451C573.338 104.451 578.369 104.407 580.558 103.561C587.699 100.801 589.928 91.6021 585.102 85.8741C580.808 80.7793 575.283 82.3328 569.409 81.8979C568.073 81.799 566.139 80.7981 566.541 79.1748C567.243 76.3364 572.8 77.4538 574.984 77.0417C580.44 76.0117 585.704 73.3348 588.3 68.2094L573.435 68.2094C570.448 68.2094 567.292 67.8677 564.454 68.9598C557.451 71.6544 554.724 80.6764 559.601 86.483C563.944 91.6542 569.285 90.3905 575.293 90.7602C576.733 90.8488 578.573 91.7753 578.238 93.4832C577.648 96.4893 571.887 95.1021 569.719 95.4066C564.53 96.1357 558.931 99.7372 556.635 104.483Z" fill="#e51f27" fill-rule="evenodd" filter="url(#Filter)" stroke="#e51d24" stroke-linecap="butt" stroke-linejoin="miter" stroke-width="1" vectornator:shadowAngle="45" vectornator:shadowColor="#413a3a" vectornator:shadowOffset="-3" vectornator:shadowOpacity="0.141964" vectornator:shadowRadius="2"/>
<path d="M550.555 36.1314L525.582 49.7765C521.56 51.9752 519.063 56.1444 519.063 60.6686L519.063 87.7486M594.386 36.1314L619.358 49.7765C623.38 51.9752 625.877 56.1444 625.877 60.6686L625.877 87.7486M607.461 117.419L578.691 134.396C574.839 136.671 570.05 136.765 566.106 134.65L533.98 117.419" fill="none" fill-rule="evenodd" opacity="1" stroke="#e41717" stroke-linecap="butt" stroke-linejoin="miter" stroke-width="1"/>
<path d="M548.529 48.5956L548.529 24.2613L572.47 9.5839L584.534 16.9795L596.411 24.2613L596.411 48.5956L572.47 63.273L548.529 48.5956Z" fill="#dff0fe" fill-rule="evenodd" opacity="1" stroke="none"/>
<path d="M572.47 11.7174L594.57 25.2647L594.57 47.5886L572.47 61.1359L550.371 47.5886L550.371 25.2683L572.47 11.7174M572.47 7.45039L546.687 23.2579L546.687 49.6026L572.47 65.4065L598.253 49.599L598.253 23.2579L572.47 7.45039L572.47 7.45039Z" fill="#1f1d1d" fill-rule="evenodd" opacity="1" stroke="none"/>
<path d="M572.47 37.5586L550.371 25.2864L550.371 47.5886L572.47 61.1395L572.47 37.5586Z" fill="#98ccfd" fill-rule="evenodd" opacity="1" stroke="none"/>
<path d="M594.57 25.2864L572.47 37.5586L572.47 61.1395L594.57 47.5886L594.57 25.2864Z" fill="#ffffff" fill-rule="evenodd" opacity="1" stroke="none"/>
<path d="M592.728 113.796L592.728 89.4619L616.669 74.7845L640.61 89.4619L640.61 113.796L616.669 128.474L592.728 113.796Z" fill="#dff0fe" fill-rule="evenodd" opacity="1" stroke="none"/>
<path d="M616.669 76.9181L638.769 90.4653L638.769 112.789L616.669 126.337L594.57 112.789L594.57 90.4653L616.669 76.9181M616.669 72.651L590.886 88.4586L590.886 114.803L616.669 130.607L642.452 114.8L642.452 88.4549L616.669 72.651L616.669 72.651Z" fill="#1f1d1d" fill-rule="evenodd" opacity="1" stroke="none"/>
<path d="M616.669 102.759L594.57 90.487L594.57 112.789L616.669 126.34L616.669 102.759Z" fill="#98ccfd" fill-rule="evenodd" opacity="1" stroke="none"/>
<path d="M638.769 90.487L616.669 102.759L616.669 126.34L638.769 112.789L638.769 90.487Z" fill="#ffffff" fill-rule="evenodd" opacity="1" stroke="none"/>
<path d="M504.33 113.796L504.33 89.4619L528.271 74.7845L552.212 89.4619L552.212 113.796L528.271 128.474L504.33 113.796Z" fill="#dff0fe" fill-rule="evenodd" opacity="1" stroke="none"/>
<path d="M528.271 76.9181L550.371 90.4653L550.371 112.789L528.271 126.337L506.172 112.789L506.172 90.4653L528.271 76.9181M528.271 72.651L502.488 88.4586L502.488 114.803L528.271 130.607L554.054 114.8L554.054 88.4549L528.271 72.651L528.271 72.651Z" fill="#1f1d1d" fill-rule="evenodd" opacity="1" stroke="none"/>
<path d="M528.271 102.759L506.172 90.487L506.172 112.789L528.271 126.34L528.271 102.759Z" fill="#98ccfd" fill-rule="evenodd" opacity="1" stroke="none"/>
<path d="M550.371 90.487L528.271 102.759L528.271 126.34L550.371 112.789L550.371 90.487Z" fill="#ffffff" fill-rule="evenodd" opacity="1" stroke="none"/>
<path d="M626.79 82.8666L626.79 82.8666L626.79 82.9625L626.79 82.9625L626.79 82.8666Z" fill="#1f1d1d" fill-rule="evenodd" opacity="1" stroke="none"/>
</g>
<g opacity="1">
<g fill="#180d0d" opacity="1" stroke="none">
<path clip-path="url(#TextBounds)" d="M478.206 145.571L478.206 157.709C478.206 159.809 477.821 161.636 477.051 163.19C476.281 164.744 475.259 166.046 473.985 167.096C472.711 168.146 471.262 168.93 469.638 169.448C468.014 169.966 466.355 170.225 464.661 170.225C462.967 170.225 461.308 169.959 459.684 169.427C458.06 168.895 456.611 168.111 455.337 167.075C454.063 166.039 453.041 164.737 452.271 163.169C451.501 161.601 451.116 159.781 451.116 157.709L451.116 145.571L453.216 145.571L453.468 145.571L455.568 145.571L455.568 157.709C455.568 160.509 456.562 162.903 458.55 164.891C460.482 166.823 462.519 167.775 464.661 167.747C466.803 167.719 468.84 166.767 470.772 164.891C472.788 162.903 473.796 160.509 473.796 157.709L473.796 145.571L475.896 145.571L476.106 145.571L478.206 145.571Z" fill-rule="evenodd"/>
<path clip-path="url(#TextBounds)" d="M489.63 169.217L489.252 169.049L490.386 166.319C491.282 166.627 492.178 166.858 493.074 167.012C493.97 167.166 494.852 167.243 495.72 167.243C496.98 167.243 498.156 167.061 499.248 166.697C500.34 166.333 501.292 165.766 502.104 164.996C502.916 164.226 503.553 163.239 504.015 162.035C504.477 160.831 504.708 159.389 504.708 157.709C504.708 156.057 504.449 154.615 503.931 153.383C503.413 152.151 502.72 151.129 501.852 150.317C500.984 149.505 500.004 148.896 498.912 148.49C497.82 148.084 496.7 147.881 495.552 147.881C494.404 147.881 493.284 148.084 492.192 148.49C491.1 148.896 490.127 149.498 489.273 150.296C488.419 151.094 487.733 152.088 487.215 153.278C486.697 154.468 486.438 155.847 486.438 157.415L486.438 179.171L481.986 179.171L481.986 157.709C481.986 155.861 482.343 154.16 483.057 152.606C483.771 151.052 484.737 149.715 485.955 148.595C487.173 147.475 488.594 146.6 490.218 145.97C491.842 145.34 493.55 145.025 495.342 145.025C496.994 145.025 498.59 145.305 500.13 145.865C501.67 146.425 503.042 147.237 504.246 148.301C505.45 149.365 506.416 150.674 507.144 152.228C507.872 153.782 508.236 155.567 508.236 157.583C508.236 159.571 507.886 161.349 507.186 162.917C506.486 164.485 505.541 165.815 504.351 166.907C503.161 167.999 501.782 168.839 500.214 169.427C498.646 170.015 497.008 170.309 495.3 170.309C494.376 170.309 493.438 170.225 492.486 170.057C491.534 169.889 490.582 169.609 489.63 169.217Z" fill-rule="evenodd"/>
<path clip-path="url(#TextBounds)" d="M517.686 156.407L517.686 154.055L533.226 154.055C532.806 152.963 532.295 152.025 531.693 151.241C531.091 150.457 530.419 149.813 529.677 149.309C528.935 148.805 528.144 148.434 527.304 148.196C526.464 147.958 525.61 147.839 524.742 147.839C523.538 147.839 522.348 148.07 521.172 148.532C519.996 148.994 518.946 149.652 518.022 150.506C517.098 151.36 516.356 152.396 515.796 153.614C515.236 154.832 514.956 156.197 514.956 157.709C514.956 159.193 515.215 160.544 515.733 161.762C516.251 162.98 516.944 164.016 517.812 164.87C518.68 165.724 519.688 166.382 520.836 166.844C521.984 167.306 523.188 167.537 524.448 167.537C525.904 167.537 527.367 167.201 528.837 166.529C530.307 165.857 531.686 164.807 532.974 163.379L535.41 165.731L535.116 166.025C533.688 167.453 532.057 168.517 530.223 169.217C528.389 169.917 526.52 170.267 524.616 170.267C522.908 170.267 521.256 169.994 519.66 169.448C518.064 168.902 516.643 168.097 515.397 167.033C514.151 165.969 513.15 164.66 512.394 163.106C511.638 161.552 511.26 159.753 511.26 157.709C511.26 155.637 511.645 153.817 512.415 152.249C513.185 150.681 514.207 149.372 515.481 148.322C516.755 147.272 518.197 146.481 519.807 145.949C521.417 145.417 523.062 145.151 524.742 145.151C526.282 145.151 527.794 145.375 529.278 145.823C530.762 146.271 532.113 146.936 533.331 147.818C534.549 148.7 535.592 149.813 536.46 151.157C537.328 152.501 537.902 154.083 538.182 155.903L538.266 156.407L517.686 156.407Z" fill-rule="evenodd"/>
<path clip-path="url(#TextBounds)" d="M556.116 147.461L555.696 147.461C554.296 147.461 552.98 147.727 551.748 148.259C550.516 148.791 549.438 149.519 548.514 150.443C547.59 151.367 546.862 152.452 546.33 153.698C545.798 154.944 545.532 156.267 545.532 157.667L545.532 169.763L541.122 169.763L541.122 157.667C541.122 154.111 542.382 151.129 544.902 148.721C545.742 147.909 546.596 147.265 547.464 146.789C548.332 146.313 549.221 145.956 550.131 145.718C551.041 145.48 551.986 145.326 552.966 145.256C553.946 145.186 554.996 145.151 556.116 145.151L556.116 147.461Z" fill-rule="evenodd"/>
<path clip-path="url(#TextBounds)" d="M590.934 169.763L586.44 169.763L586.44 153.929C586.44 153.005 586.3 152.165 586.02 151.409C585.74 150.653 585.362 150.002 584.886 149.456C584.41 148.91 583.864 148.49 583.248 148.196C582.632 147.902 581.988 147.755 581.316 147.755C580.7 147.755 580.147 147.86 579.657 148.07C579.167 148.28 578.726 148.56 578.334 148.91C577.942 149.26 577.585 149.659 577.263 150.107C576.941 150.555 576.654 151.031 576.402 151.535C576.346 151.703 576.304 151.843 576.276 151.955L576.234 151.997L576.234 152.039L576.234 169.763L571.74 169.763L571.74 151.997C571.712 151.941 571.698 151.913 571.698 151.913C571.642 151.745 571.586 151.619 571.53 151.535C571.474 151.395 571.418 151.269 571.362 151.157C571.306 151.045 571.264 150.975 571.236 150.947C570.676 149.827 569.997 149.015 569.199 148.511C568.401 148.007 567.582 147.755 566.742 147.755C566.07 147.755 565.419 147.909 564.789 148.217C564.159 148.525 563.592 148.952 563.088 149.498C562.584 150.044 562.185 150.695 561.891 151.451C561.597 152.207 561.45 153.033 561.45 153.929L561.45 169.763L556.956 169.763L556.956 153.593C556.956 152.221 557.243 151.01 557.817 149.96C558.391 148.91 559.14 148.021 560.064 147.293C560.988 146.565 562.045 146.012 563.235 145.634C564.425 145.256 565.636 145.067 566.868 145.067C568.212 145.067 569.507 145.291 570.753 145.739C571.999 146.187 573.084 146.887 574.008 147.839C574.904 146.915 575.968 146.229 577.2 145.781C578.432 145.333 579.72 145.109 581.064 145.109C582.296 145.109 583.5 145.298 584.676 145.676C585.852 146.054 586.902 146.6 587.826 147.314C588.75 148.028 589.499 148.91 590.073 149.96C590.647 151.01 590.934 152.221 590.934 153.593L590.934 169.763Z" fill-rule="evenodd"/>
<path clip-path="url(#TextBounds)" d="M593.874 157.667C593.874 155.595 594.259 153.775 595.029 152.207C595.799 150.639 596.821 149.337 598.095 148.301C599.369 147.265 600.818 146.488 602.442 145.97C604.066 145.452 605.718 145.193 607.398 145.193C609.078 145.193 610.73 145.452 612.354 145.97C613.978 146.488 615.427 147.265 616.701 148.301C617.975 149.337 618.997 150.639 619.767 152.207C620.537 153.775 620.922 155.595 620.922 157.667C620.922 159.739 620.53 161.559 619.746 163.127C618.962 164.695 617.933 166.004 616.659 167.054C615.385 168.104 613.936 168.888 612.312 169.406C610.688 169.924 609.022 170.183 607.314 170.183C605.634 170.183 603.989 169.924 602.379 169.406C600.769 168.888 599.334 168.104 598.074 167.054C596.814 166.004 595.799 164.702 595.029 163.148C594.259 161.594 593.874 159.767 593.874 157.667ZM598.284 157.667C598.284 159.291 598.543 160.712 599.061 161.93C599.579 163.148 600.272 164.17 601.14 164.996C602.008 165.822 602.988 166.438 604.08 166.844C605.172 167.25 606.278 167.453 607.398 167.453C608.546 167.453 609.666 167.25 610.758 166.844C611.85 166.438 612.823 165.822 613.677 164.996C614.531 164.17 615.217 163.148 615.735 161.93C616.253 160.712 616.512 159.291 616.512 157.667C616.512 156.043 616.253 154.622 615.735 153.404C615.217 152.186 614.524 151.164 613.656 150.338C612.788 149.512 611.808 148.896 610.716 148.49C609.624 148.084 608.504 147.881 607.356 147.881C606.236 147.881 605.13 148.084 604.038 148.49C602.946 148.896 601.973 149.512 601.119 150.338C600.265 151.164 599.579 152.186 599.061 153.404C598.543 154.622 598.284 156.043 598.284 157.667Z" fill-rule="evenodd"/>
<path clip-path="url(#TextBounds)" d="M641.586 149.225C639.794 148.413 638.058 148.007 636.378 148.007C635.146 148.007 633.984 148.217 632.892 148.637C631.8 149.057 630.848 149.673 630.036 150.485C629.224 151.297 628.587 152.305 628.125 153.509C627.663 154.713 627.432 156.099 627.432 157.667C627.432 159.319 627.691 160.761 628.209 161.993C628.727 163.225 629.42 164.247 630.288 165.059C631.156 165.871 632.136 166.48 633.228 166.886C634.32 167.292 635.426 167.495 636.546 167.495C637.694 167.495 638.821 167.292 639.927 166.886C641.033 166.48 642.02 165.878 642.888 165.08C643.756 164.282 644.449 163.288 644.967 162.098C645.485 160.908 645.744 159.529 645.744 157.961L645.744 136.331L650.154 136.331L650.154 157.667C650.154 159.767 649.769 161.601 648.999 163.169C648.229 164.737 647.207 166.046 645.933 167.096C644.659 168.146 643.21 168.93 641.586 169.448C639.962 169.966 638.31 170.225 636.63 170.225C634.922 170.225 633.256 169.966 631.632 169.448C630.008 168.93 628.559 168.146 627.285 167.096C626.011 166.046 624.982 164.737 624.198 163.169C623.414 161.601 623.022 159.767 623.022 157.667C623.022 155.707 623.414 153.943 624.198 152.375C624.982 150.807 626.018 149.477 627.306 148.385C628.594 147.293 630.071 146.453 631.737 145.865C633.403 145.277 635.104 144.983 636.84 144.983C637.82 144.983 638.786 145.074 639.738 145.256C640.69 145.438 641.614 145.725 642.51 146.117L642.888 146.285L641.586 149.225Z" fill-rule="evenodd"/>
<path clip-path="url(#TextBounds)" d="M681.024 145.571L681.024 157.709C681.024 159.809 680.639 161.636 679.869 163.19C679.099 164.744 678.077 166.046 676.803 167.096C675.529 168.146 674.08 168.93 672.456 169.448C670.832 169.966 669.173 170.225 667.479 170.225C665.785 170.225 664.126 169.959 662.502 169.427C660.878 168.895 659.429 168.111 658.155 167.075C656.881 166.039 655.859 164.737 655.089 163.169C654.319 161.601 653.934 159.781 653.934 157.709L653.934 145.571L656.034 145.571L656.286 145.571L658.386 145.571L658.386 157.709C658.386 160.509 659.38 162.903 661.368 164.891C663.3 166.823 665.337 167.775 667.479 167.747C669.621 167.719 671.658 166.767 673.59 164.891C675.606 162.903 676.614 160.509 676.614 157.709L676.614 145.571L678.714 145.571L678.924 145.571L681.024 145.571Z" fill-rule="evenodd"/>
<path clip-path="url(#TextBounds)" d="M690.18 169.763L685.644 169.763L685.644 136.331L690.18 136.331L690.18 169.763Z" fill-rule="evenodd"/>
<path clip-path="url(#TextBounds)" d="M700.386 156.407L700.386 154.055L715.926 154.055C715.506 152.963 714.995 152.025 714.393 151.241C713.791 150.457 713.119 149.813 712.377 149.309C711.635 148.805 710.844 148.434 710.004 148.196C709.164 147.958 708.31 147.839 707.442 147.839C706.238 147.839 705.048 148.07 703.872 148.532C702.696 148.994 701.646 149.652 700.722 150.506C699.798 151.36 699.056 152.396 698.496 153.614C697.936 154.832 697.656 156.197 697.656 157.709C697.656 159.193 697.915 160.544 698.433 161.762C698.951 162.98 699.644 164.016 700.512 164.87C701.38 165.724 702.388 166.382 703.536 166.844C704.684 167.306 705.888 167.537 707.148 167.537C708.604 167.537 710.067 167.201 711.537 166.529C713.007 165.857 714.386 164.807 715.674 163.379L718.11 165.731L717.816 166.025C716.388 167.453 714.757 168.517 712.923 169.217C711.089 169.917 709.22 170.267 707.316 170.267C705.608 170.267 703.956 169.994 702.36 169.448C700.764 168.902 699.343 168.097 698.097 167.033C696.851 165.969 695.85 164.66 695.094 163.106C694.338 161.552 693.96 159.753 693.96 157.709C693.96 155.637 694.345 153.817 695.115 152.249C695.885 150.681 696.907 149.372 698.181 148.322C699.455 147.272 700.897 146.481 702.507 145.949C704.117 145.417 705.762 145.151 707.442 145.151C708.982 145.151 710.494 145.375 711.978 145.823C713.462 146.271 714.813 146.936 716.031 147.818C717.249 148.7 718.292 149.813 719.16 151.157C720.028 152.501 720.602 154.083 720.882 155.903L720.966 156.407L700.386 156.407Z" fill-rule="evenodd"/>
</g>
<path clip-path="url(#TextBounds_2)" d="M419.678 169.971C420.182 168.907 420.854 167.92 421.694 167.01C422.534 166.1 423.465 165.288 424.487 164.574C425.509 163.86 426.601 163.272 427.763 162.81C428.925 162.348 430.08 162.033 431.228 161.865C431.704 161.781 432.334 161.774 433.118 161.844C433.902 161.914 434.693 161.935 435.491 161.907C436.289 161.879 436.996 161.739 437.612 161.487C438.228 161.235 438.606 160.773 438.746 160.101C438.83 159.709 438.795 159.373 438.641 159.093C438.487 158.813 438.277 158.568 438.011 158.358C437.745 158.148 437.444 157.987 437.108 157.875C436.772 157.763 436.45 157.693 436.142 157.665C434.826 157.581 433.538 157.553 432.278 157.581C431.018 157.609 429.807 157.539 428.645 157.371C427.483 157.203 426.37 156.86 425.306 156.342C424.242 155.824 423.234 154.991 422.282 153.843C421.218 152.527 420.553 151.085 420.287 149.517C420.021 147.949 420.098 146.423 420.518 144.939C420.938 143.455 421.666 142.097 422.702 140.865C423.738 139.633 425.026 138.723 426.566 138.135C427.826 137.659 429.128 137.428 430.472 137.442C431.816 137.456 433.16 137.463 434.504 137.463L447.608 137.463C447.02 138.611 446.306 139.626 445.466 140.508C444.626 141.39 443.695 142.153 442.673 142.797C441.651 143.441 440.559 143.973 439.397 144.393C438.235 144.813 437.052 145.135 435.848 145.359C435.372 145.443 434.742 145.471 433.958 145.443C433.174 145.415 432.397 145.436 431.627 145.506C430.857 145.576 430.171 145.73 429.569 145.968C428.967 146.206 428.582 146.647 428.414 147.291C428.33 147.655 428.358 147.984 428.498 148.278C428.638 148.572 428.841 148.824 429.107 149.034C429.373 149.244 429.674 149.405 430.01 149.517C430.346 149.629 430.654 149.699 430.934 149.727C432.222 149.811 433.489 149.832 434.735 149.79C435.981 149.748 437.192 149.797 438.368 149.937C439.544 150.077 440.671 150.385 441.749 150.861C442.827 151.337 443.842 152.149 444.794 153.297C445.858 154.585 446.544 156.02 446.852 157.602C447.16 159.184 447.125 160.731 446.747 162.243C446.369 163.755 445.669 165.134 444.647 166.38C443.625 167.626 442.33 168.557 440.762 169.173C440.286 169.369 439.663 169.516 438.893 169.614C438.123 169.712 437.29 169.789 436.394 169.845C435.498 169.901 434.553 169.936 433.559 169.95C432.565 169.964 431.606 169.971 430.682 169.971L419.678 169.971Z" fill="#ef233c" fill-rule="evenodd" opacity="1" stroke="none"/>
</g>
</g>
</svg>
