<?xml version="1.0" encoding="UTF-8" standalone="no"?>
<!DOCTYPE svg PUBLIC "-//W3C//DTD SVG 1.1//EN" "http://www.w3.org/Graphics/SVG/1.1/DTD/svg11.dtd">
<!-- Created with Vectornator (http://vectornator.io/) -->
<svg height="100%" stroke-miterlimit="10" style="fill-rule:nonzero;clip-rule:evenodd;stroke-linecap:round;stroke-linejoin:round;" version="1.1" viewBox="0 0 512 512" width="100%" xml:space="preserve" xmlns="http://www.w3.org/2000/svg" xmlns:vectornator="http://vectornator.io" xmlns:xlink="http://www.w3.org/1999/xlink">
<defs>
<clipPath id="TextBounds">
<rect height="509.519" width="510.412" x="-6.79413" y="15.15"/>
</clipPath>
</defs>
<g id="Layer-1" vectornator:layerName="Layer 1">
<path clip-path="url(#TextBounds)" d="M57.769 492.28C65.125 476.751 74.933 462.345 87.193 449.063C99.453 435.782 113.041 423.93 127.958 413.509C142.874 403.088 158.812 394.506 175.772 387.763C192.731 381.02 209.589 376.423 226.344 373.971C233.291 372.745 242.486 372.643 253.929 373.664C265.372 374.686 276.917 374.993 288.564 374.584C300.211 374.175 310.529 372.132 319.52 368.454C328.511 364.776 334.028 358.033 336.071 348.225C337.297 342.504 336.786 337.6 334.539 333.513C332.291 329.426 329.226 325.85 325.344 322.785C321.461 319.72 317.068 317.371 312.164 315.736C307.26 314.101 302.56 313.08 298.065 312.671C278.858 311.445 260.059 311.036 241.669 311.445C223.279 311.854 205.604 310.832 188.645 308.38C171.685 305.928 155.44 300.922 139.911 293.361C124.382 285.801 109.67 273.643 95.775 256.888C80.2457 237.681 70.5399 216.634 66.6575 193.749C62.7752 170.864 63.899 148.591 70.029 126.932C76.159 105.273 86.7844 85.4523 101.905 67.471C117.026 49.4896 135.824 36.208 158.301 27.626C176.691 20.6786 195.694 17.3071 215.31 17.5115C234.926 17.7158 254.542 17.818 274.158 17.818L465.414 17.818C456.832 34.5733 446.411 49.3875 434.151 62.2605C421.891 75.1335 408.303 86.2696 393.387 95.669C378.47 105.068 362.532 112.833 345.573 118.963C328.613 125.093 311.347 129.793 293.774 133.062C286.827 134.288 277.632 134.697 266.189 134.288C254.746 133.879 243.406 134.186 232.168 135.207C220.929 136.229 210.917 138.477 202.131 141.95C193.344 145.424 187.725 151.861 185.273 161.26C184.047 166.573 184.456 171.374 186.499 175.665C188.542 179.956 191.505 183.634 195.388 186.699C199.27 189.764 203.663 192.114 208.567 193.749C213.471 195.384 217.966 196.405 222.053 196.814C240.852 198.04 259.344 198.346 277.53 197.733C295.715 197.12 313.39 197.836 330.554 199.879C347.718 201.922 364.167 206.418 379.901 213.365C395.634 220.312 410.448 232.164 424.343 248.919C439.872 267.718 449.885 288.662 454.38 311.751C458.875 334.841 458.365 357.42 452.848 379.488C447.331 401.556 437.114 421.683 422.198 439.868C407.281 458.054 388.38 471.642 365.495 480.633C358.548 483.494 349.455 485.639 338.217 487.069C326.978 488.5 314.82 489.624 301.743 490.441C288.666 491.258 274.873 491.769 260.366 491.973C245.858 492.178 231.861 492.28 218.375 492.28L57.769 492.28Z" fill="#ef233c" fill-rule="evenodd" opacity="1" stroke="none"/>
</g>
</svg>
