<?xml version="1.0" encoding="UTF-8" standalone="no"?>
<!DOCTYPE svg PUBLIC "-//W3C//DTD SVG 1.1//EN" "http://www.w3.org/Graphics/SVG/1.1/DTD/svg11.dtd">
<!-- Created with Vectornator (http://vectornator.io/) -->
<svg height="100%" stroke-miterlimit="10" style="fill-rule:nonzero;clip-rule:evenodd;stroke-linecap:round;stroke-linejoin:round;" version="1.1" viewBox="0 0 1501 500" width="100%" xml:space="preserve" xmlns="http://www.w3.org/2000/svg" xmlns:vectornator="http://vectornator.io" xmlns:xlink="http://www.w3.org/1999/xlink">
<defs>
<filter color-interpolation-filters="sRGB" filterUnits="userSpaceOnUse" height="85.4475" id="Filter" width="75.2596" x="758.4" y="190.277">
<feDropShadow dx="-1.57597" dy="-2.55271" flood-color="#413a3a" flood-opacity="0.141964" in="SourceGraphic" result="Shadow" stdDeviation="1"/>
</filter>
<clipPath id="TextBounds">
<rect height="129.781" width="700.243" x="441.673" y="347.501"/>
</clipPath>
<clipPath id="TextBounds_2">
<rect height="72.2393" width="422.575" x="316.644" y="347.958"/>
</clipPath>
</defs>
<g id="Layer-1" vectornator:layerName="Layer 1">
<g opacity="1">
<path d="M762.773 275.225C767.468 275.225 772.388 275.227 777.131 275.176C778.811 275.158 781.043 275.155 790.277 275.155C799.511 275.155 810.578 275.057 815.393 273.196C831.098 267.127 836.003 246.894 825.386 234.295C815.944 223.089 803.79 226.506 790.871 225.549C787.932 225.332 783.678 223.13 784.561 219.56C786.107 213.317 798.329 215.775 803.132 214.868C815.134 212.603 826.712 206.715 832.422 195.442L799.726 195.442C793.156 195.442 786.215 194.69 779.972 197.092C764.57 203.019 758.571 222.863 769.298 235.634C778.851 247.008 790.597 244.229 803.813 245.042C806.979 245.237 811.026 247.275 810.289 251.031C808.993 257.643 796.321 254.592 791.552 255.262C780.139 256.865 767.824 264.787 762.773 275.225Z" fill="#e51f27" fill-rule="evenodd" filter="url(#Filter)" stroke="#e51d24" stroke-linecap="butt" stroke-linejoin="miter" stroke-width="1" vectornator:shadowAngle="45" vectornator:shadowColor="#413a3a" vectornator:shadowOffset="-3" vectornator:shadowOpacity="0.141964" vectornator:shadowRadius="2"/>
<path d="M749.401 124.886L694.474 154.898C685.627 159.734 680.134 168.905 680.134 178.855L680.134 238.418M845.806 124.886L900.733 154.898C909.58 159.734 915.073 168.905 915.073 178.855L915.073 238.418M874.566 303.677L811.287 341.019C802.813 346.022 792.281 346.23 783.604 341.577L712.945 303.677" fill="none" fill-rule="evenodd" opacity="1" stroke="#e41717" stroke-linecap="butt" stroke-linejoin="miter" stroke-width="1"/>
<path d="M744.945 152.301L744.945 98.7776L797.604 66.4946L824.137 82.7612L850.262 98.7776L850.262 152.301L797.604 184.584L744.945 152.301Z" fill="#dff0fe" fill-rule="evenodd" opacity="1" stroke="none"/>
<path d="M797.604 71.1873L846.211 100.984L846.211 150.086L797.604 179.883L748.996 150.086L748.996 100.992L797.604 71.1873M797.604 61.802L740.894 96.5707L740.894 154.516L797.604 189.277L854.313 154.508L854.313 96.5707L797.604 61.802L797.604 61.802Z" fill="#1f1d1d" fill-rule="evenodd" opacity="1" stroke="none"/>
<path d="M797.604 128.025L748.996 101.032L748.996 150.086L797.604 179.891L797.604 128.025Z" fill="#98ccfd" fill-rule="evenodd" opacity="1" stroke="none"/>
<path d="M846.211 101.032L797.604 128.025L797.604 179.891L846.211 150.086L846.211 101.032Z" fill="#ffffff" fill-rule="evenodd" opacity="1" stroke="none"/>
<path d="M842.161 295.71L842.161 242.186L894.819 209.904L947.478 242.186L947.478 295.71L894.819 327.993L842.161 295.71Z" fill="#dff0fe" fill-rule="evenodd" opacity="1" stroke="none"/>
<path d="M894.819 214.596L943.427 244.393L943.427 293.495L894.819 323.292L846.211 293.495L846.211 244.393L894.819 214.596M894.819 205.211L838.11 239.98L838.11 297.925L894.819 332.685L951.529 297.917L951.529 239.972L894.819 205.211L894.819 205.211Z" fill="#1f1d1d" fill-rule="evenodd" opacity="1" stroke="none"/>
<path d="M894.819 271.434L846.211 244.441L846.211 293.495L894.819 323.3L894.819 271.434Z" fill="#98ccfd" fill-rule="evenodd" opacity="1" stroke="none"/>
<path d="M943.427 244.441L894.819 271.434L894.819 323.3L943.427 293.495L943.427 244.441Z" fill="#ffffff" fill-rule="evenodd" opacity="1" stroke="none"/>
<path d="M647.729 295.71L647.729 242.186L700.388 209.904L753.046 242.186L753.046 295.71L700.388 327.993L647.729 295.71Z" fill="#dff0fe" fill-rule="evenodd" opacity="1" stroke="none"/>
<path d="M700.388 214.596L748.996 244.393L748.996 293.495L700.388 323.292L651.78 293.495L651.78 244.393L700.388 214.596M700.388 205.211L643.678 239.98L643.678 297.925L700.388 332.685L757.097 297.917L757.097 239.972L700.388 205.211L700.388 205.211Z" fill="#1f1d1d" fill-rule="evenodd" opacity="1" stroke="none"/>
<path d="M700.388 271.434L651.78 244.441L651.78 293.495L700.388 323.3L700.388 271.434Z" fill="#98ccfd" fill-rule="evenodd" opacity="1" stroke="none"/>
<path d="M748.996 244.441L700.388 271.434L700.388 323.3L748.996 293.495L748.996 244.441Z" fill="#ffffff" fill-rule="evenodd" opacity="1" stroke="none"/>
<path d="M917.08 227.68L917.08 227.68L917.08 227.891L917.08 227.891L917.08 227.68Z" fill="#1f1d1d" fill-rule="evenodd" opacity="1" stroke="none"/>
</g>
<g opacity="1">
<g fill="#180d0d" opacity="1" stroke="none">
<path clip-path="url(#TextBounds)" d="M615.093 363.655L615.093 387.064C615.093 391.114 614.351 394.638 612.866 397.635C611.381 400.632 609.41 403.143 606.953 405.168C604.496 407.193 601.701 408.705 598.569 409.704C595.437 410.703 592.238 411.202 588.971 411.202C585.704 411.202 582.504 410.689 579.372 409.663C576.24 408.637 573.446 407.125 570.989 405.127C568.532 403.129 566.561 400.618 565.076 397.594C563.591 394.57 562.848 391.06 562.848 387.064L562.848 363.655L566.898 363.655L567.384 363.655L571.434 363.655L571.434 387.064C571.434 392.464 573.351 397.081 577.185 400.915C580.911 404.641 584.84 406.477 588.971 406.423C593.102 406.369 597.03 404.533 600.756 400.915C604.644 397.081 606.588 392.464 606.588 387.064L606.588 363.655L610.638 363.655L611.043 363.655L615.093 363.655Z" fill-rule="evenodd"/>
<path clip-path="url(#TextBounds)" d="M637.125 409.258L636.396 408.934L638.583 403.669C640.311 404.263 642.039 404.709 643.767 405.006C645.495 405.303 647.196 405.451 648.87 405.451C651.3 405.451 653.568 405.1 655.674 404.398C657.78 403.696 659.616 402.603 661.182 401.118C662.748 399.633 663.977 397.729 664.868 395.407C665.759 393.085 666.204 390.304 666.204 387.064C666.204 383.878 665.705 381.097 664.706 378.721C663.707 376.345 662.37 374.374 660.696 372.808C659.022 371.242 657.132 370.068 655.026 369.285C652.92 368.502 650.76 368.11 648.546 368.11C646.332 368.11 644.172 368.502 642.066 369.285C639.96 370.068 638.084 371.229 636.437 372.768C634.79 374.307 633.467 376.224 632.468 378.519C631.469 380.814 630.969 383.473 630.969 386.497L630.969 428.455L622.383 428.455L622.383 387.064C622.383 383.5 623.072 380.22 624.449 377.223C625.826 374.226 627.689 371.647 630.038 369.487C632.387 367.327 635.127 365.64 638.259 364.425C641.391 363.21 644.685 362.602 648.141 362.602C651.327 362.602 654.405 363.142 657.375 364.222C660.345 365.302 662.991 366.868 665.313 368.92C667.635 370.972 669.498 373.497 670.902 376.494C672.306 379.491 673.008 382.933 673.008 386.821C673.008 390.655 672.333 394.084 670.983 397.108C669.633 400.132 667.811 402.697 665.516 404.803C663.221 406.909 660.561 408.529 657.537 409.663C654.513 410.797 651.354 411.364 648.06 411.364C646.278 411.364 644.469 411.202 642.633 410.878C640.797 410.554 638.961 410.014 637.125 409.258Z" fill-rule="evenodd"/>
<path clip-path="url(#TextBounds)" d="M691.233 384.553L691.233 380.017L721.203 380.017C720.393 377.911 719.408 376.102 718.247 374.59C717.086 373.078 715.79 371.836 714.359 370.864C712.928 369.892 711.402 369.177 709.782 368.718C708.162 368.259 706.515 368.029 704.841 368.029C702.519 368.029 700.224 368.475 697.956 369.366C695.688 370.257 693.663 371.526 691.881 373.173C690.099 374.82 688.668 376.818 687.588 379.167C686.508 381.516 685.968 384.148 685.968 387.064C685.968 389.926 686.468 392.532 687.467 394.881C688.466 397.23 689.802 399.228 691.476 400.875C693.15 402.522 695.094 403.791 697.308 404.682C699.522 405.573 701.844 406.018 704.274 406.018C707.082 406.018 709.904 405.37 712.739 404.074C715.574 402.778 718.233 400.753 720.717 397.999L725.415 402.535L724.848 403.102C722.094 405.856 718.949 407.908 715.412 409.258C711.875 410.608 708.27 411.283 704.598 411.283C701.304 411.283 698.118 410.757 695.04 409.704C691.962 408.651 689.222 407.098 686.819 405.046C684.416 402.994 682.485 400.47 681.027 397.473C679.569 394.476 678.84 391.006 678.84 387.064C678.84 383.068 679.583 379.558 681.068 376.534C682.553 373.51 684.524 370.986 686.981 368.961C689.438 366.936 692.219 365.41 695.324 364.384C698.429 363.358 701.601 362.845 704.841 362.845C707.811 362.845 710.727 363.277 713.589 364.141C716.451 365.005 719.057 366.288 721.406 367.989C723.755 369.69 725.766 371.836 727.44 374.428C729.114 377.02 730.221 380.071 730.761 383.581L730.923 384.553L691.233 384.553Z" fill-rule="evenodd"/>
<path clip-path="url(#TextBounds)" d="M765.348 367.3L764.538 367.3C761.838 367.3 759.3 367.813 756.924 368.839C754.548 369.865 752.469 371.269 750.687 373.051C748.905 374.833 747.501 376.926 746.475 379.329C745.449 381.732 744.936 384.283 744.936 386.983L744.936 410.311L736.431 410.311L736.431 386.983C736.431 380.125 738.861 374.374 743.721 369.73C745.341 368.164 746.988 366.922 748.662 366.004C750.336 365.086 752.051 364.398 753.806 363.939C755.561 363.48 757.383 363.183 759.273 363.048C761.163 362.913 763.188 362.845 765.348 362.845L765.348 367.3Z" fill-rule="evenodd"/>
<path clip-path="url(#TextBounds)" d="M832.497 410.311L823.83 410.311L823.83 379.774C823.83 377.992 823.56 376.372 823.02 374.914C822.48 373.456 821.751 372.201 820.833 371.148C819.915 370.095 818.862 369.285 817.674 368.718C816.486 368.151 815.244 367.867 813.948 367.867C812.76 367.867 811.694 368.07 810.749 368.475C809.804 368.88 808.953 369.42 808.197 370.095C807.441 370.77 806.753 371.539 806.132 372.403C805.511 373.267 804.957 374.185 804.471 375.157C804.363 375.481 804.282 375.751 804.228 375.967L804.147 376.048L804.147 376.129L804.147 410.311L795.48 410.311L795.48 376.048C795.426 375.94 795.399 375.886 795.399 375.886C795.291 375.562 795.183 375.319 795.075 375.157C794.967 374.887 794.859 374.644 794.751 374.428C794.643 374.212 794.562 374.077 794.508 374.023C793.428 371.863 792.119 370.297 790.58 369.325C789.041 368.353 787.461 367.867 785.841 367.867C784.545 367.867 783.29 368.164 782.075 368.758C780.86 369.352 779.766 370.176 778.794 371.229C777.822 372.282 777.053 373.537 776.486 374.995C775.919 376.453 775.635 378.046 775.635 379.774L775.635 410.311L766.968 410.311L766.968 379.126C766.968 376.48 767.522 374.145 768.629 372.12C769.736 370.095 771.18 368.38 772.962 366.976C774.744 365.572 776.783 364.506 779.078 363.777C781.373 363.048 783.708 362.683 786.084 362.683C788.676 362.683 791.174 363.115 793.577 363.979C795.98 364.843 798.072 366.193 799.854 368.029C801.582 366.247 803.634 364.924 806.01 364.06C808.386 363.196 810.87 362.764 813.462 362.764C815.838 362.764 818.16 363.129 820.428 363.858C822.696 364.587 824.721 365.64 826.503 367.017C828.285 368.394 829.73 370.095 830.837 372.12C831.944 374.145 832.497 376.48 832.497 379.126L832.497 410.311Z" fill-rule="evenodd"/>
<path clip-path="url(#TextBounds)" d="M838.167 386.983C838.167 382.987 838.91 379.477 840.395 376.453C841.88 373.429 843.851 370.918 846.308 368.92C848.765 366.922 851.559 365.424 854.691 364.425C857.823 363.426 861.009 362.926 864.249 362.926C867.489 362.926 870.675 363.426 873.807 364.425C876.939 365.424 879.734 366.922 882.191 368.92C884.648 370.918 886.619 373.429 888.104 376.453C889.589 379.477 890.331 382.987 890.331 386.983C890.331 390.979 889.575 394.489 888.063 397.513C886.551 400.537 884.567 403.062 882.11 405.087C879.653 407.112 876.858 408.624 873.726 409.623C870.594 410.622 867.381 411.121 864.087 411.121C860.847 411.121 857.675 410.622 854.57 409.623C851.465 408.624 848.697 407.112 846.267 405.087C843.837 403.062 841.88 400.551 840.395 397.554C838.91 394.557 838.167 391.033 838.167 386.983ZM846.672 386.983C846.672 390.115 847.172 392.856 848.171 395.205C849.17 397.554 850.506 399.525 852.18 401.118C853.854 402.711 855.744 403.899 857.85 404.682C859.956 405.465 862.089 405.856 864.249 405.856C866.463 405.856 868.623 405.465 870.729 404.682C872.835 403.899 874.712 402.711 876.359 401.118C878.006 399.525 879.329 397.554 880.328 395.205C881.327 392.856 881.826 390.115 881.826 386.983C881.826 383.851 881.327 381.111 880.328 378.762C879.329 376.413 877.992 374.442 876.318 372.849C874.644 371.256 872.754 370.068 870.648 369.285C868.542 368.502 866.382 368.11 864.168 368.11C862.008 368.11 859.875 368.502 857.769 369.285C855.663 370.068 853.787 371.256 852.14 372.849C850.493 374.442 849.17 376.413 848.171 378.762C847.172 381.111 846.672 383.851 846.672 386.983Z" fill-rule="evenodd"/>
<path clip-path="url(#TextBounds)" d="M930.183 370.702C926.727 369.136 923.379 368.353 920.139 368.353C917.763 368.353 915.522 368.758 913.416 369.568C911.31 370.378 909.474 371.566 907.908 373.132C906.342 374.698 905.114 376.642 904.223 378.964C903.332 381.286 902.886 383.959 902.886 386.983C902.886 390.169 903.386 392.95 904.385 395.326C905.384 397.702 906.72 399.673 908.394 401.239C910.068 402.805 911.958 403.98 914.064 404.763C916.17 405.546 918.303 405.937 920.463 405.937C922.677 405.937 924.851 405.546 926.984 404.763C929.117 403.98 931.02 402.819 932.694 401.28C934.368 399.741 935.705 397.824 936.704 395.529C937.703 393.234 938.202 390.574 938.202 387.55L938.202 345.835L946.707 345.835L946.707 386.983C946.707 391.033 945.965 394.57 944.48 397.594C942.995 400.618 941.024 403.143 938.567 405.168C936.11 407.193 933.315 408.705 930.183 409.704C927.051 410.703 923.865 411.202 920.625 411.202C917.331 411.202 914.118 410.703 910.986 409.704C907.854 408.705 905.06 407.193 902.603 405.168C900.146 403.143 898.161 400.618 896.649 397.594C895.137 394.57 894.381 391.033 894.381 386.983C894.381 383.203 895.137 379.801 896.649 376.777C898.161 373.753 900.159 371.188 902.643 369.082C905.127 366.976 907.976 365.356 911.189 364.222C914.402 363.088 917.682 362.521 921.03 362.521C922.92 362.521 924.783 362.697 926.619 363.048C928.455 363.399 930.237 363.952 931.965 364.708L932.694 365.032L930.183 370.702Z" fill-rule="evenodd"/>
<path clip-path="url(#TextBounds)" d="M1006.24 363.655L1006.24 387.064C1006.24 391.114 1005.5 394.638 1004.01 397.635C1002.53 400.632 1000.56 403.143 998.102 405.168C995.645 407.193 992.85 408.705 989.718 409.704C986.586 410.703 983.387 411.202 980.12 411.202C976.853 411.202 973.653 410.689 970.521 409.663C967.389 408.637 964.595 407.125 962.138 405.127C959.681 403.129 957.71 400.618 956.225 397.594C954.74 394.57 953.997 391.06 953.997 387.064L953.997 363.655L958.047 363.655L958.533 363.655L962.583 363.655L962.583 387.064C962.583 392.464 964.5 397.081 968.334 400.915C972.06 404.641 975.989 406.477 980.12 406.423C984.251 406.369 988.179 404.533 991.905 400.915C995.793 397.081 997.737 392.464 997.737 387.064L997.737 363.655L1001.79 363.655L1002.19 363.655L1006.24 363.655Z" fill-rule="evenodd"/>
<path clip-path="url(#TextBounds)" d="M1023.9 410.311L1015.15 410.311L1015.15 345.835L1023.9 345.835L1023.9 410.311Z" fill-rule="evenodd"/>
<path clip-path="url(#TextBounds)" d="M1043.58 384.553L1043.58 380.017L1073.55 380.017C1072.74 377.911 1071.76 376.102 1070.6 374.59C1069.44 373.078 1068.14 371.836 1066.71 370.864C1065.28 369.892 1063.75 369.177 1062.13 368.718C1060.51 368.259 1058.87 368.029 1057.19 368.029C1054.87 368.029 1052.57 368.475 1050.31 369.366C1048.04 370.257 1046.01 371.526 1044.23 373.173C1042.45 374.82 1041.02 376.818 1039.94 379.167C1038.86 381.516 1038.32 384.148 1038.32 387.064C1038.32 389.926 1038.82 392.532 1039.82 394.881C1040.82 397.23 1042.15 399.228 1043.83 400.875C1045.5 402.522 1047.44 403.791 1049.66 404.682C1051.87 405.573 1054.19 406.018 1056.62 406.018C1059.43 406.018 1062.25 405.37 1065.09 404.074C1067.92 402.778 1070.58 400.753 1073.07 397.999L1077.77 402.535L1077.2 403.102C1074.44 405.856 1071.3 407.908 1067.76 409.258C1064.22 410.608 1060.62 411.283 1056.95 411.283C1053.65 411.283 1050.47 410.757 1047.39 409.704C1044.31 408.651 1041.57 407.098 1039.17 405.046C1036.77 402.994 1034.84 400.47 1033.38 397.473C1031.92 394.476 1031.19 391.006 1031.19 387.064C1031.19 383.068 1031.93 379.558 1033.42 376.534C1034.9 373.51 1036.87 370.986 1039.33 368.961C1041.79 366.936 1044.57 365.41 1047.67 364.384C1050.78 363.358 1053.95 362.845 1057.19 362.845C1060.16 362.845 1063.08 363.277 1065.94 364.141C1068.8 365.005 1071.41 366.288 1073.76 367.989C1076.1 369.69 1078.12 371.836 1079.79 374.428C1081.46 377.02 1082.57 380.071 1083.11 383.581L1083.27 384.553L1043.58 384.553Z" fill-rule="evenodd"/>
</g>
<path clip-path="url(#TextBounds_2)" d="M502.74 410.768C503.712 408.716 505.008 406.813 506.628 405.058C508.248 403.303 510.044 401.737 512.015 400.36C513.986 398.983 516.092 397.849 518.333 396.958C520.574 396.067 522.801 395.459 525.015 395.135C525.933 394.973 527.148 394.96 528.66 395.095C530.172 395.23 531.698 395.27 533.237 395.216C534.776 395.162 536.139 394.892 537.327 394.406C538.515 393.92 539.244 393.029 539.514 391.733C539.676 390.977 539.609 390.329 539.312 389.789C539.015 389.249 538.61 388.777 538.097 388.372C537.584 387.967 537.003 387.656 536.355 387.44C535.707 387.224 535.086 387.089 534.492 387.035C531.954 386.873 529.47 386.819 527.04 386.873C524.61 386.927 522.275 386.792 520.034 386.468C517.793 386.144 515.646 385.483 513.594 384.484C511.542 383.485 509.598 381.878 507.762 379.664C505.71 377.126 504.428 374.345 503.915 371.321C503.402 368.297 503.55 365.354 504.36 362.492C505.17 359.63 506.574 357.011 508.572 354.635C510.57 352.259 513.054 350.504 516.024 349.37C518.454 348.452 520.965 348.007 523.557 348.034C526.149 348.061 528.741 348.074 531.333 348.074L556.605 348.074C555.471 350.288 554.094 352.246 552.474 353.947C550.854 355.648 549.059 357.119 547.088 358.361C545.117 359.603 543.011 360.629 540.77 361.439C538.529 362.249 536.247 362.87 533.925 363.302C533.007 363.464 531.792 363.518 530.28 363.464C528.768 363.41 527.27 363.451 525.785 363.586C524.3 363.721 522.977 364.018 521.816 364.477C520.655 364.936 519.912 365.786 519.588 367.028C519.426 367.73 519.48 368.365 519.75 368.932C520.02 369.499 520.412 369.985 520.925 370.39C521.438 370.795 522.018 371.105 522.666 371.321C523.314 371.537 523.908 371.672 524.448 371.726C526.932 371.888 529.376 371.929 531.779 371.848C534.182 371.767 536.517 371.861 538.785 372.131C541.053 372.401 543.227 372.995 545.306 373.913C547.385 374.831 549.342 376.397 551.178 378.611C553.23 381.095 554.553 383.863 555.147 386.914C555.741 389.965 555.674 392.948 554.945 395.864C554.216 398.78 552.866 401.44 550.895 403.843C548.924 406.246 546.426 408.041 543.402 409.229C542.484 409.607 541.283 409.891 539.798 410.08C538.313 410.269 536.706 410.417 534.978 410.525C533.25 410.633 531.428 410.701 529.511 410.728C527.594 410.755 525.744 410.768 523.962 410.768L502.74 410.768Z" fill="#ef233c" fill-rule="evenodd" opacity="1" stroke="none"/>
</g>
</g>
</svg>
