<?xml version="1.0" encoding="UTF-8" standalone="no"?>
<!DOCTYPE svg PUBLIC "-//W3C//DTD SVG 1.1//EN" "http://www.w3.org/Graphics/SVG/1.1/DTD/svg11.dtd">
<!-- Created with Vectornator (http://vectornator.io/) -->
<svg height="100%" stroke-miterlimit="10" style="fill-rule:nonzero;clip-rule:evenodd;stroke-linecap:round;stroke-linejoin:round;" version="1.1" viewBox="0 0 512 512" width="100%" xml:space="preserve" xmlns="http://www.w3.org/2000/svg" xmlns:vectornator="http://vectornator.io" xmlns:xlink="http://www.w3.org/1999/xlink">
<defs>
<clipPath id="TextBounds">
<rect height="133.074" width="506.351" x="0.117205" y="179.613"/>
</clipPath>
</defs>
<g id="Layer-1" vectornator:layerName="Layer 1">
<g fill="#ffffff" opacity="1" stroke="none">
<path clip-path="url(#TextBounds)" d="M10.9527 226.213C11.6727 224.693 12.6327 223.283 13.8327 221.983C15.0327 220.683 16.3627 219.523 17.8227 218.503C19.2827 217.483 20.8427 216.643 22.5027 215.983C24.1627 215.323 25.8127 214.873 27.4527 214.633C28.1327 214.513 29.0327 214.503 30.1527 214.603C31.2727 214.703 32.4027 214.733 33.5427 214.693C34.6827 214.653 35.6927 214.453 36.5727 214.093C37.4527 213.733 37.9927 213.073 38.1927 212.113C38.3127 211.553 38.2627 211.073 38.0427 210.673C37.8227 210.273 37.5227 209.923 37.1427 209.623C36.7627 209.323 36.3327 209.093 35.8527 208.933C35.3727 208.773 34.9127 208.673 34.4727 208.633C32.5927 208.513 30.7527 208.473 28.9527 208.513C27.1527 208.553 25.4227 208.453 23.7627 208.213C22.1027 207.973 20.5127 207.483 18.9927 206.743C17.4727 206.003 16.0327 204.813 14.6727 203.173C13.1527 201.293 12.2027 199.233 11.8227 196.993C11.4427 194.753 11.5527 192.573 12.1527 190.453C12.7527 188.333 13.7927 186.393 15.2727 184.633C16.7527 182.873 18.5927 181.573 20.7927 180.733C22.5927 180.053 24.4527 179.723 26.3727 179.743C28.2927 179.763 30.2127 179.773 32.1327 179.773L50.8527 179.773C50.0127 181.413 48.9927 182.863 47.7927 184.123C46.5927 185.383 45.2627 186.473 43.8027 187.393C42.3427 188.313 40.7827 189.073 39.1227 189.673C37.4627 190.273 35.7727 190.733 34.0527 191.053C33.3727 191.173 32.4727 191.213 31.3527 191.173C30.2327 191.133 29.1227 191.163 28.0227 191.263C26.9227 191.363 25.9427 191.583 25.0827 191.923C24.2227 192.263 23.6727 192.893 23.4327 193.813C23.3127 194.333 23.3527 194.803 23.5527 195.223C23.7527 195.643 24.0427 196.003 24.4227 196.303C24.8027 196.603 25.2327 196.833 25.7127 196.993C26.1927 197.153 26.6327 197.253 27.0327 197.293C28.8727 197.413 30.6827 197.443 32.4627 197.383C34.2427 197.323 35.9727 197.393 37.6527 197.593C39.3327 197.793 40.9427 198.233 42.4827 198.913C44.0227 199.593 45.4727 200.753 46.8327 202.393C48.3527 204.233 49.3327 206.283 49.7727 208.543C50.2127 210.803 50.1627 213.013 49.6227 215.173C49.0827 217.333 48.0827 219.303 46.6227 221.083C45.1627 222.863 43.3127 224.193 41.0727 225.073C40.3927 225.353 39.5027 225.563 38.4027 225.703C37.3027 225.843 36.1127 225.953 34.8327 226.033C33.5527 226.113 32.2027 226.163 30.7827 226.183C29.3627 226.203 27.9927 226.213 26.6727 226.213L10.9527 226.213Z" fill-rule="evenodd"/>
<path clip-path="url(#TextBounds)" d="M93.1527 180.613L95.4327 180.613L95.4327 208.993C95.4327 211.393 94.9327 213.643 93.9327 215.743C92.9327 217.843 91.6027 219.663 89.9427 221.203C88.2827 222.743 86.3727 223.963 84.2127 224.863C82.0527 225.763 79.7927 226.213 77.4327 226.213C75.0727 226.213 72.8127 225.773 70.6527 224.893C68.4927 224.013 66.5827 222.793 64.9227 221.233C63.2627 219.673 61.9327 217.843 60.9327 215.743C59.9327 213.643 59.4327 211.393 59.4327 208.993L59.4327 180.613L61.7127 180.613L61.7127 208.993C61.7127 211.073 62.1427 213.033 63.0027 214.873C63.8627 216.713 65.0227 218.323 66.4827 219.703C67.9427 221.083 69.6227 222.163 71.5227 222.943C73.4227 223.723 75.3927 224.113 77.4327 224.113C79.4727 224.113 81.4427 223.723 83.3427 222.943C85.2427 222.163 86.9227 221.083 88.3827 219.703C89.8427 218.323 91.0027 216.713 91.8627 214.873C92.7227 213.033 93.1527 211.073 93.1527 208.993L93.1527 180.613Z" fill-rule="evenodd"/>
<path clip-path="url(#TextBounds)" d="M138.873 196.633C138.873 201.393 137.173 205.353 133.773 208.513C130.453 211.673 126.613 213.253 122.253 213.253C119.973 213.253 117.813 212.813 115.773 211.933L116.553 209.953C118.593 210.753 120.493 211.153 122.253 211.153C126.453 211.153 129.893 209.693 132.573 206.773C135.293 203.813 136.653 200.433 136.653 196.633C136.653 194.593 136.283 192.693 135.543 190.933C134.803 189.173 133.793 187.643 132.513 186.343C131.233 185.043 129.713 184.013 127.953 183.253C126.193 182.493 124.293 182.113 122.253 182.113C120.293 182.113 118.443 182.503 116.703 183.283C114.963 184.063 113.433 185.123 112.113 186.463C110.793 187.803 109.753 189.353 108.993 191.113C108.233 192.873 107.853 194.733 107.853 196.693L107.853 225.613L105.633 225.613L105.633 196.633C105.633 191.913 107.313 187.973 110.673 184.813C114.073 181.613 117.933 180.013 122.253 180.013C124.533 180.013 126.683 180.453 128.703 181.333C130.723 182.213 132.483 183.403 133.983 184.903C135.483 186.403 136.673 188.163 137.553 190.183C138.433 192.203 138.873 194.353 138.873 196.633Z" fill-rule="evenodd"/>
<path clip-path="url(#TextBounds)" d="M146.973 225.613L146.973 180.613L178.593 180.613L178.593 182.713L149.253 182.713L149.253 201.013L175.533 201.013L175.533 203.113L149.253 203.113L149.253 223.513L179.373 223.513L179.373 225.613L146.973 225.613Z" fill-rule="evenodd"/>
<path clip-path="url(#TextBounds)" d="M220.713 196.633C220.713 198.433 220.433 200.153 219.873 201.793C219.313 203.433 218.543 204.933 217.563 206.293C216.583 207.653 215.393 208.853 213.993 209.893C212.593 210.933 211.053 211.753 209.373 212.353L218.973 225.613L216.153 225.613L207.153 212.953C206.233 213.153 205.213 213.253 204.093 213.253C201.813 213.253 199.653 212.813 197.613 211.933L198.393 209.953C200.433 210.753 202.333 211.153 204.093 211.153C208.293 211.153 211.733 209.693 214.413 206.773C217.133 203.813 218.493 200.433 218.493 196.633C218.493 194.593 218.123 192.693 217.383 190.933C216.643 189.173 215.633 187.643 214.353 186.343C213.073 185.043 211.553 184.013 209.793 183.253C208.033 182.493 206.133 182.113 204.093 182.113C202.133 182.113 200.283 182.503 198.543 183.283C196.803 184.063 195.273 185.123 193.953 186.463C192.633 187.803 191.593 189.353 190.833 191.113C190.073 192.873 189.693 194.733 189.693 196.693L189.693 225.613L187.473 225.613L187.473 196.633C187.473 191.913 189.153 187.973 192.513 184.813C195.913 181.613 199.773 180.013 204.093 180.013C206.373 180.013 208.523 180.453 210.543 181.333C212.563 182.213 214.323 183.403 215.823 184.903C217.323 186.403 218.513 188.163 219.393 190.183C220.273 192.203 220.713 194.353 220.713 196.633Z" fill-rule="evenodd"/>
<path clip-path="url(#TextBounds)" d="M231.993 225.613L229.713 225.613L229.713 180.613L233.133 180.613L252.333 220.993L271.533 180.613L274.953 180.613L274.953 225.613L272.673 225.613L272.673 183.793L252.333 226.333L231.993 183.793L231.993 225.613Z" fill-rule="evenodd"/>
<path clip-path="url(#TextBounds)" d="M307.173 180.013C310.333 180.013 313.323 180.623 316.143 181.843C318.963 183.063 321.423 184.723 323.523 186.823C325.623 188.923 327.283 191.383 328.503 194.203C329.723 197.023 330.333 200.013 330.333 203.173C330.333 206.373 329.723 209.373 328.503 212.173C327.283 214.973 325.623 217.413 323.523 219.493C321.423 221.573 318.973 223.213 316.173 224.413C313.373 225.613 310.373 226.213 307.173 226.213C303.973 226.213 300.963 225.613 298.143 224.413C295.323 223.213 292.863 221.583 290.763 219.523C288.663 217.463 287.003 215.033 285.783 212.233C284.563 209.433 283.953 206.413 283.953 203.173C283.953 199.973 284.563 196.963 285.783 194.143C287.003 191.323 288.663 188.863 290.763 186.763C292.863 184.663 295.323 183.013 298.143 181.813C300.963 180.613 303.973 180.013 307.173 180.013ZM327.993 203.173C327.993 200.333 327.453 197.633 326.373 195.073C325.293 192.513 323.803 190.273 321.903 188.353C320.003 186.433 317.793 184.913 315.273 183.793C312.753 182.673 310.053 182.113 307.173 182.113C304.293 182.113 301.583 182.673 299.043 183.793C296.503 184.913 294.283 186.423 292.383 188.323C290.483 190.223 288.993 192.453 287.913 195.013C286.833 197.573 286.293 200.293 286.293 203.173C286.293 206.093 286.833 208.823 287.913 211.363C288.993 213.903 290.473 216.113 292.353 217.993C294.233 219.873 296.443 221.363 298.983 222.463C301.523 223.563 304.253 224.113 307.173 224.113C310.093 224.113 312.823 223.563 315.363 222.463C317.903 221.363 320.103 219.873 321.963 217.993C323.823 216.113 325.293 213.903 326.373 211.363C327.453 208.823 327.993 206.093 327.993 203.173Z" fill-rule="evenodd"/>
<path clip-path="url(#TextBounds)" d="M339.333 180.613L349.893 180.613C353.053 180.613 356.013 181.193 358.773 182.353C361.533 183.513 363.933 185.113 365.973 187.153C368.013 189.193 369.623 191.583 370.803 194.323C371.983 197.063 372.573 200.013 372.573 203.173C372.573 206.373 371.993 209.343 370.833 212.083C369.673 214.823 368.073 217.193 366.033 219.193C363.993 221.193 361.593 222.763 358.833 223.903C356.073 225.043 353.093 225.613 349.893 225.613L339.333 225.613L339.333 180.613ZM341.613 223.513L349.893 223.513C352.813 223.513 355.513 223.003 357.993 221.983C360.473 220.963 362.623 219.553 364.443 217.753C366.263 215.953 367.683 213.803 368.703 211.303C369.723 208.803 370.233 206.093 370.233 203.173C370.233 200.293 369.713 197.613 368.673 195.133C367.633 192.653 366.193 190.493 364.353 188.653C362.513 186.813 360.363 185.363 357.903 184.303C355.443 183.243 352.773 182.713 349.893 182.713L341.613 182.713L341.613 223.513Z" fill-rule="evenodd"/>
<path clip-path="url(#TextBounds)" d="M414.993 180.613L417.273 180.613L417.273 208.993C417.273 211.393 416.773 213.643 415.773 215.743C414.773 217.843 413.443 219.663 411.783 221.203C410.123 222.743 408.213 223.963 406.053 224.863C403.893 225.763 401.633 226.213 399.273 226.213C396.913 226.213 394.653 225.773 392.493 224.893C390.333 224.013 388.423 222.793 386.763 221.233C385.103 219.673 383.773 217.843 382.773 215.743C381.773 213.643 381.273 211.393 381.273 208.993L381.273 180.613L383.553 180.613L383.553 208.993C383.553 211.073 383.983 213.033 384.843 214.873C385.703 216.713 386.863 218.323 388.323 219.703C389.783 221.083 391.463 222.163 393.363 222.943C395.263 223.723 397.233 224.113 399.273 224.113C401.313 224.113 403.283 223.723 405.183 222.943C407.083 222.163 408.763 221.083 410.223 219.703C411.683 218.323 412.843 216.713 413.703 214.873C414.563 213.033 414.993 211.073 414.993 208.993L414.993 180.613Z" fill-rule="evenodd"/>
<path clip-path="url(#TextBounds)" d="M430.053 223.513L459.093 223.513L459.093 225.613L427.773 225.613L427.773 180.613L430.053 180.613L430.053 223.513Z" fill-rule="evenodd"/>
<path clip-path="url(#TextBounds)" d="M466.293 225.613L466.293 180.613L497.913 180.613L497.913 182.713L468.573 182.713L468.573 201.013L494.853 201.013L494.853 203.113L468.573 203.113L468.573 223.513L498.693 223.513L498.693 225.613L466.293 225.613Z" fill-rule="evenodd"/>
</g>
</g>
</svg>
