<?xml version="1.0" encoding="UTF-8" standalone="no"?>
<!DOCTYPE svg PUBLIC "-//W3C//DTD SVG 1.1//EN" "http://www.w3.org/Graphics/SVG/1.1/DTD/svg11.dtd">
<!-- Created with Vectornator (http://vectornator.io/) -->
<svg height="100%" stroke-miterlimit="10" style="fill-rule:nonzero;clip-rule:evenodd;stroke-linecap:round;stroke-linejoin:round;" version="1.1" viewBox="0 0 600 400" width="100%" xml:space="preserve" xmlns="http://www.w3.org/2000/svg" xmlns:vectornator="http://vectornator.io" xmlns:xlink="http://www.w3.org/1999/xlink">
<defs>
<radialGradient cx="32.375" cy="35.569" gradientTransform="matrix(1.00032 0 0 1.00032 118.882 2.12736)" gradientUnits="userSpaceOnUse" id="RadialGradient" r="49.78">
<stop offset="0" stop-color="#afeeff"/>
<stop offset="0.193" stop-color="#bbf1ff"/>
<stop offset="0.703" stop-color="#d7f8ff"/>
<stop offset="1" stop-color="#e1faff"/>
</radialGradient>
<linearGradient gradientTransform="matrix(1.00032 0 0 1.00032 118.882 2.12736)" gradientUnits="userSpaceOnUse" id="LinearGradient" x1="32" x2="32" y1="56" y2="6">
<stop offset="0" stop-color="#57a9ff"/>
<stop offset="0" stop-color="#5bcfff"/>
<stop offset="0.367116" stop-color="#5bbbff"/>
<stop offset="0.757255" stop-color="#5ba6ff"/>
<stop offset="1" stop-color="#5b99ff"/>
</linearGradient>
<radialGradient cx="32.375" cy="35.569" gradientTransform="matrix(1.00032 0 0 1.00032 -0.48651 1.78145)" gradientUnits="userSpaceOnUse" id="RadialGradient_2" r="49.78">
<stop offset="0" stop-color="#afeeff"/>
<stop offset="0.193" stop-color="#bbf1ff"/>
<stop offset="0.703" stop-color="#d7f8ff"/>
<stop offset="1" stop-color="#e1faff"/>
</radialGradient>
<linearGradient gradientTransform="matrix(1.00032 0 0 1.00032 -0.48651 1.78145)" gradientUnits="userSpaceOnUse" id="LinearGradient_2" x1="32" x2="32" y1="56" y2="6">
<stop offset="0" stop-color="#ff9757"/>
<stop offset="1" stop-color="#ffb65b"/>
<stop offset="1" stop-color="#ffb65b"/>
</linearGradient>
<radialGradient cx="32.5" cy="32" gradientTransform="matrix(0.925237 0 0 0.925237 60.9698 4.16537)" gradientUnits="userSpaceOnUse" id="RadialGradient_3" r="31.751">
<stop offset="0" stop-color="#f4e09d"/>
<stop offset="0.226" stop-color="#f8e8b5"/>
<stop offset="0.513" stop-color="#fcf0cd"/>
<stop offset="0.778" stop-color="#fef4dc"/>
<stop offset="1" stop-color="#fff6e1"/>
</radialGradient>
</defs>
<clipPath id="ArtboardFrame">
<rect height="400" width="600" x="0" y="0"/>
</clipPath>
<g clip-path="url(#ArtboardFrame)" id="Layer-1" vectornator:layerName="Layer 1">
<g opacity="1">
<path d="M599.834 73.8514L89.5593 162.068L-1.74609 133.872L-1.74609 0.0470713L599.834 0.0470713L599.834 73.8514Z" fill="#452f48" fill-rule="evenodd" opacity="1" stroke="none"/>
<path d="M128.538 46.0418L542.838 21.666L548.928 0.0470713L282.524 0.0470713L111.688 3.62605L128.538 46.0418Z" fill="#452f48" fill-rule="evenodd" opacity="1" stroke="none"/>
<path d="M599.834 73.8514L584.354 76.5115L534.514 76.5115L534.514 13.0571L137.521 13.0571L137.521 34.9663L522.74 20.4086C522.74 20.4086 522.892 22.8268 522.993 22.8268L86.2603 48.5084L10.0795 90.1503L10.0795 137.499L-1.74609 133.872L-1.74609 0.0470713L599.834 0.0470713L599.834 73.8514Z" fill="#352736" fill-rule="evenodd" opacity="1" stroke="none"/>
<path d="M-1.74609 126.472L101.03 118.927L262.273 80.1872L388.954 78.1559L79.7131 136.919L-1.74609 136.919L-1.74609 126.472Z" fill="#352736" fill-rule="evenodd" opacity="1" stroke="none"/>
<path d="M532.129 51.8455L498.53 51.8455L372.357 75.5442L440.621 76.6082C440.621 76.6082 509.645 72.0619 510.102 73.1743C510.559 74.2867 532.129 51.8455 532.129 51.8455Z" fill="#233547" fill-rule="evenodd" opacity="1" stroke="none"/>
<path d="M599.834 163.858L486.755 187.798L227.203 92.8104L252.985 86.668L331.856 93.2456L424.583 76.7049L505.94 76.0762L549.233 59.2453L599.834 60.3093L599.834 163.858Z" fill="#684388" fill-rule="evenodd" opacity="1" stroke="none"/>
<path d="M599.834 163.858L560.906 172.128L546.949 172.128L546.949 60.1159L549.233 59.2453L599.834 60.3093L599.834 163.858Z" fill="#782b37" fill-rule="evenodd" opacity="1" stroke="none"/>
<path d="M439.961 68.6764L494.724 58.9068L531.774 58.9068L498.886 73.2711L439.961 68.6764Z" fill="#095492" fill-rule="evenodd" opacity="1" stroke="none"/>
<path d="M411.64 160.327L244.154 99.001L240.043 89.7634L252.985 86.668L331.856 93.2456L424.583 76.7049L469.093 76.3664L469.093 160.327L411.64 160.327Z" fill="#758e3c" fill-rule="evenodd" opacity="1" stroke="none"/>
<path d="M167.872 324.332L150.666 355.237L161.122 380.386L170.257 401.328L357.791 401.328L320.792 327.088L167.872 324.332Z" fill="#cb7aae" fill-rule="evenodd" opacity="1" stroke="none"/>
<path d="M599.834 72.1587L545.223 72.1587L506.346 90.9241L407.529 90.9241L337.236 108.964L240.043 89.7634L342.413 93.1005L408.697 79.5585L505.94 76.0762L549.131 62.921L599.834 62.921L599.834 72.1587Z" fill="#222933" fill-rule="evenodd" opacity="1" stroke="none"/>
<path d="M366.876 140.885L421.284 130.099L520.608 144.609L520.608 150.171L448.995 164.051L366.876 140.885Z" fill="#095492" fill-rule="evenodd" opacity="1" stroke="none"/>
<path d="M357.791 401.328L320.792 327.088L284.554 326.411L310.743 401.328L357.791 401.328Z" fill="#ae5291" fill-rule="evenodd" opacity="1" stroke="none"/>
<path d="M316.884 326.992L284.554 326.411L302.368 377.388L355.203 396.201L316.884 326.992Z" fill="#b27231" fill-rule="evenodd" opacity="1" stroke="none"/>
<path d="M23.7321 302.374L23.7321 355.043L81.2865 401.328L171.475 401.328L161.984 372.648L167.872 324.332L194.264 324.815L194.162 314.755L23.7321 302.374Z" fill="#772b2d" fill-rule="evenodd" opacity="1" stroke="none"/>
<path d="M154.016 328.394L122.346 382.272L58.3459 317.416L154.016 328.394Z" fill="#a62f45" fill-rule="evenodd" opacity="1" stroke="none"/>
<path d="M221.823 309.484L236.896 354.753L302.673 377.146L279.834 313.014L221.823 309.484Z" fill="#67a2cf" fill-rule="evenodd" opacity="1" stroke="none"/>
<path d="M161.984 372.648L158.787 401.328L318.914 401.328L238.216 372.648L161.984 372.648Z" fill="#605ba3" fill-rule="evenodd" opacity="1" stroke="none"/>
<path d="M302.267 325.299L345.61 401.328L566.134 401.328L599.834 376.565L599.834 354.85L585.268 278.966L302.267 325.299Z" fill="#ac5133" fill-rule="evenodd" opacity="1" stroke="none"/>
<path d="M599.834 337.293L551.162 341.308L541.214 364.523L482.086 380.918L446.508 393.009L418.086 401.328L599.834 401.328L599.834 337.293ZM151.022 401.328L151.022 373.422L146.149 373.422L130.162 401.328L151.022 401.328ZM96.5125 401.328L17.3372 308.662C10.0287 309.145 3.32925 310.064-1.74609 310.935L-1.74609 401.328L96.5125 401.328Z" fill="#452f48" fill-rule="evenodd" opacity="1" stroke="none"/>
<path d="M150.92 401.328L151.022 373.422L146.149 373.422L130.162 401.328L150.92 401.328ZM96.5125 401.328L17.3372 308.662C10.0287 309.145 3.32925 310.064-1.74609 310.935L-1.74609 401.328L96.5125 401.328Z" fill="#352736" fill-rule="evenodd" opacity="1" stroke="none"/>
<path d="M561.008 286.269L561.008 304.454L431.942 354.946L482.238 366.796L559.485 340.244L599.834 337.197L599.834 274.613L561.008 286.269Z" fill="#a62f45" fill-rule="evenodd" opacity="1" stroke="none"/>
<path d="M599.834 146.06L546.746 166.711L507.361 166.711L240.043 89.7634L257.604 102.822L500.713 201.34L594.403 178.271L599.834 170.774L599.834 146.06Z" fill="#2b2526" fill-rule="evenodd" opacity="1" stroke="none"/>
<path d="M-1.74609 317.222L341.855 341.888L562.936 296.667L599.834 281.771L599.834 266.101L-1.74609 303.97L-1.74609 317.222Z" fill="#452f48" fill-rule="evenodd" opacity="1" stroke="none"/>
<path d="M101.943 122.506L240.043 89.7634L409.204 141.852L278.717 244.482L101.943 122.506Z" fill="#057544" fill-rule="evenodd" opacity="1" stroke="none"/>
<path d="M500.713 170.049L507.412 172.128L546.949 172.128L599.834 151.96L599.834 223.782L500.713 219.912L500.713 170.049Z" fill="#523476" fill-rule="evenodd" opacity="1" stroke="none"/>
<path d="M443.767 152.541L481.883 164.245L481.883 164.245L481.934 164.293L507.412 172.128L507.97 172.128L599.834 199.744L599.834 238.388L464.627 232.826L411.691 157.667L443.767 152.541Z" fill="#a62f45" fill-rule="evenodd" opacity="1" stroke="none"/>
<path d="M518.629 243.563L419.203 150.219L278.717 172.95L282.676 211.062L518.629 243.563Z" fill="#9b3686" fill-rule="evenodd" opacity="1" stroke="none"/>
<path d="M599.834 244.482L587.095 244.482C566.337 242.45 539.945 239.887 511.878 237.227L482.847 220.299L480.868 208.112L513.147 217.398L599.834 217.398L599.834 244.482Z" fill="#782b37" fill-rule="evenodd" opacity="1" stroke="none"/>
<path d="M511.878 237.227C472.748 233.503 430.267 229.585 394.943 226.538L311.504 215.028C301.252 201.679 278.717 172.95 278.717 172.95L297.75 169.904C317.239 174.305 375.098 177.739 375.098 177.739L480.868 208.112L511.878 237.227Z" fill="#095492" fill-rule="evenodd" opacity="1" stroke="none"/>
<path d="M160.157 108.674L268.516 161.585L296.43 183.107L344.595 192.683L479.549 211.545L497.109 226.732L599.834 226.732L599.834 230.504L477.112 230.504L343.732 195.924L293.842 185.574L263.085 163.084L141.886 113.027L160.157 108.674Z" fill="#24262a" fill-rule="evenodd" opacity="1" stroke="none"/>
<path d="M389.969 135.952L469.093 160.327L352.31 181.946L292.522 172.902L291.355 175.369L344.595 192.683L296.43 183.107L268.871 161.827L389.969 135.952ZM343.732 195.924L342.21 201.921L280.747 203.904C286.33 200.518 300.44 190.555 300.44 190.555L294.502 185.719L343.732 195.924ZM275.418 204.097L246.083 205.016L250.092 195.15L253.797 200.808C253.797 200.808 268.871 202.743 275.418 204.097Z" fill="#452f48" fill-rule="evenodd" opacity="1" stroke="none"/>
<path d="M294.502 185.719L300.44 190.555C300.44 190.555 286.33 200.518 280.747 203.904L275.418 204.097C268.871 202.743 253.797 200.808 253.797 200.808L250.092 195.15L263.085 163.084L293.842 185.574L294.502 185.719Z" fill="#572727" fill-rule="evenodd" opacity="1" stroke="none"/>
<path d="M101.943 122.506L156.757 109.496L263.085 163.084L253.645 207.676L264.659 243.66L160.868 244.965L101.943 122.506Z" fill="#b2dfef" fill-rule="evenodd" opacity="1" stroke="none"/>
<path d="M255.066 200.808L253.645 207.676L316.985 335.02L242.987 329.362L214.768 255.896L214.768 200.808L255.066 200.808Z" fill="#b8ca61" fill-rule="evenodd" opacity="1" stroke="none"/>
<path d="M182.134 218.171L228.979 218.171L274.403 331.683L167.872 324.332L164.065 291.831L182.134 218.171Z" fill="#ffffff" fill-rule="evenodd" opacity="1" stroke="none"/>
<path d="M214.768 218.171L245.981 218.171L286.838 332.602L228.877 328.539L214.768 290.38L214.768 218.171Z" fill="#e6e998" fill-rule="evenodd" opacity="1" stroke="none"/>
<path d="M167.872 324.332L182.793 205.983L146.606 166.325L119.859 166.325L102.806 215.802L164.167 324.09L167.872 324.332Z" fill="#9eb43a" fill-rule="evenodd" opacity="1" stroke="none"/>
<path d="M48.2968 126.424L101.943 122.506L158.99 214.979L165.334 254.977L99.71 187.508L48.2968 126.424Z" fill="#ee8536" fill-rule="evenodd" opacity="1" stroke="none"/>
<path d="M128.944 166.325L158.99 214.979L165.334 254.977L109.201 197.278L119.859 166.325L128.944 166.325Z" fill="#057544" fill-rule="evenodd" opacity="1" stroke="none"/>
<path d="M119.859 182.575L119.859 166.083L98.7457 146.011L96.411 132.082L95.1929 132.227L96.411 145.528L95.1929 145.383L89.3563 135.903L90.1176 128.358L88.4427 128.117L86.6663 137.838L112.5 166.47L111.028 167.872L84.687 145.334L79.3071 127.536L77.1755 127.536L82.2 146.35L99.4055 161.73L98.1874 162.649L80.6267 147.027L79.4086 141.61L65.2992 141.61L113.87 182.575L119.859 182.575Z" fill="#572727" fill-rule="evenodd" opacity="1" stroke="none"/>
<path d="M-1.74609 130.148L49.3626 126.327L120.265 183.01L99.71 187.508L52.0018 184.703L-1.74609 157.184L-1.74609 130.148Z" fill="#232631" fill-rule="evenodd" opacity="1" stroke="none"/>
<path d="M154.879 228.618L154.879 216.285L119.859 182.575L69.8162 182.575L66.162 195.585L154.879 228.618Z" fill="#6b386b" fill-rule="evenodd" opacity="1" stroke="none"/>
<path d="M-1.74609 148.575L12.8201 148.575L72.8614 181.511L72.8614 194.231L8.65836 195.537L-1.74609 178.609L-1.74609 148.575Z" fill="#095492" fill-rule="evenodd" opacity="1" stroke="none"/>
<path d="M13.0231 189.346L37.8416 177.545L66.2127 191.861L17.4894 195.343L13.0231 189.346Z" fill="#2fa9ad" fill-rule="evenodd" opacity="1" stroke="none"/>
<path d="M18.6568 186.734L-1.74609 170.532L-1.74609 196.165L18.6568 186.734Z" fill="#283954" fill-rule="evenodd" opacity="1" stroke="none"/>
<path d="M19.8749 314.997L165.486 324.041L168.887 273.597L163.913 247.625L134.73 222.089L-1.74609 256.186L-1.74609 260.442L19.8749 314.997Z" fill="#cb7aae" fill-rule="evenodd" opacity="1" stroke="none"/>
<path d="M153.965 323.316L165.486 324.187L168.887 273.597L163.913 247.625L157.823 242.305L155.386 242.595L158.026 269.825L153.965 323.316Z" fill="#9b3686" fill-rule="evenodd" opacity="1" stroke="none"/>
<path d="M158.026 260.152L161.172 260.152L163.862 277.37L166.755 277.37L159.701 233.261L111.992 187.508L71.9986 187.508L57.9907 191.909L158.026 260.152Z" fill="#232631" fill-rule="evenodd" opacity="1" stroke="none"/>
<path d="M20.2301 311.612L95.0914 315.674L117.118 279.304L32.4617 252.123L-1.74609 256.379L-1.74609 296.522L-1.34007 306.485L20.2301 311.612Z" fill="#605ba3" fill-rule="evenodd" opacity="1" stroke="none"/>
<path d="M20.2301 311.612L51.0375 313.256L51.0375 258.072L32.4617 252.123L-1.74609 256.379L-1.74609 296.522L-1.34007 306.485L20.2301 311.612Z" fill="#057544" fill-rule="evenodd" opacity="1" stroke="none"/>
<path d="M8.20157 259.571L8.20157 282.69L15.4593 282.69L15.4593 275.919L27.2849 289.606L27.2849 300.875L29.721 300.875L32.9185 290.041L53.3214 290.041L72.7092 277.902L44.2873 255.992L8.20157 259.571Z" fill="#283954" fill-rule="evenodd" opacity="1" stroke="none"/>
<path d="M89.4578 288.929L80.5252 288.929L69.7655 299.085L70.0192 304.405L67.3293 304.937L65.2992 297.634L66.0097 291.057L81.388 278.434L91.1326 283.125L89.4578 288.929Z" fill="#b35292" fill-rule="evenodd" opacity="1" stroke="none"/>
<path d="M132.801 268.519L158.026 270.985L97.7813 289.412L95.4974 304.405L93.2643 304.405L93.2643 288.929L91.5387 288.929L87.5799 301.89L86.0573 301.842L86.0573 278.095L132.801 268.519Z" fill="#d85c57" fill-rule="evenodd" opacity="1" stroke="none"/>
<path d="M65.2992 189.733L33.3753 189.733L28.0462 181.898L22.3618 184.897L25.204 188.862L22.5648 189.54L18.6568 186.734L-1.74609 195.392L-1.74609 313.691L23.8336 315.239L2.00966 292.991L2.06041 259.571L53.9812 259.571L65.2992 189.733Z" fill="#232631" fill-rule="evenodd" opacity="1" stroke="none"/>
<path d="M38.8059 259.571L48.1953 273.597L60.4776 278.627L49.7179 285.979L50.5299 301.213L52.0525 301.455L58.0922 287.091L75.9066 277.273L42.1556 257.492L38.8059 259.571Z" fill="#6b386b" fill-rule="evenodd" opacity="1" stroke="none"/>
<path d="M275.672 279.643L253.645 207.676L259.685 178.222L261.969 178.803L260.142 186.638L263.542 196.214L265.623 195.44L263.897 187.121L268.516 176.481L270.597 177.158L268.668 187.798L271.409 200.035L275.926 199.938L274.352 181.559L360.024 199.309L325.461 241.967L316.326 237.517L275.672 279.643Z" fill="#ee8536" fill-rule="evenodd" opacity="1" stroke="none"/>
<path d="M342.768 207.531L300.846 204.774L273.084 250.769L293.943 265.327L342.768 207.531Z" fill="#ac5133" fill-rule="evenodd" opacity="1" stroke="none"/>
<path d="M422.349 320.511L340.586 337.003L315.767 334.875L275.672 279.643L316.326 237.517L339.266 248.641L422.349 320.511Z" fill="#67a2cf" fill-rule="evenodd" opacity="1" stroke="none"/>
<path d="M350.483 335.02L340.586 337.003L307.494 334.295L275.672 279.643L291.203 263.537L293.943 265.327L309.322 255.509L311.605 256.331L299.678 280.707L350.483 335.02Z" fill="#b2dfef" fill-rule="evenodd" opacity="1" stroke="none"/>
<path d="M496.855 230.504L599.834 230.504L599.834 276.257L561.008 290.863L544.259 278.337L506.296 269.68L492.541 261.022L484.116 266.923L468.484 262.038L486.197 231.423L496.855 230.504Z" fill="#d85c57" fill-rule="evenodd" opacity="1" stroke="none"/>
<path d="M446.762 315.723L561.008 290.863L561.008 269.68L506.296 269.68L492.541 261.022L450.974 290.09L446.762 315.723Z" fill="#cb7aae" fill-rule="evenodd" opacity="1" stroke="none"/>
<path d="M496.855 230.504L504.57 230.504L532.637 256.621L532.637 275.338L497.109 275.338L490.257 270.405L477.518 241.145L496.855 230.504Z" fill="#9b3686" fill-rule="evenodd" opacity="1" stroke="none"/>
<path d="M320.944 282.303L320.944 292.314L384.64 327.911L460.11 313.063L460.11 302.036L449.807 293.088L329.217 278.627L320.944 282.303Z" fill="#758e3c" fill-rule="evenodd" opacity="1" stroke="none"/>
<path d="M320.944 282.303L320.944 292.314L384.64 327.911L384.64 285.253L329.217 278.627L320.944 282.303Z" fill="#99a332" fill-rule="evenodd" opacity="1" stroke="none"/>
<path d="M134.578 270.985L88.1382 282.883L80.8297 280.9L67.3801 293.862L68.1414 302.036L66.568 302.132L63.4213 290.912L69.4102 285.833L55.656 288.735L52.154 299.037L51.2405 298.844L52.0525 286.704L67.5323 278.095L50.7837 271.711L28.3507 241.531L140.973 263.005L134.578 270.985Z" fill="#222222" fill-rule="evenodd" opacity="1" stroke="none"/>
<path d="M146.099 231.762L158.026 241.967L158.026 270.985L134.578 270.985L134.578 267.068L146.099 231.762Z" fill="#222222" fill-rule="evenodd" opacity="1" stroke="none"/>
<path d="M151.834 245.933L143.612 258.217L140.313 257.734L134.781 266.439L151.326 266.439L156.097 261.699L156.097 255.654L151.834 245.933Z" fill="#9b3686" fill-rule="evenodd" opacity="1" stroke="none"/>
<path d="M35.7607 243.708L52.8138 268.229L88.2905 279.788L109.81 274.758L114.631 265.278L103.212 257.298L87.5292 236.84L87.5292 205.161L75.3483 200.083L41.6988 209.901L43.6275 231.955L49.9716 240.903L48.8551 241.145L38.3491 222.718L35.9129 223.54L35.7607 243.708Z" fill="#057544" fill-rule="evenodd" opacity="1" stroke="none"/>
<path d="M52.8138 268.229L88.2905 279.788L101.283 276.741L87.1231 270.695L68.6996 237.227L73.0644 213.915L53.9304 216.914L48.043 235.341L49.9716 240.903L48.8551 241.145L47.1294 238.146L44.2365 247.384L52.8138 268.229Z" fill="#b8ca61" fill-rule="evenodd" opacity="1" stroke="none"/>
<path d="M153.61 238.146L109.607 200.808L65.2992 189.733L41.6481 196.746L31.9542 194.569L27.8431 187.073L26.8281 187.363L29.2642 197.278L32.9185 199.793L30.127 200.712L25.2547 197.229L25.2547 190.652L23.2246 191.619L20.6362 199.454L24.7472 202.55L14.089 220.638L19.5196 246.416L35.7607 243.708L35.9129 223.54L38.3491 222.718L48.8551 241.145L49.9716 240.903L46.3174 230.359L51.1897 211.013L81.388 205.742L73.6735 237.13L90.3206 267.987L109.556 274.806L119.047 273.984L134.73 268.906L153.61 238.146Z" fill="#222222" fill-rule="evenodd" opacity="1" stroke="none"/>
<path d="M372.002 295.023L363.526 306.05L363.526 316.061L364.288 316.255L366.013 307.549L367.891 307.549L367.891 317.996L369.058 318.286L370.378 304.357L372.459 301.31L377.534 303.196L375.859 306.195L375.859 317.851L377.077 317.851L379.006 304.744L380.275 304.744L380.275 315.191L381.036 315.191L383.168 304.841L386.416 304.841L386.416 313.498L382.305 318.141L383.472 318.431L388.497 314.272L390.07 304.599L392.963 304.599L392.963 313.401L389.664 318.334L390.781 318.576L395.196 313.885L396.059 304.647L397.633 304.647L400.069 311.805L400.069 319.64L401.084 319.64L403.266 312.289L400.83 304.26L404.941 304.26L407.529 311.805L404.839 319.35L406.007 319.495L411.031 311.757L409.61 303.196L406.717 300.149L372.002 295.023Z" fill="#68282a" fill-rule="evenodd" opacity="1" stroke="none"/>
<path d="M501.017 238.726L501.017 233.551L475.336 214.786L354.441 198.148L314.245 230.408L315.31 234.035L300.135 252.897L300.795 253.526L316.326 237.517L317.188 240.371L309.931 253.381L310.54 253.719L318.356 244.385L319.777 249.076L474.879 231.665L501.017 238.726Z" fill="#232631" fill-rule="evenodd" opacity="1" stroke="none"/>
<path d="M430.368 303.196L377.534 303.196L328.659 285.06L328.659 276.402L429.353 293.475L430.368 303.196Z" fill="#9b3686" fill-rule="evenodd" opacity="1" stroke="none"/>
<path d="M455.136 299.037L453.055 299.569L455.694 305.469L455.441 305.566L450.01 299.327L444.326 297.538L443.97 298.118L449.756 300.488L451.431 307.597L451.177 307.694L447.625 302.036L439.809 298.844L439.047 299.085L444.884 302.181L446.762 312.531L446.457 312.579L440.976 303.148L435.292 301.213L433.82 297.054L433.312 297.151L432.855 302.664L439.047 304.937L441.027 315.094L440.671 315.191L436.459 306.727L430.927 305.276L427.831 294.297L437.88 288.735L455.136 299.037Z" fill="#24262a" fill-rule="evenodd" opacity="1" stroke="none"/>
<path d="M477.315 279.401L477.011 280.513L481.071 281.916L482.137 290.912L481.883 290.912L479.396 283.996L475.031 283.125L471.986 284.769L477.417 293.91L477.112 294.055L472.951 291.831L473.407 307.211L472.951 307.162L468.535 300.391L456.862 291.057L454.984 292.846L457.572 294.2L459.044 299.908L458.131 300.44L453.715 296.232L440.215 291.492L455.948 278.675L472.139 275.677L477.315 279.401Z" fill="#782b37" fill-rule="evenodd" opacity="1" stroke="none"/>
<path d="M462.343 283.222L471.123 291.589L472.443 304.889L472.291 304.889L469.449 294.2L466.353 291.202L465.033 292.604L468.738 297.925L468.535 298.07L458.537 289.412L449.553 286.897L442.702 290.67L454.882 294.781L463.155 305.856L462.952 305.953L455.136 299.037L439.403 293.475L436.814 288.832L455.542 279.304L462.343 283.222Z" fill="#24262a" fill-rule="evenodd" opacity="1" stroke="none"/>
<path d="M478.229 271.227L476.402 273.791L485.487 280.465L486.4 290.863L486.146 290.912L483.152 281.432L470.464 277.031L467.266 279.691L475.184 291.105L474.879 291.299L463.866 282.593L456.456 285.688L452.192 279.353L471.986 265.665L478.229 271.227Z" fill="#24262a" fill-rule="evenodd" opacity="1" stroke="none"/>
<path d="M324.091 252.075L334.698 282.303L381.341 296.038L421.791 296.474L458.892 277.563L480.564 256.379L449.655 235.292L421.791 278.385L421.791 277.321L386.061 214.109L354.391 214.109L326.679 240.516L324.091 252.075Z" fill="#959934" fill-rule="evenodd" opacity="1" stroke="none"/>
<path d="M471.225 267.407L446.001 252.752L449.655 235.292L476.605 254.977L471.225 267.407Z" fill="#057544" fill-rule="evenodd" opacity="1" stroke="none"/>
<path d="M351.599 285.688L336.678 253.768L359.111 228.957L373.322 228.957L366.673 246.561L386.111 282.786L421.69 291.299L447.422 272.34L453.004 280.562L423.415 295.651C423.415 295.651 416.259 295.41 411.945 295.41L411.945 296.377L381.645 296.957L351.599 285.688Z" fill="#e6e998" fill-rule="evenodd" opacity="1" stroke="none"/>
<path d="M320.944 282.303L337.693 282.303L333.683 270.937L324.091 252.075L319.32 255.654L312.824 274.323L320.944 282.303Z" fill="#9b3686" fill-rule="evenodd" opacity="1" stroke="none"/>
<path d="M382.914 216.962L373.728 246.271L387.025 278.337L421.943 287.575L450.264 267.261L453.207 240.032L461.886 245.691L461.125 255.751L462.343 256.089L465.135 249.221L472.798 256.621L457.928 275.435L421.943 293.91L381.696 293.91L336.17 279.691L324.294 279.691L380.376 297.683L423.263 297.683L459.247 279.788L473.915 268.616L489.039 277.853L488.329 290.67L489.902 290.67L492.186 277.37L489.395 274.371L490.613 273.694L497.211 277.225L500.002 285.398L501.474 285.06L499.647 275.725L492.389 267.503L493.607 266.246L501.22 269.583L524.465 269.583L524.465 264.408L516.142 264.408L487.162 247.093L487.162 237.372L518.07 254.445L518.07 251.011L472.494 218.22L357.791 204.242L325.055 236.55L307.139 274.903L312.113 282.303L320.944 282.303L320.944 275.338L315.412 273.936L321.299 255.025L324.446 255.025L332.313 276.064L335.257 275.145L327.136 252.946L331.349 241.58L357.487 217.688L382.914 216.962Z" fill="#222222" fill-rule="evenodd" opacity="1" stroke="none"/>
<path d="M405.601 230.117L405.601 227.893L383.675 227.893L377.585 245.642L389.512 276.257L420.725 284.721L446.153 265.375L448.792 250.963L431.79 249.415L423.111 264.311L404.129 262.473L396.668 243.611L405.601 230.117Z" fill="#232631" fill-rule="evenodd" opacity="1" stroke="none"/>
<path d="M417.02 231.762L417.02 230.117L394.232 230.117L389.004 244.627L398.546 268.567L419.152 272.34L435.19 260.49L437.322 245.062L428.389 245.062L426.004 255.799L416.767 261.99L405.144 260.007L399.663 245.691L401.541 242.015L417.325 242.015L417.325 238.484L417.02 231.762Z" fill="#0b5ea3" fill-rule="evenodd" opacity="1" stroke="none"/>
<path d="M399.054 231.762L419.609 231.762L419.609 241.145L399.054 241.145L399.054 231.762Z" fill="#b2dfef" fill-rule="evenodd" opacity="1" stroke="none"/>
<path d="M397.633 246.706L404.129 262.473L417.325 264.505L418.391 270.308L401.134 267.02L392.303 246.223L397.633 246.706Z" fill="#6cc6dd" fill-rule="evenodd" opacity="1" stroke="none"/>
<path d="M434.987 246.997L433.109 259.185L420.624 266.875L419.862 262.328L429.15 256.089L430.622 246.997L434.987 246.997Z" fill="#6cc6dd" fill-rule="evenodd" opacity="1" stroke="none"/>
<path d="M317.899 276.161L317.899 280.852L313.23 280.852L311.656 278.579L311.656 274.323L312.824 274.323L317.899 276.161Z" fill="#67a2cf" fill-rule="evenodd" opacity="1" stroke="none"/>
<path d="M321.959 256.283L323.989 256.283L326.324 262.473L319.98 262.473L321.959 256.283Z" fill="#f1a0c3" fill-rule="evenodd" opacity="1" stroke="none"/>
<path d="M319.929 265.665L318.812 269.003L329.217 278.627L332.262 278.627L326.73 265.617L319.929 265.665Z" fill="#f0c1d7" fill-rule="evenodd" opacity="1" stroke="none"/>
<path d="M102.806 217.784L102.806 215.802L82.2508 215.802L77.1247 236.888L91.894 266.197L109.607 272.34L133.106 267.116L137.927 258.604L137.927 236.888L135.085 234.809L113.464 245.449L106.968 242.982L103.821 233.6L108.237 227.893L102.806 217.784Z" fill="#232631" fill-rule="evenodd" opacity="1" stroke="none"/>
<path d="M444.326 255.992L443.869 263.392L440.418 261.99L440.012 262.764L443.818 264.36L438.438 268.471L437.575 264.94L436.51 265.085L437.525 269.631L432.449 273.452L427.983 271.324L427.323 272.098L430.419 274.951L423.872 279.788L421.74 275.967L421.182 276.257L421.943 281.142L420.421 282.013L415.548 280.949L419.101 277.225L418.137 276.838L411.539 279.788L407.58 278.675L407.123 274.855L405.956 274.516L402.759 277.321L397.988 276.112L404.078 274.516L402.657 273.936L393.521 275.048L391.441 274.516L390.019 271.034L395.45 272.436L395.704 271.566L388.548 267.648L386.822 263.731L390.679 266.439L389.004 261.264L386.061 262.183L384.284 257.395L387.33 256.815L386.974 255.847L382.762 253.623L381.696 250.721L389.309 250.721L389.512 251.64L388.548 257.879L388.852 259.088L390.679 255.702L396.414 270.26L420.066 274.226L437.626 260.781L438.083 255.799L444.326 255.992Z" fill="#2a3f62" fill-rule="evenodd" opacity="1" stroke="none"/>
<path d="M388.751 247.142L381.341 247.142L379.97 245.497L380.579 241.822L383.32 244.095L383.422 242.789L381.848 238.775L384.589 230.311L391.897 230.311L390.121 235.824L387.482 235.583L387.127 236.647L389.41 238.533L387.634 244.288L388.751 247.142Z" fill="#2a3f62" fill-rule="evenodd" opacity="1" stroke="none"/>
<path d="M109.556 218.752L109.556 217.784L94.6854 217.784L90.1176 235.486L98.8472 251.881L112.398 257.54L128.893 252.559L127.675 239.887L114.378 246.803L105.648 243.805L102.146 233.551L105.75 228.28L116.865 230.408L119.504 228.618L109.556 218.752Z" fill="#0b5ea3" fill-rule="evenodd" opacity="1" stroke="none"/>
<path d="M105.293 218.8L105.293 227.361L121.382 230.359L124.275 227.022L112.804 218.703L105.293 218.8Z" fill="#b2dfef" fill-rule="evenodd" opacity="1" stroke="none"/>
<path d="M97.2231 221.557L93.112 233.938L99.507 246.852L103.415 245.256L98.2381 234.228L102.806 226.877L102.806 221.363L97.2231 221.557Z" fill="#6cc6dd" fill-rule="evenodd" opacity="1" stroke="none"/>
<path d="M122.904 245.594L123.869 252.075L112.348 255.509L101.233 249.512L104.988 247.77L113.566 251.156L122.904 245.594Z" fill="#6cc6dd" fill-rule="evenodd" opacity="1" stroke="none"/>
<path d="M93.0105 218.026L84.3317 217.978L83.2151 222.186L86.8186 220.299L86.9709 220.831L82.5553 225.088L82.0985 226.925L84.4332 227.748L84.2809 228.521L81.4895 229.344L80.9312 231.713L84.6362 233.89L84.484 234.519L80.7282 232.632L80.1192 236.26L88.798 235.002L91.0311 226.442L88.5442 227.651L88.392 226.974L91.6909 223.395L93.0105 218.026Z" fill="#2a3f62" fill-rule="evenodd" opacity="1" stroke="none"/>
<path d="M88.9503 236.647L80.7282 237.856L82.7076 241.967L85.6005 239.307L86.0573 239.839L83.7734 244.192L84.2809 245.836L87.5799 244.869L87.8337 245.788L84.9915 247.432L87.5292 252.655L88.2905 248.835L90.0161 254.01L88.1382 253.864L91.4879 260.49L93.9241 254.058L94.6854 254.542L93.0105 264.118L100.218 266.875L97.4261 254.155L92.2492 251.543L92.3507 250.431L96.9185 252.752L88.9503 236.647Z" fill="#2a3f62" fill-rule="evenodd" opacity="1" stroke="none"/>
<path d="M102.552 267.552L107.628 258.653L111.383 259.426L110.825 262.715L111.485 262.86L113.972 259.233L116.459 258.604L117.068 261.941L118.235 261.699L119.149 257.734L123.97 256.428L123.26 260.297L130.213 258.362L125.899 256.138L131.888 254.203L134.222 258.121L130.619 265.472L124.072 267.213L122.448 263.392L121.483 263.537L122.498 267.697L117.88 269.003L119.808 264.166L117.017 264.746L117.169 269.148L114.022 269.97L114.631 265.278L114.175 265.327L111.942 270.212L110.622 270.453L109.658 266.294L109.099 266.197L109.302 270.308L105.344 268.761L107.221 265.907L106.206 265.569L103.669 268.229L102.552 267.552Z" fill="#2a3f62" fill-rule="evenodd" opacity="1" stroke="none"/>
<path d="M99.8115 255.799L101.131 263.924L102.349 264.408L106.562 258.749L99.8115 255.799Z" fill="#2a3f62" fill-rule="evenodd" opacity="1" stroke="none"/>
<path d="M84.6362 271.856L63.9288 242.547L53.5244 249.705L80.8805 272.775L84.6362 271.856Z" fill="#eed8ad" fill-rule="evenodd" opacity="1" stroke="none"/>
<path d="M20.5347 264.988L39.3134 264.988L39.3134 275.532L20.5347 275.532L20.5347 264.988Z" fill="#222933" fill-rule="evenodd" opacity="1" stroke="none"/>
<path d="M120.823 316.932L140.82 288.397L149.601 289.799L148.687 317.222L120.823 316.932Z" fill="#f1a0c3" fill-rule="evenodd" opacity="1" stroke="none"/>
<path d="M366.064 134.307L267.704 109.883L255.929 153.266L265.674 158.296L366.064 134.307Z" fill="#648a51" fill-rule="evenodd" opacity="1" stroke="none"/>
<path d="M599.834 328.588L554.105 337.825L537.458 357.655L446.508 393.009L541.214 364.523L558.622 345.757L588.415 342.323L588.415 380.048L544.462 401.328L599.834 401.328L599.834 328.588Z" fill="#352736" fill-rule="evenodd" opacity="1" stroke="none"/>
<path d="M575.828 352.673L575.828 374.244L521.268 401.328L455.694 401.328L550.756 368.827L561.465 353.544L575.828 352.673Z" fill="#6b386b" fill-rule="evenodd" opacity="1" stroke="none"/>
<path d="M181.474 382.176L210.555 382.176L210.555 401.328L181.474 401.328L181.474 382.176Z" fill="#67a2cf" fill-rule="evenodd" opacity="1" stroke="none"/>
<path d="M446.863 327.137L451.736 335.214L348.148 382.031L333.074 351.754L446.863 327.137Z" fill="#d85c57" fill-rule="evenodd" opacity="1" stroke="none"/>
<path d="M221.823 337.1L225.426 353.254L173.556 353.254L175.18 335.552L221.823 337.1Z" fill="#f0c1d7" fill-rule="evenodd" opacity="1" stroke="none"/>
<path d="M240.043 89.7634L335.054 104.176L407.732 86.0877L506.296 86.0877L541.823 69.1601L599.834 69.1601L599.834 51.8455L532.129 51.8455L497.008 69.1601L410.067 68.4346L332.617 82.9923L263.542 84.2015L240.043 89.7634Z" fill="#2a3f62" fill-rule="evenodd" opacity="1" stroke="none"/>
<path d="M270.597 86.2811L267.095 90.2954L279.225 92.3267L278.159 89.3765L284.452 93.5358L310.692 97.5984L306.632 93.2456L309.372 92.8104L313.585 98.6141L316.326 98.6141L322.517 94.5515L325.106 95.2769L322.365 100.065L334.648 101.903L342.058 97.0181L335.713 95.1319L336.322 93.3907L350.229 96.1475L360.532 93.9711L356.471 91.0209L358.045 90.3921L363.12 93.7776L376.418 90.5372L373.169 85.8942L374.793 85.3138L389.563 87.4419L392.557 86.9099L387.482 81.7349L398.8 79.1715L395.044 86.4746L408.494 83.3793L409.154 71.0947L332.008 86.9099L270.597 86.2811Z" fill="#5069a9" fill-rule="evenodd" opacity="1" stroke="none"/>
<path d="M411.691 71.0463L410.676 82.8956L426.004 82.8956L421.436 76.85L424.583 76.7049L429.607 82.7022L446.407 83.4276L437.931 76.8017L449.909 76.5115L449.147 83.4276L458.993 83.8629L458.689 76.5115L461.277 76.3664L468.383 82.9923L471.834 82.9923L477.468 75.786L480.919 76.3664L476.097 83.1374L485.791 83.2825L488.532 75.6409L490.46 75.786L490.004 83.1374L505.788 83.1374L497.769 71.5783L411.691 71.0463Z" fill="#5069a9" fill-rule="evenodd" opacity="1" stroke="none"/>
<path d="M502.895 71.0463L508.985 81.1061L524.009 74.1416L514.67 71.6267L516.294 69.4986L527.054 71.6267L530.962 69.3052L531.774 61.3734L534.413 60.5995L533.601 68.9182L540.3 64.8556L550.248 66.4033L548.015 59.4388L550.451 59.0519L552.887 66.4033L567.91 66.5967L561.82 58.8584L565.068 58.8584L572.377 66.4033L596.028 66.2582L595.419 63.308L577.249 62.3407L571.818 53.6834L533.449 54.4572L502.895 71.0463Z" fill="#5069a9" fill-rule="evenodd" opacity="1" stroke="none"/>
<path d="M373.068 103.112L426.41 103.112L426.41 121.297L373.068 121.297L373.068 103.112Z" fill="#99a332" fill-rule="evenodd" opacity="1" stroke="none"/>
<path d="M92.706 56.0533L92.706 76.85L148.586 101.371L260.7 73.3678L363.678 73.3678L497.769 47.2025L497.769 27.9534L92.706 56.0533Z" fill="#6b386b" fill-rule="evenodd" opacity="1" stroke="none"/>
<path d="M182.337 15.4754L182.337 30.6619L495.434 20.1667L495.434 14.9917L182.337 15.4754Z" fill="#6b386b" fill-rule="evenodd" opacity="1" stroke="none"/>
<path d="M218.625 13.0571L495.13 13.0571L495.13 0.0470713L218.625 0.0470713L218.625 13.0571Z" fill="#6b386b" fill-rule="evenodd" opacity="1" stroke="none"/>
</g>
<g opacity="1">
<g opacity="1">
<path d="M178.902 46.1416L163.897 46.1416L161.296 45.1413L167.31 45.1413C168.448 45.1413 169.513 44.4201 169.808 43.3197C170.254 41.6562 168.994 40.1397 167.398 40.1397C166.57 40.1397 165.897 39.4675 165.897 38.6392C165.897 37.8109 166.57 37.1387 167.398 37.1387L170.311 37.1387C171.45 37.1387 172.514 36.4175 172.809 35.3171C173.255 33.6536 171.995 31.1368 170.399 31.1368L169.899 31.1368C168.793 31.1368 167.898 30.2415 167.898 29.1361C167.898 28.0308 168.793 27.1355 169.899 27.1355L179.314 27.1355C180.453 27.1355 181.517 26.4142 181.812 25.3139C182.258 23.6503 180.998 22.1338 179.402 22.1338L177.901 22.1338C176.796 22.1338 175.901 21.2386 175.901 20.1332C175.901 19.0278 176.796 18.1326 177.901 18.1326L179.902 18.1326C181.751 18.1326 183.222 16.439 182.843 14.5264C182.56 13.1029 181.222 12.1306 179.771 12.1306L169.399 12.1306C168.57 12.1306 167.898 11.4584 167.898 10.6301C167.898 9.80185 168.57 9.12963 169.399 9.12963L175.313 9.12963C176.452 9.12963 177.515 8.4084 177.81 7.30804C178.256 5.6445 176.997 4.12801 175.401 4.12801L129.474 4.12801C128.334 4.12801 127.271 4.84924 126.976 5.9496C126.53 7.61314 127.789 9.12963 129.386 9.12963L129.386 9.12963C130.767 9.12963 131.886 10.249 131.886 11.6304C131.886 13.0119 130.767 14.1313 129.386 14.1313L128.473 14.1313L125.885 14.1313C124.234 14.1313 122.884 15.4817 122.884 17.1322C122.884 18.7828 124.234 20.1332 125.885 20.1332L144.891 20.1332C145.243 20.1332 145.576 20.0602 145.891 19.9481L145.891 31.1368L138.477 31.1368C137.337 31.1368 136.274 32.8583 135.979 33.9587C135.76 34.7759 135.955 35.5542 136.397 36.1384L122.383 36.1384C121.002 36.1384 119.883 37.2578 119.883 38.6392C119.883 40.0206 121.002 41.14 122.383 41.14L123.384 41.14C124.765 41.14 125.885 42.2594 125.885 43.6408C125.885 45.0223 124.765 46.1416 123.384 46.1416L122.884 46.1416C121.226 46.1416 119.883 47.4851 119.883 49.1426C119.883 50.8001 121.226 52.1436 122.884 52.1436L128.385 52.1436C129.767 52.1436 130.886 53.2629 130.886 54.6444C130.886 56.0258 129.767 57.1452 128.385 57.1452L126.885 57.1452C125.227 57.1452 123.884 58.4886 123.884 60.1462C123.884 61.8037 125.227 63.1471 126.885 63.1471L174.9 63.1471C176.558 63.1471 177.901 61.8037 177.901 60.1462C177.901 58.4886 176.558 57.1452 174.9 57.1452L174.4 57.1452C173.019 57.1452 171.899 56.0258 171.899 54.6444C171.899 53.2629 173.019 52.1436 174.4 52.1436L178.902 52.1436C180.559 52.1436 181.903 50.8001 181.903 49.1426C181.903 47.4851 180.559 46.1416 178.902 46.1416Z" fill="url(#RadialGradient)" fill-rule="evenodd" opacity="0" stroke="none"/>
<path d="M175.901 33.1374C175.901 46.9469 164.702 58.1455 150.893 58.1455C137.083 58.1455 125.885 46.9469 125.885 33.1374C125.885 19.3279 137.083 8.12931 150.893 8.12931C164.702 8.12931 175.901 19.3279 175.901 33.1374Z" fill="url(#LinearGradient)" fill-rule="evenodd" opacity="1" stroke="none"/>
<g opacity="1">
<path d="M138.145 33.0434L149.838 14.668L161.532 33.0434L149.838 39.7254L138.145 33.0434Z" fill="#fcfcfd" fill-rule="evenodd" opacity="1" stroke="none"/>
<path d="M149.838 14.668L161.532 33.0434L149.838 39.7254L149.838 14.668Z" fill="#fcfcfd" fill-rule="evenodd" opacity="1" stroke="none"/>
<path d="M138.145 35.5492L149.838 42.2311L161.532 35.5492L149.838 51.4188L138.145 35.5492Z" fill="#fcfcfd" fill-rule="evenodd" opacity="1" stroke="none"/>
<path d="M149.838 42.2311L161.532 35.5492L149.838 51.4188L149.838 42.2311ZM138.145 33.0434L149.838 28.0319L161.532 33.0434L149.838 39.7254L138.145 33.0434Z" fill="#fcfcfd" fill-rule="evenodd" opacity="1" stroke="none"/>
<path d="M149.838 28.0319L161.532 33.0434L149.838 39.7254L149.838 28.0319Z" fill="#fcfcfd" fill-rule="evenodd" opacity="1" stroke="none"/>
</g>
</g>
<g opacity="1">
<path d="M59.5329 45.7957L44.5281 45.7957L41.9272 44.7954L47.9412 44.7954C49.0796 44.7954 50.1439 44.0742 50.439 42.9738C50.8851 41.3103 49.6257 39.7938 48.0292 39.7938C47.2009 39.7938 46.5287 39.1216 46.5287 38.2933C46.5287 37.465 47.2009 36.7928 48.0292 36.7928L50.9422 36.7928C52.0815 36.7928 53.1449 36.0716 53.44 34.9712C53.8861 33.3077 52.6267 30.7908 51.0302 30.7908L50.53 30.7908C49.4247 30.7908 48.5294 29.8956 48.5294 28.7902C48.5294 27.6848 49.4247 26.7896 50.53 26.7896L59.9451 26.7896C61.0845 26.7896 62.1478 26.0683 62.4429 24.968C62.889 23.3044 61.6296 21.7879 60.0331 21.7879L58.5326 21.7879C57.4273 21.7879 56.532 20.8926 56.532 19.7873C56.532 18.6819 57.4273 17.7866 58.5326 17.7866L60.5333 17.7866C62.3819 17.7866 63.8533 16.0931 63.4742 14.1805C63.1911 12.757 61.8537 11.7847 60.4022 11.7847L50.0299 11.7847C49.2016 11.7847 48.5294 11.1125 48.5294 10.2842C48.5294 9.45593 49.2016 8.78372 50.0299 8.78372L55.9438 8.78372C57.0832 8.78372 58.1465 8.06248 58.4416 6.96212C58.8877 5.29859 57.6283 3.78209 56.0318 3.78209L10.1049 3.78209C8.96555 3.78209 7.90221 4.50333 7.60711 5.60368C7.16097 7.26722 8.42038 8.78372 10.0169 8.78372L10.0169 8.78372C11.3983 8.78372 12.5177 9.90308 12.5177 11.2845C12.5177 12.666 11.3983 13.7853 10.0169 13.7853L9.1046 13.7853L6.51576 13.7853C4.86522 13.7853 3.51479 15.1358 3.51479 16.7863C3.51479 18.4368 4.86522 19.7873 6.51576 19.7873L25.5219 19.7873C25.874 19.7873 26.2071 19.7143 26.5222 19.6022L26.5222 30.7908L19.1078 30.7908C17.9685 30.7908 16.9051 32.5124 16.61 33.6128C16.391 34.43 16.586 35.2083 17.0282 35.7925L3.01462 35.7925C1.63318 35.7925 0.513814 36.9118 0.513814 38.2933C0.513814 39.6747 1.63318 40.7941 3.01462 40.7941L4.01495 40.7941C5.3964 40.7941 6.51576 41.9135 6.51576 43.2949C6.51576 44.6764 5.3964 45.7957 4.01495 45.7957L3.51479 45.7957C1.85725 45.7957 0.513814 47.1392 0.513814 48.7967C0.513814 50.4542 1.85725 51.7977 3.51479 51.7977L9.01657 51.7977C10.398 51.7977 11.5174 52.917 11.5174 54.2985C11.5174 55.6799 10.398 56.7993 9.01657 56.7993L7.51608 56.7993C5.85855 56.7993 4.51511 58.1427 4.51511 59.8003C4.51511 61.4578 5.85855 62.8012 7.51608 62.8012L55.5317 62.8012C57.1892 62.8012 58.5326 61.4578 58.5326 59.8003C58.5326 58.1427 57.1892 56.7993 55.5317 56.7993L55.0315 56.7993C53.65 56.7993 52.5307 55.6799 52.5307 54.2985C52.5307 52.917 53.65 51.7977 55.0315 51.7977L59.5329 51.7977C61.1905 51.7977 62.5339 50.4542 62.5339 48.7967C62.5339 47.1392 61.1905 45.7957 59.5329 45.7957Z" fill="url(#RadialGradient_2)" fill-rule="evenodd" opacity="0" stroke="none"/>
<path d="M56.532 32.7915C56.532 46.601 45.3333 57.7996 31.5239 57.7996C17.7144 57.7996 6.51576 46.601 6.51576 32.7915C6.51576 18.982 17.7144 7.78339 31.5239 7.78339C45.3333 7.78339 56.532 18.982 56.532 32.7915Z" fill="url(#LinearGradient_2)" fill-rule="evenodd" opacity="1" stroke="none"/>
<path d="M27.5226 22.7883L27.5226 22.7883C26.4222 22.7883 25.5219 21.888 25.5219 20.7876L25.5219 17.7866C25.5219 16.6863 26.4222 15.786 27.5226 15.786L27.5226 15.786C28.6229 15.786 29.5232 16.6863 29.5232 17.7866L29.5232 20.7876C29.5232 21.888 28.6229 22.7883 27.5226 22.7883ZM33.5245 22.7883L33.5245 22.7883C32.4242 22.7883 31.5239 21.888 31.5239 20.7876L31.5239 17.7866C31.5239 16.6863 32.4242 15.786 33.5245 15.786L33.5245 15.786C34.6249 15.786 35.5252 16.6863 35.5252 17.7866L35.5252 20.7876C35.5252 21.888 34.6249 22.7883 33.5245 22.7883ZM27.5226 49.797L27.5226 49.797C26.4222 49.797 25.5219 48.8967 25.5219 47.7964L25.5219 44.7954C25.5219 43.695 26.4222 42.7947 27.5226 42.7947L27.5226 42.7947C28.6229 42.7947 29.5232 43.695 29.5232 44.7954L29.5232 47.7964C29.5232 48.8967 28.6229 49.797 27.5226 49.797ZM33.5245 49.797L33.5245 49.797C32.4242 49.797 31.5239 48.8967 31.5239 47.7964L31.5239 44.7954C31.5239 43.695 32.4242 42.7947 33.5245 42.7947L33.5245 42.7947C34.6249 42.7947 35.5252 43.695 35.5252 44.7954L35.5252 47.7964C35.5252 48.8967 34.6249 49.797 33.5245 49.797Z" fill="#ffffff" fill-rule="evenodd" opacity="1" stroke="none"/>
<path d="M39.5995 31.6061C40.7739 30.3697 41.5051 28.7082 41.5271 26.8736C41.5721 22.9753 38.128 19.7873 34.2297 19.7873L23.5213 19.7873C22.4159 19.7873 21.5206 20.6826 21.5206 21.7879L21.5206 43.7951C21.5206 44.9004 22.4159 45.7957 23.5213 45.7957L34.2347 45.7957C38.6532 45.7957 42.4564 42.3406 42.5264 37.9222C42.5664 35.3763 41.4171 33.0986 39.5995 31.6061ZM26.5222 23.7886L33.5245 23.7886C35.1821 23.7886 36.5255 25.132 36.5255 26.7896C36.5255 28.4471 35.1821 29.7905 33.5245 29.7905L26.5222 29.7905L26.5222 23.7886ZM33.5245 41.7944L26.5222 41.7944L26.5222 33.7918L33.5245 33.7918C35.7342 33.7918 37.5258 35.5834 37.5258 37.7931C37.5258 40.0028 35.7342 41.7944 33.5245 41.7944Z" fill="#ffffff" fill-rule="evenodd" opacity="1" stroke="none"/>
</g>
<g opacity="1">
<path d="M117.873 20.827L112.783 20.827C111.765 20.827 110.933 19.9943 110.933 18.9766C110.933 17.9588 111.765 17.1261 112.783 17.1261L114.634 17.1261C116.345 17.1261 117.705 15.5624 117.354 13.7952C117.095 12.4721 115.855 11.5747 114.513 11.5747L103.068 11.5673C102.3 11.5673 101.68 10.9474 101.68 10.1794C101.68 9.41146 102.3 8.79156 103.068 8.79156L108.536 8.79156C109.591 8.79156 110.572 8.12539 110.849 7.10762C111.266 5.57173 110.1 4.16537 108.62 4.16537L67.9924 4.16537C66.9376 4.16537 65.9569 4.83154 65.6793 5.8493C65.2629 7.3852 66.4287 8.79156 67.9091 8.79156L70.6848 8.79156C71.3232 8.79156 71.9061 9.05062 72.3225 9.46698C72.7388 9.88334 72.9979 10.4662 72.9979 11.1046C72.9979 12.3815 71.9616 13.4177 70.6848 13.4177L64.6708 13.4177C63.1441 13.4177 61.8951 14.6668 61.8951 16.1935C61.8951 17.7201 63.1441 18.9692 64.6708 18.9692L84.1008 18.9692C84.4246 18.9692 84.7392 18.9044 85.026 18.7934L85.026 25.4458L72.9979 25.4458L72.9979 33.773L77.1615 33.773C78.4383 33.773 79.4746 34.8092 79.4746 36.0861C79.4746 36.7245 79.2155 37.3074 78.7991 37.7237C78.3828 38.1401 77.7999 38.3991 77.1615 38.3991L69.7596 38.3991C68.4828 38.3991 67.4465 39.4354 67.4465 40.7122C67.4465 41.9891 68.4828 43.0253 69.7596 43.0253L73.4605 43.0253C74.5791 43.0253 75.5127 43.8201 75.7274 44.8758L66.0586 44.8758C63.7687 44.8758 61.8951 46.7494 61.8951 49.0394C61.8951 51.3293 63.7687 53.2029 66.0586 53.2029L83.6381 53.2029C84.915 53.2029 85.9512 54.2392 85.9512 55.516C85.9512 56.7929 84.915 57.8291 83.6381 57.8291L78.5493 57.8291C77.0134 57.8291 75.7736 59.0689 75.7736 60.6048C75.7736 62.1407 77.0134 63.3805 78.5493 63.3805L115.559 63.3805C117.095 63.3805 118.335 62.1407 118.335 60.6048C118.335 59.0689 117.095 57.8291 115.559 57.8291L110.47 57.8291C109.193 57.8291 108.157 56.7929 108.157 55.516C108.157 54.2392 109.193 53.2029 110.47 53.2029L114.171 53.2029C116.461 53.2029 118.335 51.3293 118.335 49.0394C118.335 46.7494 116.461 44.8758 114.171 44.8758L104.86 44.8758C105.151 43.4075 104.031 42.1001 102.605 42.1001C101.838 42.1001 103.531 41.4802 103.531 40.7122C103.531 39.9443 104.151 39.3244 104.919 39.3244C104.919 39.3244 105.381 28.3141 105.381 27.2963C105.381 26.2785 106.214 25.4458 107.232 25.4458L117.79 25.4532C118.844 25.4532 119.825 24.7871 120.103 23.7693C120.51 22.2325 119.344 20.827 117.873 20.827Z" fill="url(#RadialGradient_3)" fill-rule="evenodd" opacity="0" stroke="none"/>
<path d="M115.716 33.5257C115.716 47.3352 104.517 58.5338 90.708 58.5338C76.8985 58.5338 65.6998 47.3352 65.6998 33.5257C65.6998 19.7162 76.8985 8.51757 90.708 8.51757C104.517 8.51757 115.716 19.7162 115.716 33.5257Z" fill="#3ecc76" fill-rule="evenodd" opacity="1" stroke="none"/>
<path d="M89.8298 22.6513L89.8298 22.6513C88.5448 22.6513 87.4935 21.6 87.4935 20.315L87.4935 17.1998C87.4935 15.9148 88.5448 14.8634 89.8298 14.8634L89.8298 14.8634C91.1149 14.8634 92.1662 15.9148 92.1662 17.1998L92.1662 20.315C92.1662 21.6 91.1149 22.6513 89.8298 22.6513ZM89.8298 50.6878L89.8298 50.6878C88.5448 50.6878 87.4935 49.6365 87.4935 48.3515L87.4935 45.2363C87.4935 43.9513 88.5448 42.8999 89.8298 42.8999L89.8298 42.8999C91.1149 42.8999 92.1662 43.9513 92.1662 45.2363L92.1662 48.3515C92.1662 49.6365 91.1149 50.6878 89.8298 50.6878Z" fill="#ffffff" fill-rule="evenodd" opacity="1" stroke="none"/>
<path d="M90.6086 47.5727C85.2817 47.5727 81.2631 44.2254 81.2631 39.7848C81.2631 38.0652 82.6587 36.6696 84.3783 36.6696C86.0979 36.6696 87.4935 38.0652 87.4935 39.7848C87.4935 40.629 88.9202 41.3423 90.6086 41.3423C92.3921 41.3423 93.7238 40.305 93.7238 39.3782C93.7238 37.8207 92.7347 37.1415 89.3345 35.6182C86.1197 34.1759 81.2631 32 81.2631 26.173C81.2631 21.6545 85.4546 17.9786 90.6086 17.9786C95.9356 17.9786 99.9541 21.3258 99.9541 25.7665C99.9541 27.4861 98.5585 28.8817 96.839 28.8817C95.1194 28.8817 93.7238 27.4861 93.7238 25.7665C93.7238 24.9223 92.2971 24.2089 90.6086 24.2089C88.8252 24.2089 87.4935 25.2463 87.4935 26.173C87.4935 27.7306 88.4825 28.4097 91.8827 29.933C95.0976 31.3754 99.9541 33.5513 99.9541 39.3782C99.9541 43.8968 95.7627 47.5727 90.6086 47.5727Z" fill="#ffffff" fill-rule="evenodd" opacity="1" stroke="none"/>
</g>
</g>
</g>
</svg>
