<?xml version="1.0" encoding="UTF-8" standalone="no"?>
<!DOCTYPE svg PUBLIC "-//W3C//DTD SVG 1.1//EN" "http://www.w3.org/Graphics/SVG/1.1/DTD/svg11.dtd">
<!-- Created with Vectornator (http://vectornator.io/) -->
<svg height="100%" stroke-miterlimit="10" style="fill-rule:nonzero;clip-rule:evenodd;stroke-linecap:round;stroke-linejoin:round;" version="1.1" viewBox="0 0 2000 2000" width="100%" xml:space="preserve" xmlns="http://www.w3.org/2000/svg" xmlns:vectornator="http://vectornator.io" xmlns:xlink="http://www.w3.org/1999/xlink">
<defs/>
<g id="Untitled" vectornator:layerName="Untitled">
<g opacity="1">
<g opacity="1">
<clipPath id="ClipPath">
<path d="M0 0L2000 0L2000 2000L0 2000L0 0Z" fill-rule="evenodd"/>
</clipPath>
<g clip-path="url(#ClipPath)">
<path d="M1002.85 687.665C1034.15 687.665 1064.38 692.336 1092.88 701.023C1104.64 692.573 1116.74 684.699 1129.18 677.416C1089.5 661.748 1046.8 653.547 1002.85 653.547C911.075 653.547 824.783 689.279 759.881 754.182C694.978 819.084 659.247 905.376 659.247 997.153C659.247 1056.2 674.035 1112.97 701.868 1163.24C709.452 1152.68 717.247 1142.88 725.225 1133.87C704.833 1092.62 693.364 1046.2 693.364 997.153C693.364 826.498 832.197 687.665 1002.85 687.665M1324.19 874.972C1316.8 887.464 1308.82 899.602 1300.25 911.399C1308.13 938.641 1312.34 967.417 1312.34 997.153C1312.34 1167.81 1173.51 1306.64 1002.85 1306.64C955.021 1306.64 909.684 1295.74 869.202 1276.28C859.951 1284.18 849.86 1291.88 838.981 1299.35C888.702 1326.39 944.668 1340.76 1002.85 1340.76C1094.63 1340.76 1180.92 1305.01 1245.82 1240.12C1310.71 1175.22 1346.46 1088.93 1346.46 997.153C1346.46 954.728 1338.82 913.472 1324.19 874.972" fill="#000000" fill-rule="evenodd" opacity="1" stroke="none"/>
<path d="M921.516 1137.6C914.532 1133.77 906.761 1127.98 899.213 1121.25L884.238 1106.28C877.165 1098.34 871.125 1090.14 867.31 1082.83C865.549 1079.46 861.919 1077.24 858.493 1077.48C711.216 1087.56 635.172 1329.42 627.584 1369.87C668.365 1363.19 913.584 1293.11 926.701 1146.49C927.005 1143.08 924.857 1139.44 921.516 1137.6" fill="#ef233c" fill-rule="evenodd" opacity="1" stroke="none"/>
<path d="M1045.03 1161.18C1071.35 1128.58 1098.22 1090.8 1110.7 1050.51C1152.18 1028.19 1187.24 1003.54 1216.81 977.502C1269.32 931.359 1304.59 880.845 1328.18 831.125C1336.4 813.767 1343.2 796.478 1348.78 779.513C1363.85 733.899 1370.18 690.589 1372.37 653.933C1372.59 650.504 1372.03 647.2 1370.92 644.172C1369.84 641.283 1368.18 638.649 1366.13 636.414C1363.9 634.369 1361.26 632.704 1358.38 631.627C1355.35 630.52 1352.04 629.96 1348.61 630.177C1311.96 632.372 1268.65 638.694 1223.03 653.767C1206.07 659.344 1188.78 666.145 1171.42 674.369C1121.7 697.96 1071.19 733.223 1025.05 785.737C999.004 815.306 974.356 850.365 952.038 891.851C911.75 904.324 873.962 931.199 841.369 957.519C812.633 980.724 788.372 1005.58 764.261 1034.31C764.048 1034.56 763.801 1034.83 763.596 1035.09L769.359 1040.72L769.388 1040.69C811.728 1015.46 871.357 998.936 901.005 1002.38L894.174 1017.81C893.458 1021.12 893.85 1025.04 895.105 1029.37L881.863 1056.37C880.952 1059.83 881.394 1064.03 882.912 1068.65C885.794 1077.45 892.517 1087.78 900.995 1097.53L903.004 1099.54L905.013 1101.55C914.765 1110.03 925.095 1116.75 933.897 1119.63C938.512 1121.15 942.717 1121.59 946.177 1120.68L973.179 1107.44C977.511 1108.7 981.431 1109.09 984.734 1108.37L1000.17 1101.54C1003.61 1131.19 987.087 1190.82 961.859 1233.16L961.829 1233.19L967.455 1238.95C967.719 1238.74 967.983 1238.5 968.237 1238.28C996.965 1214.17 1021.82 1189.91 1045.03 1161.18" fill="#000000" fill-rule="evenodd" opacity="1" stroke="none"/>
<path d="M1258.45 803.163C1242.14 819.473 1215.69 819.473 1199.38 803.163C1183.07 786.854 1183.07 760.411 1199.38 744.101C1215.69 727.792 1242.14 727.792 1258.45 744.101C1274.76 760.411 1274.76 786.854 1258.45 803.163" fill="#ffffff" fill-rule="evenodd" opacity="1" stroke="none"/>
</g>
</g>
</g>
</g>
</svg>
