<?xml version="1.0" encoding="UTF-8" standalone="no"?>
<!DOCTYPE svg PUBLIC "-//W3C//DTD SVG 1.1//EN" "http://www.w3.org/Graphics/SVG/1.1/DTD/svg11.dtd">
<!-- Created with Vectornator (http://vectornator.io/) -->
<svg height="100%" stroke-miterlimit="10" style="fill-rule:nonzero;clip-rule:evenodd;stroke-linecap:round;stroke-linejoin:round;" version="1.1" viewBox="0 0 800 800" width="100%" xml:space="preserve" xmlns="http://www.w3.org/2000/svg" xmlns:vectornator="http://vectornator.io" xmlns:xlink="http://www.w3.org/1999/xlink">
<defs/>
<clipPath id="ArtboardFrame">
<rect height="800" width="800" x="0" y="0"/>
</clipPath>
<g clip-path="url(#ArtboardFrame)" id="Untitled" vectornator:layerName="Untitled">
<g opacity="1">
<clipPath id="ClipPath">
<path d="M-69.9986 121.403L730.001 121.403L730.001 921.403L-69.9986 921.403L-69.9986 121.403Z" fill-rule="evenodd"/>
</clipPath>
<g clip-path="url(#ClipPath)">
<path d="M560.529 699.783C560.529 704.251 489.387 707.874 401.626 707.874C313.866 707.874 242.723 704.251 242.723 699.783C242.723 695.316 313.866 691.694 401.626 691.694C489.387 691.694 560.529 695.316 560.529 699.783" fill="#e2e2e2" fill-rule="evenodd" opacity="1" stroke="none"/>
<path d="M286.015 495.064L324.52 412.172L335.349 412.172L373.988 495.064C361.687 504.155 346.446 509.637 330.001 509.637C313.423 509.637 298.315 504.155 286.015 495.064M330.001 541.59L265.426 562.18L254.73 562.18L282.272 503.086C295.641 512.712 312.22 518.328 330.001 518.328C347.783 518.328 364.228 512.712 377.731 503.086L405.139 562.18L394.443 562.18L330.001 541.59Z" fill="#eaeaea" fill-rule="evenodd" opacity="0" stroke="none"/>
<path d="M330.001 530.093L386.555 548.276L368.372 508.835C356.874 514.985 343.772 518.328 330.001 518.328C316.097 518.328 302.994 514.985 291.63 508.835L273.313 548.276L330.001 530.093ZM360.217 491.321L330.001 426.344L299.786 491.321C308.743 496.268 319.038 499.075 330.001 499.075C340.964 499.075 351.259 496.268 360.217 491.321" fill="#eaeaea" fill-rule="evenodd" opacity="0" stroke="none"/>
<path d="M341.098 579.561L348.452 579.561L348.452 555.496L341.098 553.088L341.098 579.561ZM311.418 579.561L318.771 579.561L318.771 553.088L311.418 555.496L311.418 579.561ZM326.258 594.936L333.612 594.936L333.612 550.683L330.001 549.479L326.258 550.683L326.258 594.936Z" fill="#eaeaea" fill-rule="evenodd" opacity="0" stroke="none"/>
<path d="M478.58 642.407L478.58 642.407C477.353 638.931 476.74 635.046 476.74 631.158L476.74 630.34C476.74 607.025 495.759 588.004 519.279 588.004C540.959 588.004 558.753 604.163 561.412 625.228C559.775 625.228 557.935 625.024 556.299 625.024C535.028 625.024 516.212 636.067 505.372 652.43L514.167 660.201C522.961 646.089 538.505 636.681 556.299 636.681C572.457 636.681 586.773 644.453 595.771 656.315L603.953 647.929C596.181 638.316 585.547 630.955 573.273 627.478C571.638 599.049 548.118 576.347 519.279 576.347C492.694 576.347 470.809 595.163 466.105 620.32C459.764 616.025 452.196 613.569 444.015 613.569C422.336 613.569 404.747 631.158 404.747 652.838C404.747 654.475 404.952 655.905 405.157 657.544L416.61 655.905C416.61 654.883 416.405 653.86 416.405 652.838C416.405 637.704 428.881 625.228 444.015 625.228C456.695 625.228 468.559 636.067 478.58 642.407M323.143 642.407L323.143 642.407C324.165 638.931 324.779 635.046 324.779 631.158L324.779 630.34C324.779 607.025 305.758 588.004 282.443 588.004C260.763 588.004 242.766 604.163 240.312 625.228C241.947 625.228 243.584 625.024 245.221 625.024C266.694 625.024 285.306 636.067 296.35 652.43L287.352 660.201C278.762 646.089 263.013 636.681 245.221 636.681C229.267 636.681 214.952 644.453 205.747 656.315L197.771 647.929C205.542 638.316 216.178 630.955 228.449 627.478C229.88 599.049 253.605 576.347 282.443 576.347C308.826 576.347 330.914 595.163 335.618 620.32C341.754 616.025 349.322 613.569 357.503 613.569C379.181 613.569 396.77 631.158 396.77 652.838C396.77 654.475 396.77 655.905 396.567 657.544L384.909 655.905C385.112 654.883 385.112 653.86 385.112 652.838C385.112 637.704 372.842 625.228 357.503 625.228C345.026 625.228 332.96 636.067 323.143 642.407" fill="#eaeaea" fill-rule="evenodd" opacity="1" stroke="none"/>
<path d="M285.015 494.064L323.52 411.172L334.349 411.172L372.988 494.064C360.687 503.155 345.446 508.637 329.001 508.637C312.423 508.637 297.315 503.155 285.015 494.064M329.001 540.59L264.426 561.18L253.73 561.18L281.272 502.086C294.641 511.712 311.22 517.328 329.001 517.328C346.783 517.328 363.228 511.712 376.731 502.086L404.139 561.18L393.443 561.18L329.001 540.59Z" fill="#0094d9" fill-rule="evenodd" opacity="0" stroke="none"/>
<path d="M329.001 529.093L385.555 547.276L367.372 507.835C355.874 513.985 342.772 517.328 329.001 517.328C315.097 517.328 301.994 513.985 290.63 507.835L272.313 547.276L329.001 529.093ZM359.217 490.321L329.001 425.344L298.786 490.321C307.743 495.268 318.038 498.075 329.001 498.075C339.964 498.075 350.259 495.268 359.217 490.321" fill="#f26620" fill-rule="evenodd" opacity="0" stroke="none"/>
<path d="M340.098 578.561L347.452 578.561L347.452 554.496L340.098 552.088L340.098 578.561ZM310.418 578.561L317.771 578.561L317.771 552.088L310.418 554.496L310.418 578.561ZM325.258 593.936L332.612 593.936L332.612 549.683L329.001 548.479L325.258 549.683L325.258 593.936Z" fill="#d91d25" fill-rule="evenodd" opacity="0" stroke="none"/>
<path d="M477.05 640.877L477.05 640.877C475.823 637.401 475.21 633.516 475.21 629.629L475.21 628.81C475.21 605.495 494.229 586.474 517.749 586.474C539.429 586.474 557.223 602.633 559.882 623.698C558.245 623.698 556.405 623.494 554.769 623.494C533.498 623.494 514.682 634.538 503.842 650.9L512.637 658.671C521.432 644.559 536.975 635.151 554.769 635.151C570.927 635.151 585.244 642.924 594.242 654.785L602.423 646.399C594.652 636.786 584.017 629.425 571.744 625.948C570.108 597.519 546.588 574.818 517.749 574.818C491.164 574.818 469.279 593.634 464.575 618.79C458.234 614.495 450.667 612.04 442.486 612.04C420.806 612.04 403.217 629.629 403.217 651.308C403.217 652.945 403.422 654.375 403.627 656.014L415.08 654.375C415.08 653.354 414.875 652.33 414.875 651.308C414.875 636.174 427.352 623.698 442.486 623.698C455.166 623.698 467.029 634.538 477.05 640.877M321.614 640.877L321.614 640.877C322.635 637.401 323.249 633.516 323.249 629.629L323.249 628.81C323.249 605.495 304.228 586.474 280.913 586.474C259.233 586.474 241.236 602.633 238.782 623.698C240.417 623.698 242.054 623.494 243.691 623.494C265.164 623.494 283.777 634.538 294.82 650.9L285.822 658.671C277.232 644.559 261.484 635.151 243.691 635.151C227.737 635.151 213.422 642.924 204.217 654.785L196.241 646.399C204.012 636.786 214.649 629.425 226.919 625.948C228.351 597.519 252.076 574.818 280.913 574.818C307.297 574.818 329.385 593.634 334.089 618.79C340.225 614.495 347.792 612.04 355.973 612.04C377.652 612.04 395.241 629.629 395.241 651.308C395.241 652.945 395.241 654.375 395.037 656.014L383.379 654.375C383.582 653.354 383.582 652.33 383.582 651.308C383.582 636.174 371.312 623.698 355.973 623.698C343.497 623.698 331.43 634.538 321.614 640.877" fill="#db781f" fill-rule="evenodd" opacity="1" stroke="none"/>
</g>
</g>
<g opacity="1">
<clipPath id="ClipPath_2">
<path d="M-272.97 313.145L394.339-354.163L1061.65 313.145L394.339 980.453L-272.97 313.145Z" fill-rule="evenodd"/>
</clipPath>
<g clip-path="url(#ClipPath_2)">
<path d="M291.078 207.982C301.52 197.539 313.166 189.011 325.574 182.399C326.678 175.657 328.088 168.993 329.808 162.412C311.341 170.424 294.357 181.935 279.695 196.598C249.073 227.22 232.203 267.933 232.204 311.243C232.203 354.553 249.073 395.267 279.695 425.889C299.397 445.591 323.272 459.597 349.331 467.084C348.338 461.029 347.668 455.157 347.326 449.492C326.757 442.531 307.444 430.871 291.078 414.505C234.138 357.566 234.138 264.921 291.078 207.982M460.789 163.262C462.492 169.895 463.88 176.607 464.957 183.402C476.674 189.864 487.68 198.06 497.602 207.982C554.541 264.922 554.541 357.566 497.602 414.505C481.643 430.464 462.877 441.952 442.877 448.967C442.427 454.689 441.63 460.626 440.491 466.747C466.105 459.181 489.572 445.302 508.985 425.889C539.607 395.267 556.472 354.549 556.477 311.243C556.472 267.938 539.607 227.22 508.985 196.598C494.83 182.443 478.517 171.226 460.789 163.262" fill="#ffffff" fill-rule="evenodd" opacity="1" stroke="none"/>
<path d="M414.064 385.244C410.454 386.294 405.931 386.957 401.167 387.229L391.174 387.229C386.167 386.942 381.413 386.219 377.702 385.054C375.99 384.516 374.039 384.988 372.974 386.209C327.199 438.714 382.525 544.784 393.489 560.812C404.867 544.977 463.304 439.777 418.759 386.479C417.724 385.241 415.791 384.741 414.064 385.244" fill="#ef233c" fill-rule="evenodd" opacity="1" stroke="none"/>
<path d="M463.14 351.899C461.047 332.242 457.406 310.667 448.125 293.063C454.521 271.775 457.994 251.853 459.172 233.299C461.297 200.381 456.209 171.761 447.491 147.301C444.443 138.766 440.944 130.728 437.144 123.206C426.954 102.958 414.613 86.398 403.115 73.4348C402.043 72.2187 400.754 71.3031 399.374 70.6622C398.05 70.0579 396.616 69.7346 395.188 69.6712C393.76 69.7343 392.326 70.0579 391.003 70.6618C389.623 71.3031 388.334 72.2183 387.262 73.4355C375.764 86.398 363.423 102.958 353.233 123.206C349.433 130.728 345.934 138.765 342.886 147.301C334.168 171.761 329.079 200.381 331.206 233.298C332.382 251.853 335.856 271.775 342.251 293.063C332.971 310.667 329.33 332.242 327.237 351.899C325.391 369.229 325.59 385.618 327.131 403.248C327.145 403.403 327.15 403.574 327.17 403.73L330.97 403.685L330.97 403.665C336.679 381.121 351.061 355.712 362.101 346.967L364.973 354.397C365.836 355.738 367.275 356.915 369.139 357.942L373.729 371.369C374.58 372.828 376.13 374.083 378.177 375.117C382.075 377.092 387.765 378.296 393.847 378.72L395.188 378.72L396.529 378.721C402.612 378.296 408.301 377.092 412.2 375.117C414.246 374.084 415.797 372.828 416.647 371.369L421.238 357.942C423.102 356.915 424.541 355.738 425.404 354.397L428.276 346.967C439.315 355.712 453.698 381.121 459.407 403.665L459.407 403.685L463.207 403.73C463.226 403.574 463.232 403.403 463.245 403.247C464.786 385.617 464.985 369.229 463.14 351.899" fill="#ffffff" fill-rule="evenodd" opacity="1" stroke="none"/>
<path d="M414.894 161.238C414.895 172.121 406.072 180.944 395.188 180.944C384.305 180.944 375.482 172.121 375.482 161.238C375.482 150.354 384.305 141.532 395.188 141.532C406.072 141.532 414.895 150.354 414.894 161.238" fill="#000000" fill-rule="evenodd" opacity="1" stroke="none"/>
</g>
</g>
</g>
</svg>
