<?xml version="1.0" encoding="UTF-8" standalone="no"?>
<!DOCTYPE svg PUBLIC "-//W3C//DTD SVG 1.1//EN" "http://www.w3.org/Graphics/SVG/1.1/DTD/svg11.dtd">
<svg width="100%" height="100%" viewBox="0 0 2560 440" version="1.1" xmlns="http://www.w3.org/2000/svg" xmlns:xlink="http://www.w3.org/1999/xlink" xml:space="preserve" xmlns:serif="http://www.serif.com/" style="fill-rule:evenodd;clip-rule:evenodd;stroke-linejoin:round;stroke-miterlimit:2;">
    <g transform="matrix(1,0,0,1,-354.356,-633.413)">
        <g transform="matrix(339,0,0,339,349.877,943.409)">
            <path d="M0.101,0.01C0.113,-0.015 0.129,-0.039 0.149,-0.061C0.169,-0.082 0.191,-0.101 0.216,-0.119C0.24,-0.136 0.266,-0.15 0.294,-0.161C0.321,-0.171 0.349,-0.179 0.376,-0.183C0.387,-0.185 0.402,-0.185 0.421,-0.184C0.44,-0.182 0.459,-0.181 0.478,-0.182C0.497,-0.183 0.513,-0.186 0.528,-0.192C0.543,-0.198 0.552,-0.209 0.555,-0.225C0.557,-0.234 0.556,-0.242 0.553,-0.249C0.549,-0.256 0.544,-0.262 0.538,-0.267C0.531,-0.272 0.524,-0.275 0.516,-0.278C0.508,-0.281 0.5,-0.282 0.493,-0.283C0.462,-0.285 0.431,-0.286 0.401,-0.285C0.371,-0.284 0.342,-0.286 0.315,-0.29C0.287,-0.294 0.26,-0.302 0.235,-0.315C0.21,-0.327 0.186,-0.347 0.163,-0.374C0.138,-0.405 0.122,-0.44 0.116,-0.477C0.109,-0.514 0.111,-0.551 0.121,-0.586C0.131,-0.621 0.148,-0.654 0.173,-0.683C0.198,-0.712 0.228,-0.734 0.265,-0.748C0.295,-0.759 0.326,-0.765 0.358,-0.765C0.39,-0.764 0.422,-0.764 0.454,-0.764L0.766,-0.764C0.752,-0.737 0.735,-0.713 0.715,-0.692C0.695,-0.671 0.673,-0.652 0.649,-0.637C0.624,-0.622 0.598,-0.609 0.571,-0.599C0.543,-0.589 0.515,-0.581 0.486,-0.576C0.475,-0.574 0.46,-0.573 0.441,-0.574C0.422,-0.575 0.404,-0.574 0.386,-0.573C0.367,-0.571 0.351,-0.567 0.337,-0.562C0.322,-0.556 0.313,-0.545 0.309,-0.53C0.307,-0.521 0.308,-0.514 0.311,-0.507C0.314,-0.5 0.319,-0.494 0.326,-0.489C0.332,-0.484 0.339,-0.48 0.347,-0.477C0.355,-0.474 0.362,-0.473 0.369,-0.472C0.4,-0.47 0.43,-0.47 0.46,-0.471C0.489,-0.472 0.518,-0.47 0.546,-0.467C0.574,-0.464 0.601,-0.456 0.627,-0.445C0.652,-0.434 0.676,-0.414 0.699,-0.387C0.724,-0.356 0.741,-0.322 0.748,-0.285C0.755,-0.247 0.755,-0.21 0.746,-0.174C0.737,-0.138 0.72,-0.105 0.696,-0.076C0.671,-0.046 0.64,-0.024 0.603,-0.009C0.592,-0.004 0.577,-0.001 0.559,0.002C0.54,0.004 0.52,0.006 0.499,0.007C0.478,0.008 0.455,0.009 0.432,0.01C0.408,0.01 0.385,0.01 0.363,0.01L0.101,0.01Z" style="fill:rgb(239,35,60);fill-rule:nonzero;"/>
        </g>
        <path d="M854.648,751.535L854.648,849.506C854.648,866.456 851.541,881.202 845.326,893.745C839.111,906.288 830.862,916.797 820.579,925.272C810.296,933.747 798.6,940.075 785.492,944.256C772.384,948.437 758.994,950.528 745.321,950.528C731.648,950.528 718.257,948.381 705.149,944.087C692.041,939.793 680.346,933.465 670.063,925.103C659.78,916.741 651.531,906.232 645.316,893.576C639.101,880.92 635.993,866.23 635.993,849.506L635.993,751.535L671.927,751.535L671.927,849.506C671.927,872.106 679.95,891.429 695.996,907.475C711.59,923.069 728.032,930.753 745.321,930.527C762.61,930.301 779.051,922.617 794.645,907.475C810.917,891.429 819.053,872.106 819.053,849.506L819.053,751.535L854.648,751.535Z" style="fill-rule:nonzero;stroke:black;stroke-width:19px;"/>
        <path d="M954.653,942.392L951.602,941.036L960.755,919.001C967.987,921.487 975.219,923.351 982.451,924.594C989.683,925.837 996.802,926.459 1003.81,926.459C1013.98,926.459 1023.47,924.99 1032.28,922.052C1041.1,919.114 1048.78,914.537 1055.34,908.322C1061.89,902.107 1067.03,894.141 1070.76,884.423C1074.49,874.705 1076.35,863.066 1076.35,849.506C1076.35,836.172 1074.26,824.533 1070.08,814.589C1065.9,804.645 1060.31,796.396 1053.3,789.842C1046.3,783.288 1038.39,778.372 1029.57,775.095C1020.76,771.818 1011.72,770.18 1002.45,770.18C993.186,770.18 984.146,771.818 975.332,775.095C966.518,778.372 958.665,783.231 951.772,789.672C944.879,796.113 939.342,804.136 935.161,813.741C930.98,823.346 928.889,834.477 928.889,847.133L928.889,1022.74L892.955,1022.74L892.955,849.506C892.955,834.59 895.837,820.86 901.6,808.317C907.363,795.774 915.16,784.983 924.991,775.943C934.822,766.903 946.291,759.84 959.399,754.755C972.507,749.67 986.293,747.128 1000.76,747.128C1014.09,747.128 1026.97,749.388 1039.4,753.908C1051.83,758.428 1062.91,764.982 1072.62,773.57C1082.34,782.158 1090.14,792.723 1096.02,805.266C1101.89,817.809 1104.83,832.217 1104.83,848.489C1104.83,864.535 1102.01,878.886 1096.36,891.542C1090.7,904.198 1083.08,914.933 1073.47,923.747C1063.87,932.561 1052.74,939.341 1040.08,944.087C1027.42,948.833 1014.2,951.206 1000.42,951.206C992.96,951.206 985.389,950.528 977.705,949.172C970.021,947.816 962.337,945.556 954.653,942.392Z" style="fill-rule:nonzero;stroke:black;stroke-width:19px;"/>
        <path d="M1188.9,838.997L1188.9,820.013L1314.33,820.013C1310.94,811.199 1306.82,803.628 1301.96,797.3C1297.1,790.972 1291.68,785.774 1285.69,781.706C1279.7,777.638 1273.31,774.643 1266.53,772.722C1259.75,770.801 1252.86,769.841 1245.85,769.841C1236.14,769.841 1226.53,771.705 1217.04,775.434C1207.55,779.163 1199.07,784.474 1191.61,791.367C1184.16,798.26 1178.17,806.622 1173.65,816.453C1169.13,826.284 1166.87,837.302 1166.87,849.506C1166.87,861.484 1168.96,872.388 1173.14,882.219C1177.32,892.05 1182.91,900.412 1189.92,907.305C1196.92,914.198 1205.06,919.509 1214.33,923.238C1223.59,926.967 1233.31,928.832 1243.48,928.832C1255.23,928.832 1267.04,926.12 1278.91,920.696C1290.77,915.272 1301.9,906.797 1312.3,895.271L1331.96,914.255L1329.59,916.628C1318.06,928.154 1304.9,936.742 1290.09,942.392C1275.29,948.042 1260.2,950.867 1244.84,950.867C1231.05,950.867 1217.72,948.663 1204.84,944.256C1191.95,939.849 1180.48,933.352 1170.43,924.764C1160.37,916.176 1152.29,905.61 1146.19,893.067C1140.09,880.524 1137.04,866.004 1137.04,849.506C1137.04,832.782 1140.14,818.092 1146.36,805.436C1152.57,792.78 1160.82,782.214 1171.11,773.739C1181.39,765.264 1193.03,758.88 1206.02,754.586C1219.02,750.292 1232.29,748.145 1245.85,748.145C1258.28,748.145 1270.49,749.953 1282.47,753.569C1294.44,757.185 1305.35,762.552 1315.18,769.671C1325.01,776.79 1333.43,785.774 1340.43,796.622C1347.44,807.47 1352.07,820.239 1354.33,834.929L1355.01,838.997L1188.9,838.997Z" style="fill-rule:nonzero;stroke:black;stroke-width:19px;"/>
        <path d="M1506.88,766.79L1503.49,766.79C1492.19,766.79 1481.57,768.937 1471.63,773.231C1461.68,777.525 1452.98,783.401 1445.53,790.859C1438.07,798.317 1432.19,807.074 1427.9,817.131C1423.6,827.188 1421.46,837.867 1421.46,849.167L1421.46,946.799L1385.86,946.799L1385.86,849.167C1385.86,820.465 1396.03,796.396 1416.37,776.96C1423.15,770.406 1430.04,765.208 1437.05,761.366C1444.06,757.524 1451.23,754.642 1458.58,752.721C1465.92,750.8 1473.55,749.557 1481.46,748.992C1489.37,748.427 1497.84,748.145 1506.88,748.145L1506.88,766.79Z" style="fill-rule:nonzero;stroke:black;stroke-width:19px;"/>
        <path d="M1795.71,946.799L1759.44,946.799L1759.44,818.996C1759.44,811.538 1758.31,804.758 1756.05,798.656C1753.79,792.554 1750.74,787.299 1746.9,782.892C1743.05,778.485 1738.65,775.095 1733.67,772.722C1728.7,770.349 1723.51,769.163 1718.08,769.163C1713.11,769.163 1708.65,770.01 1704.69,771.705C1700.74,773.4 1697.18,775.66 1694.01,778.485C1690.85,781.31 1687.97,784.531 1685.37,788.147C1682.77,791.763 1680.45,795.605 1678.42,799.673C1677.97,801.029 1677.63,802.159 1677.4,803.063L1677.06,803.402L1677.06,946.799L1640.79,946.799L1640.79,803.402C1640.56,802.95 1640.45,802.724 1640.45,802.724C1640,801.368 1639.55,800.351 1639.09,799.673C1638.64,798.543 1638.19,797.526 1637.74,796.622C1637.29,795.718 1636.95,795.153 1636.72,794.927C1632.2,785.887 1626.72,779.333 1620.28,775.265C1613.84,771.197 1607.23,769.163 1600.45,769.163C1595.02,769.163 1589.77,770.406 1584.68,772.892C1579.6,775.378 1575.02,778.824 1570.95,783.231C1566.89,787.638 1563.67,792.893 1561.29,798.995C1558.92,805.097 1557.73,811.764 1557.73,818.996L1557.73,946.799L1521.46,946.799L1521.46,816.284C1521.46,805.21 1523.78,795.435 1528.41,786.96C1533.04,778.485 1539.09,771.31 1546.55,765.434C1554.01,759.558 1562.54,755.094 1572.14,752.043C1581.75,748.992 1591.52,747.467 1601.47,747.467C1612.31,747.467 1622.77,749.275 1632.82,752.891C1642.88,756.507 1651.64,762.157 1659.1,769.841C1666.33,762.383 1674.91,756.846 1684.86,753.23C1694.8,749.614 1705.2,747.806 1716.05,747.806C1725.99,747.806 1735.71,749.331 1745.2,752.382C1754.69,755.433 1763.17,759.84 1770.63,765.603C1778.08,771.366 1784.13,778.485 1788.76,786.96C1793.4,795.435 1795.71,805.21 1795.71,816.284L1795.71,946.799Z" style="fill-rule:nonzero;stroke:black;stroke-width:19px;"/>
        <path d="M1827.24,849.167C1827.24,832.443 1830.35,817.753 1836.56,805.097C1842.78,792.441 1851.03,781.932 1861.31,773.57C1871.59,765.208 1883.29,758.936 1896.39,754.755C1909.5,750.574 1922.84,748.484 1936.4,748.484C1949.96,748.484 1963.29,750.574 1976.4,754.755C1989.51,758.936 2001.2,765.208 2011.49,773.57C2021.77,781.932 2030.02,792.441 2036.23,805.097C2042.45,817.753 2045.56,832.443 2045.56,849.167C2045.56,865.891 2042.39,880.581 2036.06,893.237C2029.74,905.893 2021.43,916.458 2011.15,924.933C2000.86,933.408 1989.17,939.736 1976.06,943.917C1962.95,948.098 1949.51,950.189 1935.72,950.189C1922.16,950.189 1908.88,948.098 1895.89,943.917C1882.89,939.736 1871.31,933.408 1861.14,924.933C1850.97,916.458 1842.78,905.949 1836.56,893.406C1830.35,880.863 1827.24,866.117 1827.24,849.167ZM1862.83,849.167C1862.83,862.275 1864.92,873.744 1869.11,883.575C1873.29,893.406 1878.88,901.655 1885.89,908.322C1892.89,914.989 1900.8,919.961 1909.62,923.238C1918.43,926.515 1927.36,928.154 1936.4,928.154C1945.66,928.154 1954.7,926.515 1963.52,923.238C1972.33,919.961 1980.18,914.989 1987.08,908.322C1993.97,901.655 1999.51,893.406 2003.69,883.575C2007.87,873.744 2009.96,862.275 2009.96,849.167C2009.96,836.059 2007.87,824.589 2003.69,814.758C1999.51,804.927 1993.91,796.678 1986.91,790.011C1979.9,783.344 1971.99,778.372 1963.18,775.095C1954.36,771.818 1945.32,770.18 1936.06,770.18C1927.02,770.18 1918.09,771.818 1909.28,775.095C1900.46,778.372 1892.61,783.344 1885.72,790.011C1878.82,796.678 1873.29,804.927 1869.11,814.758C1864.92,824.589 1862.83,836.059 1862.83,849.167Z" style="fill-rule:nonzero;stroke:black;stroke-width:19px;"/>
        <path d="M2220.14,781.028C2205.68,774.474 2191.66,771.197 2178.1,771.197C2168.16,771.197 2158.78,772.892 2149.97,776.282C2141.15,779.672 2133.47,784.644 2126.91,791.198C2120.36,797.752 2115.22,805.888 2111.49,815.606C2107.76,825.324 2105.9,836.511 2105.9,849.167C2105.9,862.501 2107.99,874.14 2112.17,884.084C2116.35,894.028 2121.94,902.277 2128.95,908.831C2135.95,915.385 2143.87,920.3 2152.68,923.577C2161.49,926.854 2170.42,928.493 2179.46,928.493C2188.73,928.493 2197.82,926.854 2206.75,923.577C2215.68,920.3 2223.64,915.441 2230.65,909C2237.66,902.559 2243.25,894.536 2247.43,884.931C2251.61,875.326 2253.7,864.196 2253.7,851.54L2253.7,676.955L2289.3,676.955L2289.3,849.167C2289.3,866.117 2286.19,880.92 2279.97,893.576C2273.76,906.232 2265.51,916.797 2255.23,925.272C2244.94,933.747 2233.25,940.075 2220.14,944.256C2207.03,948.437 2193.7,950.528 2180.14,950.528C2166.35,950.528 2152.91,948.437 2139.8,944.256C2126.69,940.075 2114.99,933.747 2104.71,925.272C2094.43,916.797 2086.12,906.232 2079.79,893.576C2073.47,880.92 2070.3,866.117 2070.3,849.167C2070.3,833.347 2073.47,819.109 2079.79,806.453C2086.12,793.797 2094.48,783.062 2104.88,774.248C2115.28,765.434 2127.2,758.654 2140.64,753.908C2154.09,749.162 2167.82,746.789 2181.83,746.789C2189.74,746.789 2197.54,747.523 2205.22,748.992C2212.91,750.461 2220.37,752.778 2227.6,755.942L2230.65,757.298L2220.14,781.028Z" style="fill-rule:nonzero;stroke:black;stroke-width:19px;"/>
        <path d="M2546.26,751.535L2546.26,849.506C2546.26,866.456 2543.15,881.202 2536.94,893.745C2530.72,906.288 2522.47,916.797 2512.19,925.272C2501.91,933.747 2490.21,940.075 2477.1,944.256C2463.99,948.437 2450.6,950.528 2436.93,950.528C2423.26,950.528 2409.87,948.381 2396.76,944.087C2383.65,939.793 2371.96,933.465 2361.67,925.103C2351.39,916.741 2343.14,906.232 2336.93,893.576C2330.71,880.92 2327.6,866.23 2327.6,849.506L2327.6,751.535L2363.54,751.535L2363.54,849.506C2363.54,872.106 2371.56,891.429 2387.61,907.475C2403.2,923.069 2419.64,930.753 2436.93,930.527C2454.22,930.301 2470.66,922.617 2486.26,907.475C2502.53,891.429 2510.66,872.106 2510.66,849.506L2510.66,751.535L2546.26,751.535Z" style="fill-rule:nonzero;stroke:black;stroke-width:19px;"/>
        <rect x="2591.35" y="676.955" width="36.612" height="269.844" style="fill-rule:nonzero;stroke:black;stroke-width:19px;"/>
        <path d="M2718.13,838.997L2718.13,820.013L2843.56,820.013C2840.17,811.199 2836.05,803.628 2831.19,797.3C2826.33,790.972 2820.91,785.774 2814.92,781.706C2808.93,777.638 2802.54,774.643 2795.76,772.722C2788.98,770.801 2782.09,769.841 2775.08,769.841C2765.37,769.841 2755.76,771.705 2746.27,775.434C2736.78,779.163 2728.3,784.474 2720.84,791.367C2713.39,798.26 2707.4,806.622 2702.88,816.453C2698.36,826.284 2696.1,837.302 2696.1,849.506C2696.1,861.484 2698.19,872.388 2702.37,882.219C2706.55,892.05 2712.14,900.412 2719.15,907.305C2726.15,914.198 2734.29,919.509 2743.56,923.238C2752.82,926.967 2762.54,928.832 2772.71,928.832C2784.46,928.832 2796.27,926.12 2808.14,920.696C2820,915.272 2831.13,906.797 2841.53,895.271L2861.19,914.255L2858.82,916.628C2847.29,928.154 2834.13,936.742 2819.32,942.392C2804.52,948.042 2789.43,950.867 2774.07,950.867C2760.28,950.867 2746.95,948.663 2734.06,944.256C2721.18,939.849 2709.71,933.352 2699.66,924.764C2689.6,916.176 2681.52,905.61 2675.42,893.067C2669.32,880.524 2666.26,866.004 2666.26,849.506C2666.26,832.782 2669.37,818.092 2675.59,805.436C2681.8,792.78 2690.05,782.214 2700.33,773.739C2710.62,765.264 2722.26,758.88 2735.25,754.586C2748.25,750.292 2761.52,748.145 2775.08,748.145C2787.51,748.145 2799.72,749.953 2811.7,753.569C2823.67,757.185 2834.58,762.552 2844.41,769.671C2854.24,776.79 2862.66,785.774 2869.66,796.622C2876.67,807.47 2881.3,820.239 2883.56,834.929L2884.24,838.997L2718.13,838.997Z" style="fill-rule:nonzero;stroke:black;stroke-width:19px;"/>
    </g>
</svg>
