<?xml version="1.0" encoding="UTF-8" standalone="no"?>
<!DOCTYPE svg PUBLIC "-//W3C//DTD SVG 1.1//EN" "http://www.w3.org/Graphics/SVG/1.1/DTD/svg11.dtd">
<!-- Created with Vectornator (http://vectornator.io/) -->
<svg height="100%" stroke-miterlimit="10" style="fill-rule:nonzero;clip-rule:evenodd;stroke-linecap:round;stroke-linejoin:round;" version="1.1" viewBox="0 0 500 80" width="100%" xml:space="preserve" xmlns="http://www.w3.org/2000/svg" xmlns:vectornator="http://vectornator.io" xmlns:xlink="http://www.w3.org/1999/xlink">
<defs>
<filter color-interpolation-filters="sRGB" filterUnits="userSpaceOnUse" height="77.3163" id="Filter" width="141.393" x="54.1818" y="1.22956">
<feDropShadow dx="-0" dy="0" flood-color="#f9f0f0" flood-opacity="1" in="SourceGraphic" result="Shadow" stdDeviation="0.5"/>
</filter>
<filter color-interpolation-filters="sRGB" filterUnits="userSpaceOnUse" height="6.39397" id="Filter_2" width="5.35204" x="190.858" y="3.72377">
<feDropShadow dx="-0" dy="0" flood-color="#f9f0f0" flood-opacity="1" in="SourceGraphic" result="Shadow" stdDeviation="0.5"/>
</filter>
<filter color-interpolation-filters="sRGB" filterUnits="userSpaceOnUse" height="6.39397" id="Filter_3" width="7.57138" x="193.839" y="3.72377">
<feDropShadow dx="-0" dy="0" flood-color="#f9f0f0" flood-opacity="1" in="SourceGraphic" result="Shadow" stdDeviation="0.5"/>
</filter>
<filter color-interpolation-filters="sRGB" filterUnits="userSpaceOnUse" height="30.6067" id="Filter_4" width="39.9019" x="205.898" y="23.2404">
<feDropShadow dx="-0" dy="0" flood-color="#f9f0f0" flood-opacity="1" in="SourceGraphic" result="Shadow" stdDeviation="0.5"/>
</filter>
<filter color-interpolation-filters="sRGB" filterUnits="userSpaceOnUse" height="30.6067" id="Filter_5" width="28.8685" x="248.997" y="23.2404">
<feDropShadow dx="-0" dy="0" flood-color="#f9f0f0" flood-opacity="1" in="SourceGraphic" result="Shadow" stdDeviation="0.5"/>
</filter>
<filter color-interpolation-filters="sRGB" filterUnits="userSpaceOnUse" height="30.6067" id="Filter_6" width="28.8547" x="280.711" y="23.2404">
<feDropShadow dx="-0" dy="0" flood-color="#f9f0f0" flood-opacity="1" in="SourceGraphic" result="Shadow" stdDeviation="0.5"/>
</filter>
<filter color-interpolation-filters="sRGB" filterUnits="userSpaceOnUse" height="730.331" id="Filter_7" width="734.818" x="-133.16" y="-313.975">
<feDropShadow dx="-0" dy="0" flood-color="#f9f0f0" flood-opacity="1" in="SourceGraphic" result="Shadow" stdDeviation="0.5"/>
</filter>
<path d="M-132.16-312.975L600.658-312.975L600.658 415.356L-132.16 415.356L-132.16-312.975Z" fill-rule="evenodd" id="Fill"/>
</defs>
<clipPath id="ArtboardFrame">
<rect height="80" width="500" x="0" y="0"/>
</clipPath>
<g clip-path="url(#ArtboardFrame)" id="Layer-1" vectornator:layerName="Layer 1">
<path d="M180.526 34.1466L168.759 34.1466L162.858 23.941L168.746 13.7383L180.537 13.7383L186.427 23.941L180.526 34.1466ZM175.415 43.0086L151.848 43.0086L161.337 26.5738L167.239 36.7808L179.005 36.7808L175.415 43.0086ZM156.997 11.1041L154.897 14.7285L151.106 21.3083L145.218 11.1041L133.413 11.1041L135.213 7.98392L137.015 4.86233L170.827 4.86233L169.027 7.98392L167.225 11.1041L156.997 11.1041ZM143.684 34.1466L131.903 34.1466L126.002 23.941L131.892 13.7383L143.697 13.7383L149.585 23.941L143.684 34.1466ZM132.684 53.2114L127.543 44.3229L131.903 36.7808L142.163 36.7808L132.684 53.2114ZM125.263 66.0511L113.471 66.0511L107.581 55.8455L113.471 45.6399L125.263 45.6399L129.916 53.6863L131.163 55.8455L125.263 66.0511ZM124.483 26.5752L129.624 35.4637L125.263 43.0086L114.992 43.0086L124.483 26.5752ZM120.154 11.1041L114.263 21.3083L108.361 11.1041L96.5823 11.1041L100.186 4.86233L133.973 4.86233L132.173 7.98392L130.371 11.1041L120.154 11.1041ZM112.743 23.9424L106.842 34.1466L95.0627 34.1466L89.1617 23.9424L95.0627 13.7383L106.842 13.7383L112.743 23.9424ZM95.8421 53.2114L92.6563 47.7042L90.7009 44.3229L95.0627 36.7808L105.323 36.7808L95.8421 53.2114ZM88.4327 66.0511L76.6279 66.0511L70.7409 55.8581L76.6419 45.6399L88.4215 45.6399L94.3211 55.8455L88.4327 66.0511ZM83.311 74.9117L59.7406 74.9117L69.2213 58.4936L75.1083 68.6839L86.9131 68.6839L83.311 74.9117ZM87.6421 26.5766L92.782 35.4637L88.4229 43.0086L78.1615 43.0086L87.6421 26.5766ZM173.868 4.86233L185.646 4.86233L191.537 15.0791L187.947 21.3083L182.059 11.1041L170.266 11.1041L172.066 7.98392L173.868 4.86233ZM110.429 66.0511L101.697 66.0511L106.062 58.4811L109.971 65.255L110.429 66.0511ZM189.466 23.9424L194.575 15.0819L187.167 2.22956L175.388 2.22956L172.348 2.22956L138.535 2.22956L135.494 2.22956L98.6648 2.22956L92.9174 12.1866L87.6394 21.3125L87.638 21.3097L86.2022 23.7986L86.1184 23.9424L74.9728 43.267L69.2199 53.2253L69.2185 53.224L55.1818 77.5459L84.832 77.5459L89.9537 68.6839L90.5515 67.6475L91.4761 66.0511L91.4747 66.0511L95.8435 58.4783L95.8449 58.4797L97.1857 56.1542L97.3631 55.8455L108.655 36.271L114.264 26.5724L114.267 26.5766L115.741 24.0193L115.785 23.9424L121.671 13.7383L128.851 13.7383L123.47 23.0611L110.429 45.6399L106.062 53.2114L106.062 53.21L97.127 68.6839L111.949 68.6839L114.991 68.6839L126.783 68.6839L132.684 58.4769L132.687 58.4797L133.888 56.3958L134.206 55.8455L134.206 55.8441L145.496 36.2724L151.106 26.5752L151.108 26.5766L152.295 24.5165L152.626 23.9439L152.626 23.9424L158.511 13.7383L165.706 13.7383L159.816 23.9439L147.283 45.6399L176.936 45.6399L182.539 35.9218L187.945 26.5752L187.947 26.5766L188.935 24.8643L189.468 23.9439L189.466 23.9424Z" fill="#0433bf" fill-rule="evenodd" filter="url(#Filter)" stroke="none" vectornator:shadowAngle="1.5708" vectornator:shadowColor="#f9f0f0" vectornator:shadowOffset="0" vectornator:shadowOpacity="1" vectornator:shadowRadius="1"/>
<path d="M191.987 4.72377L195.21 4.72377L195.082 5.41791L193.918 5.41791L193.262 9.11774L192.376 9.11774L193.029 5.41791L191.858 5.41791L191.987 4.72377Z" fill="#0433bf" fill-rule="evenodd" filter="url(#Filter_2)" stroke="none" vectornator:shadowAngle="1.5708" vectornator:shadowColor="#f9f0f0" vectornator:shadowOffset="0" vectornator:shadowOpacity="1" vectornator:shadowRadius="1"/>
<path d="M195.621 4.72377L196.622 4.72377L197.445 7.98363L199.409 4.72377L200.41 4.72377L199.638 9.11774L198.748 9.11774L199.251 6.27268L197.576 9.11774L196.904 9.11774L196.231 6.26571L195.724 9.11774L194.839 9.11774L195.621 4.72377Z" fill="#0433bf" fill-rule="evenodd" filter="url(#Filter_3)" stroke="none" vectornator:shadowAngle="1.5708" vectornator:shadowColor="#f9f0f0" vectornator:shadowOffset="0" vectornator:shadowOpacity="1" vectornator:shadowRadius="1"/>
<path d="M236.467 24.2404L225.95 44.9842L225.692 44.9842L215.597 24.2404L206.898 24.2404L206.898 52.8471L213.196 52.8471L213.196 32.8317L213.507 32.8317L222.884 52.8471L228.353 52.8471L238.082 32.8317L238.395 32.8317L238.395 52.8471L244.8 52.8471L244.8 24.2404L236.467 24.2404Z" fill="#0433bf" fill-rule="evenodd" filter="url(#Filter_4)" stroke="none" vectornator:shadowAngle="1.5708" vectornator:shadowColor="#f9f0f0" vectornator:shadowOffset="0" vectornator:shadowOpacity="1" vectornator:shadowRadius="1"/>
<path d="M256.511 46.8991L256.511 41.209L274.152 41.209L274.152 35.3672L256.511 35.3672L256.511 30.0822L276.134 30.0822L276.134 24.2404L249.997 24.2404L249.997 52.8471L276.865 52.8471L276.865 46.8991L256.511 46.8991Z" fill="#0433bf" fill-rule="evenodd" filter="url(#Filter_5)" stroke="none" vectornator:shadowAngle="1.5708" vectornator:shadowColor="#f9f0f0" vectornator:shadowOffset="0" vectornator:shadowOpacity="1" vectornator:shadowRadius="1"/>
<path d="M288.21 46.8991L288.21 41.209L305.865 41.209L305.865 35.3672L288.21 35.3672L288.21 30.0822L307.834 30.0822L307.834 24.2404L281.711 24.2404L281.711 52.8471L308.566 52.8471L308.566 46.8991L288.21 46.8991Z" fill="#0433bf" fill-rule="evenodd" filter="url(#Filter_6)" stroke="none" vectornator:shadowAngle="1.5708" vectornator:shadowColor="#f9f0f0" vectornator:shadowOffset="0" vectornator:shadowOpacity="1" vectornator:shadowRadius="1"/>
<g filter="url(#Filter_7)" vectornator:shadowAngle="1.5708" vectornator:shadowColor="#f9f0f0" vectornator:shadowOffset="0" vectornator:shadowOpacity="1" vectornator:shadowRadius="1">
<use fill="#0433bf" opacity="0" stroke="none" xlink:href="#Fill"/>
<clipPath id="ClipPath">
<use xlink:href="#Fill"/>
</clipPath>
<g clip-path="url(#ClipPath)">
<path d="M334.199 39.2395C333.182 40.1423 331.811 40.5884 330.115 40.5884L319.911 40.5884L319.911 30.1353L330.115 30.1353C331.811 30.1353 333.182 30.6209 334.199 31.592C335.231 32.5495 335.733 33.8438 335.733 35.4628C335.733 37.0939 335.231 38.3488 334.199 39.2395M342.246 35.4628C342.246 32.158 341.133 29.4616 338.895 27.3707C336.655 25.2798 333.82 24.2419 330.373 24.2419L313.41 24.2419L313.41 52.8471L319.911 52.8471L319.911 46.4818L330.645 46.4818L334.023 52.8471L341.106 52.8471L336.683 44.9857C340.388 42.9889 342.246 39.8191 342.246 35.4628" fill="#0433bf" fill-rule="evenodd" opacity="1" stroke="none"/>
<path d="M368.585 24.2404L358.014 24.2404L345.475 52.8471L352.451 52.8471L362.071 29.9866L364.324 29.9866L373.947 52.8471L380.826 52.8471L368.585 24.2404Z" fill="#0433bf" fill-rule="evenodd" opacity="1" stroke="none"/>
<path d="M408.36 24.2404L408.36 43.4866L391.125 24.2404L384.979 24.2404L384.979 52.8471L391.383 52.8471L391.383 33.5464L408.618 52.8471L414.818 52.8471L414.818 24.2404L408.36 24.2404Z" fill="#0433bf" fill-rule="evenodd" opacity="1" stroke="none"/>
<path d="M442.096 24.2404L431.523 24.2404L418.972 52.8471L425.907 52.8471L435.526 29.9866L437.821 29.9866L439.123 33.1959L439.218 33.4386L445.569 48.5045L445.583 48.5045L447.456 52.8471L454.322 52.8471L442.096 24.2404Z" fill="#0433bf" fill-rule="evenodd" opacity="1" stroke="none"/>
</g>
</g>
</g>
</svg>
