<?xml version="1.0" encoding="UTF-8" standalone="no"?>
<!DOCTYPE svg PUBLIC "-//W3C//DTD SVG 1.1//EN" "http://www.w3.org/Graphics/SVG/1.1/DTD/svg11.dtd">
<!-- Created with Vectornator (http://vectornator.io/) -->
<svg height="100%" stroke-miterlimit="10" style="fill-rule:nonzero;clip-rule:evenodd;stroke-linecap:round;stroke-linejoin:round;" version="1.1" viewBox="0 0 500 80" width="100%" xml:space="preserve" xmlns="http://www.w3.org/2000/svg" xmlns:vectornator="http://vectornator.io" xmlns:xlink="http://www.w3.org/1999/xlink">
<defs>
<path d="M-185.477-312.78L547.341-312.78L547.341 415.551L-185.477 415.551L-185.477-312.78Z" fill-rule="evenodd" id="Fill"/>
</defs>
<clipPath id="ArtboardFrame">
<rect height="80" width="500" x="0" y="0"/>
</clipPath>
<g clip-path="url(#ArtboardFrame)" id="Layer-1" vectornator:layerName="Layer 1">
<path d="M127.209 34.3419L115.442 34.3419L109.541 24.1363L115.429 13.9335L127.22 13.9335L133.11 24.1363L127.209 34.3419ZM122.098 43.2038L98.5306 43.2038L108.02 26.769L113.922 36.976L125.688 36.976L122.098 43.2038ZM103.68 11.2994L101.58 14.9238L97.789 21.5035L91.9006 11.2994L80.0958 11.2994L81.8961 8.17917L83.6978 5.05757L117.51 5.05757L115.71 8.17917L113.908 11.2994L103.68 11.2994ZM90.367 34.3419L78.586 34.3419L72.685 24.1363L78.5748 13.9335L90.3796 13.9335L96.268 24.1363L90.367 34.3419ZM79.3667 53.4066L74.2255 44.5181L78.586 36.976L88.846 36.976L79.3667 53.4066ZM71.9461 66.2464L60.1539 66.2464L54.2641 56.0408L60.1539 45.8352L71.9461 45.8352L76.5985 53.8815L77.8457 56.0408L71.9461 66.2464ZM71.1654 26.7704L76.3066 35.659L71.9461 43.2038L61.6749 43.2038L71.1654 26.7704ZM66.837 11.2994L60.9458 21.5035L55.0434 11.2994L43.2652 11.2994L46.8686 5.05757L80.6559 5.05757L78.8555 8.17917L77.0538 11.2994L66.837 11.2994ZM59.4262 24.1377L53.5252 34.3419L41.7456 34.3419L35.8446 24.1377L41.7456 13.9335L53.5252 13.9335L59.4262 24.1377ZM42.5249 53.4066L39.3391 47.8995L37.3837 44.5181L41.7456 36.976L52.0057 36.976L42.5249 53.4066ZM35.1155 66.2464L23.3107 66.2464L17.4237 56.0533L23.3247 45.8352L35.1043 45.8352L41.0039 56.0408L35.1155 66.2464ZM29.9939 75.1069L6.42341 75.1069L15.9041 58.6889L21.7911 68.8791L33.5959 68.8791L29.9939 75.1069ZM34.325 26.7718L39.4648 35.659L35.1057 43.2038L24.8443 43.2038L34.325 26.7718ZM120.551 5.05757L132.329 5.05757L138.22 15.2743L134.629 21.5035L128.742 11.2994L116.949 11.2994L118.749 8.17917L120.551 5.05757ZM57.1119 66.2464L48.3798 66.2464L52.7445 58.6763L56.6538 65.4502L57.1119 66.2464ZM136.149 24.1377L141.258 15.2771L133.85 2.42481L122.07 2.42481L119.031 2.42481L85.2174 2.42481L82.1768 2.42481L45.3476 2.42481L39.6003 12.3818L34.3222 21.5077L34.3208 21.5049L32.885 23.9938L32.8012 24.1377L21.6557 43.4622L15.9027 53.4206L15.9013 53.4192L1.86462 77.7411L31.5149 77.7411L36.6365 68.8791L37.2343 67.8428L38.1589 66.2464L38.1575 66.2464L42.5263 58.6735L42.5277 58.6749L43.8686 56.3495L44.0459 56.0408L55.3381 36.4662L60.9472 26.7676L60.95 26.7718L62.4235 24.2145L62.4682 24.1377L68.3538 13.9335L75.5342 13.9335L70.1528 23.2564L57.1119 45.8352L52.7445 53.4066L52.7445 53.4052L43.8099 68.8791L58.6315 68.8791L61.6735 68.8791L73.4657 68.8791L79.3667 58.6721L79.3695 58.6749L80.5707 56.5911L80.8891 56.0408L80.8891 56.0394L92.1785 36.4676L97.789 26.7704L97.7904 26.7718L98.9776 24.7117L99.3086 24.1391L99.3086 24.1377L105.194 13.9335L112.389 13.9335L106.499 24.1391L93.9663 45.8352L123.619 45.8352L129.221 36.1171L134.628 26.7704L134.629 26.7718L135.618 25.0595L136.15 24.1391L136.149 24.1377Z" fill="#16db65" fill-rule="evenodd" opacity="1" stroke="none"/>
<path d="M138.669 4.91901L141.893 4.91901L141.764 5.61316L140.601 5.61316L139.945 9.31298L139.059 9.31298L139.711 5.61316L138.541 5.61316L138.669 4.91901Z" fill="#16db65" fill-rule="evenodd" opacity="1" stroke="none"/>
<path d="M142.304 4.91901L143.305 4.91901L144.128 8.17888L146.091 4.91901L147.093 4.91901L146.32 9.31298L145.431 9.31298L145.934 6.46793L144.259 9.31298L143.587 9.31298L142.914 6.46096L142.407 9.31298L141.521 9.31298L142.304 4.91901Z" fill="#16db65" fill-rule="evenodd" opacity="1" stroke="none"/>
<path d="M183.15 24.4357L172.632 45.1794L172.374 45.1794L162.28 24.4357L153.581 24.4357L153.581 53.0424L159.878 53.0424L159.878 33.0269L160.19 33.0269L169.567 53.0424L175.036 53.0424L184.765 33.0269L185.078 33.0269L185.078 53.0424L191.483 53.0424L191.483 24.4357L183.15 24.4357Z" fill="#16db65" fill-rule="evenodd" opacity="1" stroke="none"/>
<path d="M203.194 47.0943L203.194 41.4042L220.835 41.4042L220.835 35.5624L203.194 35.5624L203.194 30.2775L222.817 30.2775L222.817 24.4357L196.68 24.4357L196.68 53.0424L223.548 53.0424L223.548 47.0943L203.194 47.0943Z" fill="#16db65" fill-rule="evenodd" opacity="1" stroke="none"/>
<path d="M234.893 47.0943L234.893 41.4042L252.548 41.4042L252.548 35.5624L234.893 35.5624L234.893 30.2775L254.517 30.2775L254.517 24.4357L228.394 24.4357L228.394 53.0424L255.249 53.0424L255.249 47.0943L234.893 47.0943Z" fill="#16db65" fill-rule="evenodd" opacity="1" stroke="none"/>
<g opacity="1">
<use fill="#16db65" opacity="0" stroke="none" xlink:href="#Fill"/>
<clipPath id="ClipPath">
<use xlink:href="#Fill"/>
</clipPath>
<g clip-path="url(#ClipPath)">
<path d="M280.882 39.4347C279.865 40.3375 278.494 40.7837 276.798 40.7837L266.593 40.7837L266.593 30.3306L276.798 30.3306C278.494 30.3306 279.865 30.8161 280.882 31.7873C281.914 32.7447 282.416 34.039 282.416 35.658C282.416 37.2892 281.914 38.544 280.882 39.4347M288.929 35.658C288.929 32.3532 287.816 29.6569 285.578 27.566C283.338 25.475 280.503 24.4372 277.056 24.4372L260.093 24.4372L260.093 53.0424L266.593 53.0424L266.593 46.6771L277.328 46.6771L280.706 53.0424L287.789 53.0424L283.366 45.1809C287.071 43.1841 288.929 40.0143 288.929 35.658" fill="#16db65" fill-rule="evenodd" opacity="1" stroke="none"/>
<path d="M315.268 24.4357L304.697 24.4357L292.158 53.0424L299.134 53.0424L308.753 30.1819L311.007 30.1819L320.63 53.0424L327.509 53.0424L315.268 24.4357Z" fill="#16db65" fill-rule="evenodd" opacity="1" stroke="none"/>
<path d="M355.043 24.4357L355.043 43.6818L337.808 24.4357L331.662 24.4357L331.662 53.0424L338.066 53.0424L338.066 33.7416L355.301 53.0424L361.501 53.0424L361.501 24.4357L355.043 24.4357Z" fill="#16db65" fill-rule="evenodd" opacity="1" stroke="none"/>
<path d="M388.779 24.4357L378.206 24.4357L365.655 53.0424L372.589 53.0424L382.209 30.1819L384.504 30.1819L385.806 33.3911L385.901 33.6339L392.252 48.6997L392.266 48.6997L394.139 53.0424L401.004 53.0424L388.779 24.4357Z" fill="#16db65" fill-rule="evenodd" opacity="1" stroke="none"/>
</g>
</g>
</g>
</svg>
