<?xml version="1.0" encoding="UTF-8" standalone="no"?>
<!DOCTYPE svg PUBLIC "-//W3C//DTD SVG 1.1//EN" "http://www.w3.org/Graphics/SVG/1.1/DTD/svg11.dtd">
<!-- Created with Vectornator (http://vectornator.io/) -->
<svg height="100%" stroke-miterlimit="10" style="fill-rule:nonzero;clip-rule:evenodd;stroke-linecap:round;stroke-linejoin:round;" version="1.1" viewBox="0 0 122 24" width="100%" xml:space="preserve" xmlns="http://www.w3.org/2000/svg" xmlns:vectornator="http://vectornator.io" xmlns:xlink="http://www.w3.org/1999/xlink">
<defs/>
<clipPath id="ArtboardFrame">
<rect height="24" width="122" x="0" y="0"/>
</clipPath>
<g clip-path="url(#ArtboardFrame)" id="Layer-1" vectornator:layerName="Layer 1">
<g opacity="1">
<clipPath id="ClipPath">
<path d="M-1.75201 5.30198L14.2591 5.30198L14.2591 5.30198L14.2591 23.6688L14.2591 23.6688L-1.75201 23.6688L-1.75201 23.6688L-1.75201 5.30198L-1.75201 5.30198Z" fill-rule="evenodd"/>
</clipPath>
<g clip-path="url(#ClipPath)">
<path d="M1.07 18.3481C1.27 17.9258 1.53668 17.5341 1.87003 17.173C2.20338 16.8119 2.57285 16.4896 2.97842 16.2063C3.384 15.923 3.81735 15.6896 4.27848 15.5063C4.73962 15.3229 5.19797 15.1979 5.65355 15.1312C5.84245 15.0979 6.09246 15.0951 6.40359 15.1229C6.71471 15.1507 7.02862 15.159 7.3453 15.1479C7.66198 15.1368 7.94255 15.0812 8.18701 14.9812C8.43146 14.8812 8.58147 14.6979 8.63703 14.4312C8.67037 14.2757 8.65648 14.1423 8.59536 14.0312C8.53425 13.9201 8.45091 13.8229 8.34535 13.7395C8.23979 13.6562 8.12034 13.5923 7.987 13.5478C7.85366 13.5034 7.72587 13.4756 7.60365 13.4645C7.0814 13.4312 6.57026 13.4201 6.07024 13.4312C5.57021 13.4423 5.08964 13.4145 4.6285 13.3478C4.16737 13.2812 3.72568 13.145 3.30344 12.9395C2.88119 12.7339 2.48117 12.4033 2.10338 11.9478C1.68114 11.4255 1.41723 10.8533 1.31167 10.231C1.20611 9.60876 1.23667 9.00317 1.40334 8.41426C1.57002 7.82534 1.85892 7.28642 2.27005 6.79751C2.68118 6.3086 3.19232 5.94746 3.80346 5.71412C4.30349 5.52522 4.82018 5.43355 5.35354 5.43911C5.8869 5.44466 6.42026 5.44744 6.95361 5.44744L12.1539 5.44744C11.9205 5.90302 11.6372 6.30582 11.3038 6.65584C10.9705 7.00585 10.601 7.30865 10.1954 7.56421C9.78986 7.81978 9.35651 8.0309 8.89538 8.19758C8.43424 8.36425 7.96477 8.49204 7.48697 8.58093C7.29808 8.61427 7.04806 8.62538 6.73694 8.61427C6.42581 8.60315 6.11746 8.61149 5.81189 8.63927C5.50632 8.66705 5.23409 8.72816 4.99519 8.82261C4.75629 8.91706 4.6035 9.09207 4.53683 9.34763C4.5035 9.49209 4.51461 9.62265 4.57017 9.73932C4.62572 9.85599 4.70628 9.956 4.81184 10.0393C4.9174 10.1227 5.03685 10.1866 5.17019 10.231C5.30353 10.2755 5.42576 10.3032 5.53688 10.3143C6.04802 10.3477 6.55082 10.356 7.04529 10.3393C7.53975 10.3227 8.02033 10.3421 8.48702 10.3977C8.95371 10.4532 9.40096 10.5755 9.82875 10.7644C10.2566 10.9533 10.6594 11.2755 11.0371 11.7311C11.4594 12.2422 11.7316 12.8117 11.8539 13.4395C11.9761 14.0673 11.9622 14.6812 11.8122 15.2813C11.6622 15.8813 11.3844 16.4285 10.9788 16.923C10.5732 17.4175 10.0593 17.7869 9.43707 18.0314C9.24817 18.1092 9.00094 18.1675 8.69537 18.2064C8.3898 18.2453 8.05922 18.2758 7.70365 18.2981C7.34808 18.3203 6.97306 18.3342 6.5786 18.3397C6.18413 18.3453 5.80356 18.3481 5.43687 18.3481L1.07 18.3481Z" fill="#ef233c" fill-rule="evenodd" opacity="1" stroke="none"/>
</g>
</g>
<g opacity="1">
<g opacity="1">
<clipPath id="ClipPath_2">
<path d="M11.8362 5.30231L122.2 5.30231L122.2 5.30231L122.2 23.6691L122.2 23.6691L11.8362 23.6691L11.8362 23.6691L11.8362 5.30231L11.8362 5.30231Z" fill-rule="evenodd"/>
</clipPath>
<g clip-path="url(#ClipPath_2)">
<path d="M24.8246 8.74793L24.8246 13.5648C24.8246 14.3982 24.6718 15.1232 24.3663 15.7399C24.0607 16.3566 23.6551 16.8733 23.1496 17.29C22.644 17.7067 22.0689 18.0178 21.4245 18.2234C20.78 18.429 20.1216 18.5317 19.4494 18.5317C18.7771 18.5317 18.1188 18.4262 17.4743 18.2151C16.8298 18.0039 16.2548 17.6928 15.7492 17.2817C15.2436 16.8706 14.838 16.3539 14.5325 15.7316C14.2269 15.1094 14.0741 14.3871 14.0741 13.5648L14.0741 8.74793L14.9075 8.74793L15.0075 8.74793L15.8409 8.74793L15.8409 13.5648C15.8409 14.676 16.2353 15.626 17.0243 16.415C17.791 17.1817 18.5993 17.5595 19.4494 17.5484C20.2994 17.5372 21.1078 17.1595 21.8745 16.415C22.6745 15.626 23.0745 14.676 23.0745 13.5648L23.0745 8.74793L23.9079 8.74793L23.9912 8.74793L24.8246 8.74793Z" fill="#000000" fill-rule="evenodd" opacity="1" stroke="none"/>
</g>
</g>
<g opacity="1">
<clipPath id="ClipPath_3">
<path d="M11.8362 5.30231L122.2 5.30231L122.2 5.30231L122.2 23.6691L122.2 23.6691L11.8362 23.6691L11.8362 23.6691L11.8362 5.30231L11.8362 5.30231Z" fill-rule="evenodd"/>
</clipPath>
<g clip-path="url(#ClipPath_3)">
<path d="M29.3582 18.1317L29.2082 18.0651L29.6582 16.9817C30.0138 17.1039 30.3693 17.1956 30.7249 17.2567C31.0805 17.3178 31.4305 17.3484 31.7749 17.3484C32.275 17.3484 32.7417 17.2761 33.175 17.1317C33.6084 16.9872 33.9862 16.7622 34.3084 16.4566C34.6306 16.1511 34.8834 15.7594 35.0668 15.2816C35.2501 14.8038 35.3418 14.2315 35.3418 13.5648C35.3418 12.9092 35.239 12.337 35.0334 11.8481C34.8279 11.3592 34.5529 10.9536 34.2084 10.6314C33.8639 10.3091 33.475 10.0674 33.0417 9.90632C32.6083 9.7452 32.1639 9.66464 31.7083 9.66464C31.2527 9.66464 30.8082 9.7452 30.3749 9.90632C29.9415 10.0674 29.5554 10.3063 29.2165 10.623C28.8776 10.9397 28.6053 11.3342 28.3998 11.8064C28.1942 12.2787 28.0914 12.8259 28.0914 13.4482L28.0914 22.0819L26.3247 22.0819L26.3247 13.5648C26.3247 12.8315 26.4664 12.1564 26.7497 11.5397C27.0331 10.923 27.4164 10.3925 27.8998 9.94799C28.3831 9.50353 28.947 9.15629 29.5915 8.90627C30.236 8.65626 30.9138 8.53126 31.6249 8.53126C32.2805 8.53126 32.9139 8.64237 33.525 8.86461C34.1362 9.08684 34.6806 9.40908 35.1584 9.83132C35.6362 10.2536 36.0196 10.773 36.3085 11.3897C36.5974 12.0064 36.7419 12.7148 36.7419 13.5148C36.7419 14.3038 36.603 15.0093 36.3252 15.6316C36.0474 16.2539 35.6724 16.7817 35.2001 17.215C34.7279 17.6484 34.1806 17.9817 33.5584 18.2151C32.9361 18.4484 32.2861 18.5651 31.6083 18.5651C31.2416 18.5651 30.8693 18.5317 30.4916 18.4651C30.1138 18.3984 29.736 18.2873 29.3582 18.1317Z" fill="#000000" fill-rule="evenodd" opacity="1" stroke="none"/>
</g>
</g>
<g opacity="1">
<clipPath id="ClipPath_4">
<path d="M11.8362 5.30231L122.2 5.30231L122.2 5.30231L122.2 23.6691L122.2 23.6691L11.8362 23.6691L11.8362 23.6691L11.8362 5.30231L11.8362 5.30231Z" fill-rule="evenodd"/>
</clipPath>
<g clip-path="url(#ClipPath_4)">
<path d="M40.492 13.0481L40.492 12.1148L46.659 12.1148C46.4923 11.6814 46.2895 11.3092 46.0506 10.998C45.8117 10.6869 45.5451 10.4313 45.2506 10.2313C44.9561 10.0313 44.6422 9.8841 44.3089 9.78965C43.9755 9.6952 43.6366 9.64798 43.2922 9.64798C42.8144 9.64798 42.3421 9.73965 41.8754 9.92299C41.4088 10.1063 40.9921 10.3675 40.6254 10.7064C40.2587 11.0453 39.9642 11.4564 39.742 11.9398C39.5198 12.4231 39.4087 12.9648 39.4087 13.5648C39.4087 14.1538 39.5114 14.6899 39.717 15.1732C39.9226 15.6566 40.1976 16.0677 40.542 16.4066C40.8865 16.7455 41.2865 17.0067 41.7421 17.19C42.1977 17.3734 42.6755 17.465 43.1755 17.465C43.7533 17.465 44.3339 17.3317 44.9173 17.065C45.5006 16.7983 46.0479 16.3816 46.559 15.8149L47.5257 16.7483L47.409 16.865C46.8423 17.4317 46.1951 17.8539 45.4673 18.1317C44.7395 18.4095 43.9978 18.5484 43.2422 18.5484C42.5644 18.5484 41.9088 18.4401 41.2754 18.2234C40.642 18.0067 40.0781 17.6873 39.5837 17.265C39.0892 16.8428 38.692 16.3233 38.3919 15.7066C38.0919 15.0899 37.9419 14.376 37.9419 13.5648C37.9419 12.7426 38.0947 12.0203 38.4003 11.3981C38.7058 10.7758 39.1114 10.2563 39.617 9.83965C40.1226 9.42297 40.6948 9.10906 41.3337 8.89794C41.9727 8.68682 42.6255 8.58126 43.2922 8.58126C43.9033 8.58126 44.5033 8.67015 45.0923 8.84794C45.6812 9.02572 46.2173 9.28963 46.7007 9.63964C47.184 9.98966 47.5979 10.4313 47.9424 10.9647C48.2869 11.4981 48.5147 12.1259 48.6258 12.8481L48.6591 13.0481L40.492 13.0481Z" fill="#000000" fill-rule="evenodd" opacity="1" stroke="none"/>
</g>
</g>
<g opacity="1">
<clipPath id="ClipPath_5">
<path d="M11.8362 5.30231L122.2 5.30231L122.2 5.30231L122.2 23.6691L122.2 23.6691L11.8362 23.6691L11.8362 23.6691L11.8362 5.30231L11.8362 5.30231Z" fill-rule="evenodd"/>
</clipPath>
<g clip-path="url(#ClipPath_5)">
<path d="M55.7428 9.49797L55.5761 9.49797C55.0205 9.49797 54.4983 9.60353 54.0094 9.81465C53.5205 10.0258 53.0927 10.3147 52.726 10.6814C52.3593 11.048 52.0704 11.4786 51.8593 11.9731C51.6481 12.4676 51.5426 12.9926 51.5426 13.5482L51.5426 18.3484L49.7925 18.3484L49.7925 13.5482C49.7925 12.137 50.2925 10.9536 51.2926 9.99799C51.6259 9.67576 51.9648 9.42019 52.3093 9.23129C52.6537 9.04239 53.0065 8.90072 53.3677 8.80627C53.7288 8.71182 54.1038 8.65071 54.4927 8.62293C54.8816 8.59515 55.2983 8.58126 55.7428 8.58126L55.7428 9.49797Z" fill="#000000" fill-rule="evenodd" opacity="1" stroke="none"/>
</g>
</g>
<g opacity="1">
<clipPath id="ClipPath_6">
<path d="M11.8362 5.30231L122.2 5.30231L122.2 5.30231L122.2 23.6691L122.2 23.6691L11.8362 23.6691L11.8362 23.6691L11.8362 5.30231L11.8362 5.30231Z" fill-rule="evenodd"/>
</clipPath>
<g clip-path="url(#ClipPath_6)">
<path d="M69.5601 18.3484L67.7767 18.3484L67.7767 12.0648C67.7767 11.6981 67.7211 11.3647 67.61 11.0647C67.4989 10.7647 67.3489 10.5064 67.16 10.2897C66.9711 10.073 66.7544 9.90632 66.51 9.78965C66.2655 9.67298 66.0099 9.61464 65.7433 9.61464C65.4988 9.61464 65.2794 9.65631 65.0849 9.73965C64.8905 9.82299 64.7154 9.9341 64.5599 10.073C64.4043 10.2119 64.2626 10.3702 64.1349 10.548C64.0071 10.7258 63.8932 10.9147 63.7932 11.1147C63.7709 11.1814 63.7543 11.2369 63.7432 11.2814L63.7265 11.2981L63.7265 11.3147L63.7265 18.3484L61.9431 18.3484L61.9431 11.2981C61.932 11.2758 61.9264 11.2647 61.9264 11.2647C61.9042 11.1981 61.882 11.1481 61.8597 11.1147C61.8375 11.0592 61.8153 11.0092 61.7931 10.9647C61.7709 10.9203 61.7542 10.8925 61.7431 10.8814C61.5208 10.4369 61.2514 10.1147 60.9347 9.91466C60.618 9.71465 60.293 9.61464 59.9597 9.61464C59.693 9.61464 59.4346 9.67576 59.1846 9.79798C58.9346 9.92021 58.7096 10.0897 58.5096 10.3063C58.3096 10.523 58.1512 10.7814 58.0346 11.0814C57.9179 11.3814 57.8596 11.7092 57.8596 12.0648L57.8596 18.3484L56.0761 18.3484L56.0761 11.9314C56.0761 11.387 56.19 10.9064 56.4178 10.4897C56.6456 10.073 56.9428 9.7202 57.3095 9.4313C57.6762 9.1424 58.0957 8.92294 58.5679 8.77293C59.0402 8.62293 59.5207 8.54792 60.0097 8.54792C60.543 8.54792 61.0569 8.63682 61.5514 8.8146C62.0459 8.99239 62.4764 9.27018 62.8431 9.64798C63.1987 9.28129 63.6209 9.00906 64.1099 8.83127C64.5988 8.65348 65.1099 8.56459 65.6433 8.56459C66.1322 8.56459 66.61 8.63959 67.0767 8.7896C67.5434 8.93961 67.96 9.15629 68.3267 9.43963C68.6934 9.72298 68.9906 10.073 69.2184 10.4897C69.4462 10.9064 69.5601 11.387 69.5601 11.9314L69.5601 18.3484Z" fill="#000000" fill-rule="evenodd" opacity="1" stroke="none"/>
</g>
</g>
<g opacity="1">
<clipPath id="ClipPath_7">
<path d="M11.8362 5.30231L122.2 5.30231L122.2 5.30231L122.2 23.6691L122.2 23.6691L11.8362 23.6691L11.8362 23.6691L11.8362 5.30231L11.8362 5.30231Z" fill-rule="evenodd"/>
</clipPath>
<g clip-path="url(#ClipPath_7)">
<path d="M70.7268 13.5482C70.7268 12.7259 70.8796 12.0036 71.1852 11.3814C71.4908 10.7591 71.8963 10.2425 72.4019 9.83132C72.9075 9.42019 73.4825 9.11184 74.127 8.90627C74.7715 8.70071 75.4271 8.59793 76.0938 8.59793C76.7605 8.59793 77.4161 8.70071 78.0605 8.90627C78.705 9.11184 79.28 9.42019 79.7856 9.83132C80.2912 10.2425 80.6968 10.7591 81.0023 11.3814C81.3079 12.0036 81.4607 12.7259 81.4607 13.5482C81.4607 14.3704 81.3051 15.0927 80.994 15.7149C80.6829 16.3372 80.2745 16.8567 79.7689 17.2733C79.2634 17.69 78.6883 18.0012 78.0439 18.2067C77.3994 18.4123 76.7383 18.5151 76.0604 18.5151C75.3937 18.5151 74.7409 18.4123 74.102 18.2067C73.4631 18.0012 72.8936 17.69 72.3936 17.2733C71.8936 16.8567 71.4908 16.34 71.1852 15.7233C70.8796 15.1066 70.7268 14.3815 70.7268 13.5482ZM72.4769 13.5482C72.4769 14.1926 72.5797 14.7566 72.7853 15.2399C72.9908 15.7233 73.2659 16.1288 73.6103 16.4566C73.9548 16.7844 74.3437 17.0289 74.777 17.19C75.2104 17.3511 75.6493 17.4317 76.0938 17.4317C76.5493 17.4317 76.9938 17.3511 77.4272 17.19C77.8605 17.0289 78.2467 16.7844 78.5856 16.4566C78.9245 16.1288 79.1967 15.7233 79.4023 15.2399C79.6078 14.7566 79.7106 14.1926 79.7106 13.5482C79.7106 12.9037 79.6078 12.3398 79.4023 11.8564C79.1967 11.3731 78.9217 10.9675 78.5772 10.6397C78.2328 10.3119 77.8439 10.0674 77.4105 9.90632C76.9771 9.7452 76.5327 9.66464 76.0771 9.66464C75.6326 9.66464 75.1937 9.7452 74.7604 9.90632C74.327 10.0674 73.9409 10.3119 73.602 10.6397C73.2631 10.9675 72.9908 11.3731 72.7853 11.8564C72.5797 12.3398 72.4769 12.9037 72.4769 13.5482Z" fill="#000000" fill-rule="evenodd" opacity="1" stroke="none"/>
</g>
</g>
<g opacity="1">
<clipPath id="ClipPath_8">
<path d="M11.8362 5.30231L122.2 5.30231L122.2 5.30231L122.2 23.6691L122.2 23.6691L11.8362 23.6691L11.8362 23.6691L11.8362 5.30231L11.8362 5.30231Z" fill-rule="evenodd"/>
</clipPath>
<g clip-path="url(#ClipPath_8)">
<path d="M89.6611 10.198C88.95 9.87577 88.261 9.71465 87.5943 9.71465C87.1054 9.71465 86.6443 9.79798 86.2109 9.96466C85.7776 10.1313 85.3998 10.3758 85.0775 10.698C84.7553 11.0203 84.5025 11.4203 84.3192 11.8981C84.1358 12.3759 84.0442 12.9259 84.0442 13.5482C84.0442 14.2038 84.1469 14.776 84.3525 15.2649C84.5581 15.7538 84.8331 16.1594 85.1776 16.4816C85.522 16.8039 85.9109 17.0456 86.3443 17.2067C86.7776 17.3678 87.2165 17.4484 87.661 17.4484C88.1166 17.4484 88.5638 17.3678 89.0027 17.2067C89.4416 17.0456 89.8333 16.8067 90.1778 16.49C90.5223 16.1733 90.7973 15.7788 91.0028 15.3066C91.2084 14.8343 91.3112 14.2871 91.3112 13.6648L91.3112 5.08109L93.0613 5.08109L93.0613 13.5482C93.0613 14.3815 92.9085 15.1094 92.6029 15.7316C92.2973 16.3539 91.8918 16.8733 91.3862 17.29C90.8806 17.7067 90.3056 18.0178 89.6611 18.2234C89.0166 18.429 88.361 18.5317 87.6943 18.5317C87.0165 18.5317 86.3554 18.429 85.7109 18.2234C85.0664 18.0178 84.4914 17.7067 83.9858 17.29C83.4802 16.8733 83.0719 16.3539 82.7608 15.7316C82.4496 15.1094 82.2941 14.3815 82.2941 13.5482C82.2941 12.7704 82.4496 12.0703 82.7608 11.4481C83.0719 10.8258 83.483 10.298 83.9942 9.86465C84.5053 9.4313 85.0914 9.09795 85.7526 8.86461C86.4137 8.63126 87.0888 8.51459 87.7777 8.51459C88.1666 8.51459 88.5499 8.5507 88.9277 8.62293C89.3055 8.69515 89.6722 8.80905 90.0278 8.96461L90.1778 9.03128L89.6611 10.198Z" fill="#000000" fill-rule="evenodd" opacity="1" stroke="none"/>
</g>
</g>
<g opacity="1">
<clipPath id="ClipPath_9">
<path d="M11.8362 5.30231L122.2 5.30231L122.2 5.30231L122.2 23.6691L122.2 23.6691L11.8362 23.6691L11.8362 23.6691L11.8362 5.30231L11.8362 5.30231Z" fill-rule="evenodd"/>
</clipPath>
<g clip-path="url(#ClipPath_9)">
<path d="M105.312 8.74793L105.312 13.5648C105.312 14.3982 105.159 15.1232 104.854 15.7399C104.548 16.3566 104.142 16.8733 103.637 17.29C103.131 17.7067 102.556 18.0178 101.912 18.2234C101.267 18.429 100.609 18.5317 99.9366 18.5317C99.2643 18.5317 98.606 18.4262 97.9615 18.2151C97.317 18.0039 96.742 17.6928 96.2364 17.2817C95.7308 16.8706 95.3253 16.3539 95.0197 15.7316C94.7141 15.1094 94.5613 14.3871 94.5613 13.5648L94.5613 8.74793L95.3947 8.74793L95.4947 8.74793L96.3281 8.74793L96.3281 13.5648C96.3281 14.676 96.7225 15.626 97.5115 16.415C98.2782 17.1817 99.0866 17.5595 99.9366 17.5484C100.787 17.5372 101.595 17.1595 102.362 16.415C103.162 15.626 103.562 14.676 103.562 13.5648L103.562 8.74793L104.395 8.74793L104.478 8.74793L105.312 8.74793Z" fill="#000000" fill-rule="evenodd" opacity="1" stroke="none"/>
</g>
</g>
<g opacity="1">
<clipPath id="ClipPath_10">
<path d="M11.8362 5.30231L122.2 5.30231L122.2 5.30231L122.2 23.6691L122.2 23.6691L11.8362 23.6691L11.8362 23.6691L11.8362 5.30231L11.8362 5.30231Z" fill-rule="evenodd"/>
</clipPath>
<g clip-path="url(#ClipPath_10)">
<path d="M108.945 18.3484L107.145 18.3484L107.145 5.08109L108.945 5.08109L108.945 18.3484Z" fill="#000000" fill-rule="evenodd" opacity="1" stroke="none"/>
</g>
</g>
<g opacity="1">
<clipPath id="ClipPath_11">
<path d="M11.8362 5.30231L122.2 5.30231L122.2 5.30231L122.2 23.6691L122.2 23.6691L11.8362 23.6691L11.8362 23.6691L11.8362 5.30231L11.8362 5.30231Z" fill-rule="evenodd"/>
</clipPath>
<g clip-path="url(#ClipPath_11)">
<path d="M112.996 13.0481L112.996 12.1148L119.163 12.1148C118.996 11.6814 118.793 11.3092 118.554 10.998C118.315 10.6869 118.049 10.4313 117.754 10.2313C117.46 10.0313 117.146 9.8841 116.812 9.78965C116.479 9.6952 116.14 9.64798 115.796 9.64798C115.318 9.64798 114.846 9.73965 114.379 9.92299C113.912 10.1063 113.496 10.3675 113.129 10.7064C112.762 11.0453 112.468 11.4564 112.246 11.9398C112.023 12.4231 111.912 12.9648 111.912 13.5648C111.912 14.1538 112.015 14.6899 112.221 15.1732C112.426 15.6566 112.701 16.0677 113.046 16.4066C113.39 16.7455 113.79 17.0067 114.246 17.19C114.701 17.3734 115.179 17.465 115.679 17.465C116.257 17.465 116.837 17.3317 117.421 17.065C118.004 16.7983 118.551 16.3816 119.063 15.8149L120.029 16.7483L119.913 16.865C119.346 17.4317 118.699 17.8539 117.971 18.1317C117.243 18.4095 116.501 18.5484 115.746 18.5484C115.068 18.5484 114.412 18.4401 113.779 18.2234C113.146 18.0067 112.582 17.6873 112.087 17.265C111.593 16.8428 111.195 16.3233 110.895 15.7066C110.595 15.0899 110.445 14.376 110.445 13.5648C110.445 12.7426 110.598 12.0203 110.904 11.3981C111.209 10.7758 111.615 10.2563 112.121 9.83965C112.626 9.42297 113.198 9.10906 113.837 8.89794C114.476 8.68682 115.129 8.58126 115.796 8.58126C116.407 8.58126 117.007 8.67015 117.596 8.84794C118.185 9.02572 118.721 9.28963 119.204 9.63964C119.688 9.98966 120.101 10.4313 120.446 10.9647C120.79 11.4981 121.018 12.1259 121.129 12.8481L121.163 13.0481L112.996 13.0481Z" fill="#000000" fill-rule="evenodd" opacity="1" stroke="none"/>
</g>
</g>
</g>
</g>
</svg>
